<svg xmlns="http://www.w3.org/2000/svg" width="32" height="32" viewBox="0 0 32 32" fill="none">
  <g clip-path="url(#clip0_189_14834)">
    <path d="M28.0975 1.59686C27.8773 1.58868 27.6577 1.62403 27.4513 1.70086C26.5943 2.01736 26.1433 2.95286 26.443 3.79011C26.743 4.62761 27.681 5.04986 28.538 4.73311V4.73261C29.3948 4.41586 29.8463 3.48086 29.546 2.64411C29.3208 2.01586 28.7368 1.62111 28.0978 1.59661L28.0975 1.59686ZM18.15 8.26436C17.5945 8.27055 17.0443 8.37264 16.5235 8.56611C14.0635 9.47511 12.7678 12.1604 13.6295 14.5641C14.4908 16.9679 17.1838 18.1794 19.643 17.2706C22.1033 16.3621 23.399 13.6761 22.5375 11.2726C21.865 9.3946 20.0743 8.24436 18.15 8.26436ZM5.186 16.1819C4.96576 16.1736 4.74606 16.209 4.5395 16.2859C3.68225 16.6026 3.23125 17.5381 3.53125 18.3751C3.8315 19.2126 4.76925 19.6346 5.626 19.3179C6.48325 19.0011 6.93375 18.0659 6.63375 17.2286C6.40875 16.6009 5.82525 16.2061 5.18625 16.1816L5.186 16.1819ZM23.1378 25.2794C22.8351 25.2681 22.5333 25.3167 22.2495 25.4224C21.072 25.8574 20.4518 27.1429 20.8638 28.2931C21.2763 29.4439 22.5653 30.0239 23.7423 29.5889H23.7428C24.9203 29.1539 25.5405 27.8681 25.1278 26.7179C24.8185 25.8549 24.0163 25.3129 23.1378 25.2794Z" fill="#FF7F0E"/>
    <path d="M28.1772 0.00190076C27.3126 -0.0272781 26.4704 0.280431 25.8282 0.860151C24.675 1.90015 24.4255 3.5699 25.1495 4.84515L23.2055 6.59565C21.8839 5.59175 20.2858 5.01804 18.6275 4.95215C17.5406 4.90951 16.4559 5.08224 15.436 5.4604C11.4402 6.9369 9.21749 11.1722 10.2617 15.1469L7.83924 16.0429C7.27574 15.1659 6.31299 14.6272 5.27574 14.5854C4.99809 14.5789 4.72073 14.6074 4.45024 14.6704L3.95549 13.2754C4.78399 12.7579 5.18499 11.7294 4.85199 10.7894L4.85249 10.7889C4.56474 9.9774 3.80899 9.46565 2.98674 9.42965C2.70447 9.41765 2.4226 9.4614 2.15724 9.5584C1.06074 9.9594 0.47174 11.1614 0.85549 12.2442C1.18799 13.1824 2.14574 13.7187 3.10874 13.5839L3.59999 14.9697C2.17499 15.7192 1.45874 17.4047 2.00674 18.9334C2.60424 20.5994 4.47999 21.4389 6.16699 20.8154C7.62774 20.2754 8.49724 18.8114 8.31699 17.3472L10.732 16.4549C12.3207 19.8827 16.1827 21.6742 19.9037 20.7757L20.9032 23.5644C19.8462 24.1276 19.0472 25.0769 18.6727 26.2147L17.3535 25.9999C17.3359 25.5257 17.1544 25.0724 16.8401 24.7169C16.5258 24.3615 16.0979 24.1261 15.6295 24.0507C14.4855 23.8639 13.3815 24.6307 13.1635 25.7659C12.9457 26.9009 13.7097 27.9872 14.854 28.1737C15.8472 28.3359 16.809 27.7792 17.188 26.8862L18.4795 27.0967C18.4035 27.7517 18.467 28.4294 18.7025 29.0867C19.536 31.4127 22.1545 32.5826 24.5102 31.7124C26.8655 30.8421 28.1235 28.2519 27.2895 25.9257C27.0364 25.2191 26.6038 24.5906 26.0342 24.1019L28.6817 19.4989L28.6692 19.4922C29.615 19.6892 30.618 19.2177 31.0532 18.3109C31.5617 17.2714 31.1062 16.0039 30.0527 15.5414H30.0517C29.7958 15.4268 29.5196 15.3645 29.2392 15.3584H29.2387C28.5767 15.3437 27.932 15.6434 27.5077 16.1694L25.8382 15.3677C26.399 13.7184 26.439 11.8929 25.814 10.1489C25.4676 9.18138 24.9316 8.2927 24.2375 7.5349L26.0857 5.87015C27.2997 6.71315 29.0032 6.6239 30.1605 5.57965C31.4955 4.37565 31.623 2.3254 30.4245 1.02315C29.825 0.371901 29.0092 0.0301508 28.177 0.00165076L28.1772 0.00190076ZM28.1435 0.865651C28.754 0.885651 29.3492 1.13715 29.7857 1.61115C30.6582 2.5594 30.5747 4.0374 29.579 4.9354C28.5837 5.83365 27.076 5.7779 26.203 4.8299C25.3305 3.88165 25.4135 2.40365 26.4097 1.50515C26.8829 1.07541 27.5046 0.846298 28.1435 0.866151V0.865651ZM18.5655 6.63815C21.071 6.72865 23.3397 8.2694 24.2182 10.7212C25.39 13.9902 23.6337 17.6529 20.254 18.9017V18.9022H20.2535C16.873 20.1509 13.2305 18.5004 12.059 15.2319C10.8877 11.9632 12.644 8.30015 16.024 7.05115C16.836 6.7486 17.6995 6.60828 18.5655 6.63815ZM2.96424 9.98965C3.56799 10.0129 4.11174 10.3857 4.32124 10.9764L4.32074 10.9769C4.60024 11.7649 4.17499 12.6459 3.35749 12.9447C2.53949 13.2442 1.66549 12.8442 1.38624 12.0562C1.10674 11.2679 1.53249 10.3869 2.35049 10.0879H2.35099C2.54703 10.0154 2.75537 9.98203 2.96424 9.98965ZM5.24424 15.4487C6.17499 15.4814 7.01424 16.0536 7.34024 16.9629C7.77499 18.1751 7.12424 19.5354 5.86574 20.0004C4.60724 20.4654 3.25874 19.8529 2.82424 18.6404C2.38924 17.4282 3.04049 16.0679 4.29874 15.6029C4.60085 15.4904 4.92204 15.438 5.24424 15.4487ZM29.2242 15.9212C29.4306 15.9257 29.634 15.9714 29.8225 16.0557L29.8245 16.0562C30.588 16.3899 30.9195 17.3039 30.547 18.0637L30.5462 18.0662C30.1745 18.8412 29.2427 19.1864 28.4695 18.8407L28.4675 18.8397C27.704 18.5059 27.3725 17.5914 27.745 16.8314L27.7457 16.8294C28.0247 16.2482 28.6182 15.9089 29.2237 15.9212H29.2242ZM25.4842 16.2537L27.0957 16.9742C26.8882 17.7792 27.1922 18.6397 27.8545 19.1297L25.2915 23.5854C24.6702 23.2398 23.9766 23.0446 23.2662 23.0154C23.1028 23.0162 22.9396 23.0259 22.7772 23.0444L21.7235 20.1049C23.3689 19.2731 24.6917 17.9183 25.4842 16.2537ZM23.2217 24.2212C24.521 24.2669 25.6942 25.0649 26.149 26.3344C26.756 28.0269 25.8475 29.9269 24.0902 30.5762C22.3327 31.2254 20.4497 30.3701 19.8432 28.6777C19.2362 26.9846 20.1447 25.0852 21.9022 24.4364C22.3238 24.2793 22.7721 24.2062 23.2217 24.2212ZM15.2245 24.5874C15.3282 24.5831 15.4328 24.5894 15.5385 24.6064H15.539C16.3837 24.7447 16.9265 25.5179 16.7662 26.3524C16.6057 27.1877 15.7892 27.7562 14.9442 27.6182C14.0992 27.4802 13.5562 26.7066 13.7167 25.8719C13.8572 25.1412 14.5 24.6154 15.2245 24.5874Z" fill="#2C7FB8"/>
  </g>
  <defs>
    <clipPath id="clip0_189_14834">
      <rect width="32" height="32" fill="white"/>
    </clipPath>
  </defs>
</svg>