<svg xmlns="http://www.w3.org/2000/svg" width="122" height="40" viewBox="0 0 122 40" fill="none">
  <path d="M71.893 31.1447C64.2711 36.7546 53.2348 39.7496 43.7255 39.7496C31.0219 39.813 18.752 35.1318 9.31904 26.6227C8.61124 25.9804 9.2535 25.1022 10.1055 25.6003C19.9031 31.302 32.0142 34.7295 44.5251 34.7295C52.9661 34.7295 62.2461 32.9862 70.7854 29.3621C72.0699 28.8116 73.1513 30.2075 71.893 31.1447Z" fill="black"/>
  <path d="M78.3761 25.2679C79.278 26.4103 77.384 31.1301 76.5423 33.2345C76.2898 33.8718 76.8369 34.1303 77.4141 33.6493C81.1659 30.5108 82.1279 23.9452 81.3643 22.9952C80.6007 22.0452 74.0471 21.2396 70.0548 24.0534C69.4355 24.4803 69.5378 25.0755 70.2232 24.9974C72.4779 24.7268 77.4862 24.1256 78.3761 25.2679ZM70.3795 4.21223V1.47654C70.3795 1.06168 70.6982 0.785109 71.0709 0.785109H83.3063C83.6971 0.785109 84.0098 1.06769 84.0098 1.47654V3.82141C84.0098 4.21222 83.6791 4.72328 83.0899 5.53497L76.7527 14.5837C79.1096 14.5236 81.5928 14.8784 83.7272 16.0809C84.2082 16.3514 84.3405 16.7482 84.3826 17.1451V20.0611C84.3826 20.4579 83.9376 20.9209 83.4807 20.6804C81.481 19.6508 79.2635 19.1157 77.0143 19.1199C74.7651 19.1241 72.5497 19.6674 70.5539 20.7044C70.133 20.9329 69.6881 20.47 69.6881 20.0731V17.3074C69.6881 16.8625 69.6881 16.1049 70.139 15.4255L77.4742 4.90366H71.083C70.6921 4.90366 70.3735 4.62107 70.3735 4.21823M25.7609 21.2576H22.0332C21.867 21.245 21.7103 21.1752 21.5897 21.0601C21.4691 20.945 21.3921 20.7917 21.3718 20.6263V1.52464C21.3718 1.13985 21.6904 0.83922 22.0933 0.83922H25.5625C25.9232 0.851245 26.2118 1.13383 26.2359 1.47654V3.97172H26.302C27.2039 1.56072 28.9114 0.436388 31.2022 0.436388C33.535 0.436388 34.99 1.56072 36.0362 3.97172C36.4079 2.91372 37.1061 2.00116 38.03 1.36573C38.954 0.730304 40.056 0.404867 41.1769 0.436388C42.0079 0.421586 42.8307 0.602763 43.5786 0.965235C44.3265 1.32771 44.9785 1.86128 45.4818 2.52272C46.6603 4.12805 46.4198 6.4669 46.4198 8.51114V20.5662C46.4182 20.6591 46.3983 20.7507 46.3611 20.8359C46.3239 20.921 46.2702 20.998 46.2031 21.0623C46.1361 21.1266 46.0569 21.1769 45.9702 21.2104C45.8836 21.244 45.7912 21.26 45.6983 21.2576H41.9826C41.8047 21.2459 41.6376 21.1687 41.5132 21.0411C41.3889 20.9134 41.3162 20.7442 41.3092 20.5662V10.4411C41.3092 9.63548 41.3813 7.62731 41.207 6.86373C40.9304 5.58307 40.0946 5.22232 39.0184 5.22232C38.1165 5.22232 37.1786 5.82357 36.7938 6.78556C36.409 7.74756 36.4511 9.3589 36.4511 10.4411V20.5662C36.4495 20.6591 36.4296 20.7507 36.3924 20.8359C36.3552 20.921 36.3015 20.998 36.2344 21.0623C36.1674 21.1266 36.0882 21.1769 36.0016 21.2104C35.9149 21.244 35.8225 21.26 35.7296 21.2576H32.0199C31.8417 21.2485 31.6736 21.172 31.5497 21.0436C31.4258 20.9152 31.3553 20.7446 31.3525 20.5662L31.3465 10.4411C31.3465 8.31273 31.6952 5.18023 29.0557 5.18023C26.3802 5.18023 26.4824 8.23457 26.4824 10.4411V20.5662C26.4808 20.6591 26.4609 20.7507 26.4237 20.8359C26.3865 20.921 26.3328 20.998 26.2658 21.0623C26.1987 21.1266 26.1195 21.1769 26.0329 21.2104C25.9462 21.244 25.8538 21.26 25.7609 21.2576ZM94.5497 0.436388C100.069 0.436388 103.057 5.18023 103.057 11.2107C103.057 17.0308 99.7505 21.6544 94.5436 21.6544C89.1204 21.6544 86.1683 16.9106 86.1683 11.0063C86.1683 5.05397 89.1625 0.436388 94.5497 0.436388ZM94.5677 4.33247C91.826 4.33247 91.6516 8.07224 91.6516 10.4051C91.6516 12.7379 91.6156 17.7223 94.5376 17.7223C97.4236 17.7223 97.5559 13.6939 97.5559 11.2468C97.5559 9.63548 97.4958 7.71148 97.0028 6.18431C96.5819 4.85556 95.7522 4.33247 94.5677 4.33247ZM110.218 21.2576H106.508C106.332 21.2444 106.166 21.1667 106.043 21.0392C105.92 20.9116 105.848 20.7433 105.841 20.5662L105.835 1.45851C105.856 1.28373 105.942 1.12317 106.075 1.00852C106.209 0.893863 106.381 0.833453 106.557 0.83922H110.002C110.154 0.846823 110.301 0.90275 110.42 0.998928C110.539 1.09511 110.624 1.22657 110.663 1.37434V4.29039H110.735C111.775 1.68097 113.236 0.436388 115.81 0.436388C117.475 0.436388 119.105 1.03763 120.151 2.68505C121.125 4.21222 121.125 6.78556 121.125 8.6374V20.6564C121.096 20.8262 121.008 20.9802 120.875 21.0904C120.743 21.2007 120.576 21.26 120.403 21.2576H116.676C116.514 21.2463 116.361 21.1808 116.241 21.0717C116.121 20.9626 116.041 20.8163 116.014 20.6564V10.2788C116.014 8.19249 116.255 5.13814 113.687 5.13814C112.786 5.13814 111.944 5.7394 111.535 6.66532C111.012 7.83174 110.946 8.99214 110.946 10.2788V20.5662C110.938 20.7533 110.858 20.9301 110.722 21.0591C110.586 21.1881 110.405 21.2593 110.218 21.2576ZM60.6333 12.1367V11.331C57.9337 11.331 55.0958 11.9022 55.0958 15.0768C55.0958 16.6821 55.9315 17.7704 57.3625 17.7704C58.4026 17.7704 59.3466 17.127 59.9358 16.0809C60.6693 14.7942 60.6333 13.5857 60.6333 12.1367ZM64.3851 21.2035C64.2648 21.3052 64.1167 21.3682 63.9601 21.3843C63.8035 21.4004 63.6456 21.3688 63.5072 21.2937C62.2687 20.2716 62.0462 19.7906 61.3668 18.8105C59.3225 20.8969 57.8796 21.5161 55.2341 21.5161C52.1016 21.5161 49.6665 19.5921 49.6665 15.7201C49.6665 12.7018 51.2959 10.6396 53.6347 9.63548C55.6549 8.74563 58.4748 8.58931 60.6333 8.34279V7.8618C60.6333 6.97796 60.6934 5.93179 60.1763 5.16821C59.7254 4.48278 58.8536 4.2002 58.084 4.2002C56.671 4.2002 55.4084 4.9217 55.0958 6.43083C55.0356 6.76753 54.7891 7.09821 54.4464 7.11625L50.8389 6.72544C50.5383 6.6593 50.1956 6.41279 50.2858 5.94381C51.1155 1.57274 55.0717 0.25 58.6131 0.25C60.4168 0.25 62.7857 0.730998 64.2167 2.10786C66.0265 3.79135 65.8521 6.05204 65.8521 8.50513V14.3072C65.8521 16.0508 66.5736 16.8144 67.259 17.7583C67.4935 18.089 67.5476 18.4919 67.241 18.7444C66.4834 19.3817 65.1366 20.5541 64.3911 21.2155L64.3851 21.2035ZM11.842 12.1367V11.331C9.14841 11.331 6.31052 11.9022 6.31052 15.0768C6.31052 16.6821 7.14025 17.7704 8.57122 17.7704C9.61739 17.7704 10.5553 17.127 11.1446 16.0809C11.8781 14.7942 11.842 13.5857 11.842 12.1367ZM15.5938 21.2035C15.4736 21.3052 15.3255 21.3682 15.1688 21.3843C15.0122 21.4004 14.8543 21.3688 14.716 21.2937C13.4774 20.2716 13.261 19.7906 12.5815 18.8105C10.5373 20.8969 9.0943 21.5161 6.44881 21.5161C3.31631 21.5161 0.875244 19.5921 0.875244 15.7201C0.875244 12.7018 2.51064 10.6396 4.84348 9.63548C6.86367 8.74563 9.68352 8.58931 11.842 8.34279V7.8618C11.842 6.97796 11.9081 5.93179 11.3911 5.16821C10.9341 4.48278 10.0683 4.2002 9.30474 4.2002C7.88579 4.2002 6.61716 4.9217 6.31052 6.43083C6.2504 6.76753 5.99788 7.09821 5.66719 7.11625L2.05369 6.72544C1.75307 6.6593 1.41637 6.41279 1.50054 5.94381C2.33026 1.57274 6.28046 0.25 9.82181 0.25C11.6316 0.25 14.0005 0.730998 15.4254 2.10786C17.2352 3.79135 17.0668 6.05204 17.0668 8.50513V14.3072C17.0668 16.0508 17.7883 16.8144 18.4678 17.7583C18.7083 18.089 18.7624 18.4919 18.4557 18.7444C17.6982 19.3817 16.3514 20.5541 15.6058 21.2155L15.5938 21.2035Z" fill="black"/>
</svg>