<svg xmlns="http://www.w3.org/2000/svg" width="32" height="33" viewBox="0 0 32 33" fill="none">
  <g clip-path="url(#clip0_266_24128)">
    <path d="M24.485 7.66348L29.1789 3.01442C29.3782 2.81704 29.7078 2.84948 29.8648 3.08192L30.9476 4.68498C31.0968 4.90579 31.0212 5.20717 30.7855 5.33148L25.0088 8.37748C24.9113 8.42895 24.7981 8.44258 24.6912 8.41575C24.5842 8.38892 24.4909 8.32352 24.4291 8.23211C24.3707 8.14567 24.3443 8.04154 24.3545 7.93772C24.3647 7.83389 24.4109 7.73689 24.485 7.66348ZM25.2613 11.6559C25.2788 11.7419 25.3276 11.8184 25.3981 11.8706C25.4686 11.9229 25.5559 11.9473 25.6433 11.9391L30.8172 11.4561C30.867 11.4514 30.9153 11.4363 30.9589 11.4118C31.0025 11.3872 31.0404 11.3537 31.0702 11.3135C31.1 11.2734 31.121 11.2273 31.1318 11.1785C31.1426 11.1296 31.143 11.0791 31.133 11.03L30.8243 9.52198C30.7796 9.30336 30.5471 9.17923 30.3405 9.26379L25.4753 11.2548C25.3985 11.2862 25.3351 11.3435 25.296 11.4168C25.2569 11.49 25.2446 11.5746 25.2613 11.6559ZM21.3982 6.16567C21.4715 6.214 21.56 6.23359 21.6468 6.2207C21.7336 6.20781 21.8125 6.16333 21.8686 6.09579L25.1855 2.09579C25.2175 2.05727 25.2409 2.01245 25.2544 1.96426C25.2678 1.91607 25.271 1.86558 25.2636 1.81609C25.2563 1.76659 25.2386 1.7192 25.2117 1.677C25.1848 1.63481 25.1493 1.59874 25.1076 1.57117L23.823 0.723106C23.6368 0.600168 23.3846 0.676793 23.2983 0.882668L21.266 5.73073C21.2339 5.80728 21.2295 5.89263 21.2537 5.97204C21.2778 6.05144 21.3289 6.11993 21.3982 6.16567Z" fill="#FFD469"/>
    <path d="M13.6502 30.4034L12.6509 30.9877C11.8387 31.4627 10.7952 31.1894 10.3202 30.3771L7.6708 25.8467C7.1958 25.0344 7.46918 23.9909 8.28143 23.5159L9.28068 22.9315C10.0929 22.4565 11.1364 22.7299 11.6114 23.5422L14.2608 28.0726C14.7359 28.8849 14.4624 29.9284 13.6502 30.4034Z" fill="#00B1FF"/>
    <path d="M7.52518 25.9575L17.2071 20.6862L10.5885 10.3232L1.83655 16.8253C1.78012 16.8614 -0.585384 19.0257 2.01243 23.0933C4.61024 27.1609 7.52518 25.9575 7.52518 25.9575Z" fill="#0096D1"/>
    <path d="M22.658 9.92815C25.5539 14.4624 27.3084 19.3745 26.0969 20.1483C24.8853 20.922 21.1665 17.2645 18.2706 12.7302C15.3747 8.19591 13.6202 3.28391 14.8317 2.51009C16.0432 1.73628 19.762 5.39384 22.658 9.92815Z" fill="#727272"/>
    <path d="M21.2951 16.2206C22.2988 15.5796 22.0112 13.3358 20.6528 11.209C19.2944 9.08228 17.3796 7.87788 16.3759 8.51894C15.3722 9.16 15.6598 11.4038 17.0182 13.5305C18.3766 15.6573 20.2914 16.8617 21.2951 16.2206Z" fill="#B2B2B2"/>
    <path d="M26.044 20.1822C24.9857 20.8581 21.3912 17.1212 18.4953 12.5869C15.5993 8.05258 13.7206 3.21989 14.7788 2.54402C14.8398 2.50508 14.9081 2.47939 14.9828 2.4652C14.4836 2.45377 13.9945 2.71414 13.705 3.26764C12.4295 5.70689 9.17433 11.1188 9.17433 11.1188C9.17433 11.1188 7.55902 13.2938 10.3986 17.7397C13.2381 22.1856 15.9796 21.6293 15.9796 21.6293C15.9796 21.6293 22.2073 20.9931 24.9436 20.8624C25.5914 20.8315 26.0426 20.4718 26.23 19.9865C26.1803 20.0684 26.1187 20.1345 26.044 20.1822Z" fill="#D1D1D1"/>
    <path d="M3.30503 19.6749C3.15703 19.6751 3.01136 19.638 2.88154 19.5669C2.75171 19.4958 2.64192 19.3931 2.56234 19.2683C2.30066 18.8586 2.42066 18.3143 2.83041 18.0527L6.44984 15.741C6.85953 15.4794 7.40384 15.5993 7.66553 16.0091C7.92722 16.4188 7.80722 16.9631 7.39747 17.2248L3.77803 19.5364C3.63689 19.6269 3.47271 19.675 3.30503 19.6749Z" fill="#00B1FF"/>
  </g>
  <defs>
    <clipPath id="clip0_266_24128">
      <rect width="32" height="32" fill="white" transform="translate(0 0.414062)"/>
    </clipPath>
  </defs>
</svg>