<svg width="20" height="25" viewBox="0 0 20 25" fill="none" xmlns="http://www.w3.org/2000/svg">
<path d="M16.7045 13.263C16.7166 12.3431 16.9669 11.4411 17.4321 10.641C17.8972 9.84093 18.5621 9.16869 19.3648 8.68687C18.8548 7.97582 18.1821 7.39066 17.4 6.97785C16.6178 6.56505 15.7479 6.33597 14.8592 6.30883C12.9635 6.11456 11.1258 7.41628 10.1598 7.41628C9.17506 7.41628 7.68776 6.32812 6.08616 6.36028C5.05021 6.39296 4.04059 6.68707 3.15568 7.21395C2.27077 7.74083 1.54075 8.48252 1.03674 9.36675C-1.14648 13.0571 0.482005 18.4808 2.57338 21.4639C3.61975 22.9246 4.84264 24.5562 6.44279 24.4984C8.00863 24.4349 8.59344 23.5235 10.4835 23.5235C12.3561 23.5235 12.9048 24.4984 14.5374 24.4616C16.2176 24.4349 17.2762 22.9944 18.2859 21.5198C19.0377 20.479 19.6162 19.3287 20 18.1115C19.0238 17.7084 18.1908 17.0337 17.6048 16.1715C17.0187 15.3093 16.7056 14.2977 16.7045 13.263Z" fill="white"/>
<path d="M13.6208 4.34713C14.5369 3.27343 14.9883 1.89335 14.879 0.5C13.4793 0.643519 12.1865 1.2966 11.258 2.32911C10.804 2.83351 10.4563 3.42033 10.2348 4.05601C10.0132 4.69168 9.92219 5.36375 9.96686 6.0338C10.6669 6.04084 11.3595 5.8927 11.9924 5.60054C12.6253 5.30838 13.1821 4.87982 13.6208 4.34713Z" fill="white"/>
</svg>
