<svg xmlns="http://www.w3.org/2000/svg" width="32" height="32" viewBox="0 0 32 32" fill="none">
  <path opacity="0.15" d="M0.886719 28.7405C0.886719 28.9059 1.27764 29.0698 2.03715 29.2226C2.79667 29.3755 3.90991 29.5144 5.31331 29.6314C6.71671 29.7484 8.3828 29.8412 10.2164 29.9046C12.0501 29.9679 14.0153 30.0005 16.0001 30.0005C17.9848 30.0005 19.95 29.9679 21.7837 29.9046C23.6173 29.8412 25.2834 29.7484 26.6868 29.6314C28.0902 29.5144 29.2034 29.3755 29.9629 29.2226C30.7225 29.0698 31.1134 28.9059 31.1134 28.7405C31.1134 28.575 30.7225 28.4112 29.9629 28.2583C29.2034 28.1054 28.0902 27.9665 26.6868 27.8495C25.2834 27.7325 23.6173 27.6397 21.7837 27.5764C19.95 27.5131 17.9848 27.4805 16.0001 27.4805C14.0153 27.4805 12.0501 27.5131 10.2164 27.5764C8.3828 27.6397 6.71671 27.7325 5.31331 27.8495C3.90991 27.9665 2.79667 28.1054 2.03715 28.2583C1.27764 28.4112 0.886719 28.575 0.886719 28.7405Z" fill="#45413C"/>
  <path d="M2.56641 14.1465H29.4331V27.9998H2.56641V14.1465Z" fill="#BF8256"/>
  <path d="M28.5931 14.1465H3.40641C3.18416 14.1482 2.97152 14.2373 2.81436 14.3944C2.65721 14.5516 2.56815 14.7642 2.56641 14.9865V18.9865C2.62787 19.0262 2.69544 19.0554 2.76641 19.0732L11.2731 21.3932C11.3461 21.4033 11.4201 21.4033 11.4931 21.3932H20.5064C20.5794 21.4033 20.6534 21.4033 20.7264 21.3932L29.2331 19.0732C29.304 19.0554 29.3716 19.0262 29.4331 18.9865V14.9865C29.4313 14.7642 29.3423 14.5516 29.1851 14.3944C29.028 14.2373 28.8153 14.1482 28.5931 14.1465Z" fill="#915E3A"/>
  <path d="M2.56641 14.1465H29.4331V27.9998H2.56641V14.1465Z" stroke="#45413C" stroke-width="0.666667" stroke-linecap="round" stroke-linejoin="round"/>
  <path d="M2.14716 10.3736V16.0003C2.14691 16.1843 2.20761 16.3633 2.31977 16.5092C2.43193 16.6552 2.58924 16.7598 2.76716 16.807L11.2738 19.127C11.3454 19.1475 11.4194 19.1587 11.4938 19.1603H20.5072C20.5816 19.1587 20.6556 19.1475 20.7272 19.127L29.2338 16.807C29.4117 16.7598 29.5691 16.6552 29.6812 16.5092C29.7934 16.3633 29.8541 16.1843 29.8538 16.0003V10.3736C29.8538 10.1508 29.7653 9.93719 29.6078 9.77966C29.4503 9.62213 29.2366 9.53363 29.0138 9.53363H3.01382C2.90129 9.53005 2.78919 9.54914 2.68417 9.58975C2.57916 9.63036 2.48339 9.69167 2.40254 9.77003C2.32169 9.84839 2.25742 9.9422 2.21355 10.0459C2.16968 10.1496 2.1471 10.261 2.14716 10.3736Z" fill="#BF8256"/>
  <path d="M29.0132 9.5332H3.01316C2.79037 9.5332 2.57672 9.6217 2.41919 9.77923C2.26166 9.93676 2.17316 10.1504 2.17316 10.3732V13.2065C2.17316 13.0962 2.19488 12.987 2.2371 12.8851C2.27931 12.7832 2.34119 12.6906 2.41919 12.6126C2.49719 12.5346 2.58979 12.4727 2.6917 12.4305C2.79362 12.3883 2.90285 12.3665 3.01316 12.3665H29.0132C29.1235 12.3665 29.2327 12.3883 29.3346 12.4305C29.4365 12.4727 29.5291 12.5346 29.6071 12.6126C29.6851 12.6906 29.747 12.7832 29.7892 12.8851C29.8314 12.987 29.8532 13.0962 29.8532 13.2065V10.3732C29.8532 10.1504 29.7647 9.93676 29.6071 9.77923C29.4496 9.6217 29.2359 9.5332 29.0132 9.5332Z" fill="#DEA47A"/>
  <path d="M2.14716 10.3736V16.0003C2.14691 16.1843 2.20761 16.3633 2.31977 16.5092C2.43193 16.6552 2.58924 16.7598 2.76716 16.807L11.2738 19.127C11.3454 19.1475 11.4194 19.1587 11.4938 19.1603H20.5072C20.5816 19.1587 20.6556 19.1475 20.7272 19.127L29.2338 16.807C29.4117 16.7598 29.5691 16.6552 29.6812 16.5092C29.7934 16.3633 29.8541 16.1843 29.8538 16.0003V10.3736C29.8538 10.1508 29.7653 9.93719 29.6078 9.77966C29.4503 9.62213 29.2366 9.53363 29.0138 9.53363H3.01382C2.90129 9.53005 2.78919 9.54914 2.68417 9.58975C2.57916 9.63036 2.48339 9.69167 2.40254 9.77003C2.32169 9.84839 2.25742 9.9422 2.21355 10.0459C2.16968 10.1496 2.1471 10.261 2.14716 10.3736Z" stroke="#45413C" stroke-width="0.666667" stroke-linecap="round" stroke-linejoin="round"/>
  <path d="M11.3802 17.9258H20.6135V20.4458H11.3802V17.9258ZM13.4802 20.4458H18.5202V22.1258C18.5202 22.3486 18.4317 22.5622 18.2742 22.7198C18.1166 22.8773 17.903 22.9658 17.6802 22.9658H14.3469C14.1241 22.9658 13.9104 22.8773 13.7529 22.7198C13.5954 22.5622 13.5069 22.3486 13.5069 22.1258V20.4458H13.4802Z" fill="#DAEDF7" stroke="#45413C" stroke-width="0.666667" stroke-linecap="round" stroke-linejoin="round"/>
  <path d="M16.0005 16.2461C15.3321 16.2461 14.6912 16.5116 14.2186 16.9842C13.746 17.4568 13.4805 18.0977 13.4805 18.7661H18.5205C18.5205 18.0977 18.255 17.4568 17.7824 16.9842C17.3098 16.5116 16.6688 16.2461 16.0005 16.2461Z" fill="#BF8256" stroke="#45413C" stroke-width="0.666667" stroke-linecap="round" stroke-linejoin="round"/>
  <path d="M11.3802 7.85398V9.53398H13.0602V7.85398C13.0602 7.6312 13.1487 7.41755 13.3062 7.26001C13.4637 7.10248 13.6774 7.01398 13.9002 7.01398H18.1002C18.2105 7.01398 18.3197 7.03571 18.4216 7.07793C18.5236 7.12014 18.6162 7.18201 18.6942 7.26001C18.7722 7.33802 18.834 7.43062 18.8762 7.53253C18.9185 7.63444 18.9402 7.74367 18.9402 7.85398V9.53398H20.6202V7.85398C20.6202 7.52305 20.555 7.19536 20.4284 6.88962C20.3017 6.58388 20.1161 6.30608 19.8821 6.07208C19.6481 5.83807 19.3703 5.65245 19.0646 5.52581C18.7588 5.39917 18.4311 5.33398 18.1002 5.33398H13.9002C13.2318 5.33398 12.5909 5.59948 12.1183 6.07208C11.6457 6.54467 11.3802 7.18564 11.3802 7.85398Z" fill="#BF8256"/>
  <path d="M18.1002 5.33398H13.9002C13.2318 5.33398 12.5909 5.59948 12.1183 6.07208C11.6457 6.54467 11.3802 7.18564 11.3802 7.85398V9.00732C11.3802 8.33897 11.6457 7.698 12.1183 7.22541C12.5909 6.75282 13.2318 6.48732 13.9002 6.48732H18.1002C18.7685 6.48732 19.4095 6.75282 19.8821 7.22541C20.3547 7.698 20.6202 8.33897 20.6202 9.00732V7.85398C20.6202 7.18564 20.3547 6.54467 19.8821 6.07208C19.4095 5.59948 18.7685 5.33398 18.1002 5.33398Z" fill="#DEA47A"/>
  <path d="M11.3802 7.85398V9.53398H13.0602V7.85398C13.0602 7.6312 13.1487 7.41755 13.3062 7.26001C13.4637 7.10248 13.6774 7.01398 13.9002 7.01398H18.1002C18.2105 7.01398 18.3197 7.03571 18.4216 7.07793C18.5236 7.12014 18.6162 7.18201 18.6942 7.26001C18.7722 7.33802 18.834 7.43062 18.8762 7.53253C18.9185 7.63444 18.9402 7.74367 18.9402 7.85398V9.53398H20.6202V7.85398C20.6202 7.52305 20.555 7.19536 20.4284 6.88962C20.3017 6.58388 20.1161 6.30608 19.8821 6.07208C19.6481 5.83807 19.3703 5.65245 19.0646 5.52581C18.7588 5.39917 18.4311 5.33398 18.1002 5.33398H13.9002C13.2318 5.33398 12.5909 5.59948 12.1183 6.07208C11.6457 6.54467 11.3802 7.18564 11.3802 7.85398Z" stroke="#45413C" stroke-width="0.666667" stroke-linecap="round" stroke-linejoin="round"/>
</svg>