<svg xmlns="http://www.w3.org/2000/svg" width="49" height="48" viewBox="0 0 49 48" fill="none">
  <g clip-path="url(#clip0_189_14026)">
    <path opacity="0.15" d="M5.81055 44.5C5.81055 44.697 6.1781 44.892 6.89222 45.074C7.60634 45.256 8.65304 45.4214 9.97256 45.5607C11.2921 45.6999 12.8586 45.8104 14.5826 45.8858C16.3067 45.9612 18.1545 46 20.0205 46C21.8866 46 23.7344 45.9612 25.4585 45.8858C27.1825 45.8104 28.749 45.6999 30.0685 45.5607C31.3881 45.4214 32.4348 45.256 33.1489 45.074C33.863 44.892 34.2305 44.697 34.2305 44.5C34.2305 44.1022 32.7334 43.7206 30.0685 43.4393C27.4036 43.158 23.7893 43 20.0205 43C16.2518 43 12.6375 43.158 9.97256 43.4393C7.30767 43.7206 5.81055 44.1022 5.81055 44.5Z" fill="#45413C"/>
    <path d="M19.8593 30.7601L6.85934 24.3701L5.26934 37.3001C5.24984 37.4588 5.28091 37.6197 5.35811 37.7597C5.43531 37.8997 5.55472 38.0119 5.69934 38.0801L18.2493 44.2401C18.8707 44.5405 19.5745 44.625 20.2493 44.4801L33.8993 41.4801C34.0556 41.4427 34.1968 41.3585 34.304 41.2388C34.4112 41.1191 34.4793 40.9696 34.4993 40.8101L36.0493 27.8801L21.8993 31.0001C21.2117 31.1527 20.4928 31.0681 19.8593 30.7601Z" fill="#FF866E"/>
    <path d="M21.8996 31.0004C21.2236 31.1406 20.5203 31.0527 19.8996 30.7504L6.89961 24.3604L6.34961 28.2204L19.3996 34.6104C20.0198 34.9141 20.7237 35.0021 21.3996 34.8604L35.5896 31.7204L36.0496 27.8704L21.8996 31.0004Z" fill="#FF6242"/>
    <path d="M19.8593 30.7601L6.85934 24.3701L5.26934 37.3001C5.24984 37.4588 5.28091 37.6197 5.35811 37.7597C5.43531 37.8997 5.55472 38.0119 5.69934 38.0801L18.2493 44.2401C18.8707 44.5405 19.5745 44.625 20.2493 44.4801L33.8993 41.4801C34.0556 41.4427 34.1968 41.3585 34.304 41.2388C34.4112 41.1191 34.4793 40.9696 34.4993 40.8101L36.0493 27.8801L21.8993 31.0001C21.2117 31.1527 20.4928 31.0681 19.8593 30.7601Z" stroke="#45413C" stroke-linecap="round" stroke-linejoin="round"/>
    <path d="M19.4102 43.1803L20.6502 32.7803" stroke="#E04122" stroke-linecap="round" stroke-linejoin="round"/>
    <path d="M36.0805 27.8702L23.0805 21.4702C22.4588 21.1713 21.7554 21.0869 21.0805 21.2302L6.81055 24.3702L19.8605 30.7602C20.4812 31.0625 21.1846 31.1504 21.8605 31.0102L36.0805 27.8702Z" fill="#E04122" stroke="#45413C" stroke-linecap="round" stroke-linejoin="round"/>
    <path d="M9.77039 25.8096L8.15039 39.2896L14.7904 42.5496L16.4104 29.0696L9.77039 25.8096Z" fill="#EDDBFF"/>
    <path d="M9.77078 25.8096L9.30078 29.6596L15.9508 32.9196L16.4108 29.0696L9.77078 25.8096Z" fill="#DABFF5"/>
    <path d="M9.77039 25.8096L8.15039 39.2896L14.7904 42.5496L16.4104 29.0696L9.77039 25.8096Z" stroke="#45413C" stroke-linecap="round" stroke-linejoin="round"/>
    <path d="M32.8691 28.5801L31.2591 42.0601L24.0391 43.6501L25.6491 30.1801L32.8691 28.5801Z" fill="#EDDBFF"/>
    <path d="M32.8695 28.5801L32.4095 32.4301L25.1895 34.0301L25.6495 30.1801L32.8695 28.5801Z" fill="#DABFF5"/>
    <path d="M32.8691 28.5801L31.2591 42.0601L24.0391 43.6501L25.6491 30.1801L32.8691 28.5801Z" stroke="#45413C" stroke-linecap="round" stroke-linejoin="round"/>
    <path d="M17.2805 18.9298L1.98047 17.6898L3.22047 22.4098C3.26038 22.5656 3.34868 22.7048 3.47267 22.8072C3.59666 22.9096 3.74994 22.9701 3.91047 22.9798L18.6605 24.1798C19.367 24.2404 20.0729 24.0568 20.6605 23.6598L32.9205 15.3998C33.0518 15.308 33.1525 15.1788 33.2096 15.029C33.2667 14.8793 33.2774 14.7158 33.2405 14.5598L32.0005 9.83984L19.2705 18.4098C18.6831 18.7988 17.9831 18.9817 17.2805 18.9298Z" fill="#FF866E"/>
    <path d="M19.2705 18.4098C18.6803 18.801 17.9764 18.984 17.2705 18.9298L1.98047 17.6898L2.57047 19.9398L17.8705 21.1798C18.5763 21.2325 19.2797 21.0496 19.8705 20.6598L32.6005 12.0898L32.0105 9.83984L19.2705 18.4098Z" fill="#FFA694"/>
    <path d="M17.2805 18.9298L1.98047 17.6898L3.22047 22.4098C3.26038 22.5656 3.34868 22.7048 3.47267 22.8072C3.59666 22.9096 3.74994 22.9701 3.91047 22.9798L18.6605 24.1798C19.367 24.2404 20.0729 24.0568 20.6605 23.6598L32.9205 15.3998C33.0518 15.308 33.1525 15.1788 33.2096 15.029C33.2667 14.8793 33.2774 14.7158 33.2405 14.5598L32.0005 9.83984L19.2705 18.4098C18.6831 18.7988 17.9831 18.9817 17.2805 18.9298Z" stroke="#45413C" stroke-linecap="round" stroke-linejoin="round"/>
    <path d="M1.98047 17.6899L14.7505 9.10994C15.3386 8.71498 16.045 8.53486 16.7505 8.59994L32.0505 9.83994L19.2705 18.4099C18.6803 18.8011 17.9764 18.9841 17.2705 18.9299L1.98047 17.6899Z" fill="#FF866E" stroke="#45413C" stroke-linecap="round" stroke-linejoin="round"/>
    <path d="M19.0298 8.78027L5.25977 17.9503L6.62977 23.2103L14.0098 23.8003L12.6298 18.5503L26.3998 9.38027L19.0298 8.78027Z" fill="#EDDBFF" stroke="#45413C" stroke-linecap="round" stroke-linejoin="round"/>
    <path d="M7.44922 18.1299L11.1692 18.4299" stroke="#BF8DF2" stroke-linecap="round" stroke-linejoin="round"/>
    <path d="M12.7804 10.4199L29.2704 11.6699L30.6504 16.9199L24.5104 21.0499L23.1404 15.7999L6.65039 14.5499L12.7804 10.4199Z" fill="#EDDBFF" stroke="#45413C" stroke-linecap="round" stroke-linejoin="round"/>
    <path d="M27.4494 12.9004L24.3594 14.9804" stroke="#BF8DF2" stroke-linecap="round" stroke-linejoin="round"/>
    <path d="M19.6505 13.6002L17.8105 12.2902C17.8105 12.2902 19.8105 4.29022 25.2705 3.63022C25.7958 3.55903 26.3294 3.67143 26.7813 3.9484C27.2332 4.22536 27.5756 4.6499 27.7505 5.15022L28.6105 7.50022L19.6505 13.6002Z" fill="#DABFF5" stroke="#45413C" stroke-linecap="round" stroke-linejoin="round"/>
    <path d="M19.6504 13.6C19.6504 13.6 24.3904 13.23 28.4604 8.31997C28.5813 8.20168 28.6605 8.0473 28.686 7.88009C28.7115 7.71288 28.682 7.5419 28.6019 7.39293C28.5217 7.24397 28.3954 7.12509 28.2418 7.05421C28.0882 6.98333 27.9157 6.96429 27.7504 6.99997C25.9332 7.2747 24.2231 8.03202 22.7983 9.19291C21.3736 10.3538 20.2865 11.8758 19.6504 13.6Z" fill="#BF8DF2" stroke="#45413C" stroke-linecap="round" stroke-linejoin="round"/>
    <path d="M14.7506 14.9997L15.5606 12.8897C15.5606 12.8897 9.75059 7.55974 4.80059 9.99974C4.33508 10.2374 3.96394 10.6259 3.7478 11.1018C3.53165 11.5777 3.48328 12.1128 3.61059 12.6197L4.20059 15.0597L14.7506 14.9997Z" fill="#DABFF5" stroke="#45413C" stroke-linecap="round" stroke-linejoin="round"/>
    <path d="M14.7494 14.9998C14.7494 14.9998 10.8494 17.5098 4.74945 15.6798C4.59789 15.6365 4.463 15.5483 4.36254 15.4269C4.26209 15.3054 4.20078 15.1564 4.18671 14.9994C4.17264 14.8424 4.20645 14.6849 4.2837 14.5475C4.36095 14.4101 4.478 14.2993 4.61945 14.2298C6.22028 13.432 8.00717 13.0824 9.79062 13.218C11.5741 13.3535 13.2876 13.9692 14.7494 14.9998Z" fill="#BF8DF2" stroke="#45413C" stroke-linecap="round" stroke-linejoin="round"/>
    <path d="M15.2506 14.2999C15.2506 14.2999 10.1506 17.2999 9.89062 21.5899L12.4906 20.4899L13.9806 23.0499C13.9806 23.0499 15.1006 16.2699 17.2706 14.8299L15.2506 14.2999ZM18.8106 13.4199C18.8106 13.4199 24.7106 13.6699 26.9506 17.4199L24.1406 17.6599L24.0106 20.6099C24.0106 20.6099 19.8606 15.1299 17.2706 14.8599L18.8106 13.4199Z" fill="#BF8DF2" stroke="#45413C" stroke-linecap="round" stroke-linejoin="round"/>
    <path d="M20.1592 12.07C20.5392 13.52 19.3292 15.07 17.4692 15.58C15.6092 16.09 13.7792 15.29 13.4092 13.84C13.0392 12.39 14.2292 10.84 16.0992 10.33C17.9692 9.81996 19.7492 10.62 20.1592 12.07Z" fill="#BF8DF2"/>
    <path d="M16.4907 11.83C17.1387 11.6114 17.8369 11.5897 18.4972 11.7676C19.1576 11.9456 19.7503 12.3153 20.2007 12.83C20.2496 12.5656 20.2496 12.2944 20.2007 12.03C19.8207 10.58 18.0007 9.79998 16.1407 10.29C14.2807 10.78 13.0707 12.35 13.4507 13.8C13.5189 14.0576 13.6379 14.299 13.8007 14.51C13.9401 13.8502 14.2688 13.2453 14.7466 12.7694C15.2243 12.2934 15.8304 11.967 16.4907 11.83Z" fill="#DABFF5"/>
    <path d="M20.1592 12.07C20.5392 13.52 19.3292 15.07 17.4692 15.58C15.6092 16.09 13.7792 15.29 13.4092 13.84C13.0392 12.39 14.2292 10.84 16.0992 10.33C17.9692 9.81996 19.7492 10.62 20.1592 12.07Z" stroke="#45413C" stroke-linecap="round" stroke-linejoin="round"/>
    <path d="M30.0806 26.4801C29.6705 27.1294 29.1062 27.6672 28.438 28.0458C27.7698 28.4244 27.0184 28.632 26.2506 28.6501L24.8906 26.2601C25.6643 26.2449 26.422 26.0378 27.0958 25.6573C27.7695 25.2768 28.3382 24.7348 28.7506 24.0801L30.0806 26.4801Z" fill="#00F5BC" stroke="#45413C" stroke-linecap="round" stroke-linejoin="round"/>
    <path d="M45.7493 9.17973C45.7753 9.96026 45.606 10.7349 45.2568 11.4335C44.9075 12.132 44.3893 12.7322 43.7493 13.1797L41.2793 11.9697C41.9083 11.5155 42.4148 10.9123 42.7533 10.2142C43.0919 9.5161 43.252 8.74491 43.2193 7.96973L45.7493 9.17973Z" fill="#FF6242" stroke="#45413C" stroke-linecap="round" stroke-linejoin="round"/>
    <path d="M40.2991 47.0004C39.8019 46.4137 39.4569 45.7135 39.2947 44.9617C39.1325 44.21 39.1581 43.4299 39.3691 42.6903L42.0691 42.1104C41.8585 42.8492 41.8322 43.6285 41.9926 44.3799C42.153 45.1313 42.4952 45.8319 42.9891 46.4203L40.2991 47.0004Z" fill="#FF6196" stroke="#45413C" stroke-linecap="round" stroke-linejoin="round"/>
    <path d="M48.2502 25.5299C47.7013 26.0681 47.0281 26.4628 46.2904 26.6791C45.5526 26.8954 44.7729 26.9265 44.0202 26.7699L43.2402 24.1299C43.9937 24.2853 44.7739 24.2525 45.5117 24.0345C46.2495 23.8164 46.9222 23.4199 47.4702 22.8799L48.2502 25.5299Z" fill="#FF8A14" stroke="#45413C" stroke-linecap="round" stroke-linejoin="round"/>
    <path d="M37.2892 32.5303C38.0583 32.5616 38.808 32.7813 39.4723 33.1701C40.1367 33.5589 40.6953 34.105 41.0992 34.7603L39.7492 37.1403C39.3489 36.484 38.7924 35.9369 38.1294 35.5478C37.4664 35.1587 36.7174 34.9397 35.9492 34.9103L37.2892 32.5303Z" fill="#4AEFF7" stroke="#45413C" stroke-linecap="round" stroke-linejoin="round"/>
    <path d="M30.7503 44.6997C29.9914 44.8246 29.2134 44.7614 28.4846 44.5156C27.7558 44.2697 27.0985 43.8488 26.5703 43.2897L27.4603 40.6797C27.9848 41.2409 28.6402 41.6633 29.3679 41.9094C30.0956 42.1554 30.8729 42.2174 31.6303 42.0897L30.7503 44.6997ZM33.5703 21.5397C33.7356 20.7883 34.0829 20.089 34.5815 19.5032C35.0802 18.9174 35.715 18.4629 36.4303 18.1797L38.5303 19.9997C37.8141 20.2814 37.1784 20.7354 36.6795 21.3215C36.1806 21.9076 35.834 22.6076 35.6703 23.3597L33.5703 21.5397Z" fill="#FFF48C" stroke="#45413C" stroke-linecap="round" stroke-linejoin="round"/>
  </g>
  <defs>
    <clipPath id="clip0_189_14026">
      <rect width="48" height="48" fill="white" transform="translate(0.75)"/>
    </clipPath>
  </defs>
</svg>