<svg xmlns="http://www.w3.org/2000/svg" width="16" height="16" viewBox="0 0 16 16" fill="none">
  <g clip-path="url(#clip0_145_51487)">
    <path d="M12.8064 1.77783H13.6935V2.22228H12.8064V1.77783Z" fill="#66757F"/>
    <path d="M0.888885 5.3335V14.2224C0.888885 14.6939 1.07619 15.1461 1.40958 15.4795C1.74298 15.8129 2.19517 16.0002 2.66666 16.0002H13.3333C13.8048 16.0002 14.257 15.8129 14.5904 15.4795C14.9238 15.1461 15.1111 14.6939 15.1111 14.2224V5.3335H0.888885Z" fill="#CCD6DD"/>
    <path d="M13.3333 1.77783H2.66666C2.19517 1.77783 1.74298 1.96513 1.40958 2.29853C1.07619 2.63193 0.888885 3.08411 0.888885 3.55561V5.77783H15.1111V3.55561C15.1111 3.08411 14.9238 2.63193 14.5904 2.29853C14.257 1.96513 13.8048 1.77783 13.3333 1.77783Z" fill="#DD2E44"/>
    <path d="M3.92719 3.8802C3.61519 3.8802 3.3623 3.5842 3.3623 3.21842C3.3623 2.85309 3.61519 2.55664 3.92719 2.55664C4.23875 2.55664 4.49164 2.85309 4.49164 3.21842C4.49164 3.58375 4.23875 3.8802 3.92719 3.8802ZM6.59386 3.8802C6.28186 3.8802 6.02897 3.5842 6.02897 3.21842C6.02897 2.85309 6.28186 2.55664 6.59386 2.55664C6.90542 2.55664 7.1583 2.85309 7.1583 3.21842C7.1583 3.58375 6.90542 3.8802 6.59386 3.8802ZM9.26053 3.8802C8.94853 3.8802 8.69564 3.5842 8.69564 3.21842C8.69564 2.85309 8.94853 2.55664 9.26053 2.55664C9.57208 2.55664 9.82542 2.85309 9.82542 3.21842C9.82497 3.58375 9.57208 3.8802 9.26053 3.8802ZM11.9272 3.8802C11.6152 3.8802 11.3623 3.5842 11.3623 3.21842C11.3623 2.85309 11.6152 2.55664 11.9272 2.55664C12.2387 2.55664 12.4921 2.85309 12.4921 3.21842C12.4916 3.58375 12.2387 3.8802 11.9272 3.8802Z" fill="#292F33"/>
    <path d="M12.1398 0.0795898C11.5722 0.0795898 11.0806 0.436034 10.8091 0.955145C10.5398 0.447145 10.046 0.0795898 9.47309 0.0795898C8.90553 0.0795898 8.41397 0.436034 8.14242 0.955145C7.87309 0.447145 7.37931 0.0795898 6.80642 0.0795898C6.23886 0.0795898 5.74731 0.436034 5.47575 0.955145C5.20642 0.447145 4.71264 0.0795898 4.13975 0.0795898C3.2802 0.0795898 2.5842 0.888034 2.5842 1.85959C2.5842 2.68359 3.04864 3.35781 3.72598 3.60448C4.06331 3.7267 4.26998 3.40581 4.24109 3.14848C4.21664 2.93515 4.07486 2.79603 3.91709 2.69603C3.70153 2.55959 3.47264 2.24803 3.47264 1.86181C3.47264 1.37115 3.77086 0.930701 4.13931 0.930701C4.50775 0.930701 4.80598 1.33292 4.80598 1.77737H5.25753C5.2562 1.80492 5.25042 1.83115 5.25042 1.85915C5.25042 2.68315 5.71486 3.35737 6.3922 3.60403C6.72953 3.72626 6.9362 3.40537 6.90731 3.14803C6.88286 2.93515 6.74109 2.79603 6.58331 2.69603C6.36775 2.55959 6.13886 2.24803 6.13886 1.86181C6.13886 1.37115 6.43709 0.930701 6.80553 0.930701C7.17397 0.930701 7.47309 1.33337 7.47309 1.77781H7.92464C7.92331 1.80537 7.91753 1.83159 7.91753 1.85959C7.91753 2.68359 8.38198 3.35781 9.05931 3.60448C9.39664 3.7267 9.60331 3.40581 9.57442 3.14848C9.54997 2.93559 9.4082 2.79648 9.25042 2.69648C9.03486 2.56003 8.80597 2.24848 8.80597 1.86226C8.80597 1.37159 9.1042 0.931145 9.47264 0.931145C9.84109 0.931145 10.1398 1.33337 10.1398 1.77781H10.5913C10.59 1.80537 10.5842 1.83159 10.5842 1.85959C10.5842 2.68359 11.0486 3.35781 11.726 3.60448C12.0633 3.7267 12.27 3.40581 12.2411 3.14848C12.2166 2.93559 12.0749 2.79648 11.9171 2.69648C11.7015 2.56003 11.4726 2.24848 11.4726 1.86226C11.4726 1.37159 11.7709 0.931145 12.1393 0.931145C12.5078 0.931145 12.8064 1.33337 12.8064 1.77781H13.6935C13.6842 0.888923 12.9931 0.0795898 12.1398 0.0795898Z" fill="#66757F"/>
    <path d="M4.88921 6.66699H6.66699V8.44477H4.88921V6.66699ZM7.11144 6.66699H8.88921V8.44477H7.11144V6.66699ZM9.33366 6.66699H11.1114V8.44477H9.33366V6.66699ZM11.5559 6.66699H13.3337V8.44477H11.5559V6.66699ZM2.66699 8.88921H4.44477V10.667H2.66699V8.88921ZM4.88921 8.88921H6.66699V10.667H4.88921V8.88921ZM7.11144 8.88921H8.88921V10.667H7.11144V8.88921ZM9.33366 8.88921H11.1114V10.667H9.33366V8.88921ZM11.5559 8.88921H13.3337V10.667H11.5559V8.88921ZM2.66699 11.1114H4.44477V12.8892H2.66699V11.1114ZM4.88921 11.1114H6.66699V12.8892H4.88921V11.1114ZM7.11144 11.1114H8.88921V12.8892H7.11144V11.1114ZM9.33366 11.1114H11.1114V12.8892H9.33366V11.1114ZM11.5559 11.1114H13.3337V12.8892H11.5559V11.1114ZM2.66699 13.3337H4.44477V15.1114H2.66699V13.3337ZM4.88921 13.3337H6.66699V15.1114H4.88921V13.3337ZM7.11144 13.3337H8.88921V15.1114H7.11144V13.3337Z" fill="white"/>
  </g>
  <defs>
    <clipPath id="clip0_145_51487">
      <rect width="16" height="16" fill="white"/>
    </clipPath>
  </defs>
</svg>