<svg xmlns="http://www.w3.org/2000/svg" width="61" height="53" viewBox="0 0 61 53" fill="none">
  <path fill-rule="evenodd" clip-rule="evenodd" d="M19.23 16.9512C19.218 17.0452 19.2783 17.1596 19.3987 17.3884L33.6331 44.4119C33.6988 44.5367 33.7318 44.5991 33.781 44.6381C33.8077 44.6594 33.8377 44.6759 33.8695 44.687C34.6291 45.2282 37.3552 45.0227 40.4362 44.1416C43.5676 43.2464 46.0687 41.7779 46.3516 40.8884C46.363 40.8692 46.3723 40.8488 46.3792 40.8272C46.3984 40.7675 46.3915 40.6976 46.3777 40.5578L44.0158 16.7455V16.7455C44.0002 16.5904 43.9927 16.5129 43.9573 16.4547C43.9262 16.4035 43.8805 16.3627 43.8259 16.3377C43.7641 16.3093 43.6864 16.3105 43.5304 16.3129L19.8159 16.6847C19.5574 16.6888 19.4281 16.6908 19.3514 16.7465C19.3183 16.7705 19.2904 16.8011 19.2695 16.8363C19.2487 16.8715 19.2352 16.9106 19.23 16.9512Z" fill="#FE9332" stroke="#B0B0B0" stroke-width="0.03"/>
  <path d="M44.0373 16.6115C44.0202 18.2933 38.5038 19.5796 31.5426 19.5082C24.5815 19.4369 19.1351 18.3083 19.1524 16.6265C19.1696 14.9447 24.644 13.3467 31.6053 13.4181C38.5665 13.4894 44.0547 14.9297 44.0373 16.6115Z" fill="#FF7D0C" stroke="#B0B0B0" stroke-width="0.03"/>
  <path fill-rule="evenodd" clip-rule="evenodd" d="M45.16 2.15976C45.1312 1.82964 44.8405 1.58523 44.5102 1.61385C44.1802 1.6425 43.9357 1.93335 43.9645 2.26347L47.3404 41.1801C47.3551 41.2401 47.3605 41.3019 47.3566 41.3649L47.3578 41.3772H47.3557C47.2771 42.3822 44.9008 43.7433 40.4686 45.03C35.8615 46.3674 33.1057 46.2879 32.6161 45.4878C32.6158 45.4881 32.6155 45.4881 32.6152 45.4884L32.6065 45.4719C32.5999 45.4602 32.5939 45.4485 32.5882 45.4365L14.3745 10.4613C14.2214 10.1674 13.8591 10.0532 13.5652 10.2062C13.2713 10.3593 13.1571 10.7216 13.3101 11.0155L31.7842 46.4904C31.8136 46.5471 31.8511 46.5972 31.894 46.6398C32.3518 47.3829 36.3199 47.4393 40.7563 46.1253C44.8318 44.9184 47.998 43.527 48.5437 42.381C48.5827 42.312 48.6085 42.2343 48.6178 42.1527C48.6292 42.0828 48.6301 42.0141 48.6196 41.9466C48.6169 41.928 48.6124 41.9097 48.6067 41.892L45.16 2.15976Z" fill="#B0B0B0" stroke="#B0B0B0" stroke-width="0.03"/>
  <path d="M44.8059 2.51053C44.8059 2.51083 44.8065 2.51206 44.8065 2.51527C44.8065 2.51881 44.8065 2.52706 44.8038 2.54104C44.7984 2.56999 44.7828 2.62297 44.7387 2.70184C44.6475 2.86576 44.4666 3.08578 44.1585 3.35431C43.5444 3.88972 42.5568 4.50532 41.2296 5.16091C38.5866 6.4663 34.7484 7.85671 30.2757 9.05515C25.8071 10.2525 21.6828 10.9603 18.6347 11.144C17.1044 11.2362 15.8855 11.1936 15.0424 11.0329C14.6191 10.9522 14.3334 10.8495 14.159 10.749C14.0469 10.6843 14.0092 10.6381 13.9987 10.6215C13.9995 10.6018 14.009 10.543 14.0738 10.431C14.1745 10.2567 14.3706 10.0249 14.6969 9.74332C15.3466 9.18265 16.381 8.53627 17.7524 7.85098C20.4839 6.48604 24.4096 5.03683 28.8782 3.83947C33.3432 2.64307 37.3755 1.99534 40.3308 1.87015C41.8143 1.8073 42.9864 1.87816 43.7937 2.05762C44.1984 2.14762 44.4711 2.2564 44.6382 2.36029C44.7189 2.41054 44.7627 2.45209 44.7849 2.47825C44.7954 2.49091 44.8008 2.49961 44.8032 2.50405C44.8053 2.50831 44.8059 2.51023 44.8059 2.51053ZM13.9951 10.6147C13.9957 10.6157 13.9962 10.6167 13.9965 10.6178C13.9958 10.6168 13.9954 10.6158 13.9951 10.6147ZM13.9986 10.6258C13.999 10.628 13.9991 10.6291 13.999 10.6292C13.9987 10.6281 13.9985 10.627 13.9986 10.6258Z" stroke="#B0B0B0" stroke-width="1.5"/>
  <path d="M30.2507 31.1107L33.8543 31.3657C34.025 31.9402 34.1042 32.3584 34.0928 32.6197L28.8495 32.1073L28.5449 31.0813L32.5898 27.5581C32.7398 27.7618 32.9012 28.1554 33.0746 28.7392L30.2507 31.1107ZM39.2618 29.7601L42.1424 27.58L38.4821 27.1336C38.3438 26.6686 38.2853 26.2543 38.3066 25.8907L43.5557 26.6245L43.8605 27.6505L39.7463 30.9412C39.5939 30.7285 39.4325 30.3349 39.2618 29.7601ZM35.0786 34.7917L36.1271 23.9635L37.25 23.7163L36.2015 34.5445L35.0786 34.7917Z" fill="black" stroke="#B0B0B0" stroke-width="0.03"/>
</svg>