<svg xmlns="http://www.w3.org/2000/svg" width="143" height="32" viewBox="0 0 143 32" fill="none">
  <g clip-path="url(#clip0_266_19784)">
    <path fill-rule="evenodd" clip-rule="evenodd" d="M21.5172 1.88718C21.4983 1.67048 21.3075 1.51004 21.0907 1.52884C20.8741 1.54764 20.7136 1.73856 20.7324 1.95526L22.9487 27.5022C22.9579 27.5409 22.9613 27.5806 22.959 27.6211L22.9599 27.6306C22.9594 27.6305 22.9589 27.6305 22.9584 27.6304C22.9067 28.2902 21.3468 29.1836 18.4376 30.0282C15.4131 30.9062 13.6042 30.854 13.2828 30.3288C13.2826 30.3289 13.2825 30.3289 13.2823 30.329L13.2772 30.3192C13.2725 30.3109 13.2682 30.3026 13.2642 30.2941L1.3087 7.33655C1.20822 7.14361 0.970381 7.06866 0.77745 7.16914C0.584522 7.2696 0.509571 7.50745 0.61004 7.70037L12.7368 30.987C12.7562 31.024 12.7804 31.0567 12.8085 31.0846C13.1076 31.5729 15.7131 31.6102 18.6262 30.7473C21.2972 29.9563 23.3731 29.0447 23.7362 28.293C23.7642 28.245 23.7821 28.1909 23.7876 28.1334C23.7942 28.0897 23.7944 28.0467 23.7879 28.0044C23.7871 27.9991 23.7862 27.9941 23.785 27.9889C23.7836 27.9825 23.7819 27.9761 23.78 27.9698L21.5172 1.88718Z" fill="#B0B0B0"/>
    <path fill-rule="evenodd" clip-rule="evenodd" d="M4.49617 11.5955C4.48827 11.6572 4.52783 11.7324 4.60692 11.8824L13.9508 29.6214C13.9939 29.7033 14.0154 29.7443 14.0478 29.7701C14.0654 29.7841 14.0853 29.7949 14.1065 29.8022C14.6056 30.1571 16.3948 30.0222 18.4167 29.444C20.4727 28.8561 22.115 27.8919 22.2997 27.308C22.3071 27.2955 22.3131 27.2823 22.3175 27.2684C22.3303 27.2292 22.3257 27.1833 22.3167 27.0916L20.7661 11.4604C20.756 11.3587 20.751 11.3079 20.7278 11.2696C20.7074 11.236 20.6774 11.2092 20.6416 11.1928C20.6011 11.1742 20.5499 11.1749 20.4476 11.1765L4.88075 11.4206C4.71106 11.4232 4.62622 11.4245 4.57585 11.4611C4.53189 11.493 4.50305 11.5417 4.49617 11.5955Z" fill="#FE9332"/>
    <path d="M20.7796 11.3751C20.7682 12.479 17.1473 13.3234 12.5777 13.2766C8.00821 13.2298 4.43304 12.4889 4.44436 11.3849C4.45568 10.281 8.04919 9.23201 12.6187 9.27886C17.1882 9.32571 20.7908 10.2711 20.7796 11.3751Z" fill="#FF7D0C"/>
    <path d="M21.2846 2.11871C21.2846 2.11871 21.2847 2.11897 21.2848 2.11932C21.2848 2.1198 21.2849 2.12058 21.285 2.12184C21.285 2.12416 21.2849 2.12957 21.2832 2.13874C21.2797 2.15775 21.2693 2.19253 21.2405 2.24429C21.1807 2.3519 21.0619 2.49632 20.8596 2.6726C20.4565 3.02406 19.8083 3.42816 18.9369 3.8585C17.202 4.71539 14.6826 5.62808 11.7466 6.41477C8.81329 7.20074 6.10597 7.66537 4.10515 7.78594C3.10061 7.84647 2.30046 7.8185 1.74707 7.71303C1.46918 7.66006 1.28162 7.59261 1.16719 7.52664C1.09355 7.48418 1.06885 7.45388 1.06192 7.44297C1.06246 7.43006 1.06871 7.39146 1.11125 7.31788C1.17736 7.20352 1.30607 7.05133 1.52025 6.86651C1.94676 6.49847 2.62572 6.07417 3.52595 5.62433C5.319 4.72834 7.89592 3.77706 10.8292 2.99107C13.7602 2.20572 16.407 1.78053 18.347 1.69836C19.3209 1.6571 20.0902 1.70362 20.62 1.82143C20.8857 1.88049 21.0649 1.9519 21.1745 2.0201C21.2275 2.05308 21.2563 2.08035 21.2707 2.09753C21.2777 2.10585 21.2811 2.11155 21.2828 2.11447C21.2842 2.11726 21.2846 2.11852 21.2846 2.11871ZM1.05958 7.43851C1.05958 7.43851 1.05999 7.43915 1.06046 7.44051C1.05976 7.43921 1.05958 7.43851 1.05958 7.43851ZM1.06189 7.44582C1.06216 7.44724 1.06212 7.448 1.06212 7.448C1.06212 7.448 1.06193 7.4473 1.06189 7.44582Z" stroke="#B0B0B0" stroke-width="0.984638"/>
    <path d="M11.7348 20.907L14.1003 21.0744C14.2122 21.4515 14.2644 21.726 14.2568 21.8976L10.8151 21.5612L10.6151 20.8877L13.2703 18.575C13.3686 18.7088 13.4746 18.9671 13.5884 19.3503L11.7348 20.907ZM17.6499 20.0206L19.5409 18.5894L17.138 18.2964C17.0474 17.991 17.009 17.7191 17.0228 17.4805L20.4686 17.9622L20.6686 18.6357L17.968 20.7957C17.8679 20.6561 17.7619 20.3977 17.6499 20.0206Z" fill="black"/>
    <path d="M14.9003 23.3134L15.5886 16.2053L16.3257 16.043L15.6375 23.151L14.9003 23.3134Z" fill="black"/>
    <path d="M37.0169 26.0192C35.1137 26.0192 33.4899 25.6351 32.1455 24.8668C30.8185 24.0811 29.8057 22.9811 29.1074 21.5668C28.4264 20.1525 28.0859 18.5025 28.0859 16.6168C28.0859 14.6961 28.4352 13.02 29.1336 11.5882C29.8495 10.1565 30.8709 9.04777 32.1978 8.26205C33.5248 7.45888 35.1224 7.05729 36.9907 7.05729C38.405 7.05729 39.6709 7.30174 40.7883 7.79063C41.9057 8.26205 42.805 8.9692 43.4859 9.91205C44.1843 10.8375 44.6209 11.9811 44.7955 13.343H41.1812C40.9542 12.4875 40.4915 11.8152 39.7931 11.3263C39.1121 10.82 38.2042 10.5668 37.0693 10.5668C35.8121 10.5668 34.8081 10.8549 34.0574 11.4311C33.324 11.9899 32.7915 12.7232 32.4597 13.6311C32.128 14.5216 31.9621 15.4644 31.9621 16.4597C31.9621 17.4899 32.1367 18.4676 32.4859 19.393C32.8352 20.3184 33.3852 21.0692 34.1359 21.6454C34.9042 22.2216 35.9081 22.5097 37.1478 22.5097C37.8812 22.5097 38.5359 22.4049 39.1121 22.1954C39.6883 21.9684 40.1597 21.6454 40.5264 21.2263C40.9105 20.8073 41.1724 20.3097 41.3121 19.7335H45.0574C44.9002 21.078 44.4462 22.2216 43.6955 23.1644C42.9447 24.1073 41.9931 24.8232 40.8407 25.3121C39.6883 25.7835 38.4137 26.0192 37.0169 26.0192ZM46.4943 25.8097V7.26682H50.161V13.6049C50.5626 13.1335 51.0078 12.7668 51.4967 12.5049C52.0031 12.243 52.5095 12.0597 53.0158 11.9549C53.5396 11.8327 54.0198 11.7716 54.4562 11.7716C55.7483 11.7716 56.761 12.0597 57.4943 12.6359C58.2277 13.2121 58.7515 13.989 59.0657 14.9668C59.38 15.9446 59.5372 17.0184 59.5372 18.1882V25.8097H55.8705V18.7121C55.8705 18.293 55.8269 17.874 55.7396 17.4549C55.6697 17.0359 55.5388 16.6518 55.3467 16.3025C55.1547 15.9359 54.884 15.6478 54.5348 15.4382C54.1856 15.2113 53.7229 15.0978 53.1467 15.0978C52.6055 15.0978 52.1428 15.2113 51.7586 15.4382C51.3745 15.6652 51.0602 15.9708 50.8157 16.3549C50.5888 16.7216 50.4229 17.1319 50.3181 17.5859C50.2134 18.0399 50.161 18.4938 50.161 18.9478V25.8097H46.4943ZM65.9399 25.993C65.3114 25.993 64.7003 25.9144 64.1066 25.7573C63.5304 25.5827 63.0154 25.3208 62.5614 24.9716C62.1075 24.6223 61.7495 24.1859 61.4876 23.6621C61.2257 23.1382 61.0947 22.5271 61.0947 21.8287C61.0947 20.8859 61.2868 20.1351 61.6709 19.5763C62.0551 19.0001 62.5701 18.5637 63.2161 18.2668C63.8622 17.97 64.6042 17.7692 65.4423 17.6644C66.2979 17.5597 67.1797 17.5073 68.0876 17.5073H70.078C70.078 17.0009 69.982 16.5557 69.7899 16.1716C69.6154 15.77 69.3447 15.4644 68.978 15.2549C68.6114 15.028 68.1399 14.9144 67.5637 14.9144C67.1971 14.9144 66.8392 14.9668 66.4899 15.0716C66.1582 15.1589 65.8789 15.2899 65.6518 15.4644C65.4249 15.639 65.2765 15.8661 65.2066 16.1454H61.4876C61.5923 15.3771 61.8368 14.7223 62.2209 14.1811C62.6051 13.6223 63.0852 13.1684 63.6614 12.8192C64.2376 12.47 64.8661 12.2168 65.5471 12.0597C66.2456 11.8851 66.9614 11.7978 67.6947 11.7978C69.7027 11.7978 71.1868 12.374 72.1471 13.5263C73.1075 14.6613 73.5876 16.2763 73.5876 18.3716V25.8097H70.2876L70.2352 24.0287C69.7987 24.6399 69.3011 25.0851 68.7423 25.3644C68.2011 25.6438 67.6773 25.8184 67.1709 25.8882C66.6646 25.9581 66.2542 25.993 65.9399 25.993ZM66.778 23.0859C67.3892 23.0859 67.9479 22.9637 68.4542 22.7192C68.9606 22.4747 69.3622 22.143 69.659 21.724C69.9558 21.3049 70.1042 20.8335 70.1042 20.3097V19.9692H67.5899C67.2233 19.9692 66.8654 19.9866 66.5161 20.0216C66.1844 20.0565 65.8789 20.1263 65.5995 20.2311C65.3376 20.3184 65.128 20.4668 64.9709 20.6763C64.8138 20.8859 64.7352 21.1652 64.7352 21.5144C64.7352 21.8637 64.8225 22.1604 64.9971 22.4049C65.1892 22.6319 65.4423 22.8065 65.7566 22.9287C66.0709 23.0335 66.4114 23.0859 66.778 23.0859ZM75.666 25.8097V12.0073H79.3327V25.8097H75.666ZM77.4994 10.6192C76.8184 10.6192 76.2684 10.4184 75.8494 10.0168C75.4303 9.59777 75.2208 9.06523 75.2208 8.4192C75.2208 7.73824 75.4391 7.18824 75.8756 6.7692C76.3121 6.35015 76.8621 6.14062 77.5256 6.14062C78.1367 6.14062 78.6605 6.35015 79.097 6.7692C79.551 7.17079 79.7779 7.71205 79.7779 8.39301C79.7779 9.0565 79.5597 9.59777 79.1232 10.0168C78.7041 10.4184 78.1629 10.6192 77.4994 10.6192ZM89.8869 26.0192C87.9837 26.0192 86.3598 25.6351 85.0155 24.8668C83.6884 24.0811 82.6757 22.9811 81.9774 21.5668C81.2964 20.1525 80.9559 18.5025 80.9559 16.6168C80.9559 14.6961 81.3051 13.02 82.0036 11.5882C82.7194 10.1565 83.7408 9.04777 85.0678 8.26205C86.3948 7.45888 87.9924 7.05729 89.8607 7.05729C91.275 7.05729 92.5408 7.30174 93.6583 7.79063C94.7757 8.26205 95.6745 8.9692 96.3555 9.91205C97.0545 10.8375 97.4907 11.9811 97.665 13.343H94.0512C93.8241 12.4875 93.3615 11.8152 92.6631 11.3263C91.9821 10.82 91.0741 10.5668 89.9393 10.5668C88.6821 10.5668 87.6781 10.8549 86.9274 11.4311C86.194 11.9899 85.6615 12.7232 85.3298 13.6311C84.9979 14.5216 84.8321 15.4644 84.8321 16.4597C84.8321 17.4899 85.0067 18.4676 85.3559 19.393C85.7051 20.3184 86.2551 21.0692 87.0059 21.6454C87.7741 22.2216 88.7781 22.5097 90.0178 22.5097C90.7512 22.5097 91.4059 22.4049 91.9821 22.1954C92.5583 21.9684 93.0297 21.6454 93.3964 21.2263C93.7805 20.8073 94.0424 20.3097 94.1821 19.7335H97.9269C97.7697 21.078 97.3164 22.2216 96.565 23.1644C95.8145 24.1073 94.8631 24.8232 93.7107 25.3121C92.5583 25.7835 91.2837 26.0192 89.8869 26.0192ZM105.807 25.993C104.411 25.993 103.188 25.7137 102.14 25.1549C101.093 24.5787 100.281 23.7668 99.705 22.7192C99.1288 21.6542 98.8402 20.397 98.8402 18.9478C98.8402 17.4637 99.1288 16.189 99.705 15.124C100.298 14.0414 101.119 13.2121 102.167 12.6359C103.215 12.0597 104.419 11.7716 105.781 11.7716C107.177 11.7716 108.392 12.0684 109.421 12.6621C110.452 13.2557 111.255 14.0851 111.831 15.1501C112.407 16.2152 112.695 17.4899 112.695 18.974C112.695 20.4232 112.407 21.6803 111.831 22.7454C111.273 23.793 110.477 24.5961 109.448 25.1549C108.435 25.7137 107.221 25.993 105.807 25.993ZM105.755 22.6406C106.558 22.6406 107.204 22.4661 107.693 22.1168C108.182 21.7676 108.531 21.3137 108.74 20.7549C108.968 20.1787 109.081 19.5763 109.081 18.9478C109.081 18.3192 108.968 17.7168 108.74 17.1406C108.531 16.5644 108.182 16.093 107.693 15.7263C107.221 15.3422 106.575 15.1501 105.755 15.1501C104.969 15.1501 104.332 15.3422 103.843 15.7263C103.354 16.093 102.996 16.5644 102.769 17.1406C102.559 17.7168 102.455 18.3192 102.455 18.9478C102.455 19.5938 102.559 20.1961 102.769 20.7549C102.996 21.3137 103.354 21.7676 103.843 22.1168C104.332 22.4661 104.969 22.6406 105.755 22.6406ZM119.94 25.993C118.544 25.993 117.382 25.6787 116.457 25.0501C115.549 24.4041 114.868 23.5485 114.415 22.4835C113.96 21.4009 113.734 20.2049 113.734 18.8954C113.734 17.5161 113.977 16.2938 114.467 15.2287C114.955 14.1461 115.68 13.2994 116.64 12.6882C117.601 12.0771 118.796 11.7716 120.229 11.7716C120.717 11.7716 121.197 11.8327 121.669 11.9549C122.158 12.0597 122.603 12.2256 123.005 12.4525C123.424 12.6621 123.782 12.9414 124.078 13.2906V7.26682H127.745V25.8097H124.183L124.131 24.2644C123.816 24.6661 123.433 24.9978 122.978 25.2597C122.542 25.5041 122.071 25.6875 121.564 25.8097C121.058 25.9319 120.516 25.993 119.94 25.993ZM120.674 22.693C121.459 22.693 122.096 22.5097 122.586 22.143C123.092 21.7763 123.468 21.3049 123.712 20.7287C123.956 20.1525 124.078 19.5327 124.078 18.8692C124.078 18.1882 123.956 17.5684 123.712 17.0097C123.485 16.4335 123.118 15.9795 122.612 15.6478C122.123 15.2985 121.477 15.124 120.674 15.124C119.871 15.124 119.225 15.3073 118.735 15.674C118.247 16.0406 117.897 16.5208 117.688 17.1144C117.496 17.6906 117.4 18.3104 117.4 18.974C117.4 19.4628 117.453 19.9342 117.557 20.3882C117.679 20.8247 117.872 21.2176 118.134 21.5668C118.395 21.9161 118.735 22.1954 119.155 22.4049C119.574 22.597 120.08 22.693 120.674 22.693ZM136.153 25.993C134.703 25.993 133.473 25.7049 132.459 25.1287C131.447 24.5525 130.67 23.7406 130.129 22.693C129.587 21.628 129.316 20.3882 129.316 18.974C129.316 17.5422 129.596 16.2938 130.155 15.2287C130.714 14.1461 131.499 13.2994 132.512 12.6882C133.542 12.0771 134.755 11.7716 136.153 11.7716C137.2 11.7716 138.116 11.9461 138.902 12.2954C139.706 12.6446 140.377 13.1335 140.919 13.7621C141.477 14.3906 141.888 15.124 142.15 15.9621C142.43 16.7827 142.56 17.6732 142.543 18.6335C142.543 18.878 142.535 19.1137 142.516 19.3406C142.499 19.5676 142.464 19.7946 142.412 20.0216H132.957C133.01 20.5454 133.158 21.0256 133.402 21.4621C133.647 21.8985 133.987 22.2478 134.424 22.5097C134.877 22.7541 135.436 22.8763 136.1 22.8763C136.536 22.8763 136.938 22.8327 137.305 22.7454C137.672 22.6406 137.986 22.4835 138.248 22.274C138.51 22.0644 138.693 21.82 138.797 21.5406H142.412C142.185 22.5708 141.757 23.4176 141.129 24.0811C140.517 24.7446 139.775 25.2335 138.902 25.5478C138.03 25.8446 137.113 25.993 136.153 25.993ZM133.035 17.4549H139.034C139.015 16.9835 138.894 16.547 138.667 16.1454C138.457 15.7263 138.135 15.3946 137.697 15.1501C137.278 14.8882 136.737 14.7573 136.074 14.7573C135.411 14.7573 134.852 14.8882 134.397 15.1501C133.961 15.4121 133.63 15.7525 133.402 16.1716C133.193 16.5732 133.071 17.0009 133.035 17.4549Z" fill="white"/>
    <path d="M77.4761 10.7604C78.7648 10.7604 79.8095 9.71575 79.8095 8.42708C79.8095 7.13842 78.7648 6.09375 77.4761 6.09375C76.1875 6.09375 75.1428 7.13842 75.1428 8.42708C75.1428 9.71575 76.1875 10.7604 77.4761 10.7604Z" fill="#FE9332"/>
  </g>
  <defs>
    <clipPath id="clip0_266_19784">
      <rect width="142.571" height="32" fill="white"/>
    </clipPath>
  </defs>
</svg>