<svg xmlns="http://www.w3.org/2000/svg" width="32" height="33" viewBox="0 0 32 33" fill="none">
  <path d="M31 3.41406C31 2.41406 30 1.41406 29 1.41406H3C2 1.41406 1 2.41406 1 3.41406V22.4141H31V3.41406Z" fill="#212528"/>
  <path d="M1 22.4141V24.4141C1 25.4141 2 26.4141 3 26.4141H29C30 26.4141 31 25.4141 31 24.4141V22.4141H1Z" fill="#DDDDDD"/>
  <path d="M12 27.4141C12 29.4141 10 29.4141 8 29.4141H24C22 29.4141 20 29.4141 20 27.4141V26.4141H12V27.4141Z" fill="#BFBEBE"/>
  <path d="M3 3.41406H29V20.4141H3V3.41406Z" fill="#3E4347"/>
  <path d="M20.8584 9.48486L22.3484 10.7684C22.9738 11.3088 23.2871 11.5784 23.2871 11.9136C23.2871 12.2487 22.9738 12.5183 22.3484 13.0587L20.8584 14.3423M11.1436 9.48486L9.65354 10.7684C9.02815 11.3088 8.71484 11.5784 8.71484 11.9136C8.71484 12.2487 9.02815 12.5183 9.65354 13.0587L11.1436 14.3423M17.2153 8.27051L14.7866 15.5566" stroke="white" stroke-width="2" stroke-linecap="round" stroke-linejoin="round"/>
  <path d="M16 24.8643C16.2761 24.8643 16.5 24.6404 16.5 24.3643C16.5 24.0881 16.2761 23.8643 16 23.8643C15.7239 23.8643 15.5 24.0881 15.5 24.3643C15.5 24.6404 15.7239 24.8643 16 24.8643Z" fill="#94989B"/>
  <path d="M8 29.4141H24V31.4141H8V29.4141Z" fill="#94989B"/>
</svg>