<svg xmlns="http://www.w3.org/2000/svg" width="49" height="48" viewBox="0 0 49 48" fill="none">
  <path opacity="0.15" d="M3.91016 45.1498C3.91016 45.3928 4.43627 45.6333 5.45845 45.8578C6.48063 46.0822 7.97886 46.2862 9.8676 46.458C11.7563 46.6297 13.9986 46.766 16.4664 46.859C18.9341 46.952 21.5791 46.9998 24.2502 46.9998C26.9212 46.9998 29.5662 46.952 32.0339 46.859C34.5017 46.766 36.744 46.6297 38.6327 46.458C40.5215 46.2862 42.0197 46.0822 43.0419 45.8578C44.064 45.6333 44.5902 45.3928 44.5902 45.1498C44.5902 44.6592 42.4472 44.1886 38.6327 43.8417C34.8182 43.4947 29.6447 43.2998 24.2502 43.2998C18.8557 43.2998 13.6821 43.4947 9.8676 43.8417C6.05311 44.1886 3.91016 44.6592 3.91016 45.1498Z" fill="#45413C"/>
  <path d="M6.98993 34H41.5099C41.8361 34 42.149 34.1296 42.3797 34.3603C42.6103 34.5909 42.7399 34.9038 42.7399 35.23V43.86C42.7399 44.0244 42.6746 44.1821 42.5583 44.2984C42.4421 44.4147 42.2844 44.48 42.1199 44.48H6.37993C6.29851 44.48 6.21789 44.464 6.14266 44.4328C6.06744 44.4016 5.99909 44.356 5.94152 44.2984C5.88395 44.2408 5.83828 44.1725 5.80712 44.0973C5.77596 44.022 5.75993 43.9414 5.75993 43.86V35.25C5.75727 35.0868 5.78713 34.9247 5.84775 34.7732C5.90838 34.6216 5.99856 34.4836 6.11304 34.3673C6.22752 34.251 6.36401 34.1586 6.51456 34.0955C6.66511 34.0324 6.82671 34 6.98993 34Z" fill="white" stroke="#45413C" stroke-linecap="round" stroke-linejoin="round"/>
  <path d="M7.60938 5.66992H40.8894V34.0199H7.60938V5.66992Z" fill="white"/>
  <path d="M7.60938 5.66992H40.8894V8.28992H7.60938V5.66992Z" fill="#E0E0E0"/>
  <path d="M7.60938 5.66992H40.8894V34.0199H7.60938V5.66992Z" stroke="#45413C" stroke-linecap="round" stroke-linejoin="round"/>
  <path d="M6.38086 2.58984H42.1309V5.66984H6.38086V2.58984Z" fill="#87898C"/>
  <path d="M40.8909 2.58984H7.61087C7.28465 2.58984 6.97179 2.71943 6.74112 2.9501C6.51045 3.18077 6.38087 3.49363 6.38087 3.81984V4.43984C6.38034 4.5976 6.41092 4.75392 6.47087 4.89984C6.56253 4.67252 6.72003 4.47776 6.92315 4.34057C7.12627 4.20337 7.36575 4.12999 7.61087 4.12984H40.8909C41.136 4.12999 41.3755 4.20337 41.5786 4.34057C41.7817 4.47776 41.9392 4.67252 42.0309 4.89984C42.0908 4.75392 42.1214 4.5976 42.1209 4.43984V3.81984C42.1209 3.49363 41.9913 3.18077 41.7606 2.9501C41.5299 2.71943 41.2171 2.58984 40.8909 2.58984Z" fill="#BDBEC0"/>
  <path d="M6.38086 2.58984H42.1309V5.66984H6.38086V2.58984Z" stroke="#45413C" stroke-linecap="round" stroke-linejoin="round"/>
  <path d="M19.3203 36.4902H29.1803V44.5002H19.3203V36.4902Z" fill="#00B8F0"/>
  <path d="M21.25 44.5002H25.99L29.18 36.4902H24.44L21.25 44.5002Z" fill="#4ACFFF"/>
  <path d="M19.3203 36.4902H29.1803V44.5002H19.3203V36.4902Z" stroke="#45413C" stroke-linecap="round" stroke-linejoin="round"/>
  <path d="M10.6895 37.0996H14.3895V41.4096H10.6895V37.0996Z" fill="#00B8F0"/>
  <path d="M11.9805 41.4196H14.3905V37.0996H13.7005L11.9805 41.4196Z" fill="#4ACFFF"/>
  <path d="M11.3105 26.6299H15.0105V30.9399H11.3105V26.6299Z" fill="#00B8F0"/>
  <path d="M12.5898 30.9399H14.9998V26.6299H14.3098L12.5898 30.9399Z" fill="#4ACFFF"/>
  <path d="M33.5 26.6299H37.2V30.9399H33.5V26.6299Z" fill="#00B8F0"/>
  <path d="M34.7793 30.9399H37.1893V26.6299H36.4993L34.7793 30.9399Z" fill="#4ACFFF"/>
  <path d="M26.0996 26.6299H29.7996V30.9399H26.0996V26.6299Z" fill="#00B8F0"/>
  <path d="M27.3906 30.9399H29.8006V26.6299H29.1006L27.3906 30.9399Z" fill="#4ACFFF"/>
  <path d="M18.6992 26.6299H22.3992V30.9399H18.6992V26.6299Z" fill="#00B8F0"/>
  <path d="M19.9902 30.9399H22.4002V26.6299H21.7102L19.9902 30.9399Z" fill="#4ACFFF"/>
  <path d="M11.3105 18H15.0105V22.31H11.3105V18Z" fill="#00B8F0"/>
  <path d="M12.5898 22.31H14.9998V18H14.3098L12.5898 22.31Z" fill="#4ACFFF"/>
  <path d="M33.5 18H37.2V22.31H33.5V18Z" fill="#00B8F0"/>
  <path d="M34.7793 22.31H37.1893V18H36.4993L34.7793 22.31Z" fill="#4ACFFF"/>
  <path d="M26.0996 18H29.7996V22.31H26.0996V18Z" fill="#00B8F0"/>
  <path d="M27.3906 22.31H29.8006V18H29.1006L27.3906 22.31Z" fill="#4ACFFF"/>
  <path d="M18.6992 18H22.3992V22.31H18.6992V18Z" fill="#00B8F0"/>
  <path d="M19.9902 22.31H22.4002V18H21.7102L19.9902 22.31Z" fill="#4ACFFF"/>
  <path d="M11.3105 9.37012H15.0105V13.6801H11.3105V9.37012Z" fill="#00B8F0"/>
  <path d="M12.5898 13.6801H14.9998V9.37012H14.3098L12.5898 13.6801Z" fill="#4ACFFF"/>
  <path d="M33.5 9.37012H37.2V13.6801H33.5V9.37012Z" fill="#00B8F0"/>
  <path d="M34.7793 13.6801H37.1893V9.37012H36.4993L34.7793 13.6801Z" fill="#4ACFFF"/>
  <path d="M26.0996 9.37012H29.7996V13.6801H26.0996V9.37012Z" fill="#00B8F0"/>
  <path d="M27.3906 13.6801H29.8006V9.37012H29.1006L27.3906 13.6801Z" fill="#4ACFFF"/>
  <path d="M18.6992 9.37012H22.3992V13.6801H18.6992V9.37012Z" fill="#00B8F0"/>
  <path d="M19.9902 13.6801H22.4002V9.37012H21.7102L19.9902 13.6801Z" fill="#4ACFFF"/>
  <path d="M11.3105 26.6301H15.0105V30.9401H11.3105V26.6301ZM33.5005 26.6301H37.2005V30.9401H33.5005V26.6301ZM26.1005 26.6301H29.8005V30.9401H26.1005V26.6301ZM18.7005 26.6301H22.4005V30.9401H18.7005V26.6301ZM11.3105 18.0001H15.0105V22.3101H11.3105V18.0001ZM33.5005 18.0001H37.2005V22.3101H33.5005V18.0001ZM26.1005 18.0001H29.8005V22.3101H26.1005V18.0001ZM18.7005 18.0001H22.4005V22.3101H18.7005V18.0001ZM11.3105 9.37012H15.0105V13.6801H11.3105V9.37012ZM33.5005 9.37012H37.2005V13.6801H33.5005V9.37012ZM26.1005 9.37012H29.8005V13.6801H26.1005V9.37012ZM18.7005 9.37012H22.4005V13.6801H18.7005V9.37012Z" stroke="#45413C" stroke-linecap="round" stroke-linejoin="round"/>
  <path d="M34.1094 37.0996H37.8094V41.4096H34.1094V37.0996Z" fill="#00B8F0"/>
  <path d="M35.4199 41.4196H37.8399V37.0996H37.1399L35.4199 41.4196Z" fill="#4ACFFF"/>
  <path d="M24.2495 36.4902V44.5002M10.6895 37.1002H14.3895V41.4102H10.6895V37.1002ZM34.1095 37.1002H37.8095V41.4102H34.1095V37.1002Z" stroke="#45413C" stroke-linecap="round" stroke-linejoin="round"/>
  <path d="M17.8594 33.4102H30.6494V36.4902H17.8594V33.4102Z" fill="#87898C"/>
  <path d="M29.4094 33.4102H19.0894C18.7632 33.4102 18.4503 33.5397 18.2196 33.7704C17.989 34.0011 17.8594 34.3139 17.8594 34.6402V35.2502C17.8608 35.4101 17.8878 35.5688 17.9394 35.7202C18.0414 35.5022 18.2042 35.3183 18.4082 35.1905C18.6122 35.0628 18.8487 34.9967 19.0894 35.0002H29.4094C29.6545 35.0003 29.894 35.0737 30.0971 35.2109C30.3002 35.3481 30.4577 35.5428 30.5494 35.7702C30.6106 35.6211 30.6412 35.4613 30.6394 35.3002V34.6902C30.6461 34.5245 30.6193 34.3591 30.5605 34.2041C30.5017 34.049 30.4122 33.9075 30.2973 33.7879C30.1824 33.6683 30.0445 33.5732 29.8919 33.5083C29.7393 33.4434 29.5752 33.41 29.4094 33.4102Z" fill="#BDBEC0"/>
  <path d="M17.8594 33.4102H30.6494V36.4902H17.8594V33.4102Z" stroke="#45413C" stroke-linecap="round" stroke-linejoin="round"/>
</svg>