<svg xmlns="http://www.w3.org/2000/svg" width="32" height="33" viewBox="0 0 32 33" fill="none">
  <path d="M26.6869 31.3838H8.23437C7.68187 31.3838 7.23438 30.9363 7.23438 30.3838V4.11133C7.23438 3.55883 7.68187 3.11133 8.23437 3.11133H26.6894C27.2419 3.11133 27.6894 3.55883 27.6894 4.11133V30.3838C27.6869 30.9363 27.2394 31.3838 26.6869 31.3838Z" fill="white"/>
  <path d="M26.6869 3.11133H24.9644V3.86133H26.6869C26.8244 3.86133 26.9369 3.97383 26.9369 4.11133V30.3838C26.9369 30.5213 26.8244 30.6338 26.6869 30.6338H8.23437C8.09687 30.6338 7.98438 30.5213 7.98438 30.3838V28.9463H7.23438V30.3838C7.23438 30.9363 7.68187 31.3838 8.23437 31.3838H26.6894C27.2419 31.3838 27.6894 30.9363 27.6894 30.3838V4.11133C27.6869 3.56133 27.2394 3.11133 26.6869 3.11133Z" fill="#6FBFF0"/>
  <path d="M23.9642 28.9466H4.51172C3.95922 28.9466 3.51172 28.4991 3.51172 27.9466V2.41406C3.51172 1.86156 3.95922 1.41406 4.51172 1.41406H23.9642C24.5167 1.41406 24.9642 1.86156 24.9642 2.41406V27.9466C24.9642 28.4991 24.5167 28.9466 23.9642 28.9466Z" fill="white"/>
  <path d="M29.4866 13.5691C29.4866 13.7266 29.3916 13.8641 29.2541 13.9016C28.9066 13.9941 28.1916 14.1466 27.2541 14.1466H24.2091C24.0891 14.1466 23.9716 14.0991 23.8791 14.0091L22.8616 13.0366C22.6216 12.8066 22.6216 12.3891 22.8616 12.1591L23.8791 11.1866C23.9716 11.0991 24.0891 11.0491 24.2091 11.0491H28.0916C28.4866 11.0491 28.8566 10.9741 29.1166 10.9066C29.3066 10.8566 29.4891 11.0191 29.4891 11.2391V13.5691H29.4866Z" fill="#FFD54F"/>
  <path d="M29.3376 10.9414C29.3126 10.9239 29.2851 10.9089 29.2551 10.9014C29.2526 11.4064 29.2376 11.9114 29.2376 12.4164V13.5664C29.2376 13.6164 29.2101 13.6514 29.1926 13.6564C28.8601 13.7464 28.1651 13.8939 27.2551 13.8939H24.2101C24.1551 13.8939 24.0976 13.8689 24.0526 13.8264L23.1826 12.9939C23.0526 12.8689 22.9176 12.7589 22.8401 12.5889C22.7926 12.4814 22.7701 12.3614 22.7851 12.2439C22.7826 12.2714 22.7451 12.3089 22.7351 12.3364C22.7226 12.3664 22.7151 12.4014 22.7051 12.4314C22.6876 12.4989 22.6801 12.5714 22.6851 12.6414C22.6951 12.7864 22.7551 12.9289 22.8626 13.0314L23.8801 14.0039C23.9726 14.0914 24.0901 14.1414 24.2101 14.1414H27.2551C28.1926 14.1414 28.9076 13.9889 29.2551 13.8964C29.3926 13.8589 29.4876 13.7214 29.4876 13.5639V11.2314C29.4876 11.1264 29.4301 11.0064 29.3376 10.9414Z" fill="#F3AB47"/>
  <path d="M29.4866 24.2038C29.4866 24.3613 29.3916 24.4988 29.2541 24.5363C28.9066 24.6288 28.1916 24.7813 27.2541 24.7813H24.2091C24.0891 24.7813 23.9716 24.7338 23.8791 24.6438L22.8616 23.6713C22.6216 23.4413 22.6216 23.0238 22.8616 22.7938L23.8791 21.8213C23.9716 21.7338 24.0891 21.6838 24.2091 21.6838H28.0916C28.4866 21.6838 28.8566 21.6088 29.1166 21.5413C29.3066 21.4913 29.4891 21.6538 29.4891 21.8738V24.2038H29.4866Z" fill="#0091EA"/>
  <path d="M29.3376 21.5742C29.3126 21.5567 29.2851 21.5417 29.2551 21.5342C29.2526 22.0392 29.2376 22.5442 29.2376 23.0492V24.1992C29.2376 24.2492 29.2101 24.2842 29.1926 24.2892C28.8601 24.3792 28.1651 24.5267 27.2551 24.5267H24.2101C24.1551 24.5267 24.0976 24.5017 24.0526 24.4592L23.1826 23.6267C23.0526 23.5017 22.9176 23.3917 22.8401 23.2217C22.7926 23.1142 22.7701 22.9942 22.7851 22.8767C22.7826 22.9042 22.7451 22.9417 22.7351 22.9692C22.7226 22.9992 22.7151 23.0342 22.7051 23.0642C22.6876 23.1317 22.6801 23.2042 22.6851 23.2742C22.6951 23.4192 22.7551 23.5617 22.8626 23.6642L23.8801 24.6367C23.9726 24.7242 24.0901 24.7742 24.2101 24.7742H27.2551C28.1926 24.7742 28.9076 24.6217 29.2551 24.5292C29.3926 24.4917 29.4876 24.3542 29.4876 24.1967V21.8642C29.4876 21.7592 29.4301 21.6417 29.3376 21.5742Z" fill="#01579B"/>
  <path opacity="0.25" d="M4.2832 3.11133C4.2807 3.13383 7.04571 3.15383 7.04571 3.17633L7.23571 10.1238V29.7088H24.7307C25.2832 29.7088 25.7307 29.2613 25.7307 28.7088V3.17633C25.7307 3.15383 25.7257 3.13383 25.7232 3.11133H4.2832Z" fill="#212121"/>
  <path d="M23.9642 28.9466H4.51172C3.95922 28.9466 3.51172 28.4991 3.51172 27.9466V2.41406C3.51172 1.86156 3.95922 1.41406 4.51172 1.41406H23.9642C24.5167 1.41406 24.9642 1.86156 24.9642 2.41406V27.9466C24.9642 28.4991 24.5167 28.9466 23.9642 28.9466Z" fill="white"/>
  <path d="M23.9642 2.16406C24.1017 2.16406 24.2142 2.27656 24.2142 2.41406V27.9466C24.2142 28.0841 24.1017 28.1966 23.9642 28.1966H4.51172C4.37422 28.1966 4.26172 28.0841 4.26172 27.9466V2.41406C4.26172 2.27656 4.37422 2.16406 4.51172 2.16406H23.9642ZM23.9642 1.41406H4.51172C3.95922 1.41406 3.51172 1.86156 3.51172 2.41406V27.9466C3.51172 28.4991 3.95922 28.9466 4.51172 28.9466H23.9642C24.5167 28.9466 24.9642 28.4991 24.9642 27.9466V2.41406C24.9642 1.86156 24.5167 1.41406 23.9642 1.41406Z" fill="#6FBFF0"/>
  <path d="M6.77734 8.03418H21.0548M6.77734 11.4767H21.0548M6.77734 14.9217H21.0548M6.77734 18.3667H21.0548M6.77734 21.8092H12.8848" stroke="#B0BEC5" stroke-width="0.96625" stroke-miterlimit="10" stroke-linecap="round"/>
  <path d="M29.0218 8.77902C29.0218 8.93652 28.9268 9.07402 28.7893 9.11152C28.4418 9.20402 27.7268 9.35652 26.7893 9.35652H23.7443C23.6243 9.35652 23.5068 9.30902 23.4143 9.21902L22.3968 8.24652C22.1568 8.01652 22.1568 7.59902 22.3968 7.36902L23.4143 6.39652C23.5068 6.30902 23.6243 6.25902 23.7443 6.25902H27.6268C28.0218 6.25902 28.3918 6.18402 28.6518 6.11652C28.8418 6.06652 29.0243 6.22902 29.0243 6.44902V8.77902H29.0218Z" fill="#F44336"/>
  <path d="M29.0218 19.4138C29.0218 19.5713 28.9268 19.7088 28.7893 19.7463C28.4418 19.8388 27.7268 19.9913 26.7893 19.9913H23.7443C23.6243 19.9913 23.5068 19.9438 23.4143 19.8538L22.3968 18.8813C22.1568 18.6513 22.1568 18.2338 22.3968 18.0038L23.4143 17.0313C23.5068 16.9438 23.6243 16.8938 23.7443 16.8938H27.6268C28.0218 16.8938 28.3918 16.8188 28.6518 16.7513C28.8418 16.7013 29.0243 16.8638 29.0243 17.0838V19.4138H29.0218Z" fill="#9CCC65"/>
  <path d="M28.8753 6.15426C28.8503 6.13676 28.8228 6.12176 28.7928 6.11426C28.7903 6.61926 28.7753 7.12426 28.7753 7.62926V8.77926C28.7753 8.82926 28.7478 8.86426 28.7303 8.86926C28.3978 8.95926 27.7028 9.10676 26.7928 9.10676H23.7453C23.6903 9.10676 23.6328 9.08176 23.5878 9.03926L22.7178 8.20676C22.5878 8.08176 22.4528 7.97176 22.3753 7.80176C22.3278 7.69426 22.3053 7.57426 22.3203 7.45676C22.3178 7.48426 22.2803 7.52176 22.2703 7.54926C22.2578 7.57926 22.2503 7.61426 22.2403 7.64426C22.2228 7.71176 22.2153 7.78426 22.2203 7.85426C22.2303 7.99926 22.2903 8.14176 22.3978 8.24426L23.4153 9.21676C23.5078 9.30426 23.6253 9.35426 23.7453 9.35426H26.7903C27.7278 9.35426 28.4428 9.20176 28.7903 9.10926C28.9278 9.07176 29.0228 8.93426 29.0228 8.77676V6.44426C29.0228 6.33926 28.9653 6.21926 28.8753 6.15426Z" fill="#C62828"/>
  <path d="M28.8753 16.7841C28.8503 16.7666 28.8228 16.7516 28.7928 16.7441C28.7903 17.2491 28.7753 17.7541 28.7753 18.2591V19.4091C28.7753 19.4591 28.7478 19.4941 28.7303 19.4991C28.3978 19.5891 27.7028 19.7366 26.7928 19.7366H23.7453C23.6903 19.7366 23.6328 19.7116 23.5878 19.6691L22.7178 18.8366C22.5878 18.7116 22.4528 18.6016 22.3753 18.4316C22.3278 18.3241 22.3053 18.2041 22.3203 18.0866C22.3178 18.1141 22.2803 18.1516 22.2703 18.1791C22.2578 18.2091 22.2503 18.2441 22.2403 18.2741C22.2228 18.3416 22.2153 18.4141 22.2203 18.4841C22.2303 18.6291 22.2903 18.7716 22.3978 18.8741L23.4153 19.8466C23.5078 19.9341 23.6253 19.9841 23.7453 19.9841H26.7903C27.7278 19.9841 28.4428 19.8316 28.7903 19.7391C28.9278 19.7016 29.0228 19.5641 29.0228 19.4066V17.0741C29.0228 16.9691 28.9653 16.8491 28.8753 16.7841Z" fill="#7CB342"/>
</svg>