<svg xmlns="http://www.w3.org/2000/svg" width="24" height="24" viewBox="0 0 24 24" fill="none">
  <path d="M15.0639 9.06641H6.8086V12.2534C6.80664 13.6333 7.35184 14.9577 8.3247 15.9363C9.29756 16.9149 10.6187 17.4679 11.9986 17.4741C13.0721 17.47 14.1195 17.142 15.0036 16.5331C15.2062 14.049 15.2265 11.5534 15.0643 9.06641" fill="#F4AA41"/>
  <path d="M15.0631 9.06674C15.2199 11.5434 15.2099 14.0278 15.0331 16.5031C15.7198 16.0208 16.2798 15.3798 16.6656 14.6347C17.0514 13.8895 17.2514 13.0622 17.2488 12.2231V9.06641L15.0631 9.06674ZM10.0248 17.4441L10.5408 19.3257H13.5458L14.0314 17.4441H10.0248ZM10.8141 19.3257H13.2728V21.4874H10.8141V19.3257Z" fill="#E27022"/>
  <path d="M9.43225 3.21094C9.68635 3.21042 9.93116 3.30645 10.1171 3.47961C10.3031 3.65277 10.4163 3.89011 10.4339 4.14361V8.73494H9.43225V3.21094ZM14.8366 3.21094C15.0907 3.21042 15.3355 3.30645 15.5215 3.47961C15.7074 3.65277 15.8207 3.89011 15.8383 4.14361V8.73494H14.8366V3.21094Z" fill="#989898"/>
  <path d="M10.4344 8.73527V4.21294C10.4322 3.94795 10.326 3.69444 10.1386 3.50706C9.9512 3.31968 9.69768 3.21345 9.4327 3.21127C9.16771 3.21345 8.9142 3.31968 8.72682 3.50706C8.53944 3.69444 8.43321 3.94795 8.43103 4.21294V8.73527M15.8384 8.73527V4.21294C15.8363 3.94795 15.7301 3.6944 15.5428 3.50696C15.3555 3.31952 15.102 3.2132 14.837 3.21094C14.572 3.21311 14.3185 3.31935 14.1312 3.50673C13.9438 3.6941 13.8375 3.94762 13.8354 4.2126V8.73494" stroke="#989898" stroke-width="0.666667" stroke-miterlimit="10" stroke-linecap="round"/>
  <path d="M6.50391 8.76562V12.2563C6.50391 13.7214 7.08592 15.1265 8.1219 16.1625C9.15788 17.1984 10.563 17.7805 12.0281 17.7805C13.4932 17.7805 14.8983 17.1984 15.9342 16.1625C16.9702 15.1265 17.5522 13.7214 17.5522 12.2563V8.76562H6.50391Z" stroke="black" stroke-width="0.666667" stroke-linecap="round" stroke-linejoin="round"/>
  <path d="M10.0248 17.4453L10.5408 19.327H13.5458L14.0314 17.4453M10.8138 21.4886V19.327H13.2724V21.4886" stroke="black" stroke-width="0.666667" stroke-linecap="round" stroke-linejoin="round"/>
</svg>