<svg xmlns="http://www.w3.org/2000/svg" width="32" height="32" viewBox="0 0 32 32" fill="none">
  <path d="M2.66699 18.668V5.33464C2.66699 3.86797 3.86699 2.66797 5.33366 2.66797H24.0003C25.467 2.66797 26.667 3.86797 26.667 5.33464V18.668C26.667 20.1346 25.467 21.3346 24.0003 21.3346H5.33366C3.86699 21.3346 2.66699 20.1346 2.66699 18.668Z" fill="#546E7A"/>
  <path d="M24.0003 4.66797H5.33366C4.93366 4.66797 4.66699 4.93464 4.66699 5.33464V18.668C4.66699 19.068 4.93366 19.3346 5.33366 19.3346H24.0003C24.4003 19.3346 24.667 19.068 24.667 18.668V5.33464C24.667 4.93464 24.4003 4.66797 24.0003 4.66797Z" fill="#BBDEFB"/>
  <path d="M25.333 21.9987H3.99967C2.53301 21.9987 1.33301 20.7987 1.33301 19.332H27.9997C27.9997 20.7987 26.7997 21.9987 25.333 21.9987Z" fill="#37474F"/>
  <path d="M16 26.6667V10.6667C16 9.2 17.2 8 18.6667 8H26.6667C28.1333 8 29.3333 9.2 29.3333 10.6667V26.6667C29.3333 28.1333 28.1333 29.3333 26.6667 29.3333H18.6667C17.2 29.3333 16 28.1333 16 26.6667Z" fill="#E38939"/>
  <path d="M26.6667 10H18.6667C18.2667 10 18 10.2667 18 10.6667V25.3333C18 25.7333 18.2667 26 18.6667 26H26.6667C27.0667 26 27.3333 25.7333 27.3333 25.3333V10.6667C27.3333 10.2667 27.0667 10 26.6667 10Z" fill="#FFF3E0"/>
  <path d="M22.667 28.668C23.2193 28.668 23.667 28.2203 23.667 27.668C23.667 27.1157 23.2193 26.668 22.667 26.668C22.1147 26.668 21.667 27.1157 21.667 27.668C21.667 28.2203 22.1147 28.668 22.667 28.668Z" fill="#A6642A"/>
</svg>