<svg xmlns="http://www.w3.org/2000/svg" width="24" height="24" viewBox="0 0 24 24" fill="none">
  <g clip-path="url(#clip0_270_33065)">
    <path d="M13.5 12.75C13.5 13.989 14.4225 15 15.54 15C16.683 15 17.565 13.9935 17.58 12.75C17.595 11.5065 16.6875 10.5 15.54 10.5C14.388 10.5 13.5 11.5155 13.5 12.75ZM8.44503 15C7.32453 15 6.40503 13.9935 6.40503 12.75C6.40503 11.5065 7.29903 10.5 8.44503 10.5C9.59103 10.5 10.515 11.5155 10.5 12.75C10.4805 13.989 9.59703 15 8.46003 15H8.44503Z" fill="#71717A"/>
    <path fill-rule="evenodd" clip-rule="evenodd" d="M19.95 4.08393C20.1977 4.19604 20.4103 4.37336 20.565 4.59693C23.13 8.30193 24.42 12.5319 23.94 17.3919C23.9195 17.6022 23.8547 17.8058 23.75 17.9893C23.6453 18.1729 23.503 18.3322 23.3325 18.4569C21.5925 19.7334 19.6275 20.7069 17.5575 21.3219C17.2652 21.41 16.9528 21.4059 16.6629 21.3101C16.373 21.2142 16.1197 21.0314 15.9375 20.7864C15.5747 20.302 15.2416 19.7961 14.94 19.2714C13.0259 19.6741 11.049 19.6741 9.13499 19.2714C8.83732 19.7982 8.50457 20.3043 8.13899 20.7864C7.95432 21.0326 7.69838 21.2161 7.4059 21.3119C7.11341 21.4077 6.79854 21.4112 6.50399 21.3219C4.43128 20.6992 2.47876 19.7306 0.728991 18.4569C0.558256 18.3321 0.415864 18.1725 0.311165 17.9887C0.206466 17.8049 0.141827 17.601 0.121491 17.3904C-0.282009 13.2054 0.536991 8.93043 3.49649 4.61043C3.65099 4.38393 3.86549 4.20393 4.11599 4.08993C5.61449 3.41193 7.19099 2.92893 8.82599 2.65443C9.44849 2.54943 10.071 2.84643 10.386 3.39543L10.5195 3.63693C11.5295 3.54993 12.5445 3.54993 13.5645 3.63693L13.6965 3.39543C13.8485 3.12622 14.0799 2.91054 14.3591 2.7779C14.6384 2.64526 14.9518 2.60214 15.2565 2.65443C16.8765 2.92593 18.4665 3.40743 19.9665 4.08693L19.95 4.08393ZM14.445 5.24793C12.8486 5.01249 11.2264 5.01249 9.62999 5.24793C9.46445 4.86657 9.2792 4.49407 9.07499 4.13193C7.57799 4.38393 6.11999 4.82943 4.73999 5.45493C1.99499 9.47493 1.25999 13.3899 1.61999 17.2449C3.22499 18.4194 5.02499 19.3149 6.92999 19.8849C7.17785 19.5565 7.40866 19.2156 7.62149 18.8634C7.77949 18.6034 7.92799 18.3384 8.06699 18.0684C7.44571 17.8392 6.84588 17.5556 6.27449 17.2209C6.42449 17.1119 6.57099 17.0029 6.71399 16.8939C7.61743 17.3134 8.5669 17.6255 9.54299 17.8239C11.6106 18.2375 13.7489 18.1256 15.762 17.4984C16.2955 17.333 16.8167 17.1305 17.322 16.8924C17.466 17.0094 17.6125 17.1184 17.7615 17.2194C17.6217 17.3 17.4806 17.3785 17.3385 17.4549C16.8943 17.6884 16.4359 17.8938 15.966 18.0699C16.2002 18.5202 16.4596 18.9569 16.743 19.3779C16.86 19.5479 16.9805 19.7164 17.1045 19.8834C19.0095 19.3134 20.8095 18.4209 22.4145 17.2434C22.851 12.7734 21.669 8.88843 19.2945 5.45343C17.9145 4.82793 16.4595 4.38543 14.9595 4.13493C14.7555 4.49693 14.5705 4.86893 14.4045 5.25093L14.445 5.24793Z" fill="#71717A"/>
  </g>
  <defs>
    <clipPath id="clip0_270_33065">
      <rect width="24" height="24" fill="white"/>
    </clipPath>
  </defs>
</svg>