<svg xmlns="http://www.w3.org/2000/svg" width="25" height="25" viewBox="0 0 25 25" fill="none">
  <path d="M15.736 1.77496L10.8985 23.0375L20.836 20.3C21.961 19.9625 22.636 18.8 22.336 17.6375L18.361 3.27496C18.061 2.11246 16.861 1.47496 15.736 1.77496Z" fill="#3E4347"/>
  <path d="M14.911 1.54998L10.8985 23.0375L20.761 19.85C21.886 19.475 22.5235 18.275 22.1485 17.15L17.611 2.93748C17.236 1.81248 16.036 1.21248 14.911 1.54998Z" fill="#E9F3FA"/>
  <path d="M14.1988 1.3999L4.63629 4.9249L11.0863 22.9999L20.6488 19.4749C21.7738 19.0624 22.3363 17.8249 21.9238 16.6999L16.9363 2.6374C16.5613 1.5499 15.3238 0.9874 14.1988 1.3999Z" fill="#C28FEF"/>
  <path d="M9.21041 5.1499L8.64791 6.3874L7.44791 5.7874L7.97291 4.5499L9.21041 5.1499ZM12.6979 3.8374L12.1354 5.0749L10.9354 4.5124L11.4979 3.2374L12.6979 3.8374ZM16.1854 2.5624L15.6604 3.7999L14.4604 3.1999L14.9854 1.9624L16.1854 2.5624ZM8.08541 7.6249L7.56041 8.8624L6.36041 8.2624L6.88541 7.0249L8.08541 7.6249ZM11.6104 6.3124L11.0479 7.5874L9.84791 6.9874L10.4104 5.7499L11.6104 6.3124ZM15.0979 5.0374L14.5354 6.2749L13.3354 5.6749L13.8979 4.4374L15.0979 5.0374ZM10.5229 8.8249L9.96041 10.0624L8.76041 9.4624L9.28541 8.2249L10.5229 8.8249ZM17.4979 6.2374L16.9729 7.4749L15.7729 6.8749L16.2979 5.6374L17.4979 6.2374ZM9.39791 11.2999L8.87291 12.5374L7.67291 11.9374L8.19791 10.6999L9.39791 11.2999ZM12.9229 9.9874L12.3604 11.2249L11.1604 10.6624L11.7229 9.4249L12.9229 9.9874ZM16.4104 8.7124L15.8479 9.9499L14.6479 9.3499L15.2104 8.1124L16.4104 8.7124ZM11.8354 12.4999L11.2729 13.7374L10.0729 13.1374L10.6354 11.8999L11.8354 12.4999ZM15.3229 11.1874L14.7604 12.4249L13.5604 11.8249L14.1229 10.5874L15.3229 11.1874ZM18.8104 9.8749L18.2854 11.1499L17.0854 10.5499L17.6104 9.3124L18.8104 9.8749ZM10.7104 14.9749L10.1854 16.2124L8.98541 15.6124L9.51041 14.3749L10.7104 14.9749ZM14.2354 13.6624L13.6729 14.8999L12.4729 14.2999L13.0354 13.0624L14.2354 13.6624ZM17.7229 12.3874L17.1604 13.6249L15.9604 13.0249L16.5229 11.7874L17.7229 12.3874ZM13.1479 16.1374L12.5854 17.3749L11.3854 16.8124L11.9479 15.5749L13.1479 16.1374ZM16.6354 14.8624L16.0729 16.0999L14.8729 15.4999L15.4354 14.2624L16.6354 14.8624ZM20.1229 13.5499L19.5979 14.7874L18.3979 14.2249L18.9229 12.9874L20.1229 13.5499ZM12.0229 18.6499L11.4979 19.8874L10.2979 19.2874L10.8229 18.0499L12.0229 18.6499ZM15.5479 17.3374L14.9854 18.5749L13.7854 17.9749L14.3479 16.7374L15.5479 17.3374ZM19.0354 16.0624L18.5104 17.2999L17.2729 16.6999L17.8354 15.4624L19.0354 16.0624ZM14.4604 19.8124L13.8979 21.0499L12.6979 20.4874L13.2604 19.2124L14.4604 19.8124ZM17.9479 18.5374L17.3854 19.7749L16.1854 19.1749L16.7479 17.9374L17.9479 18.5374ZM21.4354 17.2249L20.9104 18.4624L19.7104 17.8624L20.2354 16.6249L21.4354 17.2249Z" fill="#A67ACC"/>
  <path d="M3.13498 5.4873C2.00998 5.8998 2.00998 6.5373 2.38498 7.6623L7.78498 22.6998C8.19748 23.8248 8.49748 23.9748 9.62248 23.5623L11.1225 22.9998L4.63498 4.9248L3.13498 5.4873Z" fill="#3E4347"/>
  <path d="M15.8482 8.5252L9.92321 10.7377L9.09821 8.3752L15.0232 6.2002L15.8482 8.5252Z" fill="white"/>
</svg>