<svg xmlns="http://www.w3.org/2000/svg" width="25" height="24" viewBox="0 0 25 24" fill="none">
  <path opacity="0.15" d="M2.09949 23.11C2.09949 23.3381 2.916 23.5568 4.36941 23.7181C5.82282 23.8794 7.79406 23.97 9.84949 23.97C11.9049 23.97 13.8762 23.8794 15.3296 23.7181C16.783 23.5568 17.5995 23.3381 17.5995 23.11C17.5995 22.8819 16.783 22.6632 15.3296 22.5019C13.8762 22.3406 11.9049 22.25 9.84949 22.25C7.79406 22.25 5.82282 22.3406 4.36941 22.5019C2.916 22.6632 2.09949 22.8819 2.09949 23.11Z" fill="#45413C"/>
  <path d="M9.84996 12C11.3401 12 12.7693 12.5913 13.8239 13.644C14.8785 14.6968 15.4723 16.1249 15.475 17.615V21.77C15.475 22.0353 15.3696 22.2896 15.1821 22.4771C14.9945 22.6647 14.7402 22.77 14.475 22.77H5.20496C4.93974 22.77 4.68539 22.6647 4.49785 22.4771C4.31031 22.2896 4.20496 22.0353 4.20496 21.77V17.615C4.20627 16.8755 4.35339 16.1435 4.63791 15.4609C4.92243 14.7783 5.33876 14.1585 5.86308 13.6369C6.3874 13.1154 7.00941 12.7024 7.69353 12.4215C8.37764 12.1406 9.11043 11.9974 9.84996 12Z" fill="#00B8F0"/>
  <path d="M9.84949 12C8.35938 12 6.93015 12.5913 5.87554 13.644C4.82094 14.6967 4.22714 16.1249 4.22449 17.615V21.77L13.0245 13C12.092 12.3526 10.9847 12.0038 9.84949 12Z" fill="#4ACFFF"/>
  <path d="M9.84996 12C11.3401 12 12.7693 12.5913 13.8239 13.644C14.8785 14.6968 15.4723 16.1249 15.475 17.615V21.77C15.475 22.0353 15.3696 22.2896 15.1821 22.4771C14.9945 22.6647 14.7402 22.77 14.475 22.77H5.20496C4.93974 22.77 4.68539 22.6647 4.49785 22.4771C4.31031 22.2896 4.20496 22.0353 4.20496 21.77V17.615C4.20627 16.8755 4.35339 16.1435 4.63791 15.4609C4.92243 14.7783 5.33876 14.1585 5.86308 13.6369C6.3874 13.1154 7.00941 12.7024 7.69353 12.4215C8.37764 12.1406 9.11043 11.9974 9.84996 12Z" stroke="#45413C" stroke-width="0.5" stroke-linecap="round" stroke-linejoin="round"/>
  <path d="M15.475 6.36986V2.20986C15.4684 1.949 15.3602 1.70103 15.1734 1.51886C14.9865 1.3367 14.7359 1.23478 14.475 1.23486H5.20496C4.94401 1.23478 4.69338 1.3367 4.50654 1.51886C4.31971 1.70103 4.21148 1.949 4.20496 2.20986V6.36986C4.20496 7.86171 4.79759 9.29245 5.85248 10.3473C6.90737 11.4022 8.33811 11.9949 9.82996 11.9949C11.3218 11.9949 12.7525 11.4022 13.8074 10.3473C14.8623 9.29245 15.455 7.86171 15.455 6.36986H15.475Z" fill="#00B8F0"/>
  <path d="M14.25 1.23486H5.20496C4.94402 1.23478 4.69338 1.3367 4.50654 1.51886C4.31971 1.70103 4.21148 1.949 4.20496 2.20986V6.36986C4.20437 7.68187 4.66446 8.95243 5.50496 9.95986L14.25 1.23486Z" fill="#4ACFFF"/>
  <path d="M15.475 6.36986V2.20986C15.4684 1.949 15.3602 1.70103 15.1734 1.51886C14.9865 1.3367 14.7359 1.23478 14.475 1.23486H5.20496C4.94401 1.23478 4.69338 1.3367 4.50654 1.51886C4.31971 1.70103 4.21148 1.949 4.20496 2.20986V6.36986C4.20496 7.86171 4.79759 9.29245 5.85248 10.3473C6.90737 11.4022 8.33811 11.9949 9.82996 11.9949C11.3218 11.9949 12.7525 11.4022 13.8074 10.3473C14.8623 9.29245 15.455 7.86171 15.455 6.36986H15.475Z" stroke="#45413C" stroke-width="0.5" stroke-linecap="round" stroke-linejoin="round"/>
  <path d="M4.22449 1.23486C4.00105 1.28308 3.80088 1.40638 3.65731 1.58425C3.51373 1.76211 3.43542 1.98379 3.43542 2.21236C3.43542 2.44094 3.51373 2.66262 3.65731 2.84048C3.80088 3.01834 4.00105 3.14165 4.22449 3.18986H15.4745C15.6979 3.14165 15.8981 3.01834 16.0417 2.84048C16.1852 2.66262 16.2636 2.44094 16.2636 2.21236C16.2636 1.98379 16.1852 1.76211 16.0417 1.58425C15.8981 1.40638 15.6979 1.28308 15.4745 1.23486H4.22449Z" fill="#BF8256"/>
  <path d="M16.4499 2.20986C16.4434 1.949 16.3351 1.70103 16.1483 1.51886C15.9615 1.3367 15.7108 1.23478 15.4499 1.23486H4.22488C3.96829 1.2412 3.72396 1.34596 3.54247 1.52745C3.36097 1.70894 3.25622 1.95327 3.24988 2.20986H16.4499Z" fill="#DEA47A"/>
  <path d="M4.22449 1.23486C4.00105 1.28308 3.80088 1.40638 3.65731 1.58425C3.51373 1.76211 3.43542 1.98379 3.43542 2.21236C3.43542 2.44094 3.51373 2.66262 3.65731 2.84048C3.80088 3.01834 4.00105 3.14165 4.22449 3.18986H15.4745C15.6979 3.14165 15.8981 3.01834 16.0417 2.84048C16.1852 2.66262 16.2636 2.44094 16.2636 2.21236C16.2636 1.98379 16.1852 1.76211 16.0417 1.58425C15.8981 1.40638 15.6979 1.28308 15.4745 1.23486H4.22449Z" stroke="#45413C" stroke-width="0.5" stroke-linecap="round" stroke-linejoin="round"/>
  <path d="M4.22449 20.7949C4.00105 20.8431 3.80088 20.9664 3.65731 21.1443C3.51373 21.3222 3.43542 21.5438 3.43542 21.7724C3.43542 22.001 3.51373 22.2227 3.65731 22.4005C3.80088 22.5784 4.00105 22.7017 4.22449 22.7499H15.4745C15.6979 22.7017 15.8981 22.5784 16.0417 22.4005C16.1852 22.2227 16.2636 22.001 16.2636 21.7724C16.2636 21.5438 16.1852 21.3222 16.0417 21.1443C15.8981 20.9664 15.6979 20.8431 15.4745 20.7949H4.22449Z" fill="#BF8256"/>
  <path d="M3.24988 21.77C3.2498 22.031 3.35171 22.2816 3.53388 22.4684C3.71604 22.6553 3.96402 22.7635 4.22488 22.77H15.4749C15.7401 22.77 15.9944 22.6647 16.182 22.4771C16.3695 22.2896 16.4749 22.0352 16.4749 21.77H3.24988Z" fill="#915E3A"/>
  <path d="M4.22449 20.7949C4.00105 20.8431 3.80088 20.9664 3.65731 21.1443C3.51373 21.3222 3.43542 21.5438 3.43542 21.7724C3.43542 22.001 3.51373 22.2227 3.65731 22.4005C3.80088 22.5784 4.00105 22.7017 4.22449 22.7499H15.4745C15.6979 22.7017 15.8981 22.5784 16.0417 22.4005C16.1852 22.2227 16.2636 22.001 16.2636 21.7724C16.2636 21.5438 16.1852 21.3222 16.0417 21.1443C15.8981 20.9664 15.6979 20.8431 15.4745 20.7949H4.22449Z" stroke="#45413C" stroke-width="0.5" stroke-linecap="round" stroke-linejoin="round"/>
  <path d="M13.5591 6.60004C13.6403 6.57864 13.7254 6.57799 13.8069 6.59815C13.8883 6.61832 13.9633 6.65864 14.0251 6.71541C14.0868 6.77219 14.1333 6.84358 14.1602 6.92303C14.1872 7.00248 14.1937 7.08742 14.1791 7.17004C13.9903 8.1804 13.454 9.0929 12.6633 9.74955C11.8725 10.4062 10.877 10.7656 9.84914 10.7656C8.82128 10.7656 7.82578 10.4062 7.03502 9.74955C6.24425 9.0929 5.70801 8.1804 5.51914 7.17004C5.50462 7.08742 5.51112 7.00248 5.53805 6.92303C5.56497 6.84358 5.61144 6.77219 5.6732 6.71541C5.73495 6.65864 5.80999 6.61832 5.89142 6.59815C5.97284 6.57799 6.05803 6.57864 6.13914 6.60004C7.34659 6.93819 8.59526 7.10648 9.84914 7.10004C11.103 7.10648 12.3517 6.93819 13.5591 6.60004Z" fill="#F0D5A8"/>
  <path d="M6.39414 9.09004L8.44914 7.03004C7.66747 6.95868 6.89413 6.81473 6.13914 6.60004C6.05803 6.57864 5.97284 6.57799 5.89142 6.59815C5.80999 6.61832 5.73495 6.65864 5.6732 6.71541C5.61144 6.77219 5.56497 6.84358 5.53805 6.92303C5.51112 7.00248 5.50462 7.08742 5.51914 7.17004C5.65077 7.87153 5.95107 8.53048 6.39414 9.09004Z" fill="#FFF5E3"/>
  <path d="M13.5591 6.60004C13.6403 6.57864 13.7254 6.57799 13.8069 6.59815C13.8883 6.61832 13.9633 6.65864 14.0251 6.71541C14.0868 6.77219 14.1333 6.84358 14.1602 6.92303C14.1872 7.00248 14.1937 7.08742 14.1791 7.17004C13.9903 8.1804 13.454 9.0929 12.6633 9.74955C11.8725 10.4062 10.877 10.7656 9.84914 10.7656C8.82128 10.7656 7.82578 10.4062 7.03502 9.74955C6.24425 9.0929 5.70801 8.1804 5.51914 7.17004C5.50462 7.08742 5.51112 7.00248 5.53805 6.92303C5.56497 6.84358 5.61144 6.77219 5.6732 6.71541C5.73495 6.65864 5.80999 6.61832 5.89142 6.59815C5.97284 6.57799 6.05803 6.57864 6.13914 6.60004C7.34659 6.93819 8.59526 7.10648 9.84914 7.10004C11.103 7.10648 12.3517 6.93819 13.5591 6.60004Z" stroke="#45413C" stroke-width="0.5" stroke-linecap="round" stroke-linejoin="round"/>
  <path d="M5.20496 18.8399C5.20487 19.1008 5.30679 19.3515 5.48896 19.5383C5.67112 19.7251 5.9191 19.8334 6.17996 19.8399H13.52C13.7808 19.8334 14.0288 19.7251 14.211 19.5383C14.3931 19.3515 14.495 19.1008 14.495 18.8399C14.495 18.8399 13.52 16.8799 9.84996 16.8799C6.17996 16.8799 5.20496 18.8399 5.20496 18.8399Z" fill="#F0D5A8"/>
  <path d="M9.08496 16.915C6.04496 17.165 5.20496 18.84 5.20496 18.84C5.20487 19.101 5.30679 19.3516 5.48896 19.5385C5.67112 19.7253 5.9191 19.8335 6.17996 19.84L9.08496 16.915Z" fill="#FFF5E3"/>
  <path d="M5.20496 18.8399C5.20487 19.1008 5.30679 19.3515 5.48896 19.5383C5.67112 19.7251 5.9191 19.8334 6.17996 19.8399H13.52C13.7808 19.8334 14.0288 19.7251 14.211 19.5383C14.3931 19.3515 14.495 19.1008 14.495 18.8399C14.495 18.8399 13.52 16.8799 9.84996 16.8799C6.17996 16.8799 5.20496 18.8399 5.20496 18.8399Z" stroke="#45413C" stroke-width="0.5" stroke-linecap="round" stroke-linejoin="round"/>
  <path d="M17.6191 12.9978C20.3084 12.9978 22.4891 15.1778 22.4893 17.8669C22.4893 20.5563 20.3085 22.7371 17.6191 22.7371C14.93 22.7369 12.75 20.5562 12.75 17.8669C12.7502 15.1779 14.9301 12.998 17.6191 12.9978Z" fill="white" stroke="#45413C" stroke-width="0.5"/>
  <path d="M17.2045 20.7951C17.4108 20.7951 17.578 20.6279 17.578 20.4216C17.578 20.2153 17.4108 20.0481 17.2045 20.0481C16.9982 20.0481 16.8309 20.2153 16.8309 20.4216C16.8309 20.6279 16.9982 20.7951 17.2045 20.7951Z" fill="#45413C"/>
  <path d="M15.5938 16.2753C15.5938 15.7157 16.0473 15.2622 16.6068 15.2622H18.6331C19.1926 15.2622 19.6462 15.7157 19.6462 16.2753V16.8481C19.6462 17.4076 19.1926 17.8612 18.6331 17.8612H17.6926C17.5632 17.8612 17.4392 17.9125 17.3478 18.004C17.2563 18.0954 17.205 18.2194 17.205 18.3487V18.8133" stroke="#45413C" stroke-width="0.5" stroke-miterlimit="10" stroke-linecap="round" stroke-linejoin="round"/>
</svg>