<svg xmlns="http://www.w3.org/2000/svg" width="24" height="25" viewBox="0 0 24 25" fill="none">
  <g clip-path="url(#clip0_266_23986)">
    <path opacity="0.6" d="M23.0291 2.53975C23.0291 2.53975 22.8195 2.52625 22.4647 2.5255C19.8664 2.48688 17.2856 2.99388 14.9771 3.70563C12.4612 4.44175 9.5396 5.62263 6.46235 7.54488L6.37685 7.46425L6.10048 10.5576C2.77535 13.4901 0.969727 16.084 0.969727 16.084L6.11848 18.3801L7.20973 24.0756L10.9095 19.7118L16.4745 20.3973C16.6305 19.6236 16.7891 18.8823 16.9541 18.1656C19.2649 8.2105 23.0291 2.53975 23.0291 2.53975Z" fill="#FBED21"/>
    <path d="M2.02772 15.8277C2.02772 15.8277 9.07509 6.05148 20.8002 4.7041C20.8002 4.7041 10.877 15.6279 10.691 15.4621C10.5057 15.2971 6.90347 15.6935 6.69947 15.5709C6.49922 15.4486 2.02772 15.8277 2.02772 15.8277Z" fill="#DC912A"/>
    <path d="M6.61611 8.90496C6.61611 8.90496 13.7149 4.38621 20.8012 4.70346C20.8012 4.70346 17.4311 8.74783 15.2212 19.3697L6.27148 15.5702C6.27148 15.5702 7.34061 12.2286 7.34061 12.0287C7.34061 11.8281 6.61611 8.90496 6.61611 8.90496Z" fill="#F0BF7C"/>
    <path d="M10.1314 11.9859C10.1314 11.9859 14.2036 5.59964 20.8006 4.70227C20.8006 4.70227 14.2801 4.24364 6.7002 8.81414C6.7002 8.81414 7.71044 12.1205 8.06182 12.275C8.41244 12.4276 9.56932 13.4401 9.83032 13.4698C10.0902 13.4983 10.1314 11.9859 10.1314 11.9859Z" fill="#DC912A"/>
    <path d="M12.7852 15.2706C12.7852 15.2706 14.0635 9.71425 20.8 4.70312C20.8 4.70312 17.1123 10.0566 15.22 19.3694C15.22 19.3694 13.6522 18.0531 13.5352 17.6661C13.4185 17.2795 12.7852 15.2688 12.7852 15.2688" fill="#DC912A"/>
    <path d="M6.62934 8.74805L10.1315 11.9858L14.7826 10.9384L12.7853 15.2708L15.2202 19.3699L10.4855 18.807L7.33772 22.392L6.40809 17.7135L2.02734 15.8273L6.18984 13.497L6.62934 8.74805Z" fill="#FBED21"/>
  </g>
  <defs>
    <clipPath id="clip0_266_23986">
      <rect width="24" height="24" fill="white" transform="translate(0 0.587891)"/>
    </clipPath>
  </defs>
</svg>