<svg xmlns="http://www.w3.org/2000/svg" width="32" height="33" viewBox="0 0 32 33" fill="none">
  <path d="M3.39083 4.37627C3.34583 4.05877 3.29333 2.67127 2.08333 2.79377C1.07083 2.89627 1.12583 3.98377 1.22333 4.48877C1.27833 4.77627 4.52833 30.5338 4.57083 30.8088C4.62833 31.1763 5.14083 31.5588 5.72583 31.4988C6.31083 31.4413 6.65333 30.9863 6.64083 30.5538C6.63333 30.2238 3.44833 4.80877 3.39083 4.37627Z" fill="#B0B0B0"/>
  <path d="M5.3532 29.4969C5.1982 29.4969 5.0632 29.3819 5.0432 29.2244L1.7682 3.94437C1.75759 3.86215 1.78007 3.77909 1.83071 3.71345C1.88134 3.64781 1.95598 3.60498 2.0382 3.59437C2.12041 3.58376 2.20348 3.60625 2.26911 3.65688C2.33475 3.70752 2.37759 3.78215 2.3882 3.86437L5.6632 29.1444C5.6857 29.3144 5.5657 29.4719 5.3932 29.4944C5.3807 29.4944 5.3682 29.4969 5.3532 29.4969Z" fill="#C8C8C8"/>
  <path d="M4.00312 3.96191L3.39062 4.37691C3.39062 4.37691 5.38312 21.9669 5.45812 21.9919C5.53312 22.0169 9.81812 18.7644 13.4881 18.7394C16.8806 18.7169 17.8556 20.2744 23.0056 20.4619C25.8931 20.5669 28.9831 18.6419 28.9831 18.6419L4.00312 3.96191Z" fill="#9B9B9B"/>
  <path d="M4.00172 4.94694L3.88672 4.03694C3.88672 4.03694 6.40672 2.00194 9.57172 2.17444C12.7367 2.34694 15.9492 5.19444 20.4367 4.71194C23.0892 4.42694 24.5717 3.17194 24.5717 3.17194L27.7692 4.31944L30.1342 14.1219L27.5667 16.5744C27.5667 16.5744 8.14422 9.78694 7.97422 9.58694C7.80422 9.38944 4.00172 4.94694 4.00172 4.94694Z" fill="#DACEC9"/>
  <path d="M4.47461 7.35938L3.78711 7.90437L4.15961 11.1244L4.99961 10.4219L4.47461 7.35938ZM5.11211 14.0344L4.53961 14.4419L4.95461 17.9894L5.91461 17.4094L5.11211 14.0344ZM9.38711 18.8619C9.40211 18.9694 9.49961 19.7244 9.49961 19.7244C9.49961 19.7244 11.0446 19.0294 12.3821 18.8669C13.4771 18.7319 14.2896 18.7669 14.2896 18.7669L14.1796 18.0244L11.3521 17.8294L9.38711 18.8619ZM18.5546 19.0119L18.6946 19.8469C18.6946 19.8469 19.3346 20.0494 20.4946 20.2369C21.9521 20.4744 22.8646 20.4769 22.9921 20.4719L22.8521 19.2594L20.2596 18.5694L18.5546 19.0119ZM26.9396 18.8194L27.0671 19.5994C27.0671 19.5994 28.0721 19.2594 29.2996 18.5394C30.2296 17.9919 30.8796 17.5019 30.8871 17.4369C30.8946 17.3719 30.7421 16.7069 30.7096 16.6019C30.6771 16.4969 30.4046 16.2644 30.4046 16.2644L26.9396 18.8194Z" fill="#2F2F2F"/>
  <path d="M5.92195 20.7112L4.00195 4.94618C4.00195 4.94618 6.37945 2.57368 9.80195 3.02868C13.2245 3.48368 17.077 5.85618 20.442 5.40118C23.807 4.94368 26.3145 3.00118 26.3145 3.00118L26.8845 3.60118L29.6795 15.1512L26.942 18.8237C26.942 18.8237 25.032 19.7137 22.437 19.5712C17.0095 19.2737 16.4845 17.6362 12.337 18.0862C11.237 18.2062 10.1745 18.5462 9.23695 18.9262C7.30695 19.7062 5.92195 20.7112 5.92195 20.7112Z" fill="#F1EDEC"/>
  <path d="M7.05914 2.47116L7.48914 5.86116C7.48914 5.86116 6.38664 6.18866 5.54914 6.62866C4.91414 6.96116 4.30664 7.49116 4.30664 7.49116L4.70164 10.6712C4.70164 10.6712 5.44664 10.1437 6.34164 9.73366C6.94164 9.45866 7.81914 9.22366 7.81914 9.22366L8.33664 12.4712C8.33664 12.4712 7.16414 12.8737 6.50164 13.2262C5.83914 13.5787 5.11414 14.0312 5.11414 14.0312L5.54914 17.6312C5.54914 17.6312 6.57164 17.0187 7.04664 16.7837C7.82664 16.3987 8.96664 15.9637 8.96664 15.9637L9.39164 18.8612C9.39164 18.8612 10.8766 18.3262 11.8616 18.1712C13.1991 17.9637 14.1866 18.0187 14.1866 18.0187L13.7816 15.3337C13.7816 15.3337 14.7266 15.2787 15.8716 15.5312C16.9141 15.7612 18.0266 16.0212 18.0266 16.0212L18.5616 19.0062C18.5616 19.0062 19.2691 19.2337 20.5766 19.4237C21.8866 19.6137 22.8966 19.5837 22.8966 19.5837L22.4991 16.6362C22.4991 16.6362 23.5291 16.5662 24.4616 16.4237C25.3941 16.2837 26.3966 15.9387 26.3966 15.9387L26.9391 18.8237C26.9391 18.8237 28.0116 18.3437 28.9266 17.7937C30.0341 17.1287 30.7091 16.5887 30.7091 16.5887L30.1341 14.1212C30.1341 14.1212 29.0941 14.7037 28.4241 15.0437C27.5541 15.4812 26.4666 15.8537 26.4666 15.8537L25.8891 12.7262C25.8891 12.7262 26.9891 12.2762 27.6816 11.9362C28.4591 11.5562 29.3691 10.9262 29.3691 10.9262L28.5216 7.43616C28.5216 7.43616 27.6341 8.00116 26.8216 8.46366C26.1566 8.84116 25.2841 9.29616 25.1841 9.26866C25.0841 9.24116 24.5116 6.57116 24.5341 6.50116C24.5441 6.46866 25.3191 6.11616 26.3941 5.40866C26.9641 5.03366 27.7741 4.32366 27.7741 4.32366C27.7741 4.32366 27.3266 1.84116 27.2466 1.56116C27.1666 1.28116 26.8941 1.12116 26.6166 1.39366C26.3391 1.66616 25.5541 2.37616 25.1941 2.68616C24.8341 2.99616 23.8941 3.62866 23.8941 3.62866C23.8941 3.62866 24.4466 6.35866 24.4216 6.41366C24.4016 6.45116 23.9541 6.68866 22.5491 7.01616C21.4016 7.28366 20.6491 7.29366 20.6491 7.29366C20.6491 7.29366 20.4891 6.52116 20.3891 5.99366C20.2791 5.42366 20.1216 4.74116 20.1216 4.74116C20.1216 4.74116 19.2091 4.80616 17.8666 4.64116C16.8166 4.51366 15.8366 4.15366 15.8366 4.15366C15.8366 4.15366 16.0391 4.70866 16.1166 5.32616C16.1741 5.79116 16.3616 6.74366 16.3616 6.74366C16.3616 6.74366 15.3941 6.36616 14.2916 6.07866C13.1891 5.79116 12.1191 5.71866 12.1191 5.71866C12.1191 5.71866 12.0066 4.68116 11.9266 3.86616C11.8466 3.05116 11.8341 2.66116 11.8341 2.66116C11.8341 2.66116 10.6341 2.21116 9.48414 2.15616C8.16914 2.09366 7.05914 2.47116 7.05914 2.47116Z" fill="#434343"/>
  <path d="M7.57302 5.98426C7.55552 6.05426 7.84802 9.04426 7.88552 9.07176C7.92302 9.09926 9.02552 8.85426 10.098 8.75926C11.1705 8.66426 12.5905 8.76176 12.5905 8.76176L12.113 5.77676C12.113 5.77676 10.743 5.53676 9.72802 5.57676C8.71302 5.61426 7.58302 5.94676 7.57302 5.98426ZM8.44052 12.5393L8.97802 15.8643C8.97802 15.8643 9.97552 15.4743 11.258 15.3143C12.5405 15.1543 13.6955 15.2493 13.6955 15.2493L13.1055 12.0618C13.1055 12.0618 11.7955 11.8943 10.648 11.9918C9.29302 12.1018 8.44052 12.5393 8.44052 12.5393ZM12.668 8.89926L13.158 11.9393C13.158 11.9393 14.498 12.0818 15.2305 12.2243C15.963 12.3668 17.288 12.6518 17.318 12.6243C17.3455 12.5968 16.983 9.80176 16.878 9.70676C16.773 9.61176 15.708 9.39426 14.883 9.22176C14.053 9.05176 12.6755 8.80426 12.668 8.89926ZM16.473 6.82176C16.443 6.83676 16.8155 9.50926 16.938 9.63426C17.0605 9.75676 18.2755 9.97676 18.963 10.0693C19.968 10.2018 21.188 10.2068 21.2355 10.1793C21.283 10.1518 20.6355 7.40176 20.6255 7.38426C20.5855 7.32176 19.9605 7.42176 18.6505 7.27926C17.3205 7.13176 16.5105 6.80176 16.473 6.82176ZM21.328 10.2493C21.293 10.2843 21.858 13.3593 21.8905 13.4018C21.968 13.5043 23.0305 13.3643 23.808 13.2218C24.9455 13.0143 25.8105 12.6893 25.8105 12.6893C25.8105 12.6893 25.1705 9.49926 25.1405 9.47176C25.113 9.44426 24.288 9.83926 23.1705 10.0393C22.0105 10.2493 21.3755 10.2018 21.328 10.2493ZM17.4455 12.7443C17.4355 12.8018 18.043 15.8893 18.0605 16.0093C18.0705 16.0718 19.0405 16.2918 20.018 16.4343C21.1305 16.5968 22.473 16.6318 22.473 16.6318C22.473 16.6318 22.178 15.2868 22.0705 14.6668C21.958 14.0268 21.8355 13.4693 21.8355 13.4693C21.8355 13.4693 20.693 13.3743 19.5905 13.2043C18.488 13.0343 17.4455 12.7443 17.4455 12.7443Z" fill="#F1EDEC"/>
</svg>