<svg xmlns="http://www.w3.org/2000/svg" width="102" height="34" viewBox="0 0 102 34" fill="none">
  <g clip-path="url(#clip0_149_13524)">
    <path d="M98.8226 20.7788L101.652 22.6952C100.734 24.0693 98.5374 26.4271 94.7397 26.4271C90.0237 26.4271 86.5117 22.7204 86.5117 18.0052C86.5117 12.9875 90.061 9.5835 94.3426 9.5835C98.6489 9.5835 100.759 13.063 101.441 14.9415L101.814 15.8998L90.7188 20.5645C91.5627 22.254 92.8784 23.1112 94.7397 23.1112C96.6014 23.1112 97.8919 22.1783 98.8226 20.7788ZM90.1232 17.7407L97.5321 14.6139C97.1225 13.5676 95.9065 12.8238 94.4542 12.8238C92.6052 12.8238 90.0363 14.488 90.1232 17.7407Z" fill="#FF302F"/>
    <path d="M81.1631 0.998047H84.7371V25.6582H81.1631V0.998047Z" fill="#20B15A"/>
    <path d="M75.5284 10.2389H78.9785V25.2165C78.9785 31.4318 75.3671 33.9911 71.0978 33.9911C67.077 33.9911 64.6571 31.2428 63.751 29.0113L66.9156 27.6748C67.4864 29.049 68.864 30.6755 71.0978 30.6755C73.8405 30.6755 75.5284 28.9482 75.5284 25.7208V24.5106H75.4043C74.5852 25.519 73.0215 26.4267 71.0359 26.4267C66.8907 26.4267 63.093 22.7579 63.093 18.0303C63.093 13.2772 66.8907 9.5708 71.0359 9.5708C73.0091 9.5708 74.5852 10.4659 75.4043 11.4493H75.5284V10.2389ZM75.7765 18.0303C75.7765 15.0549 73.8281 12.8864 71.3461 12.8864C68.8391 12.8864 66.7294 15.0549 66.7294 18.0303C66.7294 20.9677 68.8391 23.0984 71.3461 23.0984C73.8283 23.1111 75.7767 20.9677 75.7767 18.0303" fill="#3686F7"/>
    <path d="M43.473 17.9674C43.473 22.8213 39.75 26.3891 35.1829 26.3891C30.616 26.3891 26.8928 22.8088 26.8928 17.9674C26.8928 13.0884 30.616 9.5332 35.1829 9.5332C39.75 9.5332 43.473 13.0884 43.473 17.9674ZM39.8492 17.9674C39.8492 14.9418 37.6897 12.8614 35.1829 12.8614C32.6761 12.8614 30.5166 14.9418 30.5166 17.9674C30.5166 20.9679 32.6761 23.0735 35.1829 23.0735C37.6899 23.0735 39.8492 20.9679 39.8492 17.9674Z" fill="#FF302F"/>
    <path d="M61.5802 18.0052C61.5802 22.8591 57.857 26.4269 53.2901 26.4269C48.723 26.4269 45 22.8589 45 18.0052C45 13.1262 48.723 9.5835 53.2901 9.5835C57.857 9.5835 61.5802 13.1136 61.5802 18.0052ZM57.9438 18.0052C57.9438 14.9796 55.7845 12.8991 53.2775 12.8991C50.7706 12.8991 48.6112 14.9796 48.6112 18.0052C48.6112 21.0057 50.7708 23.1112 53.2775 23.1112C55.7969 23.1112 57.9438 20.9931 57.9438 18.0052Z" fill="#FFBA40"/>
    <path d="M13.2655 22.7331C8.06545 22.7331 3.99502 18.4717 3.99502 13.1892C3.99502 7.90685 8.06545 3.64552 13.2655 3.64552C16.0703 3.64552 18.1178 4.76752 19.6319 6.20483L22.1265 3.67082C20.0168 1.61584 17.1996 0.0522461 13.2655 0.0522461C6.142 0.0524485 0.147705 5.95286 0.147705 13.1892C0.147705 20.4255 6.142 26.3262 13.2655 26.3262C17.1128 26.3262 20.0168 25.0402 22.2879 22.6448C24.6209 20.2746 25.3407 16.9462 25.3407 14.2483C25.3407 13.4035 25.2415 12.5337 25.1297 11.8907H13.2655V15.3956H21.7169C21.4687 17.5894 20.7862 19.0896 19.7809 20.1106C18.5647 21.3589 16.6412 22.7331 13.2655 22.7331Z" fill="#3686F7"/>
  </g>
  <defs>
    <clipPath id="clip0_149_13524">
      <rect width="102" height="34" fill="white"/>
    </clipPath>
  </defs>
</svg>