<svg xmlns="http://www.w3.org/2000/svg" width="138" height="40" viewBox="0 0 138 40" fill="none">
  <g clip-path="url(#clip0_145_46441)">
    <path d="M0.291748 7.43066H5.08423V18.0782H15.1919V7.43066H19.9905V33.567H15.1919V22.6959H5.08423V33.567H0.291748V7.43066ZM35.1731 25.054C35.1731 27.2419 33.3905 29.0223 31.2032 29.0223C29.015 29.0223 27.2335 27.2419 27.2335 25.054V13.8014H22.6885V25.054C22.6885 29.7485 26.5084 33.567 31.2032 33.567C35.8969 33.567 39.7165 29.7485 39.7165 25.054V13.8014H35.1731V25.054ZM52.4042 13.9332C50.1497 13.9332 48.576 14.5874 47.0563 16.0793V7.43066H42.4966V23.4589C42.4966 29.4583 46.8343 33.567 51.7076 33.567C57.1253 33.567 61.8722 29.385 61.8722 23.7504C61.8722 18.1872 57.495 13.9332 52.4042 13.9332ZM52.5175 29.3488C49.4279 29.3488 47.0652 26.7684 47.0652 23.7504C47.0652 20.7319 49.4279 18.1507 52.5175 18.1507C55.1355 18.1507 57.4995 20.7319 57.4995 23.7504C57.4995 26.7684 55.1355 29.3488 52.5175 29.3488ZM69.5304 15.0819C69.5304 12.7899 71.0577 12.0631 72.7296 12.0631C74.0756 12.0631 75.8569 13.0811 77.0193 14.3176L79.9999 10.8274C78.5103 8.82798 75.4931 7.44597 73.0206 7.44597C68.0754 7.44597 64.5122 10.3184 64.5122 15.0819C64.5122 23.9168 75.3838 21.1163 75.3838 26.0623C75.3838 27.5877 73.8936 28.9343 72.1857 28.9343C69.4942 28.9343 68.6211 27.6253 67.3854 26.2433L64.0762 29.6605C66.1862 32.2422 68.8032 33.5517 71.9304 33.5517C76.6203 33.5517 80.4018 30.643 80.4018 26.0975C80.4018 16.2811 69.5304 19.3356 69.5304 15.0819ZM92.4056 13.6771C87.5328 13.6771 83.1946 17.7834 83.1946 23.7842V39.8538H87.754V31.1641C89.274 32.6548 90.8469 33.3101 93.1022 33.3101C98.1927 33.3101 102.57 29.0567 102.57 23.4935C102.57 17.858 97.8222 13.6771 92.4056 13.6771ZM93.2158 29.0932C90.1264 29.0932 87.7634 26.5093 87.7634 23.4935C87.7634 20.475 90.1264 17.8938 93.2158 17.8938C95.8332 17.8938 98.1975 20.475 98.1975 23.4935C98.1975 26.5093 95.8332 29.0932 93.2158 29.0932ZM136.133 29.3488C133.444 29.3488 132.68 28.1858 132.68 26.4035V18.5142H136.861V14.5152H132.68V9.24274L128.064 11.3147V27.3853C128.064 31.4943 130.899 33.567 134.788 33.567C135.369 33.567 136.17 33.5295 136.607 33.4218L137.734 29.2774C137.225 29.3125 136.644 29.3488 136.133 29.3488Z" fill="#45535E"/>
    <path d="M124.108 18.7465C123.234 17.2426 122.005 16.037 120.467 15.1293C119.319 14.4606 118.128 14.0362 116.785 13.8539V9.07539C118.128 8.50546 118.961 7.24398 118.961 5.7723C118.961 3.76639 117.352 2.14089 115.348 2.14089C113.342 2.14089 111.705 3.76639 111.705 5.7723C111.705 7.24398 112.49 8.50546 113.832 9.07539V13.8561C112.758 14.0112 111.645 14.346 110.628 14.8604C108.551 13.2829 101.74 8.10787 97.7561 5.08532C97.8505 4.74465 97.9233 4.39351 97.9233 4.02304C97.9233 1.80129 96.1241 0.000488281 93.9016 0.000488281C91.679 0.000488281 89.8806 1.80129 89.8806 4.02304C89.8806 6.24478 91.6809 8.04586 93.9034 8.04586C94.6616 8.04586 95.3628 7.82411 95.9679 7.45955L96.8087 8.0974L108.362 16.4217C107.751 16.9825 107.182 17.6204 106.727 18.3361C105.805 19.7951 105.242 21.4005 105.242 23.1516V23.517C105.242 24.7463 105.475 25.9068 105.873 26.997C106.223 27.9489 106.736 28.8144 107.37 29.597L103.536 33.4408C102.98 33.2339 102.376 33.1914 101.797 33.3184C101.218 33.4455 100.688 33.7366 100.27 34.157C99.9801 34.4451 99.7506 34.7878 99.5945 35.1652C99.4384 35.5426 99.3587 35.9472 99.3601 36.3557C99.3603 37.186 99.6838 37.9664 100.271 38.5535C100.559 38.8432 100.902 39.073 101.279 39.2294C101.656 39.3858 102.061 39.4657 102.469 39.4646C102.878 39.4658 103.283 39.3859 103.66 39.2295C104.038 39.0731 104.38 38.8433 104.668 38.5535C104.958 38.2655 105.187 37.923 105.343 37.5458C105.5 37.1685 105.58 36.764 105.578 36.3557C105.578 36.0343 105.529 35.7208 105.435 35.4228L109.398 31.459C109.942 31.8343 110.529 32.1503 111.16 32.4228C112.404 32.9608 113.777 33.2885 115.28 33.2885H115.556C117.218 33.2885 118.785 32.8982 120.259 32.0998C121.811 31.2561 123.027 30.1022 123.945 28.6292C124.868 27.1522 125.376 25.5202 125.376 23.7248V23.6351C125.376 21.8689 124.967 20.2394 124.108 18.7465ZM119.266 27.0614C118.19 28.2569 116.954 28.9932 115.556 28.9932H115.325C114.527 28.9932 113.746 28.7726 112.982 28.3712C112.12 27.9293 111.465 27.299 110.929 26.5009C110.375 25.7175 110.074 24.8622 110.074 23.9554V23.68C110.074 22.7884 110.245 21.943 110.676 21.1446C111.137 20.2719 111.76 19.5932 112.587 19.0536C113.4 18.5178 114.269 18.255 115.236 18.255H115.325C116.202 18.255 117.032 18.4279 117.816 18.8287C118.614 19.2561 119.266 19.84 119.771 20.608C120.262 21.3763 120.554 22.2051 120.648 23.1079C120.663 23.2955 120.671 23.4877 120.671 23.6714C120.671 24.8966 120.202 26.0314 119.266 27.0614Z" fill="#F8761F"/>
  </g>
  <defs>
    <clipPath id="clip0_145_46441">
      <rect width="137.45" height="40" fill="white" transform="translate(0.275146)"/>
    </clipPath>
  </defs>
</svg>