<svg xmlns="http://www.w3.org/2000/svg" width="120" height="24" viewBox="0 0 120 24" fill="none">
  <path d="M61.5883 13.8835C61.5883 19.7107 66.4228 23.9744 72.5627 23.9744C78.7025 23.9744 83.542 19.7107 83.542 13.8835V0.482034H77.5957V13.1886C77.5957 16.3305 75.4117 18.45 72.5478 18.45C69.6838 18.45 67.4999 16.3454 67.4999 13.1886V0.482034H61.5536L61.5933 13.8786L61.5883 13.8835ZM99.4302 5.84759H106.523V23.5326H112.469V5.84263H119.562V0.482034H99.4302V5.85256V5.84759ZM95.5884 0.482034H89.6421V23.5376H95.5884V0.482034ZM37.5748 5.84759H44.6726V23.5326H50.614V5.84263H57.7019V0.482034H37.5748V5.85256V5.84759ZM6.38407 0.482034H0.437775V23.5376H6.38407V0.482034ZM34.4428 10.1113C34.4428 4.28409 29.6084 0.0253906 23.4635 0.0253906C17.3187 0.0253906 12.4842 4.28409 12.4842 10.1113V23.5376H18.4305V10.831C18.4305 7.68906 20.6145 5.56964 23.4784 5.56964C26.3424 5.56964 28.5313 7.67914 28.5313 10.831V23.5376H34.4726L34.4428 10.1113Z" fill="black"/>
</svg>