<svg xmlns="http://www.w3.org/2000/svg" width="49" height="48" viewBox="0 0 49 48" fill="none">
  <path d="M40.4587 7.78906C42.5383 7.78906 44.224 9.47487 44.224 11.5543V30.4129C44.224 32.4925 42.5382 34.1782 40.4587 34.1782H8.04262C5.96306 34.1782 4.27734 32.4924 4.27734 30.4129V11.5543C4.27734 9.47478 5.96316 7.78906 8.04262 7.78906H40.4587Z" fill="white"/>
  <path d="M4.27734 28.8145V30.4127C4.27734 32.4923 5.96316 34.178 8.04262 34.178H40.4587C42.5382 34.178 44.2239 32.4922 44.2239 30.4127V28.8145H4.27734Z" fill="#BC9AF4"/>
  <path d="M29.5968 40.2114L27.6063 34.1787H20.8967L18.9062 40.2114H29.5968Z" fill="#6864F7"/>
  <path d="M18.9054 40.211L20.8958 34.1783M27.6055 34.1783L29.5959 40.211M34.6768 7.78906H40.4587C42.5383 7.78906 44.224 9.47487 44.224 11.5543V30.4129C44.224 32.4925 42.5382 34.1782 40.4587 34.1782H8.04262C5.96306 34.1782 4.27734 32.4924 4.27734 30.4129V11.5543C4.27734 9.47478 5.96316 7.78906 8.04262 7.78906H34.6768Z" stroke="#052A75" stroke-miterlimit="10" stroke-linejoin="round"/>
  <path d="M11.4512 40.2109H37.0496" stroke="#052A75" stroke-width="1.875" stroke-miterlimit="10" stroke-linecap="round" stroke-linejoin="round"/>
  <path d="M19.2776 17.8015L16.5176 20.5616L19.2776 23.3216M29.2224 23.3216L31.9825 20.5616L29.2224 17.8015M26.0224 17.1484L22.4777 23.9747" stroke="#6864F7" stroke-width="1.40069" stroke-miterlimit="10" stroke-linecap="round" stroke-linejoin="round"/>
</svg>