<svg xmlns="http://www.w3.org/2000/svg" width="24" height="24" viewBox="0 0 24 24" fill="none">
  <g clip-path="url(#clip0_270_33071)">
    <path d="M22.5 0C22.8674 4.84658e-05 23.222 0.134934 23.4966 0.379073C23.7711 0.623212 23.9465 0.959623 23.9895 1.3245L24 1.5V22.5C24 22.8674 23.8651 23.222 23.6209 23.4966C23.3768 23.7711 23.0404 23.9465 22.6755 23.9895L22.5 24H1.5C1.1326 24 0.777994 23.8651 0.503442 23.6209C0.22889 23.3768 0.0534858 23.0404 0.0105 22.6755L0 22.5V1.5C4.84658e-05 1.1326 0.134934 0.777994 0.379073 0.503442C0.623212 0.22889 0.959623 0.0534858 1.3245 0.0105L1.5 0H22.5ZM22.5 1.5H1.5V22.5H22.5V1.5ZM15.66 9.123C18.708 9.123 19.353 11.061 19.392 13.629V19.3935H16.281V14.196C16.266 13.0995 16.116 11.862 14.6625 11.862C13.119 11.862 12.822 13.011 12.7965 14.25L12.795 19.3935H9.6825V9.3735H12.6705V10.7415H12.7125C13.0111 10.2303 13.4428 9.80979 13.9616 9.52474C14.4805 9.2397 15.0684 9.10085 15.66 9.123ZM7.728 9.372V19.392H4.6125V9.372H7.728ZM6.171 4.392C6.41245 4.38504 6.65284 4.42658 6.87794 4.51418C7.10305 4.60177 7.3083 4.73362 7.48154 4.90195C7.65479 5.07027 7.7925 5.27163 7.88655 5.49412C7.98059 5.71661 8.02904 5.9557 8.02904 6.19725C8.02904 6.4388 7.98059 6.67789 7.88655 6.90038C7.7925 7.12287 7.65479 7.32423 7.48154 7.49255C7.3083 7.66088 7.10305 7.79273 6.87794 7.88032C6.65284 7.96792 6.41245 8.00946 6.171 8.0025C5.69202 8.0025 5.23266 7.81223 4.89396 7.47353C4.55527 7.13484 4.365 6.67548 4.365 6.1965C4.365 5.71752 4.55527 5.25816 4.89396 4.91947C5.23266 4.58077 5.69202 4.392 6.171 4.392Z" fill="#71717A"/>
  </g>
  <defs>
    <clipPath id="clip0_270_33071">
      <rect width="24" height="24" fill="white"/>
    </clipPath>
  </defs>
</svg>