<svg xmlns="http://www.w3.org/2000/svg" width="32" height="33" viewBox="0 0 32 33" fill="none">
  <path d="M28.1871 2.29112H3.81247C3.25942 2.2855 2.72673 2.49949 2.33128 2.88615C1.93583 3.27282 1.70992 3.80056 1.70312 4.35359V28.8266C1.71115 29.3789 1.9376 29.9054 2.33292 30.2911C2.72824 30.6767 3.26022 30.8901 3.81247 30.8844H28.1871C28.7402 30.8888 29.2725 30.6741 29.6677 30.2872C30.063 29.9003 30.289 29.3727 30.2964 28.8196V4.34656C30.2866 3.79515 30.0595 3.26992 29.6645 2.88503C29.2695 2.50015 28.7386 2.28671 28.1871 2.29112Z" fill="#0076B2"/>
  <path d="M5.93515 13.0097H10.1796V26.6665H5.93515V13.0097ZM8.05856 6.21289C8.54538 6.21289 9.02126 6.35728 9.426 6.62779C9.83074 6.8983 10.1462 7.28278 10.3324 7.73259C10.5185 8.18239 10.5671 8.67732 10.472 9.15475C10.3769 9.63218 10.1422 10.0707 9.79784 10.4147C9.45345 10.7588 9.01474 10.993 8.53722 11.0877C8.05969 11.1824 7.56482 11.1333 7.11519 10.9467C6.66556 10.7601 6.28138 10.4443 6.01125 10.0393C5.74113 9.63428 5.59719 9.15827 5.59766 8.67145C5.59828 8.01918 5.85783 7.39384 6.31927 6.93284C6.78071 6.47184 7.40629 6.21289 8.05856 6.21289ZM12.8421 13.0097H16.9108V14.8846H16.967C17.5342 13.8112 18.917 12.6792 20.9818 12.6792C25.2802 12.6698 26.077 15.4987 26.077 19.1666V26.6665H21.8326V20.022C21.8326 18.44 21.8044 16.4034 19.6271 16.4034C17.4498 16.4034 17.0795 18.1283 17.0795 19.9189V26.6665H12.8421V13.0097Z" fill="white"/>
</svg>