<svg xmlns="http://www.w3.org/2000/svg" width="24" height="25" viewBox="0 0 24 25" fill="none">
  <path d="M8 5.65927L2 4.05193C0.895333 3.75593 0 4.41127 0 5.5166V18.8499C0 19.9539 0.895333 21.0893 2 21.3859L8 22.9933V5.65927ZM16 20.8499L22 22.4573C23.104 22.7526 24 22.0973 24 20.9933V7.65993C24 6.55527 23.104 5.41993 22 5.12393L16 3.5166V20.8499Z" fill="#CCD6DD"/>
  <path d="M16 20.849L8 22.9923V5.65896L16 3.51562V20.849Z" fill="#E1E8ED"/>
  <path d="M7.99967 6.99166L2.66634 5.56232C1.93034 5.36499 1.33301 5.80232 1.33301 6.53832V18.5383C1.33301 19.2743 1.93034 20.0317 2.66634 20.2283L7.99967 21.6583V6.99166ZM21.333 6.27699L15.9997 4.84766V19.5143L21.333 20.9437C22.069 21.141 22.6663 20.7043 22.6663 19.967V7.96699C22.6663 7.23166 22.069 6.47432 21.333 6.27699Z" fill="#55ACEE"/>
  <path d="M16 19.5153L8 21.6586V6.99197L16 4.84863V19.5153Z" fill="#88C9F9"/>
  <path d="M8.00052 14.9254C7.82185 14.9294 7.60385 14.9947 7.43718 15.0221C7.14652 15.0707 7.21785 15.3667 7.12852 15.3174C6.92214 15.2065 6.7385 15.0576 6.58718 14.8787C6.36252 14.6161 6.75385 14.5607 6.86585 14.4641C6.97785 14.3674 6.65518 14.3494 6.54252 14.2427C6.42985 14.1367 6.22852 14.3121 6.04985 14.0587C5.86985 13.8081 5.98252 13.5321 5.96118 13.2721C5.93852 13.0121 6.25185 13.0447 6.45385 13.0494C6.65585 13.0514 6.81252 13.1454 6.81252 13.4507C6.81252 13.7547 7.05918 13.9227 6.99185 13.5481C6.92452 13.1734 7.05918 13.1101 7.14852 12.9547C7.23785 12.8014 7.39518 12.5881 7.59652 12.2614C7.74385 12.0227 7.85585 12.0727 8.00052 12.1521V9.92207C7.96385 9.89274 7.92718 9.86207 7.89052 9.84674C7.68852 9.75874 7.95452 10.3487 7.79785 10.5861C7.63985 10.8234 7.39918 10.7147 7.15118 10.6487C6.90518 10.5827 6.67585 10.2854 6.85585 9.9774C7.03452 9.6694 7.37718 9.79874 7.55652 9.54207C7.73585 9.2854 6.91852 9.09407 6.62718 8.91474C6.33518 8.73407 5.98518 8.64207 5.69385 8.8174C5.40252 8.9934 4.77852 8.90607 4.53185 8.9414C4.28518 8.9774 4.24118 8.6954 4.19652 8.4794C4.15185 8.26474 3.76118 8.26007 3.35852 8.25407C2.95452 8.2474 2.19785 8.4414 2.32718 9.42674C2.37252 9.7694 2.73052 9.5094 2.79852 9.45074C2.86652 9.39207 3.20185 9.58407 3.24585 9.8754C3.29118 10.1681 3.26918 10.4667 3.17985 10.6967C3.08852 10.9267 3.40385 11.3674 3.58252 11.7714C3.76185 12.1747 3.96452 12.2287 4.05385 12.2534C4.14385 12.2774 4.65918 12.6447 4.63718 12.9174C4.61518 13.1914 5.10785 13.5781 5.30985 13.8107C5.51185 14.0434 5.63918 14.2521 5.90118 14.3747C6.16318 14.4974 6.46918 15.0647 6.60385 15.1514C6.70718 15.2181 6.88252 15.4521 6.98785 15.5381C6.84918 15.6994 6.57985 16.0367 6.57985 16.2241C6.57985 16.4794 6.87318 16.9594 6.98518 17.0907C7.09652 17.2214 7.41852 17.3854 7.48585 17.6574C7.55318 17.9287 7.43918 18.7547 7.23785 18.9287C7.03518 19.1034 6.96185 19.6241 6.96185 19.6241C6.96185 19.6241 7.03318 19.8194 7.27185 19.7067C7.47785 19.6107 7.78918 19.3294 8.00118 19.1727V14.9254H8.00052Z" fill="#5C913B"/>
  <path d="M8.17867 12.1969C8.112 12.2075 8.054 12.2049 8 12.2042V9.97421C8.16933 10.0175 8.34133 10.1855 8.47133 10.4649C8.62733 10.8042 8.874 10.5089 8.964 10.7142C9.05333 10.9195 9.54733 11.2195 9.30067 11.2089C9.05333 11.1989 8.80667 11.2142 8.74 11.5115C8.672 11.8102 8.852 12.0409 8.672 12.0635C8.492 12.0862 8.42533 12.1582 8.17867 12.1969ZM9.90533 15.9022C9.61467 15.8529 9.666 15.8869 9.48667 15.5029C9.308 15.1182 9.19933 15.0075 8.796 15.0655C8.39267 15.1235 8.40733 15.1562 8.29533 14.9569C8.24733 14.8715 8.13467 14.9022 8 14.9775V19.2242C8.06 19.1482 8.11333 19.0835 8.152 19.0462C8.50736 18.7079 8.83424 18.3409 9.12933 17.9489C9.44267 17.5349 9.32933 17.3329 9.486 16.9615C9.64333 16.5895 9.84667 16.5502 10.1153 16.1982C10.3853 15.8449 10.1967 15.9529 9.90533 15.9022ZM16 11.0755V6.86621C15.9733 6.86888 15.9547 6.87421 15.9267 6.87621C15.7873 6.88354 15.6053 6.96621 15.4073 7.08954C15.3913 7.08621 15.3767 7.07888 15.3607 7.07554C14.7633 6.95888 14.486 7.87888 14.0013 7.84354C13.5153 7.80821 12.868 7.61421 12.4467 8.18621C12.026 8.75754 11.9287 9.20621 12.4467 9.04888C12.9647 8.89154 13.3213 8.09888 13.58 8.32288C13.8387 8.54688 13.7733 8.80354 13.1587 9.05954C12.544 9.31621 11.88 9.60421 11.524 9.69954C11.168 9.79488 11.0873 10.0555 11.3293 10.2475C11.5713 10.4395 11.1833 10.5615 10.7787 10.9275C10.374 11.2922 10.876 11.2689 11.216 11.3975C11.556 11.5262 11.8147 11.1822 11.9607 10.7762C12.1053 10.3709 12.7327 9.76221 12.994 9.74688C13.2553 9.73154 13.2553 9.87821 13.206 10.1482C13.1973 10.1955 13.2067 10.2169 13.2133 10.2402C13.1 10.6002 13.0067 10.9269 12.97 11.1109C12.9521 11.2423 12.946 11.3751 12.952 11.5075C12.8947 11.5102 12.83 11.5215 12.7867 11.5082C12.4947 11.4222 11.8307 11.3615 11.6527 11.5369C11.4747 11.7135 11.378 11.8715 11.1673 12.0189C10.956 12.1649 10.0987 12.8349 10.0827 13.4082C10.066 13.9809 10.05 14.6282 10.39 14.5555C10.73 14.4829 11.556 14.0049 11.8147 13.6969C12.0733 13.3889 12.4287 13.3489 12.5427 13.5929C12.656 13.8389 12.5747 14.0255 12.4627 14.4955C12.3487 14.9675 12.536 15.1375 12.7167 15.4742C12.8987 15.8102 13.044 15.9909 13.044 16.2669C13.044 16.5415 13.3033 16.7489 13.6907 16.1849C13.8263 15.9819 13.9458 15.7686 14.048 15.5469C14.3207 15.2342 14.56 14.9315 14.5533 14.8162C14.5449 14.6777 14.5396 14.539 14.5373 14.4002L14.598 14.2535C14.6827 14.0582 14.7587 13.7562 14.8393 13.4835L14.8527 13.4675C15.0107 13.2429 14.976 13.2322 15.2393 12.9635C15.4153 12.7835 15.4087 12.6222 15.382 12.5115C15.452 12.3949 15.4713 12.3249 15.36 12.3549L15.3493 12.3575C15.348 12.3575 15.346 12.3702 15.3453 12.3669C15.33 12.2675 15.208 12.3689 15.0113 12.4655C14.822 12.4709 14.634 12.4215 14.566 12.2202C14.4773 11.9562 14.1647 11.5562 14.14 11.3295C14.142 11.3022 14.1433 11.2782 14.1467 11.2469C14.1549 11.2227 14.1712 11.202 14.1927 11.1882C14.2158 11.1756 14.2412 11.1677 14.2673 11.1649C14.2947 11.2389 14.3173 11.3509 14.3247 11.4742C14.342 11.7922 14.5873 11.6049 14.5873 11.8062C14.5873 12.0082 14.9407 12.1342 15.028 12.1715C15.0527 12.1822 15.0907 12.1535 15.134 12.1062C15.1547 12.1135 15.174 12.1282 15.196 12.1309C15.3907 12.1515 15.8107 11.4749 15.9407 11.3549C16.0087 11.2915 16.01 11.1755 15.9627 11.0922L16 11.0755Z" fill="#77B255"/>
  <path d="M18.4227 14.0686C18.3873 14.3619 18.5453 14.2026 18.8267 14.5386C19.1087 14.8772 18.7573 14.8012 18.634 14.7492C18.5107 14.6959 18.3873 14.6619 18.248 14.4039C18.106 14.1432 18.248 13.9406 18.248 13.7192C18.248 13.7192 18.4587 13.7752 18.4227 14.0686ZM18.664 13.4679C18.9233 13.5786 18.74 13.1466 18.8267 12.9072C18.9147 12.6699 19.0373 12.6619 19.1967 12.6652C19.354 12.6666 19.478 12.5379 19.584 12.4059C19.6887 12.2732 19.8827 12.1032 19.8653 11.9172C19.848 11.7312 19.796 11.5959 19.724 11.3552C19.654 11.1152 19.9347 11.1099 20.0587 10.8812C20.1813 10.6526 20.0587 10.8812 20.3393 10.8759C20.6207 10.8706 20.498 10.8372 20.55 10.7306C20.6033 10.6246 20.6387 10.5126 20.586 10.2772C20.534 10.0419 20.3393 10.2106 20.146 10.1592C19.9533 10.1079 20.2167 9.8759 20.234 9.63923C20.2513 9.40257 20.4987 9.52923 20.6747 9.5559C20.85 9.5819 20.9027 9.87857 20.9553 9.9539C21.0093 10.0286 21.552 9.71057 21.694 9.52657C21.8347 9.34323 21.57 9.33257 21.6413 9.2579C21.712 9.1839 21.22 9.03323 21.0247 8.94523C20.832 8.85657 20.3393 8.70057 20.146 8.51257C19.9533 8.3239 19.2153 8.22857 19.0207 8.2879C18.8267 8.34523 18.7033 8.19257 18.6167 8.01723C18.5293 7.84257 18.1593 7.81923 18.054 7.7059C17.9487 7.59257 17.8433 7.79057 17.7013 7.81257C17.5613 7.8359 17.5087 7.84123 17.332 7.67323C17.1567 7.50523 17.3853 7.4259 17.14 7.25923C16.9033 7.10057 16.598 7.1379 16 6.86523V11.0746C16.1047 11.0839 16.206 11.0986 16.2427 11.1086C16.33 11.1319 16.5413 11.4906 16.5413 11.6312C16.5413 11.7719 16.6467 12.1832 16.7353 12.4279C16.8227 12.6719 17.0153 12.7652 17.1927 12.9732C17.3687 13.1812 17.4553 13.0646 17.4553 13.0646C17.4553 13.0646 17.3853 12.7019 17.3853 12.4212C17.3853 12.1386 17.596 11.9539 17.596 11.9539C17.596 11.9539 17.9293 12.3259 17.948 12.4106C17.9653 12.4959 18.2287 12.8479 18.2473 12.9946C18.2647 13.1406 18.4053 13.3586 18.664 13.4679ZM20.0587 12.0892C20.1813 12.1426 20.7093 12.2032 20.428 11.8666C20.146 11.5292 20.3573 11.6672 20.3927 11.3746C20.428 11.0812 20.2167 11.0252 20.2167 11.0252C20.2167 11.2466 20.076 11.4506 20.2167 11.7092C20.3567 11.9692 19.9347 12.0359 20.0587 12.0892ZM21.3947 15.6699C21.3073 15.5252 21.114 15.4132 20.9027 15.3626C20.6927 15.3119 20.7093 15.0426 20.4987 15.0072C20.288 14.9706 20.136 14.7479 20.0413 14.6659C19.8333 14.4886 19.9707 14.8052 20.0413 15.1319C20.112 15.4572 20.3753 15.2959 20.6207 15.5226C20.8667 15.7492 20.8853 15.5332 21.114 15.6752C21.342 15.8159 21.4307 16.0219 21.65 16.0606C21.8693 16.0999 21.4833 15.8146 21.3947 15.6699ZM19.336 14.7152C19.5107 14.9832 19.442 14.7439 19.672 14.7046C19.9007 14.6652 19.478 14.3306 19.3373 14.1719C19.1967 14.0132 19.0573 13.9712 18.934 14.2046C18.794 14.4706 19.162 14.4472 19.336 14.7152ZM20.938 16.4346C20.8493 16.2092 20.5927 15.9592 20.488 15.8279C20.382 15.6992 20.2167 15.6199 20.076 15.6419C19.9347 15.6626 19.8473 15.5806 19.7773 15.4012C19.7067 15.2239 19.584 15.2459 19.478 15.2386C19.3733 15.2306 18.9507 15.3179 18.704 15.3919C18.4587 15.4672 18.346 15.5599 18.1853 15.6966C17.9307 15.9099 18.072 15.7666 18.1853 15.9792C18.2973 16.1912 18.0607 16.6899 18.0433 17.0079C18.0253 17.3259 18.494 17.0286 18.6693 17.0339C18.8453 17.0419 18.7933 16.9079 18.9333 16.8246C19.0747 16.7412 19.166 16.7386 19.3193 16.9392C19.4747 17.1426 19.6773 17.3466 19.6773 17.5279C19.6773 17.7079 20.2333 18.1592 20.4447 18.0959C20.6553 18.0306 20.7787 17.8239 20.972 17.6726C21.166 17.5226 21.096 17.1232 21.148 16.8939C21.202 16.6646 21.0247 16.6579 20.938 16.4346Z" fill="#5C913B"/>
</svg>