<svg xmlns="http://www.w3.org/2000/svg" width="49" height="48" viewBox="0 0 49 48" fill="none">
  <path d="M11.6345 28.3906L5.11945 39.7938L12.1577 37.8883L14.0466 44.9997L19.6985 35.1077M37.0326 28.3906L43.5477 39.7938L36.5064 37.8883L34.6205 44.9997L28.9686 35.1077" fill="#FFAA45"/>
  <path d="M11.6345 28.3906L5.11945 39.7938L12.1577 37.8883L14.0466 44.9997L19.6985 35.1077M37.0326 28.3906L43.5477 39.7938L36.5064 37.8883L34.6205 44.9997L28.9686 35.1077" stroke="black" stroke-linecap="round" stroke-linejoin="round"/>
  <path d="M21.1874 3.80599C20.2206 4.33589 19.4033 5.10132 18.8112 6.0313C17.7338 5.78905 16.6126 5.82323 15.552 6.13066C14.4913 6.43809 13.5256 7.00877 12.7448 7.78964C11.9639 8.5705 11.3932 9.53618 11.0858 10.5968C10.7784 11.6575 10.7442 12.7787 10.9864 13.8561C10.0565 14.4482 9.29103 15.2655 8.76113 16.2322C8.23122 17.199 7.95399 18.2839 7.95514 19.3864C7.9563 20.4888 8.2358 21.5732 8.76773 22.5388C9.29966 23.5045 10.0668 24.3202 10.998 24.9103C10.7588 25.9858 10.7949 27.1042 11.1028 28.162C11.4108 29.2198 11.9807 30.1828 12.7597 30.9618C13.5387 31.7409 14.5017 32.3107 15.5595 32.6187C16.6174 32.9266 17.7358 32.9627 18.8112 32.7235C19.4033 33.6535 20.2206 34.4189 21.1874 34.9488C22.1541 35.4787 23.239 35.756 24.3415 35.7548C25.444 35.7537 26.5283 35.4742 27.4939 34.9422C28.4596 34.4103 29.2753 33.6431 29.8654 32.7119C30.9389 32.948 32.0546 32.9101 33.1096 32.6017C34.1645 32.2932 35.1249 31.7242 35.9021 30.947C36.6793 30.1698 37.2484 29.2094 37.5568 28.1544C37.8653 27.0994 37.9032 25.9838 37.6671 24.9103C38.6002 24.3198 39.3688 23.5028 39.9014 22.5354C40.434 21.5681 40.7133 20.4817 40.7133 19.3774C40.7133 18.2731 40.434 17.1868 39.9014 16.2194C39.3688 15.252 38.6002 14.4351 37.6671 13.8445C37.9032 12.771 37.8653 11.6554 37.5568 10.6004C37.2484 9.54541 36.6793 8.58505 35.9021 7.80783C35.1249 7.03062 34.1645 6.46156 33.1096 6.15312C32.0546 5.84467 30.9389 5.80676 29.8654 6.04288C29.2753 5.11166 28.4596 4.34452 27.4939 3.81259C26.5283 3.28066 25.444 3.00116 24.3415 3C23.239 2.99885 22.1541 3.27608 21.1874 3.80599Z" fill="#FFC536" stroke="black" stroke-linecap="round" stroke-linejoin="round"/>
  <circle cx="24.3346" cy="19.3775" r="11.4293" fill="#FFD964" stroke="#FFA000"/>
  <path d="M21.1462 24.5239L24.3343 22.6009L27.5224 24.5492L26.6874 20.9056L29.496 18.4766L25.8018 18.1476L24.3343 14.7065L22.8667 18.1223L19.1726 18.4513L21.9811 20.9056L21.1462 24.5239ZM19.6027 26.6473L20.8577 21.27L16.6848 17.6547L22.1815 17.1791L24.3343 12.1074L26.487 17.178L31.9827 17.6537L27.8098 21.269L29.0658 26.6463L24.3343 23.7921L19.6027 26.6473Z" fill="#F9A600"/>
  <path d="M21.1462 24.5239L24.3343 22.6009L27.5224 24.5492L26.6874 20.9056L29.496 18.4766L25.8018 18.1476L24.3343 14.7065L22.8667 18.1223L19.1726 18.4513L21.9811 20.9056L21.1462 24.5239Z" fill="#FFC536"/>
</svg>