<svg xmlns="http://www.w3.org/2000/svg" width="88" height="28" viewBox="0 0 88 28" fill="none">
  <path d="M0.649414 0.878418H5.87967L14.7726 16.9488L23.6671 0.878418H28.7836V27.2846H24.5169V7.04649L16.7172 21.061H12.7144L4.91636 7.04649V27.2846H0.649681L0.649414 0.878418ZM42.1526 10.7242C39.0929 10.7242 37.2499 13.0242 36.8089 15.873H47.194C46.9799 12.9383 45.2854 10.7242 42.1526 10.7242ZM32.5789 17.4953C32.5789 11.5017 36.4566 7.13938 42.227 7.13938C47.9028 7.13938 51.2914 11.4463 51.2914 17.8152V18.9858H36.8089C37.3226 22.0844 39.3811 24.1725 42.7001 24.1725C45.3479 24.1725 47.0031 23.3654 48.5723 21.8895L50.8391 24.6625C48.7033 26.6239 45.987 27.7552 42.5486 27.7552C36.3022 27.7552 32.5786 23.2055 32.5786 17.4953M56.465 11.1016H52.5377V7.61215H56.4653V1.84092H60.5818V7.61215H66.5487V11.1019H60.5818V19.9475C60.5818 22.9675 61.5484 24.0406 63.924 24.0406C65.0086 24.0406 65.6302 23.9475 66.5487 23.7948V27.2469C65.4046 27.5697 64.3127 27.718 63.1308 27.718C58.6865 27.718 56.4653 25.2925 56.4653 20.4375L56.465 11.1016ZM83.8828 14.4956C83.0562 12.4104 81.2118 10.875 78.5011 10.875C74.9783 10.875 72.7237 13.3715 72.7237 17.4388C72.7237 21.4038 74.7993 24.0212 78.3324 24.0212C81.1099 24.0212 83.0923 22.4072 83.8828 20.399V14.4956ZM87.9996 27.284H83.9586V24.5303C82.8292 26.1516 80.7735 27.7557 77.4443 27.7557C72.0903 27.7557 68.512 23.2784 68.512 17.4388C68.512 11.544 72.1763 7.13965 77.6715 7.13965C80.3878 7.13965 82.519 8.22465 83.9586 10.1394V7.61215H87.9999L87.9996 27.284Z" fill="#192830"/>
</svg>