<svg xmlns="http://www.w3.org/2000/svg" width="188" height="40" viewBox="0 0 188 40" fill="none">
  <g clip-path="url(#clip0_145_46448)">
    <path d="M187.091 17.9818V14.7072H183.024V9.61703L182.888 9.65884L179.068 10.8276L178.993 10.8505V14.7072H172.965V12.5588C172.965 11.5585 173.189 10.7927 173.63 10.2825C174.068 9.77775 174.694 9.52139 175.493 9.52139C176.067 9.52139 176.661 9.65666 177.26 9.92321L177.41 9.99012V6.54212L177.339 6.51666C176.781 6.31557 176.022 6.21484 175.081 6.21484C173.895 6.21484 172.817 6.47266 171.877 6.9843C170.937 7.49593 170.197 8.22757 169.679 9.15739C169.163 10.0861 168.901 11.1585 168.901 12.3454V14.7076H166.07V17.9821H168.901V31.7759H172.965V17.9818H178.993V26.7476C178.993 30.3578 180.696 32.1876 184.055 32.1876C184.635 32.1842 185.213 32.1198 185.78 31.9956C186.384 31.8658 186.795 31.7359 187.037 31.5974L187.091 31.5658V28.261L186.925 28.3705C186.705 28.5178 186.43 28.6378 186.108 28.7268C185.784 28.8178 185.514 28.8636 185.305 28.8636C184.518 28.8636 183.936 28.6516 183.575 28.233C183.21 27.8112 183.024 27.0727 183.024 26.0399V17.9818H187.091ZM156.993 28.8639C155.518 28.8639 154.355 28.3745 153.535 27.4112C152.711 26.4425 152.292 25.0621 152.292 23.3076C152.292 21.4978 152.711 20.0814 153.536 19.0956C154.356 18.1167 155.508 17.6196 156.96 17.6196C158.369 17.6196 159.491 18.0941 160.295 19.0312C161.102 19.9727 161.512 21.3778 161.512 23.2087C161.512 25.0621 161.127 26.4861 160.367 27.4385C159.612 28.3839 158.477 28.8639 156.993 28.8639ZM157.174 14.2959C154.36 14.2959 152.124 15.1207 150.531 16.7472C148.937 18.3741 148.13 20.625 148.13 23.4388C148.13 26.1112 148.918 28.2607 150.473 29.8268C152.028 31.393 154.144 32.1868 156.762 32.1868C159.491 32.1868 161.681 31.3508 163.275 29.7018C164.868 28.0545 165.675 25.8247 165.675 23.0763C165.675 20.3625 164.917 18.197 163.423 16.6414C161.928 15.085 159.825 14.2959 157.174 14.2959ZM141.576 14.2959C139.662 14.2959 138.078 14.7858 136.868 15.7512C135.652 16.7225 135.034 17.9967 135.034 19.5381C135.034 20.3392 135.167 21.0508 135.43 21.6545C135.693 22.2603 136.102 22.7934 136.644 23.241C137.183 23.685 138.013 24.1501 139.115 24.6228C140.04 25.0039 140.731 25.3265 141.169 25.5803C141.598 25.8294 141.903 26.0796 142.074 26.3232C142.241 26.5614 142.326 26.8879 142.326 27.2905C142.326 28.4374 141.467 28.9952 139.7 28.9952C139.045 28.9952 138.297 28.8585 137.478 28.5887C136.665 28.3227 135.898 27.9335 135.203 27.4348L135.034 27.3141V31.2268L135.096 31.2559C135.671 31.5214 136.396 31.745 137.251 31.9214C138.104 32.0974 138.879 32.1872 139.552 32.1872C141.629 32.1872 143.303 31.6952 144.523 30.7239C145.752 29.7458 146.375 28.4421 146.375 26.8468C146.375 25.6967 146.039 24.7098 145.378 23.9141C144.723 23.125 143.584 22.4003 141.995 21.7599C140.73 21.2519 139.919 20.8305 139.585 20.5068C139.262 20.1941 139.099 19.7519 139.099 19.1923C139.099 18.6956 139.301 18.2981 139.716 17.9759C140.134 17.6523 140.716 17.4876 141.445 17.4876C142.123 17.4876 142.815 17.5945 143.504 17.8039C144.193 18.0138 144.797 18.2948 145.303 18.6381L145.468 18.7516V15.0396L145.405 15.0123C144.939 14.8123 144.325 14.6414 143.579 14.5032C142.836 14.3658 142.162 14.2959 141.576 14.2959ZM124.438 28.8639C122.963 28.8639 121.8 28.3745 120.98 27.4112C120.156 26.4425 119.739 25.0621 119.739 23.3076C119.739 21.4978 120.156 20.0814 120.981 19.0956C121.801 18.1167 122.952 17.6196 124.405 17.6196C125.815 17.6196 126.936 18.0941 127.74 19.0312C128.548 19.9727 128.957 21.3778 128.957 23.2087C128.957 25.0621 128.572 26.4861 127.812 27.4385C127.057 28.3839 125.923 28.8639 124.438 28.8639ZM124.62 14.2959C121.804 14.2959 119.569 15.1207 117.976 16.7472C116.383 18.3741 115.575 20.625 115.575 23.4388C115.575 26.1123 116.364 28.2607 117.919 29.8268C119.473 31.393 121.589 32.1868 124.208 32.1868C126.935 32.1868 129.127 31.3508 130.721 29.7018C132.313 28.0545 133.121 25.8247 133.121 23.0763C133.121 20.3625 132.363 18.197 130.868 16.6414C129.373 15.085 127.27 14.2959 124.62 14.2959ZM109.405 17.6632V14.7072H105.39V31.7752H109.405V23.0439C109.405 21.5592 109.741 20.3396 110.406 19.4185C111.061 18.5083 111.936 18.0468 113.002 18.0468C113.364 18.0468 113.77 18.1065 114.209 18.2247C114.645 18.3418 114.96 18.469 115.146 18.6028L115.315 18.7254V14.6781L115.249 14.6501C114.876 14.4912 114.347 14.4112 113.677 14.4112C112.668 14.4112 111.765 14.7352 110.992 15.3734C110.313 15.9345 109.823 16.7039 109.448 17.6632H109.405ZM98.2003 14.2959C96.3585 14.2959 94.7152 14.6912 93.3178 15.4698C91.9178 16.2498 90.8345 17.3643 90.0978 18.7807C89.3643 20.1941 88.992 21.845 88.992 23.6861C88.992 25.2985 89.3531 26.7785 90.0665 28.0825C90.7807 29.389 91.7916 30.4112 93.0709 31.1203C94.3487 31.8283 95.8254 32.1872 97.46 32.1872C99.368 32.1872 100.997 31.8058 102.304 31.0538L102.356 31.0232V27.345L102.188 27.4683C101.587 27.9037 100.925 28.2482 100.223 28.4908C99.5134 28.7385 98.8669 28.8636 98.2996 28.8636C96.724 28.8636 95.4596 28.3708 94.5414 27.3992C93.6214 26.4258 93.1549 25.0596 93.1549 23.3399C93.1549 21.6098 93.6414 20.2083 94.6 19.1738C95.556 18.1428 96.8229 17.6199 98.3658 17.6199C99.6854 17.6199 100.971 18.0668 102.188 18.9494L102.356 19.0716V15.1959L102.302 15.1654C101.844 14.909 101.22 14.6974 100.444 14.537C99.6727 14.377 98.9178 14.2959 98.2003 14.2959ZM86.2269 14.7072H82.2116V31.7752H86.2269V14.7072ZM84.2603 7.4363C83.5996 7.4363 83.0232 7.66139 82.5498 8.10684C82.0742 8.55412 81.8327 9.11703 81.8327 9.78103C81.8327 10.4348 82.0712 10.9872 82.5418 11.4225C83.0098 11.8563 83.588 12.0763 84.2603 12.0763C84.9323 12.0763 85.5127 11.8563 85.9861 11.4232C86.4625 10.9872 86.7043 10.4348 86.7043 9.78103C86.7043 9.1403 86.4691 8.58284 86.0058 8.12503C85.5429 7.66793 84.9552 7.4363 84.2603 7.4363ZM74.2429 13.4483V31.7748H78.3403V7.95884H72.6694L65.4611 25.6487L58.4662 7.95884H52.5643V31.7752H56.4149V13.4465H56.5472L63.9338 31.7752H66.8392L74.1105 13.4479L74.2429 13.4483Z" fill="#706D6E"/>
    <path d="M19.796 18.8869H0.909058V0H19.796V18.8869Z" fill="#F1511B"/>
    <path d="M40.6496 18.8869H21.7627V0H40.6496V18.8869Z" fill="#80CC28"/>
    <path d="M19.7956 39.7482H0.909058V20.8613H19.7956V39.7482Z" fill="#00ADEF"/>
    <path d="M40.6496 39.7482H21.7627V20.8613H40.6496V39.7482Z" fill="#FBBC09"/>
  </g>
  <defs>
    <clipPath id="clip0_145_46448">
      <rect width="186.182" height="40" fill="white" transform="translate(0.909058)"/>
    </clipPath>
  </defs>
</svg>