<svg xmlns="http://www.w3.org/2000/svg" width="106" height="30" viewBox="0 0 106 30" fill="none">
  <path d="M15.0468 27.5088C13.4763 27.7915 11.8692 27.8752 10.2097 28.1003L5.1528 13.0604V28.7442C3.58232 28.917 2.14271 29.1421 0.650757 29.3672V0.627441H4.84917L10.5971 16.9342V0.627441H15.0468V27.5088ZM23.7525 11.1496C25.4643 11.1496 28.0923 11.0659 29.668 11.0659V15.5575C27.7049 15.5575 25.4067 15.5575 23.7525 15.6412V22.321C26.349 22.1535 28.9455 21.9284 31.5735 21.8446V26.1634L19.329 27.1476V0.627441H31.5735V5.11901H23.7525V11.1496ZM48.0112 5.11901H43.4254V25.7708C41.9334 25.7708 40.4415 25.7708 39.0071 25.8284V5.11901H34.416V0.627441H48.0112V5.11901ZM55.1987 10.8408H61.2503V15.3324H55.1987V25.5195H50.8537V0.627441H63.2082V5.11901H55.1987V10.8408ZM70.3957 21.5881C72.9085 21.6457 75.4527 21.8446 77.9131 21.9807V26.4199C73.9392 26.1371 69.9598 25.9399 65.9774 25.8284V0.627441H70.3957V21.5881ZM81.6404 26.7288C83.0538 26.8126 84.5405 26.8963 85.9801 27.0638V0.627441H81.6404V26.7288ZM105.349 0.627441L99.7375 14.2906L105.349 29.3724C103.69 29.1473 102.036 28.8385 100.376 28.5558L97.1986 20.248L93.9634 27.8805C92.3615 27.603 90.8172 27.514 89.2153 27.2942L94.9056 14.1336L89.765 0.627441H94.5183L97.4184 8.18144L100.512 0.632673L105.349 0.627441Z" fill="black"/>
</svg>