<svg xmlns="http://www.w3.org/2000/svg" width="49" height="48" viewBox="0 0 49 48" fill="none">
  <path opacity="0.15" d="M9.75 45.5C9.75 45.8978 11.3304 46.2794 14.1434 46.5607C16.9564 46.842 20.7718 47 24.75 47C28.7282 47 32.5436 46.842 35.3566 46.5607C38.1696 46.2794 39.75 45.8978 39.75 45.5C39.75 45.1022 38.1696 44.7206 35.3566 44.4393C32.5436 44.158 28.7282 44 24.75 44C20.7718 44 16.9564 44.158 14.1434 44.4393C11.3304 44.7206 9.75 45.1022 9.75 45.5Z" fill="#45413C"/>
  <path d="M5.41992 4H44.0899V29.21H5.41992V4Z" fill="#525252" stroke="#45413C" stroke-linecap="round" stroke-linejoin="round"/>
  <path d="M8.30992 6.58984H17.0399V9.25984H8.30992V6.58984ZM18.3699 6.58984H35.7799V9.25984H18.3699V6.58984ZM36.7699 6.58984H41.1899V9.25984H36.7699V6.58984ZM8.30992 10.9298H10.4199V13.5998H8.30992V10.9298ZM11.8199 10.9298H20.8599V13.5998H11.8199V10.9298ZM22.2099 10.9298H26.7299V13.5998H22.2099V10.9298ZM27.9199 10.9298H41.1799V13.5998H27.9199V10.9298ZM8.16992 15.2698H18.2299V17.9398H8.16992V15.2698ZM19.3199 15.2698H41.1899V17.9398H19.3199V15.2698ZM8.16992 19.6098H14.9299V22.2798H8.16992V19.6098ZM16.4299 19.6098H31.6899V22.2798H16.4299V19.6098ZM32.9299 19.6098H35.5799V22.2798H32.9299V19.6098ZM36.7699 19.6098H41.1899V22.2798H36.7699V19.6098ZM8.16992 23.9498H32.9299V26.6198H8.16992V23.9498ZM34.2499 23.9498H41.1899V26.6198H34.2499V23.9498Z" fill="#6DD627"/>
  <path d="M24.7491 31.2197C27.8999 31.2197 30.9216 32.4714 33.1496 34.6993C35.3775 36.9272 36.6291 39.949 36.6291 43.0997V44.9997H12.8691V43.0997C12.8691 39.949 14.1208 36.9272 16.3487 34.6993C18.5766 32.4714 21.5984 31.2197 24.7491 31.2197Z" fill="#00B8F0"/>
  <path d="M24.7491 31.2197C21.5984 31.2197 18.5766 32.4714 16.3487 34.6993C14.1208 36.9272 12.8691 39.949 12.8691 43.0997V44.9997H12.9991C13.4033 42.1706 14.8138 39.5819 16.9719 37.7084C19.1301 35.835 21.8913 34.8023 24.7491 34.7997C27.607 34.8023 30.3682 35.835 32.5264 37.7084C34.6845 39.5819 36.095 42.1706 36.4991 44.9997H36.6291V43.0997C36.6291 39.949 35.3775 36.9272 33.1496 34.6993C30.9216 32.4714 27.8999 31.2197 24.7491 31.2197Z" fill="#009FD9"/>
  <path d="M24.7491 31.2197C27.8999 31.2197 30.9216 32.4714 33.1496 34.6993C35.3775 36.9272 36.6291 39.949 36.6291 43.0997V44.9997H12.8691V43.0997C12.8691 39.949 14.1208 36.9272 16.3487 34.6993C18.5766 32.4714 21.5984 31.2197 24.7491 31.2197Z" stroke="#45413C" stroke-linecap="round" stroke-linejoin="round"/>
  <path d="M22.2109 27.1699H27.3009V35.1099H22.2109V27.1699Z" fill="#FFCEBF"/>
  <path d="M24.7509 27.1699C24.0773 27.1699 23.4312 27.4375 22.9549 27.9139C22.4785 28.3902 22.2109 29.0363 22.2109 29.7099V30.3099C22.2109 30.9836 22.4785 31.6296 22.9549 32.106C23.4312 32.5823 24.0773 32.8499 24.7509 32.8499C25.4246 32.8499 26.0706 32.5823 26.547 32.106C27.0233 31.6296 27.2909 30.9836 27.2909 30.3099V29.7199C27.2923 29.3855 27.2275 29.0542 27.1005 28.7448C26.9734 28.4355 26.7865 28.1543 26.5505 27.9174C26.3145 27.6805 26.0341 27.4925 25.7253 27.3642C25.4164 27.2359 25.0853 27.1699 24.7509 27.1699Z" fill="#FFB59E"/>
  <path d="M17.8105 44.9999V42.5899M31.6905 44.9999V42.5899M22.2105 27.1699H27.3005V35.1099H22.2105V27.1699Z" stroke="#45413C" stroke-linecap="round" stroke-linejoin="round"/>
  <path d="M24.7497 6.91016C23.9266 6.91061 23.1068 7.01476 22.3097 7.22016C20.4497 7.64016 18.0297 8.34016 15.8397 7.92016C15.7544 8.48421 15.7848 9.05974 15.9293 9.61162C16.0737 10.1635 16.329 10.6802 16.6797 11.1302C15.5382 12.7743 14.9275 14.7286 14.9297 16.7302V21.8702H34.5697V16.7302C34.5697 14.1257 33.5351 11.628 31.6935 9.78637C29.8519 7.94476 27.3541 6.91016 24.7497 6.91016Z" fill="#A86C4D"/>
  <path d="M24.7495 6.91016C23.9264 6.91061 23.1066 7.01476 22.3095 7.22016C20.4495 7.64016 18.0295 8.34016 15.8395 7.92016C15.7041 8.96911 15.9451 10.0321 16.5195 10.9202C18.4783 10.9507 20.4305 10.6843 22.3095 10.1302C23.7599 9.75607 25.2768 9.71908 26.7437 10.022C28.2106 10.325 29.5887 10.9599 30.7722 11.8779C31.9558 12.796 32.9134 13.9729 33.5716 15.3184C34.2298 16.6639 34.5712 18.1423 34.5695 19.6402V16.7302C34.5695 14.1257 33.5349 11.628 31.6933 9.78637C29.8517 7.94476 27.3539 6.91016 24.7495 6.91016Z" fill="#DE926A"/>
  <path d="M24.7497 6.91016C23.9266 6.91061 23.1068 7.01476 22.3097 7.22016C20.4497 7.64016 18.0297 8.34016 15.8397 7.92016C15.7544 8.48421 15.7848 9.05974 15.9293 9.61162C16.0737 10.1635 16.329 10.6802 16.6797 11.1302C15.5382 12.7743 14.9275 14.7286 14.9297 16.7302V21.8702H34.5697V16.7302C34.5697 14.1257 33.5351 11.628 31.6935 9.78637C29.8519 7.94476 27.3541 6.91016 24.7497 6.91016Z" stroke="#45413C" stroke-linecap="round" stroke-linejoin="round"/>
  <path d="M35.6194 21.1203C35.5708 20.7531 35.4119 20.4093 35.1637 20.1343C34.9155 19.8594 34.5897 19.6662 34.2294 19.5803L33.6394 19.4203C33.2047 19.2975 32.8223 19.0353 32.5513 18.6739C32.2803 18.3125 32.1355 17.872 32.1394 17.4203V15.3803C32.1383 14.9679 32.0016 14.5673 31.7504 14.2403C31.4993 13.9132 31.1475 13.6778 30.7494 13.5703C28.8428 14.3326 26.8023 14.7033 24.7494 14.6603C22.6965 14.7033 20.656 14.3326 18.7494 13.5703C18.3494 13.6759 17.9954 13.9105 17.7423 14.2378C17.4892 14.565 17.3511 14.9666 17.3494 15.3803V17.4403C17.3532 17.892 17.2085 18.3325 16.9375 18.6939C16.6664 19.0553 16.2841 19.3175 15.8494 19.4403L15.2594 19.6003C14.8991 19.6862 14.5733 19.8794 14.3251 20.1543C14.0769 20.4293 13.918 20.7731 13.8694 21.1403C13.8427 21.3935 13.8696 21.6494 13.9485 21.8914C14.0275 22.1335 14.1565 22.3561 14.3274 22.5449C14.4982 22.7336 14.7069 22.8842 14.9399 22.9868C15.1728 23.0894 15.4248 23.1417 15.6794 23.1403H15.7894C16.0234 25.3509 17.0672 27.3967 18.7197 28.8835C20.3722 30.3703 22.5165 31.1929 24.7394 31.1929C26.9623 31.1929 29.1066 30.3703 30.7591 28.8835C32.4116 27.3967 33.4554 25.3509 33.6894 23.1403H33.7994C34.0567 23.1435 34.3117 23.0917 34.5474 22.9886C34.7831 22.8854 34.9941 22.7332 35.1663 22.542C35.3385 22.3509 35.468 22.1252 35.5462 21.88C35.6243 21.6349 35.6493 21.3759 35.6194 21.1203Z" fill="#FFCEBF" stroke="#45413C" stroke-linecap="round" stroke-linejoin="round"/>
  <path d="M19.3204 20.9097C19.3204 21.062 19.3655 21.2109 19.4501 21.3375C19.5348 21.4641 19.655 21.5628 19.7957 21.6211C19.9364 21.6794 20.0912 21.6946 20.2406 21.6649C20.39 21.6352 20.5272 21.5619 20.6349 21.4542C20.7425 21.3465 20.8159 21.2093 20.8456 21.0599C20.8753 20.9106 20.86 20.7557 20.8018 20.615C20.7435 20.4744 20.6448 20.3541 20.5182 20.2695C20.3915 20.1849 20.2427 20.1397 20.0904 20.1397C19.9889 20.1384 19.8882 20.1574 19.7941 20.1956C19.7001 20.2338 19.6147 20.2905 19.5429 20.3622C19.4711 20.434 19.4145 20.5194 19.3763 20.6135C19.338 20.7075 19.319 20.8082 19.3204 20.9097ZM30.1804 20.9097C30.1804 21.062 30.1352 21.2109 30.0506 21.3375C29.966 21.4641 29.8457 21.5628 29.705 21.6211C29.5643 21.6794 29.4095 21.6946 29.2602 21.6649C29.1108 21.6352 28.9736 21.5619 28.8659 21.4542C28.7582 21.3465 28.6849 21.2093 28.6552 21.0599C28.6255 20.9106 28.6407 20.7557 28.699 20.615C28.7573 20.4744 28.856 20.3541 28.9826 20.2695C29.1092 20.1849 29.2581 20.1397 29.4104 20.1397C29.5119 20.1384 29.6126 20.1574 29.7066 20.1956C29.8007 20.2338 29.8861 20.2905 29.9578 20.3622C30.0296 20.434 30.0863 20.5194 30.1245 20.6135C30.1627 20.7075 30.1817 20.8082 30.1804 20.9097Z" fill="#45413C" stroke="#45413C" stroke-linecap="round" stroke-linejoin="round"/>
  <path d="M21.9107 25.5996C21.8474 25.601 21.7851 25.616 21.7282 25.6436C21.6712 25.6712 21.6209 25.7108 21.5807 25.7596C21.5388 25.8067 21.5081 25.8626 21.4908 25.9232C21.4735 25.9838 21.47 26.0475 21.4807 26.1096C21.6157 26.8788 22.0176 27.5758 22.6156 28.078C23.2137 28.5803 23.9697 28.8556 24.7507 28.8556C25.5316 28.8556 26.2876 28.5803 26.8857 28.078C27.4838 27.5758 27.8856 26.8788 28.0207 26.1096C28.0313 26.0475 28.0279 25.9838 28.0105 25.9232C27.9932 25.8626 27.9625 25.8067 27.9207 25.7596C27.8804 25.7108 27.8301 25.6712 27.7731 25.6436C27.7162 25.616 27.6539 25.601 27.5907 25.5996H21.9107Z" fill="#FF6242"/>
  <path d="M24.7505 27.0001C23.8476 26.9648 22.9594 27.2362 22.2305 27.7701C22.5456 28.121 22.931 28.4017 23.3618 28.5938C23.7925 28.7859 24.2588 28.8852 24.7305 28.8852C25.2021 28.8852 25.6684 28.7859 26.0992 28.5938C26.5299 28.4017 26.9154 28.121 27.2305 27.7701C26.5124 27.2448 25.6398 26.9739 24.7505 27.0001Z" fill="#FFA694"/>
  <path d="M21.9107 25.5996C21.8474 25.601 21.7851 25.616 21.7282 25.6436C21.6712 25.6712 21.6209 25.7108 21.5807 25.7596C21.5388 25.8067 21.5081 25.8626 21.4908 25.9232C21.4735 25.9838 21.47 26.0475 21.4807 26.1096C21.6157 26.8788 22.0176 27.5758 22.6156 28.078C23.2137 28.5803 23.9697 28.8556 24.7507 28.8556C25.5316 28.8556 26.2876 28.5803 26.8857 28.078C27.4838 27.5758 27.8856 26.8788 28.0207 26.1096C28.0313 26.0475 28.0279 25.9838 28.0105 25.9232C27.9932 25.8626 27.9625 25.8067 27.9207 25.7596C27.8804 25.7108 27.8301 25.6712 27.7731 25.6436C27.7162 25.616 27.6539 25.601 27.5907 25.5996H21.9107Z" stroke="#45413C" stroke-linecap="round" stroke-linejoin="round"/>
  <path d="M17.8105 24.1898C17.8105 24.349 17.9159 24.5016 18.1034 24.6141C18.291 24.7266 18.5453 24.7898 18.8105 24.7898C19.0758 24.7898 19.3301 24.7266 19.5177 24.6141C19.7052 24.5016 19.8105 24.349 19.8105 24.1898C19.8105 24.0307 19.7052 23.8781 19.5177 23.7656C19.3301 23.6531 19.0758 23.5898 18.8105 23.5898C18.5453 23.5898 18.291 23.6531 18.1034 23.7656C17.9159 23.8781 17.8105 24.0307 17.8105 24.1898ZM29.6905 24.1898C29.6905 24.349 29.7959 24.5016 29.9834 24.6141C30.171 24.7266 30.4253 24.7898 30.6905 24.7898C30.9558 24.7898 31.2101 24.7266 31.3977 24.6141C31.5852 24.5016 31.6905 24.349 31.6905 24.1898C31.6905 24.0307 31.5852 23.8781 31.3977 23.7656C31.2101 23.6531 30.9558 23.5898 30.6905 23.5898C30.4253 23.5898 30.171 23.6531 29.9834 23.7656C29.7959 23.8781 29.6905 24.0307 29.6905 24.1898Z" fill="#FFB59E"/>
  <path d="M33.2703 44.9998H16.2703C16.0891 45.0053 15.9119 44.9458 15.7707 44.8321C15.6295 44.7184 15.5336 44.558 15.5003 44.3798L14.2903 34.4798C14.2843 34.3763 14.3005 34.2727 14.3377 34.1759C14.375 34.0791 14.4324 33.9914 14.5062 33.9185C14.58 33.8456 14.6685 33.7894 14.7657 33.7534C14.863 33.7174 14.9668 33.7025 15.0703 33.7098H34.4703C34.5737 33.7025 34.6775 33.7174 34.7748 33.7534C34.872 33.7894 34.9605 33.8456 35.0343 33.9185C35.1081 33.9914 35.1655 34.0791 35.2028 34.1759C35.24 34.2727 35.2562 34.3763 35.2503 34.4798L34.0403 44.3798C34.0069 44.558 33.911 44.7184 33.7698 44.8321C33.6286 44.9458 33.4515 45.0053 33.2703 44.9998Z" fill="#ADC4D9"/>
  <path d="M15.0292 36.9398H34.4692C34.6344 36.9411 34.7951 36.9935 34.9292 37.0898L35.2492 34.4798C35.2552 34.3763 35.239 34.2727 35.2018 34.1759C35.1645 34.0791 35.1071 33.9914 35.0333 33.9185C34.9595 33.8456 34.871 33.7894 34.7738 33.7534C34.6765 33.7174 34.5727 33.7025 34.4692 33.7098H15.0292C14.9258 33.7025 14.822 33.7174 14.7247 33.7534C14.6275 33.7894 14.539 33.8456 14.4652 33.9185C14.3914 33.9914 14.334 34.0791 14.2967 34.1759C14.2595 34.2727 14.2433 34.3763 14.2492 34.4798L14.5692 37.0898C14.7034 36.9935 14.8641 36.9411 15.0292 36.9398Z" fill="#C0DCEB"/>
  <path d="M33.2703 44.9998H16.2703C16.0891 45.0053 15.9119 44.9458 15.7707 44.8321C15.6295 44.7184 15.5336 44.558 15.5003 44.3798L14.2903 34.4798C14.2843 34.3763 14.3005 34.2727 14.3377 34.1759C14.375 34.0791 14.4324 33.9914 14.5062 33.9185C14.58 33.8456 14.6685 33.7894 14.7657 33.7534C14.863 33.7174 14.9668 33.7025 15.0703 33.7098H34.4703C34.5737 33.7025 34.6775 33.7174 34.7748 33.7534C34.872 33.7894 34.9605 33.8456 35.0343 33.9185C35.1081 33.9914 35.1655 34.0791 35.2028 34.1759C35.24 34.2727 35.2562 34.3763 35.2503 34.4798L34.0403 44.3798C34.0069 44.558 33.911 44.7184 33.7698 44.8321C33.6286 44.9458 33.4515 45.0053 33.2703 44.9998Z" stroke="#45413C" stroke-linecap="round" stroke-linejoin="round"/>
  <path d="M25.9407 39.3596C25.929 39.058 26.013 38.7605 26.1807 38.5096C26.0891 38.3889 25.9582 38.304 25.8107 38.2696C25.6383 38.2095 25.4507 38.2094 25.2783 38.2693C25.1058 38.3292 24.9587 38.4456 24.8607 38.5996C24.7579 38.4374 24.6021 38.3158 24.4197 38.2557C24.2374 38.1955 24.0398 38.2004 23.8607 38.2696C23.3607 38.3696 23.1107 39.0896 23.2907 39.8596C23.4707 40.6296 24.0307 41.1796 24.5407 41.0796C24.6443 41.0517 24.7401 41.0004 24.8207 40.9296C24.8961 41.0023 24.9892 41.054 25.0907 41.0796C25.5007 41.1596 25.9407 40.8196 26.1907 40.2796C25.9965 40.0143 25.9075 39.6866 25.9407 39.3596Z" fill="white"/>
  <path d="M24.9433 38.1142C24.9655 38.1377 24.9987 38.1486 25.0409 38.1462C25.0832 38.1437 25.1336 38.128 25.1892 38.1C25.2448 38.072 25.3044 38.0322 25.3645 37.983C25.4246 37.9338 25.484 37.8763 25.539 37.8138C25.594 37.7513 25.6436 37.6851 25.6849 37.6192C25.7261 37.5534 25.7581 37.4892 25.7789 37.4304C25.7997 37.3716 25.809 37.3195 25.8062 37.2772C25.8033 37.2349 25.7884 37.2033 25.7623 37.1842C25.7393 37.1622 25.7057 37.1526 25.6634 37.1559C25.6211 37.1593 25.571 37.1755 25.5159 37.2037C25.4609 37.2319 25.402 37.2715 25.3427 37.3202C25.2835 37.3689 25.225 37.4257 25.1706 37.4873C25.1163 37.5489 25.0673 37.6141 25.0263 37.6791C24.9853 37.7441 24.9533 37.8076 24.9321 37.8659C24.9108 37.9243 24.9008 37.9762 24.9025 38.0189C24.9043 38.0615 24.9178 38.0939 24.9423 38.1142" fill="white"/>
</svg>