<svg xmlns="http://www.w3.org/2000/svg" width="24" height="24" viewBox="0 0 24 24" fill="none">
  <path d="M20.4061 7.21305L12.6371 5.01271C12.5767 4.99554 12.5126 4.99577 12.4524 5.01338L4.92105 7.22205C4.90523 7.22885 4.88996 7.23688 4.87539 7.24605C4.54743 7.33157 4.2504 7.50823 4.01869 7.75558C3.78698 8.00292 3.63006 8.31083 3.56609 8.64367C3.50213 8.9765 3.53373 9.32064 3.65726 9.63626C3.78078 9.95187 3.99116 10.226 4.26405 10.427C4.03586 10.5945 3.85067 10.8137 3.72373 11.0667C3.59679 11.3197 3.53172 11.5991 3.53386 11.8822C3.53601 12.1652 3.60532 12.4437 3.73609 12.6947C3.86685 12.9457 4.05534 13.1621 4.28605 13.326C4.01513 13.5192 3.80332 13.784 3.67432 14.0907C3.54532 14.3974 3.50422 14.7339 3.55563 15.0627C3.60704 15.3914 3.74893 15.6994 3.96541 15.952C4.18189 16.2047 4.46443 16.3922 4.78139 16.4934L12.4527 18.731C12.5131 18.7487 12.5772 18.749 12.6377 18.7317L20.4064 16.5144C20.476 16.4945 20.5372 16.4524 20.5808 16.3947C20.6244 16.3369 20.648 16.2664 20.6481 16.194V7.53405C20.6481 7.46151 20.6244 7.39095 20.5807 7.33308C20.5369 7.27521 20.4755 7.23318 20.4057 7.21338" fill="white"/>
  <path d="M12.5456 5.32422L20.3143 7.52522L12.5456 9.74255L5.01428 7.53322L12.5456 5.32422Z" fill="#92D3F5"/>
  <path d="M5.02762 8.24234L12.359 10.391C12.4797 10.4264 12.608 10.4268 12.729 10.3923L20.4943 8.13734C20.5364 8.12528 20.5735 8.09995 20.6 8.06512C20.6266 8.03028 20.6412 7.98781 20.6416 7.94401L20.648 7.52734L12.5463 9.75134L5.02695 7.54701C4.71188 7.61443 4.42777 7.78374 4.21853 8.02876C4.00929 8.27379 3.88655 8.5809 3.86929 8.90264C3.85203 9.22439 3.94121 9.54287 4.12304 9.80887C4.30487 10.0749 4.56923 10.2736 4.87529 10.3743L12.5466 12.612L20.617 10.3087L20.6303 9.89434C20.6313 9.86155 20.6245 9.82898 20.6106 9.79929C20.5966 9.7696 20.5758 9.74361 20.55 9.72345C20.5241 9.70328 20.4938 9.6895 20.4616 9.68323C20.4294 9.67696 20.3962 9.67837 20.3646 9.68734L12.5483 11.918L5.07429 9.73801C4.92065 9.68528 4.78671 9.58702 4.69027 9.45632C4.59384 9.32561 4.53947 9.16865 4.5344 9.00629C4.52934 8.84394 4.57381 8.68389 4.66192 8.54743C4.75002 8.41097 4.87757 8.30455 5.02762 8.24234Z" fill="#61B2E4"/>
  <path d="M5.02762 11.1369L12.359 13.2855C12.4797 13.3209 12.608 13.3214 12.729 13.2869L20.4943 11.0315C20.5363 11.0195 20.5734 10.9942 20.5999 10.9594C20.6265 10.9247 20.6411 10.8823 20.6416 10.8385L20.648 10.4219L12.5463 12.6459L5.02695 10.4415C4.71188 10.509 4.42777 10.6783 4.21853 10.9233C4.00929 11.1683 3.88655 11.4754 3.86929 11.7972C3.85203 12.1189 3.94121 12.4374 4.12304 12.7034C4.30487 12.9694 4.56923 13.1681 4.87529 13.2689L12.5466 15.5065L20.617 13.2032L20.6303 12.7889C20.6313 12.7561 20.6246 12.7235 20.6107 12.6937C20.5968 12.664 20.576 12.638 20.5501 12.6178C20.5242 12.5976 20.4939 12.5838 20.4617 12.5776C20.4294 12.5714 20.3962 12.5728 20.3646 12.5819L12.5483 14.8125L5.07429 12.6325C4.92065 12.5798 4.78671 12.4816 4.69027 12.3508C4.59384 12.2201 4.53947 12.0632 4.5344 11.9008C4.52934 11.7385 4.57381 11.5784 4.66192 11.442C4.75002 11.3055 4.87757 11.1991 5.02762 11.1369Z" fill="#D22F27"/>
  <path d="M5.02701 14.0513L12.3583 16.1996C12.4791 16.235 12.6074 16.2354 12.7283 16.2009L20.4937 13.9459C20.5358 13.9339 20.5729 13.9085 20.5994 13.8737C20.626 13.8389 20.6405 13.7964 20.641 13.7526L20.6473 13.3359L12.5457 15.5599L5.02634 13.3563C4.7114 13.4238 4.42745 13.5931 4.21833 13.8381C4.00921 14.0831 3.88655 14.3901 3.86929 14.7118C3.85204 15.0334 3.94114 15.3518 4.12285 15.6177C4.30456 15.8837 4.56877 16.0824 4.87467 16.1833L12.546 18.4209L20.6163 16.1176L20.6297 15.7036C20.6308 15.6708 20.6241 15.6381 20.6102 15.6083C20.5963 15.5786 20.5755 15.5525 20.5496 15.5323C20.5237 15.5121 20.4934 15.4983 20.4611 15.492C20.4289 15.4857 20.3956 15.4872 20.364 15.4963L12.5477 17.7273L5.07367 15.5473C4.91993 15.4946 4.78588 15.3964 4.68936 15.2656C4.59283 15.1349 4.53842 14.9778 4.53335 14.8154C4.52828 14.653 4.57281 14.4928 4.66099 14.3563C4.74918 14.2198 4.87685 14.1134 5.02701 14.0513Z" fill="#5C9E31"/>
  <path d="M14.7734 5.93129L12.8647 5.39062L5.33337 7.59962L7.27004 8.16796L14.7734 5.93129Z" fill="#61B2E4"/>
  <path d="M12.5456 5.33203L20.3143 7.53303L12.5456 9.75036L5.01428 7.54103L12.5456 5.33203Z" stroke="black" stroke-width="0.666667" stroke-linecap="round" stroke-linejoin="round"/>
  <path d="M5.02573 7.54688C4.71092 7.61452 4.42712 7.78388 4.21813 8.02883C4.00913 8.27378 3.88655 8.5807 3.8693 8.90223C3.85204 9.22376 3.94108 9.54203 4.12267 9.80794C4.30426 10.0738 4.5683 10.2726 4.87406 10.3735L12.5454 12.6115L20.3137 10.3942" stroke="black" stroke-width="0.666667" stroke-linecap="round" stroke-linejoin="round"/>
  <path d="M5.02634 10.4297C4.7114 10.4972 4.42745 10.6666 4.21833 10.9115C4.00921 11.1565 3.88655 11.4635 3.86929 11.7852C3.85204 12.1068 3.94114 12.4252 4.12285 12.6911C4.30456 12.9571 4.56877 13.1558 4.87467 13.2567L12.546 15.4947L20.3143 13.2774" stroke="black" stroke-width="0.666667" stroke-linecap="round" stroke-linejoin="round"/>
  <path d="M5.02634 13.3438C4.7114 13.4113 4.42745 13.5806 4.21833 13.8256C4.00921 14.0706 3.88655 14.3776 3.86929 14.6992C3.85204 15.0209 3.94114 15.3393 4.12285 15.6052C4.30456 15.8712 4.56877 16.0699 4.87467 16.1707L12.546 18.4084L20.3143 16.1914" stroke="black" stroke-width="0.666667" stroke-linecap="round" stroke-linejoin="round"/>
</svg>