<svg xmlns="http://www.w3.org/2000/svg" width="24" height="24" viewBox="0 0 24 24" fill="none">
  <path d="M11.9997 20.999C16.7564 20.999 20.6125 17.1429 20.6125 12.3862C20.6125 7.62951 16.7564 3.77344 11.9997 3.77344C7.24303 3.77344 3.38696 7.62951 3.38696 12.3862C3.38696 17.1429 7.24303 20.999 11.9997 20.999Z" fill="#D68F30"/>
  <path d="M3.97266 14.625V15.5049C4.06275 15.7376 4.16335 15.9673 4.27296 16.1896V14.625H3.97266ZM4.95466 16.2812V17.3382C5.07478 17.5079 5.19941 17.6746 5.33004 17.8352V16.2812H4.95466ZM6.25498 17.6626V18.8022C6.40063 18.9329 6.55078 19.0575 6.70544 19.1776V17.6626H6.25498ZM7.85561 18.7121V19.9374C8.00276 20.0185 8.15291 20.095 8.30607 20.1686V18.7121H7.85561ZM9.67096 19.3803V20.6776C9.81961 20.7197 9.96976 20.7572 10.1214 20.7918V19.3803H9.67096ZM11.7956 19.6116V20.9945C11.8632 20.996 11.9308 20.999 11.9998 20.999C12.0824 20.999 12.165 20.9945 12.2461 20.993V19.6116H11.7956ZM13.9203 19.3698V20.7812C14.0719 20.7467 14.2221 20.7077 14.3707 20.6656V19.3698H13.9203ZM15.7311 18.6926V20.1506C15.8843 20.077 16.0344 19.9974 16.1816 19.9149V18.6926H15.7311ZM17.3273 17.634V19.1506C17.4818 19.0297 17.632 18.9035 17.7777 18.7722V17.634H17.3273ZM19.0705 16.2481H18.6951V17.8022C18.8258 17.64 18.9519 17.4734 19.0705 17.3022V16.2481ZM20.0465 14.5859H19.7462V16.1535C19.8558 15.9268 19.9564 15.6941 20.0465 15.4583V14.5859Z" fill="#BC6F00"/>
  <path d="M11.9997 20.2255C16.7564 20.2255 20.6125 16.3695 20.6125 11.6128C20.6125 6.85607 16.7564 3 11.9997 3C7.24303 3 3.38696 6.85607 3.38696 11.6128C3.38696 16.3695 7.24303 20.2255 11.9997 20.2255Z" fill="#FFF176"/>
  <path d="M11.9997 19.4566C16.3326 19.4566 19.8452 15.9441 19.8452 11.6111C19.8452 7.27817 16.3326 3.76562 11.9997 3.76562C7.66672 3.76562 4.15417 7.27817 4.15417 11.6111C4.15417 15.9441 7.66672 19.4566 11.9997 19.4566Z" fill="#F2BC1A"/>
  <path d="M4.13912 11.9147C4.08357 10.8817 4.26225 9.8336 4.62261 8.8516C4.998 7.8726 5.57308 6.96718 6.29832 6.1984C7.7548 4.65783 9.86896 3.76442 11.9996 3.75391C14.1303 3.76592 16.2459 4.65783 17.6994 6.1999C18.4262 6.96718 18.9998 7.8741 19.3751 8.8516C19.737 9.8351 19.9157 10.8817 19.8586 11.9147H19.8286C19.8255 10.8842 19.6215 9.86413 19.228 8.91166C18.8338 7.96025 18.258 7.09476 17.5328 6.36356C16.8071 5.63314 15.9449 5.05254 14.9952 4.65482C14.0457 4.25836 13.027 4.05421 11.9981 4.05421C10.9692 4.05421 9.95053 4.25836 9.00107 4.65482C8.05137 5.05254 7.18915 5.63314 6.46349 6.36356C5.73798 7.09452 5.16214 7.96007 4.76826 8.91166C4.37478 9.86413 4.17077 10.8842 4.16765 11.9147H4.13912Z" fill="#E08F00"/>
  <path d="M11.9997 3C7.24289 3 3.38696 6.85593 3.38696 11.6128C3.38696 16.3696 7.24289 20.2255 11.9997 20.2255C16.7566 20.2255 20.6125 16.3696 20.6125 11.6128C20.6125 6.85593 16.7566 3 11.9997 3ZM11.9997 19.4583C7.66632 19.4583 4.15424 15.9462 4.15424 11.6128C4.15424 7.27786 7.66632 3.76578 11.9997 3.76578C16.3331 3.76578 19.8452 7.27786 19.8452 11.6113C19.8452 15.9447 16.3331 19.4583 11.9997 19.4583Z" fill="#FFF176"/>
  <path d="M8.09496 5.59766L8.28566 6.18776L8.90729 5.95052V6.18776L8.40428 6.55263L8.59648 6.90399V7.14273L8.09496 6.77786L7.59195 7.14273V6.90399L7.78415 6.55263L7.28264 6.18776V5.95052L7.90277 6.18776L8.09496 5.59766ZM5.69552 8.98511L5.88772 9.57521L6.50785 9.33796V9.57521L6.00634 9.94008L6.19853 10.2929V10.5302L5.69552 10.1653L5.19401 10.5302V10.2929L5.38621 9.94008L4.88319 9.57521V9.33796L5.50483 9.57521L5.69552 8.98511ZM5.62495 13.1609L5.81714 13.751L6.43728 13.5137V13.751L5.93577 14.1158L6.12796 14.4687V14.7059L5.62495 14.3411L5.12344 14.7059V14.4687L5.31563 14.1158L4.81262 13.751V13.5137L5.43426 13.751L5.62495 13.1609ZM8.18656 16.4762L8.37875 17.0663L8.99888 16.8291V17.0663L8.49737 17.4312L8.68957 17.7826V18.0213L8.18656 17.6564L7.68505 18.0213V17.7826L7.87724 17.4312L7.37423 17.0663V16.8291L7.99586 17.0663L8.18656 16.4762ZM15.9059 5.59766L15.7152 6.18776L15.0936 5.95052V6.18776L15.5966 6.55263L15.4044 6.90399V7.14273L15.9059 6.77786L16.4089 7.14273V6.90399L16.2167 6.55263L16.7182 6.18776V5.95052L16.0981 6.18776L15.9059 5.59766ZM18.3054 8.98511L18.1132 9.57521L17.493 9.33796V9.57521L17.9945 9.94008L17.8023 10.2929V10.5302L18.3054 10.1653L18.8069 10.5302V10.2929L18.6147 9.94008L19.1177 9.57521V9.33796L18.4961 9.57521L18.3054 8.98511ZM18.3759 13.1609L18.1837 13.751L17.5636 13.5137V13.751L18.0651 14.1158L17.8729 14.4687V14.7059L18.3759 14.3411L18.8774 14.7059V14.4687L18.6852 14.1158L19.1883 13.751V13.5137L18.5666 13.751L18.3759 13.1609ZM15.8143 16.4762L15.6221 17.0663L15.002 16.8291V17.0663L15.5035 17.4312L15.3113 17.7826V18.0213L15.8143 17.6564L16.3158 18.0213V17.7826L16.1236 17.4312L16.6267 17.0663V16.8291L16.005 17.0663L15.8143 16.4762Z" fill="#D38200"/>
  <path d="M15.8134 16.234L16.0041 16.8241H16.6258L16.1227 17.189L16.3149 17.7791L15.8134 17.4142L15.3104 17.7791L15.5026 17.189L15.0011 16.8241H15.6212L15.8134 16.234ZM18.375 12.9202L18.5657 13.5103H19.1874L18.6843 13.8751L18.8765 14.4652L18.375 14.1004L17.872 14.4652L18.0642 13.8751L17.5627 13.5103H18.1828L18.375 12.9202ZM18.3045 8.74442L18.4952 9.33452H19.1168L18.6138 9.69939L18.806 10.2895L18.3045 9.92462L17.8015 10.2895L17.9936 9.69939L17.4921 9.33452H18.1123L18.3045 8.74442ZM15.905 5.35547L16.0972 5.94557H16.7173L16.2158 6.31044L16.408 6.90054L15.905 6.53567L15.4035 6.90054L15.5957 6.31044L15.0927 5.94557H15.7143L15.905 5.35547Z" fill="#FFF176"/>
  <path d="M12.0073 17.7812L12.1995 18.3714L12.8196 18.1341V18.3714L12.3181 18.7362L12.5103 19.0891V19.3263L12.0073 18.9615L11.5058 19.3263V19.0891L11.698 18.7362L11.1949 18.3714V18.1341L11.8166 18.3714L12.0073 17.7812Z" fill="#D38200"/>
  <path d="M12.0073 17.4648L12.1995 18.0549H12.8196L12.3181 18.4198L12.5103 19.0099L12.0073 18.645L11.5058 19.0099L11.698 18.4198L11.1949 18.0549H11.8166L12.0073 17.4648Z" fill="#FFF176"/>
  <path d="M12.0073 4.32422L12.1995 4.91432L12.8196 4.67708V4.91432L12.3181 5.27919L12.5103 5.63205V5.86929L12.0073 5.50442L11.5058 5.86929V5.63205L11.698 5.27919L11.1949 4.91432V4.67708L11.8166 4.91432L12.0073 4.32422Z" fill="#D38200"/>
  <path d="M12.0079 4.08984L12.2001 4.67994H12.8203L12.3188 5.04482L12.511 5.63492L12.0079 5.27005L11.5064 5.63492L11.6986 5.04482L11.1956 4.67994H11.8173L12.0079 4.08984ZM8.18656 16.2372L7.99586 16.8273H7.37423L7.87724 17.1922L7.68505 17.7823L8.18656 17.4174L8.68957 17.7823L8.49737 17.1922L8.99888 16.8273H8.37875L8.18656 16.2372ZM5.62495 12.9233L5.43426 13.5134H4.81262L5.31563 13.8783L5.12344 14.4684L5.62495 14.1035L6.12796 14.4684L5.93577 13.8783L6.43728 13.5134H5.81714L5.62495 12.9233ZM5.69552 8.74759L5.50483 9.33769H4.88319L5.38621 9.70256L5.19401 10.2927L5.69552 9.92779L6.19853 10.2927L6.00634 9.70256L6.50785 9.33769H5.88772L5.69552 8.74759ZM8.09496 5.35864L7.90277 5.94874H7.28264L7.78415 6.31361L7.59195 6.90371L8.09496 6.53884L8.59648 6.90371L8.40428 6.31361L8.90729 5.94874H8.28566L8.09496 5.35864Z" fill="#FFF176"/>
  <path d="M16.687 9.62883C16.687 9.57627 7.32046 9.62883 7.32046 9.62883L7.23637 9.88108V10.312C7.23637 10.3901 7.29944 10.4532 7.37752 10.4532H16.6209C16.699 10.4532 16.7621 10.3901 16.7621 10.312V9.89309L16.687 9.62883ZM16.7005 15.2295H7.3595L6.73486 15.5433L6.74237 15.9473C6.74387 15.9908 6.77991 16.0268 6.82496 16.0268H17.175C17.2185 16.0268 17.2561 15.9923 17.2576 15.9473L17.2651 15.5509L16.7005 15.2295Z" fill="#D38200"/>
  <path d="M8.8659 14.0015H8.32835C8.23976 14.0015 8.16769 13.7222 8.16769 13.6336L9.02506 13.6066C9.02506 13.6952 8.95299 14.0015 8.8659 14.0015ZM9.04908 11.1021H8.14366C8.07609 11.1021 8.01753 11.057 7.99801 10.9924L7.92744 10.4023H9.25329L9.19323 10.9924C9.17521 11.057 9.11665 11.1021 9.04908 11.1021ZM8.14366 14.1802H9.04908C9.11665 14.1802 9.25029 14.2222 9.26831 14.2868C9.26831 14.2868 9.2638 14.5676 9.2638 14.6787C9.2638 14.7898 9.21876 14.8709 9.11815 14.8709H8.07459C7.97399 14.8709 7.92894 14.7808 7.92894 14.6787C7.92894 14.5766 7.92444 14.2898 7.92444 14.2898C7.94396 14.2252 8.07609 14.1802 8.14366 14.1802ZM15.848 14.0015H15.3105C15.2219 14.0015 15.1498 13.7222 15.1498 13.6336L16.0072 13.6066C16.0072 13.6952 15.9366 14.0015 15.848 14.0015ZM16.0312 11.1021H15.1258C15.0582 11.1021 14.9996 11.057 14.9801 10.9924L14.9096 10.4023H16.2354L16.1753 10.9924C16.1573 11.057 16.0988 11.1021 16.0312 11.1021ZM15.1258 14.1802H16.0312C16.0988 14.1802 16.2324 14.2222 16.2504 14.2868C16.2504 14.2868 16.2459 14.5676 16.2459 14.6787C16.2459 14.7898 16.2009 14.8709 16.1003 14.8709H15.0567C14.9561 14.8709 14.9111 14.7808 14.9111 14.6787C14.9111 14.5766 14.9065 14.2898 14.9065 14.2898C14.9261 14.2252 15.0582 14.1802 15.1258 14.1802ZM13.5206 14.0015H12.9831C12.8945 14.0015 12.8224 13.7222 12.8224 13.6336L13.6798 13.6066C13.6798 13.6952 13.6092 14.0015 13.5206 14.0015ZM13.7038 11.1021H12.7984C12.7308 11.1021 12.6723 11.057 12.6528 10.9924L12.5822 10.4023H13.908L13.848 10.9924C13.83 11.057 13.7714 11.1021 13.7038 11.1021ZM12.7984 14.1802H13.7038C13.7714 14.1802 13.905 14.2222 13.923 14.2868C13.923 14.2868 13.9185 14.5676 13.9185 14.6787C13.9185 14.7898 13.8735 14.8709 13.7729 14.8709H12.7293C12.6287 14.8709 12.5837 14.7808 12.5837 14.6787C12.5837 14.5766 12.5792 14.2898 12.5792 14.2898C12.5987 14.2252 12.7308 14.1802 12.7984 14.1802ZM11.1933 14.0015H10.6557C10.5671 14.0015 10.4951 13.7222 10.4951 13.6336L11.3524 13.6066C11.3524 13.6952 11.2819 14.0015 11.1933 14.0015ZM11.3765 11.1021H10.471C10.4035 11.1021 10.3449 11.057 10.3254 10.9924L10.2548 10.4023H11.5807L11.5206 10.9924C11.5026 11.057 11.444 11.1021 11.3765 11.1021ZM10.471 14.1802H11.3765C11.444 14.1802 11.5777 14.2222 11.5957 14.2868C11.5957 14.2868 11.5912 14.5676 11.5912 14.6787C11.5912 14.7898 11.5461 14.8709 11.4455 14.8709H10.402C10.3014 14.8709 10.2563 14.7808 10.2563 14.6787C10.2563 14.5766 10.2518 14.2898 10.2518 14.2898C10.2713 14.2252 10.4035 14.1802 10.471 14.1802Z" fill="#D38200"/>
  <path d="M16.7551 9.22524C16.7551 9.17269 16.7281 9.12314 16.6876 9.09911L12.0058 6.44141L7.31802 9.09611C7.27298 9.12314 7.24445 9.17269 7.24445 9.22524L7.23694 9.88141C7.23694 9.96399 7.30451 10.0316 7.38709 10.0316H16.611C16.6936 10.0316 16.7611 9.96399 16.7611 9.88141L16.7551 9.22524Z" fill="#FFF176"/>
  <path d="M15.5787 9.04719L11.9991 7.01562L8.41943 9.04719H15.5787Z" fill="#F2BC1A"/>
  <path d="M14.262 8.79703L11.9992 7.51172L9.73638 8.79703H14.262ZM16.4122 14.704H7.58619C7.4991 14.704 7.41652 14.7416 7.35796 14.8061L6.75134 15.4833C6.7093 15.5299 6.74233 15.6035 6.8054 15.6035H17.193C17.2545 15.6035 17.2876 15.5299 17.247 15.4833L16.6389 14.8061C16.5819 14.7416 16.4978 14.704 16.4122 14.704ZM15.8476 13.7265H15.3101C15.2215 13.7265 15.1494 13.6545 15.1494 13.5659V11.1664C15.1494 11.0778 15.2215 11.0058 15.3101 11.0058H15.8476C15.9362 11.0058 16.0083 11.0778 16.0083 11.1664V13.5674C16.0083 13.656 15.9362 13.7265 15.8476 13.7265ZM16.0323 10.8271H15.1269C15.0593 10.8271 15.0007 10.782 14.9812 10.7175L14.9122 10.4787C14.8836 10.3826 14.9572 10.2865 15.0578 10.2865H16.1014C16.202 10.2865 16.274 10.3826 16.247 10.4787L16.1779 10.7175C16.1584 10.782 16.0984 10.8271 16.0323 10.8271ZM15.1254 13.9067H16.0308C16.0984 13.9067 16.1569 13.9518 16.1764 14.0163L16.2455 14.2551C16.274 14.3512 16.2005 14.4473 16.0999 14.4473H15.0563C14.9557 14.4473 14.8836 14.3512 14.9107 14.2551L14.9797 14.0163C14.9992 13.9503 15.0593 13.9067 15.1254 13.9067ZM8.86549 13.7265H8.32795C8.23936 13.7265 8.16728 13.6545 8.16728 13.5659V11.1664C8.16728 11.0778 8.23936 11.0058 8.32795 11.0058H8.86549C8.95408 11.0058 9.02616 11.0778 9.02616 11.1664V13.5674C9.02466 13.656 8.95258 13.7265 8.86549 13.7265ZM9.04868 10.8271H8.14326C8.07569 10.8271 8.01713 10.782 7.99761 10.7175L7.92854 10.4787C7.90001 10.3826 7.97359 10.2865 8.07419 10.2865H9.11775C9.21835 10.2865 9.29043 10.3826 9.2634 10.4787L9.19433 10.7175C9.17481 10.782 9.11625 10.8271 9.04868 10.8271ZM8.14326 13.9067H9.04868C9.11625 13.9067 9.17481 13.9518 9.19433 14.0163L9.2634 14.2551C9.29193 14.3512 9.21835 14.4473 9.11775 14.4473H8.07419C7.97359 14.4473 7.90151 14.3512 7.92854 14.2551L7.99761 14.0163C8.01713 13.9503 8.07569 13.9067 8.14326 13.9067ZM11.1929 13.7265H10.6553C10.5667 13.7265 10.4947 13.6545 10.4947 13.5659V11.1664C10.4947 11.0778 10.5667 11.0058 10.6553 11.0058H11.1929C11.2815 11.0058 11.3535 11.0778 11.3535 11.1664V13.5674C11.3531 13.6097 11.336 13.6502 11.3059 13.68C11.2759 13.7098 11.2352 13.7265 11.1929 13.7265ZM11.3761 10.8271H10.4706C10.4031 10.8271 10.3445 10.782 10.325 10.7175L10.2559 10.4787C10.2274 10.3826 10.301 10.2865 10.4016 10.2865H11.4451C11.5457 10.2865 11.6178 10.3826 11.5908 10.4787L11.5217 10.7175C11.5022 10.782 11.4436 10.8271 11.3761 10.8271ZM10.4706 13.9067H11.3761C11.4436 13.9067 11.5022 13.9518 11.5217 14.0163L11.5908 14.2551C11.6193 14.3512 11.5457 14.4473 11.4451 14.4473H10.4016C10.301 14.4473 10.2289 14.3512 10.2559 14.2551L10.325 14.0163C10.3445 13.9503 10.4031 13.9067 10.4706 13.9067ZM13.5202 13.7265H12.9827C12.8941 13.7265 12.822 13.6545 12.822 13.5659V11.1664C12.822 11.0778 12.8941 11.0058 12.9827 11.0058H13.5202C13.6088 11.0058 13.6809 11.0778 13.6809 11.1664V13.5674C13.6805 13.6097 13.6634 13.6502 13.6333 13.68C13.6032 13.7098 13.5626 13.7265 13.5202 13.7265ZM13.7034 10.8271H12.798C12.7304 10.8271 12.6719 10.782 12.6524 10.7175L12.5833 10.4787C12.5548 10.3826 12.6283 10.2865 12.7289 10.2865H13.7725C13.8731 10.2865 13.9452 10.3826 13.9181 10.4787L13.8491 10.7175C13.8295 10.782 13.771 10.8271 13.7034 10.8271ZM12.798 13.9067H13.7034C13.771 13.9067 13.8295 13.9518 13.8491 14.0163L13.9181 14.2551C13.9467 14.3512 13.8731 14.4473 13.7725 14.4473H12.7289C12.6283 14.4473 12.5563 14.3512 12.5833 14.2551L12.6524 14.0163C12.6719 13.9503 12.7319 13.9067 12.798 13.9067Z" fill="#FFF176"/>
</svg>