<svg xmlns="http://www.w3.org/2000/svg" width="22" height="22" viewBox="0 0 22 22" fill="none">
  <path d="M12.54 1H9.45996C5.31396 1 3.24295 1 2.01295 2.29C0.782955 3.58 0.912955 5.619 1.17095 9.696L1.35096 12.531C1.40996 13.468 1.43896 13.936 1.54496 14.327C1.74859 15.0705 2.15623 15.7421 2.72175 16.2659C3.28727 16.7897 3.9881 17.1448 4.74495 17.291C5.14795 17.37 5.62395 17.37 6.57595 17.37C6.82795 17.37 6.95395 17.37 7.05795 17.391C7.46295 17.474 7.77895 17.786 7.86295 18.185C7.88495 18.288 7.88495 18.412 7.88495 18.66V19.55C7.88495 20.392 7.88495 20.813 8.15896 20.957C8.43296 21.101 8.78895 20.869 9.49895 20.402L13.726 17.624C13.8061 17.5669 13.8903 17.5157 13.978 17.471C14.0738 17.4247 14.1764 17.394 14.282 17.38C14.354 17.37 14.429 17.37 14.577 17.37C16.323 17.37 17.197 17.37 17.904 17.107C18.4136 16.9189 18.8811 16.632 19.2797 16.2629C19.6784 15.8938 20.0002 15.4497 20.227 14.956C20.537 14.276 20.591 13.418 20.7 11.7L20.827 9.695C21.086 5.619 21.215 3.581 19.985 2.29C18.756 1 16.685 1 12.541 1" fill="#D9D9D9"/>
  <path d="M12.54 1H9.45996C5.31396 1 3.24295 1 2.01295 2.29C0.782955 3.58 0.912955 5.619 1.17095 9.696L1.35096 12.531C1.40996 13.468 1.43896 13.936 1.54496 14.327C1.74859 15.0705 2.15623 15.7421 2.72175 16.2659C3.28727 16.7897 3.9881 17.1448 4.74495 17.291C5.14795 17.37 5.62395 17.37 6.57595 17.37C6.82795 17.37 6.95395 17.37 7.05795 17.391C7.46295 17.474 7.77895 17.786 7.86295 18.185C7.88495 18.288 7.88495 18.412 7.88495 18.66V19.55C7.88495 20.392 7.88496 20.813 8.15896 20.957C8.43296 21.101 8.78895 20.869 9.49895 20.402L13.726 17.624C13.8061 17.5669 13.8903 17.5157 13.978 17.471C14.0738 17.4247 14.1764 17.394 14.282 17.38C14.354 17.37 14.429 17.37 14.577 17.37C16.323 17.37 17.197 17.37 17.904 17.107C18.4136 16.9189 18.8811 16.632 19.2797 16.2629C19.6784 15.8938 20.0002 15.4497 20.227 14.956C20.537 14.276 20.591 13.418 20.7 11.7L20.827 9.695C21.086 5.619 21.215 3.581 19.985 2.29C18.756 1 16.685 1 12.541 1" stroke="#6864F7" stroke-width="1.5" stroke-linecap="round" stroke-linejoin="round"/>
</svg>