<svg xmlns="http://www.w3.org/2000/svg" width="32" height="32" viewBox="0 0 32 32" fill="none">
  <g clip-path="url(#clip0_145_53083)">
    <mask id="mask0_145_53083" style="mask-type:luminance" maskUnits="userSpaceOnUse" x="0" y="0" width="32" height="32">
      <path d="M0 0H32V32H0V0Z" fill="white"/>
    </mask>
    <g mask="url(#mask0_145_53083)">
      <path fill-rule="evenodd" clip-rule="evenodd" d="M7.178 19.34C5.98512 19.0446 4.92553 18.3582 4.16828 17.3904C3.41102 16.4225 2.99972 15.2289 3 14V13.5C3 12.0413 3.57946 10.6424 4.61091 9.61091C5.64236 8.57946 7.04131 8 8.5 8H9C10.4268 7.99871 11.7981 8.55254 12.8238 9.54431C13.8496 10.5361 14.4493 11.888 14.496 13.314V13.32H14.5V14C14.5 14.2627 14.482 14.52 14.446 14.772C14.406 15.2947 14.346 15.808 14.266 16.312C14.0551 17.6324 13.6795 18.9211 13.148 20.148C12.1951 22.3459 10.7089 24.2714 8.824 25.75L8.628 25.902C8.54517 25.965 8.44409 25.9994 8.34 26C8.25394 25.9997 8.16942 25.9772 8.09462 25.9346C8.01981 25.892 7.95726 25.8309 7.91301 25.7571C7.86876 25.6833 7.84432 25.5993 7.84204 25.5132C7.83976 25.4272 7.85972 25.3421 7.9 25.266C8.37463 24.3633 8.8084 23.4397 9.2 22.498C9.594 21.55 9.992 20.472 10.314 19.342C9.88414 19.4483 9.44282 19.5014 9 19.5H8.5C8.04267 19.4987 7.602 19.4453 7.178 19.34ZM6.08 22.15C4.32351 21.6283 2.78262 20.553 1.68698 19.0844C0.591342 17.6157 -0.000382046 15.8323 1.85063e-07 14V13.5C1.85063e-07 11.2457 0.895533 9.08365 2.48959 7.48959C4.08365 5.89553 6.24566 5 8.5 5H9C11.904 5 14.466 6.456 16 8.676C16.7817 7.54199 17.8272 6.61491 19.0466 5.97456C20.266 5.33421 21.6227 4.99976 23 5H23.5C25.7249 4.99954 27.8612 5.87143 29.4504 7.42848C31.0396 8.98552 31.955 11.1036 32 13.328V14C32 14.3667 31.9767 14.7287 31.93 15.086C31.516 20.326 29.214 25.018 24.954 28.284C24.3471 28.7483 23.6042 28.9999 22.84 29C20.158 29 18.548 26.15 19.744 23.872C19.966 23.45 20.264 22.856 20.58 22.152C19.0229 21.6883 17.6313 20.7881 16.57 19.558C15.4868 23.0311 13.3492 26.0809 10.454 28.284C9.84706 28.7483 9.10417 28.9999 8.34 29C5.658 29 4.048 26.15 5.244 23.872C5.466 23.45 5.764 22.856 6.08 22.152M21.68 19.34C22.104 19.4453 22.5447 19.4987 23.002 19.5H23.502C23.9447 19.4995 24.3858 19.4464 24.816 19.342C24.4515 20.6159 23.997 21.8624 23.456 23.072C23.1295 23.815 22.778 24.5468 22.402 25.266C22.3617 25.3421 22.3418 25.4272 22.344 25.5132C22.3463 25.5993 22.3708 25.6833 22.415 25.7571C22.4593 25.8309 22.5218 25.892 22.5966 25.9346C22.6714 25.9772 22.7559 25.9997 22.842 26C22.9461 25.9994 23.0472 25.965 23.13 25.902L23.326 25.75C23.9287 25.2727 24.4833 24.7607 24.99 24.214C26.1705 22.9451 27.1123 21.4735 27.77 19.87C28.2383 18.7264 28.5725 17.5325 28.766 16.312C28.8488 15.8015 28.9095 15.2877 28.948 14.772C28.984 14.5187 29.002 14.2613 29.002 14V13.322H29V13.314C28.9532 11.8873 28.353 10.5348 27.3264 9.54291C26.2998 8.55104 24.9275 7.99767 23.5 8H22.998C21.5393 8 20.1404 8.57946 19.1089 9.61091C18.0775 10.6424 17.498 12.0413 17.498 13.5V14C17.498 16.58 19.278 18.748 21.676 19.34" fill="#191919"/>
    </g>
  </g>
  <defs>
    <clipPath id="clip0_145_53083">
      <rect width="32" height="32" fill="white"/>
    </clipPath>
  </defs>
</svg>