<svg xmlns="http://www.w3.org/2000/svg" width="24" height="24" viewBox="0 0 24 24" fill="none">
  <path opacity="0.6" d="M23.0291 1.95186C23.0291 1.95186 22.8195 1.93836 22.4647 1.93761C19.8664 1.89899 17.2856 2.40599 14.9771 3.11774C12.4612 3.85386 9.5396 5.03474 6.46235 6.95699L6.37685 6.87636L6.10048 9.96974C2.77535 12.9022 0.969727 15.4961 0.969727 15.4961L6.11848 17.7922L7.20973 23.4877L10.9095 19.1239L16.4745 19.8094C16.6305 19.0357 16.7891 18.2944 16.9541 17.5777C19.2649 7.62261 23.0291 1.95186 23.0291 1.95186Z" fill="#008110"/>
  <path d="M2.02772 15.2398C2.02772 15.2398 9.07509 5.46359 20.8002 4.11621C20.8002 4.11621 10.877 15.04 10.691 14.8742C10.5057 14.7092 6.90347 15.1056 6.69947 14.983C6.49922 14.8607 2.02772 15.2398 2.02772 15.2398Z" fill="#008110"/>
  <path d="M6.61611 8.31707C6.61611 8.31707 13.7149 3.79832 20.8012 4.11557C20.8012 4.11557 17.4311 8.15994 15.2212 18.7818L6.27148 14.9823C6.27148 14.9823 7.34061 11.6407 7.34061 11.4408C7.34061 11.2402 6.61611 8.31707 6.61611 8.31707Z" fill="white"/>
  <path d="M10.1314 11.398C10.1314 11.398 14.2036 5.01175 20.8006 4.11438C20.8006 4.11438 14.2801 3.65575 6.7002 8.22625C6.7002 8.22625 7.71044 11.5326 8.06182 11.6871C8.41244 11.8398 9.56932 12.8523 9.83032 12.8819C10.0902 12.9104 10.1314 11.398 10.1314 11.398Z" fill="#008110"/>
  <path d="M12.7852 14.6827C12.7852 14.6827 14.0635 9.12636 20.8 4.11523C20.8 4.11523 17.1123 9.46873 15.22 18.7815C15.22 18.7815 13.6522 17.4652 13.5352 17.0782C13.4185 16.6916 12.7852 14.6809 12.7852 14.6809" fill="#008110"/>
  <path d="M6.62934 8.16016L10.1315 11.3979L14.7826 10.3505L12.7853 14.6829L15.2202 18.782L10.4855 18.2192L7.33772 21.8042L6.40809 17.1257L2.02734 15.2394L6.18984 12.9092L6.62934 8.16016Z" fill="#1EC33B"/>
</svg>