<svg xmlns="http://www.w3.org/2000/svg" width="24" height="24" viewBox="0 0 24 24" fill="none">
  <g clip-path="url(#clip0_270_33150)">
    <path d="M19.8982 14.628L21.3293 15.1495L20.5363 17.5913L13.5189 18.7875L1.37424 10.3536L2.06081 8.16711L7.8971 6.92827L19.8982 14.628Z" fill="#699635"/>
    <path d="M21.5951 13.6086C21.5951 13.6086 19.2167 15.5395 14.2105 16.2251C14.2105 16.2251 7.55535 13.6759 2.31587 7.37098C2.31587 7.37098 6.74225 6.81825 8.58327 4.73833C8.58327 4.73833 10.0617 9.10099 21.5951 13.6086Z" fill="#83BF4F"/>
    <path d="M18.1115 12.9826C18.1115 12.9826 17.7072 13.4135 18.5743 13.8499L15.3874 14.8443C15.3874 14.8443 14.0362 14.1313 13.3179 14.9558C13.3179 14.9558 7.83858 11.9226 4.82782 8.71956C4.82782 8.71956 5.83335 8.46432 5.03544 7.68217C5.03544 7.68217 6.43998 7.36846 6.98802 6.77268C6.98802 6.77268 7.95621 7.32609 8.5947 6.69308C8.74898 6.68246 11.6213 10.5771 18.1115 12.9826Z" stroke="#699635" stroke-width="0.375" stroke-miterlimit="10"/>
    <path d="M7.90598 9.77472C8.57586 10.0539 9.27377 9.90872 9.46481 9.45039C9.65585 8.99205 9.26768 8.39415 8.5978 8.11494C7.92793 7.83572 7.23002 7.98093 7.03898 8.43926C6.84794 8.8976 7.23611 9.4955 7.90598 9.77472Z" fill="#699635"/>
    <path d="M8.64214 13.2305C12.925 11.9435 15.1915 10.6404 15.1915 10.6404C13.4839 9.70385 12.4944 8.84187 12.5583 8.86848C11.2441 10.0441 6.73774 11.6874 6.73774 11.6874L6.09377 13.5919L8.11522 15.0339L8.64214 13.2305Z" fill="#F9F3D9"/>
  </g>
  <defs>
    <clipPath id="clip0_270_33150">
      <rect width="24" height="24" fill="white"/>
    </clipPath>
  </defs>
</svg>