<svg xmlns="http://www.w3.org/2000/svg" width="49" height="48" viewBox="0 0 49 48" fill="none">
  <path d="M45.0014 22.6875L46.3064 42.5662C46.3316 42.9504 46.2776 43.3357 46.1478 43.6982C46.018 44.0606 45.8152 44.3926 45.5518 44.6735C45.2885 44.9544 44.9703 45.1782 44.617 45.3311C44.2637 45.4841 43.8827 45.5628 43.4977 45.5625H6.00518C4.37768 45.5625 3.09143 44.1863 3.19643 42.5662L4.50143 22.6875C5.62643 9.9375 13.5689 2.4375 24.7514 2.4375C35.9339 2.4375 43.5014 11.4375 45.0014 22.6875Z" fill="#B9E4EA"/>
  <path d="M24.75 37.6875C33.0343 37.6875 39.75 30.9718 39.75 22.6875C39.75 14.4032 33.0343 7.6875 24.75 7.6875C16.4657 7.6875 9.75 14.4032 9.75 22.6875C9.75 30.9718 16.4657 37.6875 24.75 37.6875Z" fill="white"/>
  <path d="M24.75 37.6875C33.0343 37.6875 39.75 30.9718 39.75 22.6875C39.75 14.4032 33.0343 7.6875 24.75 7.6875C16.4657 7.6875 9.75 14.4032 9.75 22.6875C9.75 30.9718 16.4657 37.6875 24.75 37.6875Z" fill="white"/>
  <path d="M24.75 7.6875C33.0338 7.6875 39.75 14.4037 39.75 22.6875C39.75 30.9713 33.0338 37.6875 24.75 37.6875C16.4662 37.6875 9.75 30.9713 9.75 22.6875C9.75 14.4037 16.4662 7.6875 24.75 7.6875ZM24.75 6.5625C15.8588 6.5625 8.625 13.7963 8.625 22.6875C8.625 31.5788 15.8588 38.8125 24.75 38.8125C33.6413 38.8125 40.875 31.5788 40.875 22.6875C40.875 13.7963 33.6413 6.5625 24.75 6.5625Z" fill="#78909C"/>
  <path d="M24.75 6.9375V10.0237M24.75 35.3512V38.4375M40.5 22.6875H37.4137M12.0862 22.6875H9M16.875 9.04875L18.4163 11.7188M31.0837 33.6562L32.625 36.3263M11.1112 14.8125L13.7812 16.3538M35.7188 29.0212L38.3888 30.5625M32.625 9.04875L31.0837 11.7188M18.4163 33.6562L16.875 36.3263M38.3888 14.8125L35.7188 16.3538M13.7812 29.0212L11.1112 30.5625" stroke="#78909C" stroke-width="1.125" stroke-miterlimit="10"/>
  <path d="M24.75 34.3125C22.0575 34.3125 19.875 32.13 19.875 29.4375V16.3125C19.875 13.62 22.0575 11.4375 24.75 11.4375C27.4425 11.4375 29.625 13.62 29.625 16.3125V29.4375C29.625 32.13 27.4425 34.3125 24.75 34.3125Z" fill="#E0E0E0"/>
  <path opacity="0.52" d="M29.5795 16.001C29.3733 13.9085 28.3383 12.6822 26.5383 11.7222C26.3508 11.621 26.1445 11.5197 25.9345 11.5535C25.9345 11.5535 25.4958 27.431 25.4958 29.0022C25.4958 30.7047 25.3533 32.6547 23.4108 33.2472C23.062 33.3522 22.687 33.401 22.3945 33.6147C23.7295 34.7772 25.8708 34.601 27.3145 33.581C28.1095 33.0222 29.6245 32.0622 29.6245 27.9372" fill="#78909C"/>
  <path d="M12.5922 36.5815C12.6297 36.619 12.6672 36.6565 12.7047 36.6978C14.5872 38.644 17.0397 39.9528 19.0122 41.8053C17.9322 42.1765 16.7435 41.929 15.6522 41.599C11.5685 40.3578 7.69849 37.7928 5.83099 33.9528C5.38474 33.0378 5.05474 32.0328 5.14474 31.0203C5.19349 30.4578 5.41849 29.8465 5.93224 29.6028C6.37849 29.389 6.93349 29.524 7.33474 29.8128C8.31724 30.5178 8.80099 32.0478 9.52474 33.019C10.4585 34.2753 11.5047 35.449 12.5922 36.5815Z" fill="#F5F5F5"/>
  <path opacity="0.5" d="M41.737 31.8375C38.8758 36.81 34.0383 40.6575 28.4883 42.1575C29.752 43.7025 35.5758 43.365 39.727 40.245C43.8783 37.125 45.292 28.8787 44.4033 26.3438C43.9683 26.4675 43.7883 26.97 43.657 27.4012C43.192 28.95 42.5433 30.4388 41.737 31.8375Z" fill="#82AEC0"/>
  <path d="M24.5625 6.1875L22.6875 2.4375H26.8125L24.5625 6.1875Z" fill="#FF4638"/>
</svg>