<svg xmlns="http://www.w3.org/2000/svg" width="32" height="32" viewBox="0 0 32 32" fill="none">
  <path d="M5.4491 24.3495C7.4491 22.3495 7.6491 21.8495 8.8991 23.0995C10.1491 24.3495 9.6491 24.4995 7.6491 26.5495C6.1491 28.0495 4.2491 27.7495 4.2491 27.7495C4.2491 27.7495 3.9491 25.8495 5.4491 24.3495Z" fill="#FF9D27"/>
  <path d="M9.24886 26.4003C10.0489 24.3003 10.2989 24.0503 9.14886 23.4003C7.99886 22.7503 7.99886 23.2003 7.24886 25.3003C6.64886 26.8503 7.34886 28.2503 7.34886 28.2503C7.34886 28.2503 8.69886 28.0003 9.24886 26.4003Z" fill="#FF9D27"/>
  <path d="M8.10002 24.4503C8.55002 23.3003 8.55001 23.0503 9.15001 23.4003C9.80001 23.7503 9.65002 23.9003 9.20002 25.0503C8.90002 25.9003 8.15002 26.1003 8.15002 26.1003C8.15002 26.1003 7.80002 25.3503 8.10002 24.4503Z" fill="#FDF516"/>
  <path d="M8.54922 22.8507C7.89922 21.7007 7.64922 21.9507 5.54922 22.7507C3.99922 23.3507 3.69922 24.6507 3.69922 24.6507C3.69922 24.6507 5.09922 25.3507 6.64922 24.7507C8.74922 23.9507 9.19922 23.9507 8.54922 22.8507Z" fill="#FF9D27"/>
  <path d="M7.49961 23.9005C8.64961 23.4505 8.89961 23.4505 8.54961 22.8505C8.19961 22.2005 8.04961 22.3505 6.89961 22.8005C6.04961 23.1005 5.84961 23.8505 5.84961 23.8505C5.84961 23.8505 6.64961 24.2005 7.49961 23.9005Z" fill="#FDF516"/>
  <path d="M6.95009 23.8012C8.05009 22.7012 8.15009 22.4012 8.85009 23.1012C9.55009 23.8012 9.25009 23.9012 8.15009 25.0012C7.30009 25.8512 6.25009 25.6512 6.25009 25.6512C6.25009 25.6512 6.15009 24.6512 6.95009 23.8012Z" fill="#FDF516"/>
  <path d="M9.25 18.9993C6.15 13.7993 1 15.9493 1 15.9493C1 15.9493 8.35 8.5993 13.3 13.5493L9.25 18.9993Z" fill="#3BAACF"/>
  <path d="M11.65 15.1493L13.25 13.5493C8.35 8.5993 1 15.9493 1 15.9493C1 15.9493 7.45 11.3493 11.65 15.1493Z" fill="#428BC1"/>
  <path d="M13 22.7492C18.2 25.8492 16.05 30.9992 16.05 30.9992C16.05 30.9992 23.4 23.6492 18.45 18.6992L13 22.7492Z" fill="#3BAACF"/>
  <path d="M16.8508 20.35L18.4508 18.75C23.4008 23.7 16.0508 31.05 16.0508 31.05C16.0508 31.05 20.6508 24.55 16.8508 20.35Z" fill="#428BC1"/>
  <path d="M24.3994 15.4496C18.5494 21.2496 12.0994 24.3996 9.84935 22.1496C7.59935 19.8996 10.7493 13.4496 16.5493 7.59963C23.3493 0.799628 30.8993 1.09963 30.8993 1.09963C30.8993 1.09963 31.1493 8.64963 24.3994 15.4496Z" fill="#C5D0D8"/>
  <path d="M22.9007 13.8C17.1007 19.6 11.3007 23.4 9.9507 22.05C8.6007 20.7 12.4007 14.9 18.2007 9.1C25.0007 2.3 31.0007 1 31.0007 1C31.0007 1 29.7007 7 22.9007 13.8Z" fill="#DAE3EA"/>
  <path d="M12.15 23.7504C11.9 24.0004 11.5 24.0004 11.25 23.7504L8.25 20.7504C8 20.5004 8 20.0504 8.25 19.8004L9.15 18.9004L13.05 22.8004L12.15 23.7504Z" fill="#C94747"/>
  <path d="M11.3006 22.85C11.0506 23.1 10.7506 23.2 10.6006 23.05L8.90055 21.35C8.75055 21.2 8.85056 20.9 9.10056 20.65L10.0006 19.75L12.2006 21.95L11.3006 22.85Z" fill="#F15744"/>
  <path d="M10.4503 24.0992C10.3003 24.2492 9.95034 24.2492 9.80034 24.0992L7.85033 22.1492C7.70033 21.9992 7.75034 21.6992 7.90034 21.5492L8.50034 20.9492L11.0503 23.4992L10.4503 24.0992Z" fill="#3E4347"/>
  <path d="M10.0496 23.6996C9.89961 23.8496 9.59961 23.8996 9.49961 23.7996L8.14961 22.4496C8.04961 22.3496 8.09961 22.0996 8.29961 21.9496L8.89961 21.3496L10.6496 23.0996L10.0496 23.6996Z" fill="#62727A"/>
  <path d="M30.9008 1.09922C30.9008 1.09922 28.2008 0.999219 24.5508 2.39922L29.6008 7.44922C31.0008 3.79922 30.9008 1.09922 30.9008 1.09922Z" fill="#C94747"/>
  <path d="M30.9 1.09961C30.9 1.09961 28.75 1.54961 25.5 3.39961L28.6 6.49961C30.45 3.24961 30.9 1.09961 30.9 1.09961Z" fill="#F15744"/>
  <path d="M21.75 12.75C23.1307 12.75 24.25 11.6307 24.25 10.25C24.25 8.86929 23.1307 7.75 21.75 7.75C20.3693 7.75 19.25 8.86929 19.25 10.25C19.25 11.6307 20.3693 12.75 21.75 12.75Z" fill="#EDF4F9"/>
  <path d="M21.7496 11.8996C22.6609 11.8996 23.3996 11.1609 23.3996 10.2496C23.3996 9.33834 22.6609 8.59961 21.7496 8.59961C20.8383 8.59961 20.0996 9.33834 20.0996 10.2496C20.0996 11.1609 20.8383 11.8996 21.7496 11.8996Z" fill="#3BAACF"/>
  <path d="M16.75 17.75C18.1307 17.75 19.25 16.6307 19.25 15.25C19.25 13.8693 18.1307 12.75 16.75 12.75C15.3693 12.75 14.25 13.8693 14.25 15.25C14.25 16.6307 15.3693 17.75 16.75 17.75Z" fill="#EDF4F9"/>
  <path d="M16.7496 16.8996C17.6609 16.8996 18.3996 16.1609 18.3996 15.2496C18.3996 14.3383 17.6609 13.5996 16.7496 13.5996C15.8383 13.5996 15.0996 14.3383 15.0996 15.2496C15.0996 16.1609 15.8383 16.8996 16.7496 16.8996Z" fill="#3BAACF"/>
  <path d="M24.4508 3.45078C24.3008 3.60078 24.0008 3.60078 23.8508 3.45078C23.7008 3.30078 23.7008 3.00078 23.8508 2.85078C24.0008 2.70078 24.3008 2.70078 24.4508 2.85078C24.6008 3.00078 24.6008 3.30078 24.4508 3.45078Z" fill="white"/>
  <path d="M25.3004 4.70039C25.5213 4.70039 25.7004 4.5213 25.7004 4.30039C25.7004 4.07948 25.5213 3.90039 25.3004 3.90039C25.0795 3.90039 24.9004 4.07948 24.9004 4.30039C24.9004 4.5213 25.0795 4.70039 25.3004 4.70039Z" fill="white"/>
  <path d="M26.5016 5.90156C26.7225 5.90156 26.9016 5.72248 26.9016 5.50156C26.9016 5.28065 26.7225 5.10156 26.5016 5.10156C26.2806 5.10156 26.1016 5.28065 26.1016 5.50156C26.1016 5.72248 26.2806 5.90156 26.5016 5.90156Z" fill="white"/>
  <path d="M27.65 7.10078C27.8709 7.10078 28.05 6.92169 28.05 6.70078C28.05 6.47987 27.8709 6.30078 27.65 6.30078C27.4291 6.30078 27.25 6.47987 27.25 6.70078C27.25 6.92169 27.4291 7.10078 27.65 7.10078Z" fill="white"/>
  <path d="M28.8512 8.25117C29.0721 8.25117 29.2512 8.07209 29.2512 7.85117C29.2512 7.63026 29.0721 7.45117 28.8512 7.45117C28.6303 7.45117 28.4512 7.63026 28.4512 7.85117C28.4512 8.07209 28.6303 8.25117 28.8512 8.25117Z" fill="white"/>
</svg>