<svg width="48" height="48" viewBox="0 0 48 48" fill="none" xmlns="http://www.w3.org/2000/svg"><rect width="48" height="48" rx="24" fill="#B6E0F0"/><g clip-path="url(#a)"><path d="M23.462 40.462c9.092 0 16.463-7.37 16.463-16.462S32.555 7.538 23.462 7.538C14.371 7.538 7 14.908 7 24s7.37 16.462 16.462 16.462" fill="#5A5F63"/><path d="M29.847 12.088c3.412.427 4.846 2.413 5.875 3.242.422.34.905.628 1.44.71 1.885.307 3.062-1.606 3.838-3.22a13 13 0 0 0-4.218-.515c1.894-.85 3.086-2.848 3.961-4.24-2.86.216-5.67 1.06-8.17 2.46z" fill="#5A5F63"/><path d="M7 24c0 9.095 7.372 16.462 16.462 16.461a16.43 16.43 0 0 0 12.815-6.126 16.37 16.37 0 0 1-10.335 3.647c-9.09 0-16.462-7.366-16.462-16.461 0-3.915 1.363-7.51 3.647-10.335C9.392 14.205 7 18.824 7 24" fill="#3E4347"/><path d="M10.24 24.031c.807 3.06 3.72 4.57 6.509 3.351 1.303-.57 3.171-1.37 4.683-2.39a5.3 5.3 0 0 1 4.556-.625c1.717.552 3.7.823 5.115 1.017 3.007.41 5.412-1.825 5.358-4.998-.055-3.162-2.541-6.066-5.548-6.477-1.593-.218-3.88.898-5.692 2.456-1.492 1.283-3.578 1.52-5.36.697-2.147-.985-4.598-1.4-6.045-.77-2.786 1.209-4.394 4.677-3.576 7.739" fill="#FFD93B"/><path d="M15.197 17.288a6.2 6.2 0 0 0 2.63 1.945 6.3 6.3 0 0 0 2.878 1.346q.117.459.135.931a4.54 4.54 0 0 1-4.36 4.7 4.54 4.54 0 0 1-4.7-4.36 4.54 4.54 0 0 1 3.417-4.562" fill="#F4C534"/><path d="M15.938 18.098c.111-.005.22.015.33.022a6.23 6.23 0 0 0 3.102 2.041c.223.424.37.893.422 1.389.207 1.974-1.187 3.639-3.107 3.711s-3.648-1.477-3.854-3.45c-.207-1.977 1.187-3.642 3.107-3.713" fill="#fff"/><path d="M16.311 23.73a2.052 2.052 0 1 0 0-4.104 2.052 2.052 0 0 0 0 4.103" fill="#3E4347"/><path d="M15.927 20.517c-.155-.145-.46-.07-.68.168-.22.237-.272.546-.117.69s.46.069.68-.168.272-.546.117-.69" fill="#fff"/><path d="M30.04 15.764a6.15 6.15 0 0 1-2.556 1.887c-.755.628-1.697 1.1-2.825 1.343q-.1.426-.1.864c0 2.31 2.034 4.19 4.533 4.19s4.532-1.88 4.532-4.19c.001-2.009-1.538-3.69-3.584-4.094" fill="#F4C534"/><path d="M29.331 16.537c-.111 0-.218.022-.329.032a6.23 6.23 0 0 1-3.023 1.992 3.3 3.3 0 0 0-.37 1.297c-.132 1.831 1.322 3.32 3.243 3.32s3.59-1.49 3.723-3.32c.132-1.831-1.324-3.32-3.244-3.32" fill="#fff"/><path d="M29.092 21.908a2.052 2.052 0 1 0 0-4.103 2.052 2.052 0 0 0 0 4.103" fill="#3E4347"/><path d="M30.114 18.827c-.229-.229-.535-.293-.685-.143s-.086.457.143.685.535.293.685.143.086-.457-.143-.685" fill="#fff"/><path d="M21.498 20.776c-1.392-.428-2.64-1.612-3.963-2.553-2.333-1.554-3.969-1.316-4.791-.647 1.555-.184 2.938.584 4.208 1.494 1.029.682 2.917 2.107 4.546 1.706m2.376-1.573c1.64.35 3.45-1.021 4.479-1.703 1.257-.895 2.604-1.64 4.15-1.556-.85-.614-2.48-.788-4.732.71-1.31.931-2.501 2.067-3.897 2.549" fill="#3E4347"/></g><defs><clipPath id="a"><path fill="#fff" d="M7 7h34v34H7z"/></clipPath></defs></svg>