<svg xmlns="http://www.w3.org/2000/svg" width="142" height="44" viewBox="0 0 142 44" fill="none">
  <g clip-path="url(#clip0_145_46445)">
    <path d="M22.5051 0C10.4076 0 0.599976 9.80732 0.599976 21.9049C0.599976 34.0029 10.4076 43.8094 22.5051 43.8094C34.604 43.8094 44.4105 34.0029 44.4105 21.9049C44.4105 9.80815 34.604 0.0011 22.5048 0.0011L22.5051 0ZM32.5508 31.5931C32.4574 31.7463 32.3346 31.8795 32.1896 31.9852C32.0445 32.0909 31.8801 32.1669 31.7056 32.209C31.5311 32.251 31.3501 32.2582 31.1728 32.2302C30.9956 32.2022 30.8256 32.1395 30.6726 32.0457C25.5295 28.9042 19.0549 28.1927 11.43 29.9348C11.077 30.0152 10.7065 29.952 10.3999 29.7592C10.0934 29.5665 9.876 29.2599 9.79542 28.9069C9.75535 28.7321 9.75012 28.5512 9.78005 28.3744C9.80998 28.1976 9.87448 28.0284 9.96985 27.8765C10.0652 27.7247 10.1896 27.5931 10.3359 27.4894C10.4821 27.3857 10.6474 27.3118 10.8223 27.272C19.1666 25.3654 26.324 26.1863 32.0982 29.7151C32.2513 29.8087 32.3845 29.9315 32.4901 30.0766C32.5957 30.2216 32.6717 30.3861 32.7137 30.5605C32.7557 30.7349 32.7629 30.9159 32.7349 31.0932C32.7069 31.2704 32.6443 31.4404 32.5506 31.5934M35.2318 25.6289C34.7371 26.4325 33.6858 26.6863 32.8825 26.1918C26.9947 22.5728 18.019 21.5245 11.0546 23.6387C10.6211 23.7699 10.1533 23.7237 9.75376 23.5104C9.35422 23.297 9.0556 22.934 8.9234 22.5008C8.79272 22.0673 8.8392 21.5998 9.05266 21.2005C9.26612 20.8013 9.62914 20.5029 10.0622 20.3709C18.0176 17.9569 27.9075 19.1262 34.6692 23.2812C35.4722 23.7757 35.726 24.8273 35.2315 25.6292M35.4614 19.4183C28.4025 15.2246 16.754 14.839 10.0135 16.885C8.9311 17.2134 7.78655 16.6023 7.45875 15.5199C7.30105 14.9999 7.35629 14.4386 7.61232 13.9593C7.86836 13.48 8.30423 13.1221 8.82413 12.964C16.5618 10.615 29.4249 11.0688 37.5531 15.8942C37.7848 16.0312 37.9871 16.2126 38.1486 16.4279C38.3101 16.6433 38.4274 16.8884 38.494 17.1492C38.5606 17.41 38.575 17.6814 38.5366 17.9478C38.4981 18.2142 38.4074 18.4704 38.2697 18.7016C37.6944 19.6751 36.4336 19.9961 35.4631 19.418L35.4614 19.4183ZM60.196 20.2218C56.4137 19.3198 55.7416 18.6871 55.7416 17.3569C55.7416 16.1002 56.9238 15.2545 58.6841 15.2545C60.3896 15.2545 62.0795 15.8969 63.853 17.2188C63.9052 17.2587 63.9732 17.2747 64.0386 17.2642C64.0715 17.2593 64.103 17.2479 64.1314 17.2305C64.1597 17.2132 64.1843 17.1903 64.2036 17.1633L66.0502 14.5602C66.0867 14.5086 66.1022 14.445 66.0935 14.3824C66.0847 14.3198 66.0525 14.2629 66.0032 14.2233C63.8923 12.5301 61.5171 11.707 58.7391 11.707C54.6559 11.707 51.8022 14.1576 51.8022 17.6641C51.8022 21.4242 54.2635 22.7557 58.5169 23.7834C62.1345 24.6169 62.7464 25.3151 62.7464 26.5636C62.7464 27.9474 61.5116 28.8079 59.5239 28.8079C57.3162 28.8079 55.5139 28.0627 53.4998 26.3202C53.4496 26.2778 53.385 26.2564 53.3194 26.2603C53.2867 26.2627 53.2549 26.2715 53.2257 26.2863C53.1964 26.3011 53.1704 26.3215 53.1492 26.3464L51.0776 28.8104C51.036 28.8598 51.0152 28.9234 51.0196 28.9879C51.024 29.0523 51.0533 29.1125 51.1012 29.1558C53.4448 31.2485 56.3273 32.3524 59.4401 32.3524C63.8401 32.3524 66.6833 29.9483 66.6833 26.2262C66.691 23.0854 64.8105 21.3461 60.204 20.2254L60.196 20.2218ZM76.6388 16.4918C74.732 16.4918 73.1678 17.2431 71.8756 18.7825V17.05C71.8756 16.913 71.7656 16.8017 71.6297 16.8017H68.2423C68.1768 16.8021 68.1142 16.8285 68.0681 16.8749C68.0221 16.9214 67.9963 16.9843 67.9964 17.0497V36.3022C67.9964 36.438 68.1064 36.5505 68.2423 36.5505H71.6297C71.6952 36.5501 71.7579 36.5237 71.804 36.4772C71.85 36.4306 71.8758 36.3677 71.8756 36.3022V30.2255C73.1678 31.672 74.732 32.381 76.6386 32.381C80.1833 32.381 83.7721 29.653 83.7721 24.4373C83.7773 19.2206 80.1883 16.4915 76.6413 16.4915L76.6388 16.4918ZM79.8327 24.4373C79.8327 27.0919 78.1978 28.9465 75.854 28.9465C73.539 28.9465 71.7917 27.0083 71.7917 24.4373C71.7917 21.8661 73.539 19.9282 75.854 19.9282C78.1585 19.9282 79.8327 21.824 79.8327 24.4373ZM92.9664 16.4915C88.402 16.4915 84.8261 20.006 84.8261 24.494C84.8261 28.9333 88.3783 32.4096 92.9114 32.4096C97.4915 32.4096 101.078 28.9072 101.078 24.437C101.078 19.982 97.5152 16.4923 92.9664 16.4923V16.4915ZM92.9664 28.9723C90.539 28.9723 88.708 27.021 88.708 24.4357C88.708 21.8386 90.4763 19.9537 92.9114 19.9537C95.3545 19.9537 97.1959 21.9043 97.1959 24.4923C97.1959 27.0892 95.4172 28.9723 92.9664 28.9723ZM110.824 16.8014H107.097V12.991C107.097 12.8543 106.987 12.743 106.851 12.743H103.464C103.398 12.7431 103.335 12.7693 103.288 12.8157C103.242 12.8622 103.215 12.9252 103.215 12.991V16.8011H101.588C101.523 16.8016 101.46 16.8279 101.414 16.8744C101.368 16.9209 101.342 16.9837 101.342 17.0492V19.9598C101.342 20.0253 101.368 20.0882 101.414 20.1347C101.46 20.1813 101.523 20.2077 101.588 20.2081H103.215V27.7404C103.215 30.7824 104.73 32.3257 107.72 32.3257C108.933 32.3257 109.94 32.0744 110.89 31.5356C110.928 31.5146 110.96 31.4835 110.982 31.4457C111.004 31.408 111.016 31.3649 111.015 31.3211V28.5483C111.015 28.5063 111.004 28.4651 110.984 28.4286C110.963 28.392 110.934 28.3613 110.898 28.3393C110.862 28.3163 110.821 28.3033 110.779 28.3014C110.736 28.2995 110.694 28.3089 110.657 28.3286C110.006 28.6558 109.375 28.8074 108.669 28.8074C107.583 28.8074 107.097 28.3129 107.097 27.2091V20.2097H110.824C110.89 20.2093 110.953 20.1829 110.999 20.1364C111.045 20.0898 111.07 20.0269 111.07 19.9614V17.0508C111.071 17.0184 111.066 16.986 111.054 16.9557C111.042 16.9254 111.025 16.8978 111.002 16.8746C110.979 16.8514 110.952 16.833 110.922 16.8206C110.892 16.8082 110.86 16.8021 110.827 16.8025L110.824 16.8014ZM123.809 16.8162V16.3482C123.809 14.9716 124.337 14.3577 125.519 14.3577C126.226 14.3577 126.793 14.498 127.429 14.7098C127.466 14.7223 127.506 14.7257 127.545 14.7197C127.584 14.7138 127.621 14.6986 127.652 14.6755C127.684 14.6524 127.71 14.6221 127.727 14.587C127.745 14.5519 127.754 14.5131 127.754 14.4738L127.753 11.6201C127.754 11.5668 127.737 11.5147 127.706 11.4718C127.674 11.4288 127.629 11.3974 127.578 11.3822C126.909 11.1826 126.051 10.978 124.764 10.978C121.638 10.978 119.982 12.7394 119.982 16.0699V16.7866H118.355C118.289 16.7867 118.226 16.8129 118.18 16.8593C118.133 16.9058 118.107 16.9688 118.106 17.0346V19.9601C118.106 20.0967 118.219 20.2084 118.355 20.2084H119.982V31.8236C119.982 31.9622 120.095 32.0722 120.23 32.0722H123.615C123.754 32.0722 123.864 31.9622 123.864 31.8236V20.2089H127.026L131.871 31.8233C131.321 33.0424 130.78 33.2854 130.042 33.2854C129.446 33.2854 128.815 33.1078 128.175 32.7547C128.114 32.724 128.044 32.7174 127.978 32.7363C127.946 32.7472 127.916 32.7647 127.891 32.7877C127.866 32.8106 127.846 32.8385 127.832 32.8697L126.684 35.3887C126.657 35.4459 126.654 35.511 126.673 35.5708C126.693 35.6306 126.735 35.6805 126.791 35.7104C127.989 36.3591 129.069 36.6363 130.406 36.6363C132.906 36.6363 134.29 35.4698 135.506 32.3362L141.382 17.1551C141.397 17.1175 141.402 17.0768 141.398 17.0365C141.393 16.9962 141.379 16.9578 141.355 16.9246C141.333 16.8914 141.303 16.8642 141.268 16.8454C141.233 16.8266 141.194 16.8168 141.154 16.8168H137.628C137.576 16.8165 137.526 16.8323 137.483 16.8622C137.441 16.892 137.409 16.9343 137.392 16.9832L133.78 27.2982L129.825 16.9763C129.807 16.9296 129.776 16.8893 129.735 16.8609C129.693 16.8324 129.645 16.817 129.595 16.8168H123.809V16.8162ZM116.281 16.8014H112.893C112.827 16.8017 112.765 16.8279 112.718 16.8744C112.672 16.9208 112.645 16.9837 112.645 17.0494V31.8236C112.645 31.9622 112.757 32.0722 112.893 32.0722H116.281C116.417 32.0722 116.529 31.9622 116.529 31.8236V17.0506C116.529 17.0179 116.523 16.9855 116.511 16.9553C116.498 16.9251 116.48 16.8977 116.457 16.8746C116.434 16.8515 116.406 16.8333 116.376 16.8208C116.346 16.8084 116.313 16.8021 116.281 16.8022V16.8014ZM114.606 10.0738C113.264 10.0738 112.177 11.1601 112.177 12.5015C112.177 12.8206 112.239 13.1366 112.361 13.4314C112.484 13.7263 112.663 13.9941 112.888 14.2198C113.114 14.4454 113.382 14.6244 113.677 14.7465C113.971 14.8686 114.287 14.9314 114.606 14.9314C115.948 14.9314 117.034 13.8441 117.034 12.5015C117.034 11.8577 116.778 11.2404 116.323 10.7851C115.868 10.3299 115.25 10.074 114.606 10.0738Z" fill="#1ED760"/>
  </g>
  <defs>
    <clipPath id="clip0_145_46445">
      <rect width="140.8" height="44" fill="white" transform="translate(0.599976)"/>
    </clipPath>
  </defs>
</svg>