<svg xmlns="http://www.w3.org/2000/svg" width="24" height="25" viewBox="0 0 24 25" fill="none">
  <path d="M7.65211 8.35135L5.41998 6.92115C5.37498 6.89357 5.33681 6.85615 5.30835 6.8117C5.27988 6.76725 5.26186 6.71693 5.25563 6.66452C5.2494 6.61211 5.25513 6.55897 5.27238 6.50909C5.28964 6.45921 5.31797 6.41389 5.35525 6.37653L6.19349 5.5383C6.35451 5.37728 6.62602 5.41201 6.74126 5.60933L8.13674 7.87778C8.31986 8.19034 7.96152 8.54079 7.65211 8.35135ZM5.70097 15.2309L3.10891 15.283C3.05621 15.2841 3.00444 15.2972 2.95751 15.3212C2.91059 15.3452 2.86971 15.3795 2.83796 15.4216C2.8062 15.4637 2.7844 15.5124 2.77419 15.5642C2.76397 15.6159 2.76561 15.6692 2.77899 15.7202L3.0805 16.8663C3.13891 17.0873 3.3899 17.1931 3.58881 17.0826L5.87935 15.8844C6.19507 15.706 6.06404 15.223 5.70097 15.2309ZM11.7217 19.6336L11.1534 22.1578C11.1013 22.3772 11.2671 22.5887 11.4928 22.5887H12.6784C12.9073 22.5887 13.073 22.3724 13.0162 22.1514L12.3989 19.6273C12.3074 19.2752 11.807 19.28 11.7217 19.6336ZM16.347 8.35135L18.5792 6.92115C18.7717 6.80275 18.8033 6.53597 18.6439 6.37653L17.8056 5.5383C17.7679 5.50067 17.722 5.47219 17.6715 5.45505C17.621 5.43791 17.5672 5.43257 17.5143 5.43943C17.4614 5.44628 17.4108 5.46516 17.3664 5.49461C17.3219 5.52407 17.2848 5.56331 17.2579 5.60933L15.8624 7.87778C15.6793 8.19034 16.0376 8.54079 16.347 8.35135ZM18.2982 15.2309L20.8902 15.283C20.9429 15.2841 20.9947 15.2972 21.0416 15.3212C21.0885 15.3452 21.1294 15.3795 21.1612 15.4216C21.1929 15.4637 21.2147 15.5124 21.2249 15.5642C21.2352 15.6159 21.2335 15.6692 21.2201 15.7202L20.9186 16.8663C20.905 16.9178 20.8798 16.9655 20.8449 17.0058C20.81 17.0461 20.7664 17.0778 20.7173 17.0987C20.6683 17.1196 20.6152 17.1289 20.562 17.1262C20.5088 17.1234 20.4569 17.1085 20.4103 17.0826L18.1198 15.8844C17.8041 15.706 17.9351 15.223 18.2982 15.2309Z" fill="#FFC107"/>
  <path d="M12.639 3.68158L14.7638 8.52787C14.8437 8.71023 14.9712 8.86779 15.1327 8.98413C15.2943 9.10047 15.4842 9.17132 15.6825 9.1893L20.8587 9.65341C21.4444 9.73865 21.678 10.4569 21.2534 10.8705L17.3542 14.1461C17.0385 14.4113 16.8949 14.828 16.9817 15.2306L18.1151 20.5362C18.2146 21.1188 17.6037 21.5639 17.0796 21.2877L12.5616 18.6419C12.3912 18.5419 12.1972 18.4891 11.9996 18.4891C11.8021 18.4891 11.608 18.5419 11.4377 18.6419L6.91972 21.2861C6.3972 21.5608 5.78471 21.1172 5.88416 20.5347L7.01759 15.229C7.10284 14.8265 6.96076 14.4097 6.64504 14.1445L2.74433 10.8721C2.32127 10.4601 2.5549 9.74023 3.13898 9.65499L8.3152 9.19088C8.5135 9.1729 8.70336 9.10205 8.86495 8.98571C9.02655 8.86937 9.15398 8.71181 9.23394 8.52945L11.3587 3.68316C11.6224 3.15275 12.3769 3.15275 12.639 3.68158Z" fill="#FDD835"/>
  <path d="M12.4849 8.8177L12.125 5.24691C12.1108 5.04801 12.0698 4.70703 12.3886 4.70703C12.6412 4.70703 12.7785 5.2327 12.7785 5.2327L13.8583 8.09943C14.2656 9.19024 14.0982 9.56437 13.7052 9.78537C13.2537 10.038 12.5875 9.84063 12.4849 8.8177Z" fill="#FFFF8D"/>
  <path d="M16.9375 13.8283L20.0347 11.4115C20.1878 11.2836 20.4641 11.08 20.2431 10.8479C20.0678 10.6648 19.5943 10.9284 19.5943 10.9284L16.8838 11.9877C16.0756 12.2671 15.5389 12.6807 15.4915 13.2016C15.4299 13.8962 16.0535 14.4313 16.9375 13.8283Z" fill="#F4B400"/>
</svg>