<svg xmlns="http://www.w3.org/2000/svg" width="24" height="24" viewBox="0 0 24 24" fill="none">
  <path d="M18.0405 5.7797C18.041 5.55245 18.0864 5.32755 18.174 5.11784C18.2615 4.90814 18.3895 4.71774 18.5507 4.55754C18.7119 4.39734 18.9031 4.27047 19.1133 4.18419C19.3235 4.09791 19.5487 4.05391 19.776 4.0547H7.0507C6.82342 4.05391 6.59821 4.09791 6.38793 4.18418C6.17766 4.27045 5.98644 4.3973 5.82521 4.5575C5.66397 4.71769 5.53588 4.90808 5.44824 5.11778C5.3606 5.32749 5.31514 5.55241 5.31445 5.7797V19.9434H16.3042C16.5315 19.9442 16.7567 19.9002 16.967 19.814C17.1772 19.7277 17.3685 19.6008 17.5297 19.4406C17.6909 19.2805 17.819 19.0901 17.9067 18.8804C17.9943 18.6707 18.0398 18.4457 18.0405 18.2184V5.7797Z" fill="#F2EBDA"/>
  <path d="M21.5138 5.88245H18.0398V18.2192C18.0391 18.4465 17.9936 18.6714 17.906 18.8811C17.8183 19.0908 17.6902 19.2812 17.529 19.4414C17.3678 19.6016 17.1766 19.7284 16.9663 19.8147C16.756 19.901 16.5308 19.945 16.3035 19.9442H3.54301C3.30809 19.9413 3.07614 19.8913 2.86084 19.7973C2.64555 19.7032 2.45128 19.567 2.28951 19.3966C2.12774 19.2262 2.00174 19.0252 1.91895 18.8053C1.83617 18.5854 1.79828 18.3512 1.80751 18.1164H14.5298C14.5255 18.4014 14.587 18.6835 14.7095 18.9408C14.8321 19.1981 15.0123 19.4237 15.2363 19.5999C15.4521 19.4402 15.6276 19.2321 15.7484 18.9923C15.8693 18.7525 15.9323 18.4877 15.9323 18.2192V5.7797C15.9329 5.55245 15.9782 5.32755 16.0658 5.11784C16.1533 4.90814 16.2814 4.71774 16.4425 4.55754C16.6037 4.39734 16.7949 4.27047 17.0051 4.18419C17.2153 4.09791 17.4405 4.05391 17.6678 4.0547H19.7783C20.0132 4.05752 20.2452 4.10741 20.4606 4.20143C20.6759 4.29544 20.8702 4.43167 21.032 4.60207C21.1938 4.77246 21.3198 4.97356 21.4025 5.19347C21.4853 5.41339 21.5231 5.64766 21.5138 5.88245Z" fill="#E2D9C5"/>
  <path d="M13.3623 14.8503C13.6252 13.7324 14.1145 12.6802 14.8001 11.7588C16.4576 9.8786 19.7816 9.32584 22.1928 9.38734C21.4204 10.0236 20.6936 10.7133 20.0178 11.4513C18.9799 12.4823 17.752 13.3024 16.4021 13.8663C15.3627 14.1073 14.3457 14.4365 13.3623 14.8503Z" fill="#DDA064"/>
  <path d="M13.3623 14.8504C13.7193 13.7464 19.7816 9.32585 22.1928 9.38735C21.4204 10.0236 20.6936 10.7133 20.0178 11.4514C18.9799 12.4823 17.752 13.3025 16.4021 13.8664C15.3627 14.1073 14.3457 14.4365 13.3623 14.8504Z" fill="#B57947"/>
  <path d="M16.5749 7.18425C16.5745 7.10296 16.5419 7.02513 16.4843 6.96778C16.4267 6.91044 16.3487 6.87825 16.2674 6.87825H9.71241C9.63125 6.87825 9.55342 6.91049 9.49603 6.96788C9.43864 7.02526 9.4064 7.10309 9.4064 7.18425C9.4064 7.26541 9.43864 7.34324 9.49603 7.40062C9.55342 7.45801 9.63125 7.49025 9.71241 7.49025H16.2652C16.3056 7.49055 16.3457 7.48286 16.3832 7.46763C16.4206 7.45241 16.4547 7.42994 16.4835 7.40151C16.5123 7.37309 16.5352 7.33927 16.5509 7.30199C16.5665 7.2647 16.5747 7.2247 16.5749 7.18425ZM7.2419 7.49025H8.2799C8.36106 7.49025 8.43889 7.45801 8.49628 7.40062C8.55367 7.34324 8.58591 7.26541 8.58591 7.18425C8.58591 7.10309 8.55367 7.02526 8.49628 6.96788C8.43889 6.91049 8.36106 6.87825 8.2799 6.87825H7.2419C7.16075 6.87825 7.08292 6.91049 7.02553 6.96788C6.96814 7.02526 6.9359 7.10309 6.9359 7.18425C6.9359 7.26541 6.96814 7.34324 7.02553 7.40062C7.08292 7.45801 7.16075 7.49025 7.2419 7.49025ZM7.2419 16.251C7.16075 16.251 7.08292 16.2832 7.02553 16.3406C6.96814 16.398 6.9359 16.4758 6.9359 16.557C6.9359 16.6382 6.96814 16.716 7.02553 16.7734C7.08292 16.8308 7.16075 16.863 7.2419 16.863H10.4617C10.5428 16.863 10.6206 16.8308 10.678 16.7734C10.7354 16.716 10.7677 16.6382 10.7677 16.557C10.7677 16.4758 10.7354 16.398 10.678 16.3406C10.6206 16.2832 10.5428 16.251 10.4617 16.251H7.2419ZM12.0614 13.4325C12.0608 13.3512 12.028 13.2735 11.9703 13.2163C11.9125 13.1591 11.8344 13.1271 11.7532 13.1273H7.2419C7.2005 13.1252 7.1591 13.1316 7.12024 13.146C7.08137 13.1604 7.04584 13.1826 7.01581 13.2112C6.98577 13.2398 6.96186 13.2742 6.94552 13.3123C6.92919 13.3504 6.92076 13.3914 6.92076 13.4329C6.92076 13.4743 6.92919 13.5154 6.94552 13.5535C6.96186 13.5916 6.98577 13.626 7.01581 13.6545C7.04584 13.6831 7.08137 13.7053 7.12024 13.7197C7.1591 13.7342 7.2005 13.7406 7.2419 13.7385H11.7532C11.8346 13.7387 11.9128 13.7066 11.9705 13.6492C12.0283 13.5919 12.061 13.5139 12.0614 13.4325ZM14.2574 10.3088C14.257 10.2273 14.2243 10.1494 14.1665 10.092C14.1088 10.0347 14.0306 10.0026 13.9492 10.0028H7.2419C7.2005 10.0007 7.1591 10.0071 7.12024 10.0215C7.08137 10.0359 7.04584 10.0581 7.01581 10.0867C6.98577 10.1153 6.96186 10.1497 6.94552 10.1878C6.92919 10.2259 6.92076 10.2669 6.92076 10.3084C6.92076 10.3498 6.92919 10.3909 6.94552 10.429C6.96186 10.4671 6.98577 10.5015 7.01581 10.53C7.04584 10.5586 7.08137 10.5808 7.12024 10.5952C7.1591 10.6097 7.2005 10.6161 7.2419 10.614H13.9499C14.0311 10.614 14.1089 10.5819 14.1665 10.5247C14.2242 10.4676 14.2568 10.3899 14.2574 10.3088ZM18.0397 14.2088C17.9582 14.2086 17.8801 14.2407 17.8223 14.298C17.7645 14.3554 17.7318 14.4333 17.7314 14.5148V18.2198C17.7298 18.5966 17.579 18.9576 17.3119 19.2235C17.0448 19.4894 16.6833 19.6388 16.3064 19.6388H16.2682C16.0737 19.6347 15.882 19.5917 15.7044 19.5123C15.5269 19.433 15.367 19.3189 15.2342 19.1768C15.1014 19.0347 14.9983 18.8675 14.9312 18.685C14.864 18.5024 14.8341 18.3083 14.8432 18.114C14.8412 18.0338 14.8079 17.9575 14.7505 17.9014C14.693 17.8453 14.6159 17.814 14.5357 17.814H5.62491V5.78025C5.62649 5.40336 5.77733 5.04244 6.04439 4.7765C6.31146 4.51056 6.67301 4.36125 7.0499 4.36125H18.3142L18.2879 4.38975L18.2557 4.42425L18.2234 4.461L18.1927 4.49775L18.1619 4.536L18.1327 4.57425L18.1042 4.614L18.0764 4.653L18.0494 4.69425L18.0239 4.7355L17.9992 4.7775L17.9752 4.82025L17.9527 4.86375L17.9302 4.90725L17.9099 4.95L17.8904 4.995L17.8717 5.04075L17.8537 5.0865L17.8379 5.13375L17.8222 5.18025L17.8079 5.22975L17.7952 5.2755L17.7832 5.32725L17.7727 5.373L17.7629 5.427L17.7547 5.472L17.7472 5.5305C17.7449 5.55 17.7472 5.559 17.7419 5.5725C17.7367 5.586 17.7419 5.61675 17.7367 5.6385V8.49225C17.7406 8.57128 17.7747 8.64577 17.832 8.70033C17.8893 8.75488 17.9654 8.7853 18.0445 8.7853C18.1237 8.7853 18.1997 8.75488 18.2571 8.70033C18.3144 8.64577 18.3485 8.57128 18.3524 8.49225V6.18825H21.5189C21.5597 6.18879 21.6001 6.18103 21.6377 6.16542C21.6754 6.14982 21.7095 6.12671 21.7379 6.0975C21.7665 6.06906 21.7891 6.03514 21.8043 5.99777C21.8195 5.9604 21.827 5.92034 21.8264 5.88C21.8362 5.60428 21.7904 5.32942 21.6917 5.07176C21.5931 4.81411 21.4436 4.57892 21.2523 4.3802C21.0609 4.18148 20.8315 4.02328 20.5777 3.91501C20.324 3.80675 20.051 3.75063 19.7752 3.75H7.0499C6.51055 3.74999 5.99314 3.96358 5.61084 4.34405C5.22855 4.72452 5.01248 5.2409 5.0099 5.78025V17.8118H1.80741C1.76696 17.8118 1.72691 17.8197 1.68956 17.8352C1.6522 17.8507 1.61827 17.8734 1.5897 17.9021C1.56114 17.9307 1.53851 17.9647 1.5231 18.0021C1.50769 18.0395 1.49981 18.0796 1.49991 18.12C1.48985 18.3951 1.53518 18.6694 1.63319 18.9267C1.7312 19.1839 1.8799 19.4189 2.07046 19.6175C2.26102 19.8162 2.48955 19.9746 2.74249 20.0832C2.99543 20.1919 3.26762 20.2486 3.54291 20.25H16.3034C16.8434 20.251 17.3618 20.0378 17.7449 19.6573C18.128 19.2767 18.3446 18.7598 18.3472 18.2198V14.5148C18.3468 14.4335 18.3142 14.3556 18.2566 14.2983C18.1989 14.2409 18.1209 14.2087 18.0397 14.2088ZM18.3629 5.57025L18.3674 5.5425L18.3749 5.5035L18.3809 5.47425L18.3892 5.43825L18.3974 5.4075L18.4072 5.37375L18.4169 5.343L18.4282 5.31075L18.4394 5.27925L18.4499 5.25L18.4634 5.2185L18.4754 5.19075L18.4912 5.1585L18.5032 5.1345L18.5249 5.1L18.5324 5.08725C18.5609 5.03724 18.5922 4.98891 18.6262 4.9425L18.6599 4.89825L18.6659 4.8915L18.7004 4.851L18.7072 4.8435L18.7439 4.80375L18.7499 4.7955L18.7897 4.75575H18.7942L18.8377 4.716C19.0297 4.54949 19.2627 4.43737 19.5127 4.39125L19.5764 4.3815C19.5967 4.3815 19.6169 4.37625 19.6379 4.37475H19.6499L19.7069 4.371H19.7759C20.1155 4.37393 20.4428 4.49802 20.699 4.72092C20.9551 4.94381 21.1233 5.25086 21.1732 5.58675H18.3622L18.3629 5.57025ZM3.54291 19.6388C3.20322 19.636 2.87569 19.512 2.61937 19.2891C2.36304 19.0662 2.19478 18.759 2.14491 18.423H14.2432L14.2582 18.5175L14.2642 18.5483L14.2762 18.6098L14.2844 18.6458C14.2884 18.6643 14.2929 18.6825 14.2979 18.7005L14.3084 18.738L14.3227 18.7898L14.3347 18.828L14.3512 18.8768L14.3647 18.915L14.3834 18.963L14.3984 18.999L14.4194 19.047L14.4344 19.0815L14.4584 19.131L14.4742 19.1618L14.5049 19.2188L14.5162 19.2398L14.5619 19.3148L14.5732 19.332C14.5852 19.3515 14.5974 19.3703 14.6099 19.3883L14.6279 19.4138L14.6617 19.4595L14.6827 19.4865L14.7157 19.5278L14.7382 19.5548L14.7727 19.5938L14.7967 19.62L14.8139 19.6388H3.54291ZM22.4999 9.3855V9.375C22.4988 9.34693 22.4937 9.31916 22.4849 9.2925V9.288L22.4677 9.249V9.2445L22.4474 9.213L22.4429 9.20625L22.4167 9.17625L22.4099 9.17025L22.3822 9.147C22.3711 9.13868 22.3593 9.1314 22.3469 9.12525L22.3402 9.1215L22.3019 9.105C22.2885 9.1002 22.2747 9.09669 22.2607 9.0945H22.2517C22.2375 9.09198 22.2232 9.09048 22.2089 9.09C19.6334 9.024 16.2749 9.63975 14.5769 11.565C13.9054 12.4382 13.4227 13.4414 13.1594 14.511L13.0777 14.7645V14.775L12.5579 16.6103C12.5472 16.6489 12.5442 16.6892 12.5492 16.729C12.5541 16.7687 12.5668 16.8071 12.5866 16.842C12.6064 16.8768 12.6328 16.9074 12.6645 16.932C12.6961 16.9566 12.7323 16.9747 12.7709 16.9853C12.798 16.9931 12.826 16.9972 12.8542 16.9973C12.9213 16.9973 12.9867 16.9753 13.0402 16.9346C13.0937 16.894 13.1324 16.837 13.1504 16.7723L13.6327 15.0705C14.1824 14.826 14.7536 14.6329 15.3389 14.4938C15.6719 14.4038 16.0492 14.3018 16.5059 14.1623C17.9088 13.5853 19.1834 12.7359 20.2559 11.6633C20.9219 10.9352 21.6385 10.255 22.4002 9.62775C22.4111 9.61874 22.4214 9.60896 22.4309 9.5985L22.4564 9.5655L22.4609 9.55875C22.4758 9.53546 22.4874 9.51022 22.4954 9.48375V9.47625L22.4999 9.426V9.3975V9.3855ZM15.0307 11.9602C15.9187 11.0493 17.0529 10.4168 18.2947 10.14C18.6986 10.032 19.1076 9.94385 19.5202 9.876C18.5929 10.3349 17.6963 10.8532 16.8359 11.4278C15.8997 12.0434 15.0064 12.722 14.1622 13.4588C14.3627 12.9127 14.6566 12.4057 15.0307 11.9602ZM19.7924 11.244C18.7908 12.2348 17.6098 13.0259 16.3124 13.575C15.8624 13.7115 15.4934 13.812 15.1649 13.9005C14.8649 13.9808 14.5979 14.0505 14.3309 14.1383C14.4494 14.0248 14.5909 13.8968 14.7554 13.7543C15.5251 13.0996 16.3341 12.4927 17.1779 11.937C18.4097 11.0718 19.7522 10.3761 21.1694 9.8685C20.6908 10.3069 20.2313 10.7659 19.7924 11.244Z" fill="black"/>
</svg>