<svg xmlns="http://www.w3.org/2000/svg" width="16" height="16" viewBox="0 0 16 16" fill="none">
  <g clip-path="url(#clip0_145_51496)">
    <path d="M8 15.5C12.1421 15.5 15.5 12.1421 15.5 8C15.5 3.85786 12.1421 0.5 8 0.5C3.85786 0.5 0.5 3.85786 0.5 8C0.5 12.1421 3.85786 15.5 8 15.5Z" fill="#98C0D0"/>
    <path d="M8.00001 14.0174C11.3234 14.0174 14.0175 11.3233 14.0175 7.99992C14.0175 4.67655 11.3234 1.98242 8.00001 1.98242C4.67664 1.98242 1.98251 4.67655 1.98251 7.99992C1.98251 11.3233 4.67664 14.0174 8.00001 14.0174Z" fill="#FCEBCD"/>
    <path d="M6.28749 1.88262C5.48499 2.11512 4.36124 2.47137 3.15874 3.90762C1.97124 5.32887 1.72624 6.98012 1.64999 8.11887C1.64999 8.11887 0.963741 8.97762 0.931241 8.81762C0.672491 7.57387 1.19499 4.79387 2.56124 3.32387C4.15124 1.61387 6.21874 1.00762 6.96624 0.89387C7.09499 0.87387 6.53124 1.81262 6.28749 1.88262Z" fill="#C2E3F0"/>
    <path d="M7.99953 13.6988C11.1469 13.6988 13.6983 11.1474 13.6983 8.00002C13.6983 4.85269 11.1469 2.30127 7.99953 2.30127C4.8522 2.30127 2.30078 4.85269 2.30078 8.00002C2.30078 11.1474 4.8522 13.6988 7.99953 13.6988Z" fill="white"/>
    <path d="M8 4.375V8" stroke="#563428" stroke-width="0.5" stroke-miterlimit="10" stroke-linecap="round"/>
    <path d="M7.99969 8.63219C8.34901 8.63219 8.63219 8.34901 8.63219 7.99969C8.63219 7.65037 8.34901 7.36719 7.99969 7.36719C7.65037 7.36719 7.36719 7.65037 7.36719 7.99969C7.36719 8.34901 7.65037 8.63219 7.99969 8.63219Z" fill="#563428"/>
    <path d="M9.3475 5.69238L8.03625 7.99988" stroke="#563428" stroke-width="0.75" stroke-miterlimit="10" stroke-linecap="round"/>
    <path d="M8 12.5V13.125M8 2.875V3.5M3.5 8H2.875M13.125 8H12.5" stroke="#6596A3" stroke-width="0.625" stroke-miterlimit="10"/>
    <path d="M5.75027 11.8978L5.43777 12.439M10.5628 3.56152L10.2503 4.10277M10.2503 11.8978L10.5628 12.439M5.43777 3.56152L5.75027 4.10277M11.8978 10.2503L12.439 10.5628M3.56152 5.43777L4.10277 5.75027M4.10277 10.2503L3.56152 10.5628M12.439 5.43777L11.8978 5.75027" stroke="#B0BEC5" stroke-width="0.375" stroke-miterlimit="10"/>
  </g>
  <defs>
    <clipPath id="clip0_145_51496">
      <rect width="16" height="16" fill="white"/>
    </clipPath>
  </defs>
</svg>