<svg xmlns="http://www.w3.org/2000/svg" width="28" height="33" viewBox="0 0 28 33" fill="none">
  <g clip-path="url(#clip0_266_23960)">
    <path d="M4 2.58789C1.79375 2.58789 0 4.38164 0 6.58789V26.5879C0 28.7941 1.79375 30.5879 4 30.5879H24C26.2062 30.5879 28 28.7941 28 26.5879V6.58789C28 4.38164 26.2062 2.58789 24 2.58789H4ZM22.5688 7.83789L16.0812 15.2504L23.7125 25.3379H17.7375L13.0625 19.2191L7.70625 25.3379H4.7375L11.675 17.4066L4.35625 7.83789H10.4812L14.7125 13.4316L19.6 7.83789H22.5688ZM20.2062 23.5629L9.5875 9.51914H7.81875L18.5562 23.5629H20.2H20.2062Z" fill="black"/>
  </g>
  <defs>
    <clipPath id="clip0_266_23960">
      <rect width="28" height="32" fill="white" transform="translate(0 0.587891)"/>
    </clipPath>
  </defs>
</svg>