<svg xmlns="http://www.w3.org/2000/svg" width="47" height="80" viewBox="0 0 47 80" fill="none"><g clip-path="url(#a)"><path fill="#ECC94B" fill-opacity=".05" d="M0 0h46.14v80H0z"/><path d="M35.24 0 23.1 21m5.48 9.52L16.44 9.5m13.3 0H5.48l-12.14 21M.02 0h46.14M0 19l12.14 21L0 61.02M-17.62 30.5H6.66m16.4 9.5L0 .04-23.08 40m46.14 0L46.16.04 69.2 40m-46.14 0h46.16L46.14 80m12.14-40L46.14 19m5.48-9.5-12.12 21m-10.98 0H52.8M5.48 70.52l-12.14-21m-10.96 0H6.66M0 80l23.06-39.98-46.14.02zm0 0h46.14M35.2 80 23.08 59m5.48-9.52L16.4 70.5m-10.96 0H29.7M46.14 80 23.08 40.02m35.2 0-12.14 21m5.48 9.5-12.12-21m-10.98 0H52.8" stroke="#ECC94B" stroke-opacity=".15" stroke-width="2" stroke-linecap="square"/></g><defs><clipPath id="a"><path fill="#fff" d="M0 0h46.14v80H0z"/></clipPath></defs></svg>