<svg xmlns="http://www.w3.org/2000/svg" width="11" height="21" viewBox="0 0 11 21" fill="none">
  <g clip-path="url(#clip0_96_4725)">
    <path d="M10.4483 6.43756L5.2845 3.45659L0.122131 6.43756V3.45659L5.28522 0.475586L10.449 3.45659V6.43756H10.4483Z" fill="#A435F0"/>
    <path d="M0.122131 8.94092H2.82677V15.5122C2.82677 17.2099 4.0946 18.0375 5.28522 18.0375C6.48613 18.0375 7.7444 17.1879 7.7444 15.4894V8.94092H10.449V15.6687C10.449 17.2327 9.95734 18.4395 8.97399 19.2671C7.98987 20.0939 6.761 20.4967 5.26243 20.4967C3.76531 20.4967 2.53572 20.0947 1.57516 19.2671C0.613829 18.4402 0.122131 17.2783 0.122131 15.7356V8.94092Z" fill="black"/>
  </g>
  <defs>
    <clipPath id="clip0_96_4725">
      <rect width="10.3269" height="20.0487" fill="white" transform="translate(0.121887 0.475586)"/>
    </clipPath>
  </defs>
</svg>