<svg xmlns="http://www.w3.org/2000/svg" width="20" height="24" viewBox="0 0 20 24" fill="none">
  <path fill-rule="evenodd" clip-rule="evenodd" d="M16.2947 3.04341C16.2947 2.42798 16.7937 1.92905 17.4091 1.92905C18.0246 1.92905 18.5234 2.42803 18.5234 3.04345C18.5234 3.65887 18.0246 4.15786 17.4091 4.15786C16.7936 4.15786 16.2947 3.65887 16.2947 3.04341Z" fill="#FFEFAB"/>
  <path fill-rule="evenodd" clip-rule="evenodd" d="M16.1392 8.31952L15.4975 8.91605L17.0513 10.6723L16.9789 10.6942L17.0556 10.7257L11.973 23.1144H12.925L18.1761 10.6216L16.1392 8.31952ZM11.8867 4.83506L12.5561 4.26956L9.68703 1.02675L0.0219727 9.20367L3.92221 23.1144H4.83205L1.09283 9.77789L1.12719 9.79092L9.63336 2.30414L9.6373 2.30859L9.63749 2.29284L11.8867 4.83506Z" fill="#D1701C"/>
  <path fill-rule="evenodd" clip-rule="evenodd" d="M9.62221 3.48094L9.58714 6.19734L8.25 6.74854L9.57491 7.1407L9.49982 12.9615L13.6894 11.6914L13.9712 12.9615L14.3096 11.5035L15.9998 10.991L11.0261 23.1144H8.10693L9.4805 12.975L3.11708 10.5494L6.80005 23.1143H5.88716L2.09207 10.1665L2.10379 10.1631L2.0525 10.1436L9.62221 3.48094Z" fill="#FEC417"/>
  <path d="M13.9712 0.714844L12.9606 4.07025C12.8205 4.12547 12.6852 4.19214 12.5561 4.26956L11.8867 4.83506C11.6784 5.07685 11.5138 5.35303 11.4002 5.65125L9.58714 6.19734L8.25 6.74854L9.57491 7.1407L11.439 7.70227C11.7221 8.36836 12.2604 8.89945 12.9311 9.17386L13.6894 11.6914L13.9712 12.9615L14.3096 11.5035L15.0112 9.17423C15.1816 9.10471 15.3445 9.01821 15.4975 8.91605L16.1392 8.31952C16.2873 8.13051 16.41 7.92289 16.5042 7.70198L19.9272 6.67092L16.5429 5.65158C16.2686 4.92952 15.6991 4.35347 14.9818 4.06992L13.9712 0.714844Z" fill="#FFA828"/>
</svg>