<svg xmlns="http://www.w3.org/2000/svg" width="32" height="32" viewBox="0 0 32 32" fill="none">
  <path d="M24.2798 14.8372C24.8348 14.3797 28.0398 12.3972 29.7948 10.7272C31.1648 9.42222 31.6948 6.01472 29.5873 4.35722C26.8473 2.20472 24.2173 4.46472 24.2173 4.46472C24.2173 4.46472 23.9873 3.18722 22.3873 2.43722C20.3723 1.49222 17.8198 1.13972 15.4723 1.16972C13.1973 1.19722 11.1023 1.47222 9.24231 2.38472C7.57731 3.20222 7.47731 4.36722 7.47731 4.36722C7.47731 4.36722 5.29231 2.27972 2.61481 3.97472C-0.0601907 5.67222 0.707309 9.07222 1.99481 10.4997C3.67231 12.3597 5.68731 13.3072 6.60231 13.9922C7.51481 14.6772 8.38981 15.3297 8.38981 15.9172C8.38981 16.5047 8.12981 16.6347 8.02981 16.6022C7.93231 16.5697 7.75981 15.9972 7.31231 16.2422C6.70231 16.5797 6.88731 17.9397 8.15981 18.0697C9.39231 18.1972 9.62731 16.8947 9.62731 16.8947L9.82231 15.6222L11.8448 17.0247L14.0623 18.8522L13.9973 20.4172C13.9973 20.4172 13.8998 21.6247 13.3123 22.6697C12.7248 23.7147 11.7798 24.7572 11.7798 24.7572L11.7498 25.7022L19.9723 25.5072L19.7123 24.5947C19.7123 24.5947 18.6523 23.4297 18.0148 22.1797C17.5598 21.2847 17.4873 20.3822 17.4873 20.3822L17.4673 18.1372L21.7348 15.5222C21.7348 15.5222 22.1923 15.8822 22.1273 16.0122C22.0623 16.1422 22.0473 17.4747 23.0723 17.9697C24.0848 18.4597 24.8998 17.8397 24.8023 16.9897C24.7048 16.1422 24.1823 16.4347 24.0198 16.5647C23.8573 16.6947 23.4973 16.7272 23.3998 16.2372C23.2998 15.7522 23.7248 15.2947 24.2798 14.8372ZM3.27231 10.2222L2.29481 7.24722L3.47731 5.69972L4.80231 5.31222C4.80231 5.31222 6.49481 6.57472 6.55481 6.67722C6.61481 6.77972 7.63481 8.87722 7.63481 8.87722L8.97981 13.7472L3.27231 10.2222ZM22.4873 14.1347C22.5073 14.0322 23.7498 8.91722 23.7498 8.91722C23.7498 8.85722 24.6248 8.44972 24.6248 8.36722C24.6248 8.28472 26.2148 5.69722 26.2148 5.69722L28.8648 5.79972L29.4148 8.42722L28.0898 10.6072C28.0923 10.6097 22.4673 14.2347 22.4873 14.1347Z" fill="#FEC417"/>
  <path d="M29.9796 7.65984C29.7846 5.32984 27.4796 4.77234 26.5321 5.10984C25.5846 5.44734 24.9696 6.07984 24.7596 6.97984C24.5896 7.70734 24.4196 8.19234 24.2246 8.26734C24.0096 8.34734 23.8121 8.31484 23.8121 8.31484C23.8121 8.31484 23.7771 6.73984 23.7871 6.10484C23.8121 4.79484 24.2121 4.45984 24.2121 4.45984C24.2121 4.45984 24.1271 4.01734 23.9571 3.77234C23.7871 3.52984 23.4721 3.21484 23.4721 3.21484C23.4721 3.21484 23.5446 3.84484 23.2296 3.99234C22.9146 4.13984 22.5746 3.91984 22.5746 3.91984L22.8896 5.22984C22.8896 5.22984 22.3796 11.7598 22.3321 11.9048C22.2846 12.0498 20.3671 15.3748 20.3671 15.3748C20.3671 15.3748 19.2496 16.4198 18.7171 16.6623C18.1821 16.9048 17.7221 17.5373 15.6596 17.5598C13.5971 17.5848 11.8246 15.9573 11.8246 15.9573L10.0521 14.2573L8.74211 10.3973L8.54711 6.46484L8.62961 5.03484L8.68711 4.43734L8.59461 4.13484C8.59461 4.13484 8.42461 4.30484 8.10961 4.23234C7.79461 4.15984 7.67211 3.74734 7.67211 3.74734C7.67211 3.74734 7.54961 3.94234 7.52711 4.03984C7.50211 4.13734 7.47711 4.36234 7.47711 4.36234C7.47711 4.36234 7.81711 4.71984 7.88961 5.22984C7.96211 5.73984 7.86461 7.85234 7.50211 7.80234C7.13711 7.75484 7.25711 5.98234 5.87461 5.30234C4.67711 4.71234 2.88961 4.88984 2.15961 6.36984C1.43211 7.84984 1.96461 9.59734 4.24711 11.2248C6.52961 12.8523 8.95961 14.2198 9.34461 15.5248C9.80461 17.0773 8.76211 17.9998 8.76211 17.9998C8.76211 17.9998 9.51961 17.8948 9.89211 17.0823C10.0121 16.8198 10.0571 16.4373 10.0746 16.2098C10.9371 17.3348 12.0846 18.2873 13.6046 18.7473C14.1796 18.9448 14.8271 19.0448 15.7271 19.0448C15.8571 19.0448 15.9846 19.0398 16.1121 19.0348C17.1646 18.9973 18.0646 18.7998 18.9371 18.3673C20.1146 17.8223 21.0271 16.9898 21.7321 16.0448C21.7121 16.2698 21.8496 16.8298 22.1121 17.2723C22.5721 18.0498 23.3496 18.0973 23.3496 18.0973C23.3496 18.0973 22.2821 17.4673 22.4996 15.9623C22.7171 14.4573 23.7121 13.9223 25.2171 12.9523C26.7271 11.9798 30.1721 9.98984 29.9796 7.65984ZM5.31711 10.9623C4.63961 10.4848 3.45211 9.84734 2.96211 8.87484C2.30961 7.57734 2.83961 6.00984 4.07961 5.81734C6.65461 5.41234 6.70211 8.60984 6.87211 8.99734C7.04211 9.38484 7.52711 9.40984 7.52711 9.40984C7.52711 9.40984 7.54461 9.62484 7.61461 10.0398C7.61711 10.0523 7.61961 10.0623 7.61961 10.0748L7.62711 10.1123C7.67461 10.3948 7.74211 10.7473 7.83711 11.1498L7.84461 11.1798C7.89711 11.4073 7.95211 11.6223 8.00961 11.8198C8.12461 12.2348 8.26461 12.6823 8.43711 13.1423C8.18711 12.9723 6.75461 11.9798 5.31711 10.9623ZM28.6446 9.16484C28.1071 10.0348 27.0196 10.6823 26.2171 11.2273C25.1821 11.9298 23.6421 12.9848 23.2071 13.2798C23.3071 13.0148 23.3946 12.7523 23.4746 12.4948C23.6046 12.1548 23.7421 11.7398 23.8371 11.2923C24.0871 10.1173 24.1296 9.08984 24.1296 9.08984C24.1296 9.08984 24.6396 9.23484 24.9546 8.89484C25.2696 8.55484 25.3871 7.49984 25.6821 7.00234C26.1421 6.22484 27.0646 5.42484 28.4496 6.39484C29.2496 6.95734 29.2796 8.13484 28.6446 9.16484ZM15.1296 19.8273L16.5421 19.8098C16.5421 19.8098 16.5796 21.3523 16.8021 22.5023C17.0246 23.6548 17.3221 24.9348 17.3221 24.9348C17.3221 24.9348 14.4446 25.8998 14.4621 24.8598C14.4796 23.8198 14.9071 21.7948 14.9071 21.7948C14.9071 21.7948 15.1671 19.3823 15.1296 19.8273Z" fill="#FFA828"/>
  <path d="M12.7606 3.7976C12.7606 3.7976 14.3331 3.6201 15.7956 3.6426C17.2581 3.6651 18.7631 3.9526 18.7631 3.9526C18.7631 3.9526 18.6756 8.8476 18.4081 11.5951C18.1431 14.3426 17.1031 16.4001 16.8256 16.9826C16.5581 17.5476 16.3631 17.8501 16.3631 17.8501L14.9531 17.6851L12.5156 12.7901L12.7606 3.7976Z" fill="#FFA828"/>
  <path d="M10.878 4.52984C10.878 4.52984 11.3205 4.30734 11.963 4.06484C12.5455 3.84484 13.0705 3.77734 13.0705 3.77734C13.0705 3.77734 13.0855 7.02234 13.138 9.33734C13.183 11.3098 13.913 14.5423 14.268 15.4073C14.623 16.2723 15.263 17.5923 15.263 17.5923C15.263 17.5923 13.9755 17.4073 13.183 16.4023C12.7655 15.8723 10.813 11.7723 10.7455 9.06984C10.678 6.36734 10.943 4.46234 10.878 4.52984Z" fill="#FFEFAB"/>
  <path d="M10.1443 4.90609C10.0993 5.03859 9.74682 7.83109 10.2993 10.4211C10.8518 13.0111 11.6693 14.7836 12.2093 15.4861C12.6893 16.1086 13.0018 16.4036 13.1793 16.4036C13.3568 16.4036 12.4493 14.2561 12.0268 12.5711C11.6068 10.8886 11.3843 8.87109 11.3393 7.87609C11.2943 6.87859 11.2518 4.30859 11.2518 4.30859C11.2518 4.30859 10.7643 4.53109 10.6543 4.59609C10.5443 4.66359 10.1443 4.90609 10.1443 4.90609Z" fill="#FFFCFD"/>
  <path d="M13.3359 24.7525C13.3359 24.7525 14.2884 23.2025 14.4884 22.0275C14.6884 20.8525 14.7984 19.8125 14.7984 19.8125L15.3884 19.8375C15.3884 19.8375 15.3309 21.54 15.2634 22.6925C15.1959 23.845 14.9984 24.975 14.9984 24.975L13.3359 24.7525Z" fill="#FFEFAB"/>
  <path d="M14.0682 18.8512C14.0682 18.8512 14.5107 18.4187 15.7282 18.4187C16.9457 18.4187 17.4682 18.8862 17.4682 18.8862L17.5007 20.3887C17.5007 20.3887 16.6907 20.1362 15.7057 20.1237C14.8857 20.1137 14.0032 20.4187 14.0032 20.4187L14.0682 18.8512ZM8.75072 3.92868C8.95572 3.73868 10.9207 2.26368 15.5732 2.22368C20.5782 2.17868 22.4557 3.62868 22.5732 3.70868C22.7057 3.79618 22.8607 4.19618 22.7957 4.37368C22.7282 4.55118 22.5957 4.61618 22.2207 4.46118C21.8432 4.30618 19.9832 2.94868 15.5082 3.08868C11.2107 3.22118 9.38822 4.52868 9.19572 4.63868C9.04072 4.72618 8.75322 4.74868 8.62072 4.57118C8.48572 4.39618 8.61822 4.05368 8.75072 3.92868ZM22.7957 4.97118C22.2207 5.01618 22.6182 9.64618 21.4007 12.5462C20.0957 15.6487 18.4307 16.5337 18.4982 16.7112C18.5657 16.8887 20.1957 16.3962 21.2232 14.9387C22.1757 13.5887 22.7507 12.3912 23.0182 10.7962C23.2807 9.20118 23.4357 4.92118 22.7957 4.97118ZM8.62822 5.50118C8.48322 5.49368 8.63072 7.80368 8.39572 8.81868C8.30572 9.20868 8.08572 9.28868 8.06322 9.37618C8.04072 9.46368 8.54572 12.4362 9.39322 13.7412C10.2132 15.0037 11.8307 16.5762 12.0957 16.3112C12.3607 16.0462 10.9207 15.1587 9.94822 13.2312C9.38822 12.1262 8.81822 10.4612 8.79572 8.55618C8.78072 7.29618 8.93822 5.51868 8.62822 5.50118Z" fill="#D1701C"/>
  <path d="M21.6932 28.178L21.6907 24.6055H10.2232C10.2582 24.6055 10.2307 27.5105 10.2257 28.1905H8.5957V30.778H23.1582V28.1905L21.6932 28.178Z" fill="#865C50"/>
  <path d="M13.8981 26.482C13.6156 26.4695 13.2906 26.527 13.2781 26.877C13.2656 27.227 13.2656 28.2395 13.2656 28.432C13.2656 28.6245 13.4231 28.792 13.8181 28.8045C14.2131 28.817 17.9206 28.8045 18.1806 28.8045C18.4406 28.8045 18.5756 28.5795 18.5856 28.3545C18.5981 28.1295 18.5731 27.182 18.5731 26.9245C18.5731 26.497 18.1906 26.497 17.9306 26.497C17.6506 26.492 13.8981 26.482 13.8981 26.482Z" fill="#FCC219"/>
</svg>