<svg xmlns="http://www.w3.org/2000/svg" width="24" height="24" viewBox="0 0 24 24" fill="none">
  <path d="M14 12L10.5 14V10L14 12Z" fill="#71717A" stroke="#71717A" stroke-width="1.5" stroke-linecap="round" stroke-linejoin="round"/>
  <path d="M2 12.7064V11.2904C2 8.39544 2 6.94744 2.905 6.01644C3.811 5.08444 5.237 5.04444 8.088 4.96344C9.438 4.92544 10.818 4.89844 12 4.89844C13.182 4.89844 14.561 4.92544 15.912 4.96344C18.763 5.04444 20.189 5.08444 21.094 6.01644C21.999 6.94844 22 8.39644 22 11.2904V12.7054C22 15.6014 22 17.0484 21.095 17.9804C20.189 18.9114 18.764 18.9524 15.912 19.0324C14.562 19.0714 13.182 19.0984 12 19.0984C10.818 19.0984 9.439 19.0714 8.088 19.0324C5.237 18.9524 3.811 18.9124 2.905 17.9804C1.999 17.0484 2 15.6004 2 12.7064Z" stroke="#71717A" stroke-width="1.5"/>
</svg>