<svg xmlns="http://www.w3.org/2000/svg" width="24" height="25" viewBox="0 0 24 25" fill="none">
  <path d="M22.7323 6.88973C22.6397 6.54126 22.4573 6.22321 22.2031 5.96745C21.949 5.71169 21.6321 5.5272 21.2843 5.43244C20.0071 5.08789 14.8859 5.08789 14.8859 5.08789C14.8859 5.08789 9.7647 5.08789 8.48756 5.43244C8.13969 5.5272 7.82282 5.71169 7.56869 5.96745C7.31456 6.22321 7.13209 6.54126 7.03956 6.88973C6.69727 8.17503 6.69727 10.8571 6.69727 10.8571C6.69727 10.8571 6.69727 13.5392 7.03956 14.8248C7.13209 15.1732 7.31456 15.4913 7.56869 15.747C7.82282 16.0028 8.13969 16.1873 8.48756 16.282C9.7647 16.6263 14.8859 16.6263 14.8859 16.6263C14.8859 16.6263 20.0071 16.6263 21.2843 16.282C21.6321 16.1873 21.949 16.0028 22.2031 15.747C22.4573 15.4913 22.6397 15.1732 22.7323 14.8248C23.0746 13.5392 23.0746 10.8571 23.0746 10.8571C23.0746 10.8571 23.0746 8.17503 22.7323 6.88973Z" fill="#FF0000"/>
  <path d="M13.2109 13.2917L17.4913 10.8568L13.2109 8.42188V13.2917Z" fill="white"/>
  <path d="M22.7313 6.88973C22.6388 6.54126 22.4563 6.22321 22.2022 5.96745C21.948 5.71169 21.6312 5.5272 21.2833 5.43244C20.0061 5.08789 14.8849 5.08789 14.8849 5.08789C14.8849 5.08789 9.76372 5.08789 8.48659 5.43244C8.13871 5.5272 7.82184 5.71169 7.56771 5.96745C7.31358 6.22321 7.13112 6.54126 7.03859 6.88973C6.69629 8.17503 6.69629 10.8571 6.69629 10.8571C6.69629 10.8571 6.69629 13.5392 7.03859 14.8248C7.13112 15.1732 7.31358 15.4913 7.56771 15.747C7.82184 16.0028 8.13871 16.1873 8.48659 16.282C9.76372 16.6263 14.8849 16.6263 14.8849 16.6263C14.8849 16.6263 20.0061 16.6263 21.2833 16.282C21.6312 16.1873 21.948 16.0028 22.2022 15.747C22.4563 15.4913 22.6388 15.1732 22.7313 14.8248C23.0736 13.5392 23.0736 10.8571 23.0736 10.8571C23.0736 10.8571 23.0736 8.17503 22.7313 6.88973Z" stroke="black" stroke-width="0.562987" stroke-miterlimit="10"/>
  <path d="M13.2109 13.2927L17.4913 10.8578L13.2109 8.42285V13.2927Z" stroke="black" stroke-width="0.562987" stroke-miterlimit="10" stroke-linecap="round" stroke-linejoin="round"/>
  <path d="M16.9618 10.3516C16.8692 10.0032 16.6868 9.68513 16.4326 9.42937C16.1785 9.17361 15.8616 8.98911 15.5138 8.89435C14.2366 8.5498 9.1154 8.5498 9.1154 8.5498C9.1154 8.5498 3.99419 8.5498 2.71706 8.89435C2.36918 8.98911 2.05231 9.17361 1.79818 9.42937C1.54405 9.68513 1.36158 10.0032 1.26905 10.3516C0.926758 11.6369 0.926758 14.319 0.926758 14.319C0.926758 14.319 0.926758 17.0011 1.26905 18.2867C1.36158 18.6351 1.54405 18.9532 1.79818 19.2089C2.05231 19.4647 2.36918 19.6492 2.71706 19.744C3.99419 20.0882 9.1154 20.0882 9.1154 20.0882C9.1154 20.0882 14.2366 20.0882 15.5138 19.744C15.8616 19.6492 16.1785 19.4647 16.4326 19.2089C16.6868 18.9532 16.8692 18.6351 16.9618 18.2867C17.304 17.0011 17.304 14.319 17.304 14.319C17.304 14.319 17.304 11.6369 16.9618 10.3516Z" fill="#FF0000"/>
  <path d="M7.44043 16.7536L11.7208 14.3187L7.44043 11.8838V16.7536Z" fill="white"/>
  <path d="M16.9608 10.3516C16.8682 10.0032 16.6858 9.68513 16.4316 9.42937C16.1775 9.17361 15.8606 8.98911 15.5128 8.89435C14.2356 8.5498 9.11443 8.5498 9.11443 8.5498C9.11443 8.5498 3.99322 8.5498 2.71608 8.89435C2.36821 8.98911 2.05134 9.17361 1.79721 9.42937C1.54308 9.68513 1.36061 10.0032 1.26808 10.3516C0.925781 11.6369 0.925781 14.319 0.925781 14.319C0.925781 14.319 0.925781 17.0011 1.26808 18.2867C1.36061 18.6351 1.54308 18.9532 1.79721 19.2089C2.05134 19.4647 2.36821 19.6492 2.71608 19.744C3.99322 20.0882 9.11443 20.0882 9.11443 20.0882C9.11443 20.0882 14.2356 20.0882 15.5128 19.744C15.8606 19.6492 16.1775 19.4647 16.4316 19.2089C16.6858 18.9532 16.8682 18.6351 16.9608 18.2867C17.3031 17.0011 17.3031 14.319 17.3031 14.319C17.3031 14.319 17.3031 11.6369 16.9608 10.3516Z" stroke="black" stroke-width="0.562987" stroke-miterlimit="10"/>
  <path d="M7.44043 16.7546L11.7208 14.3197L7.44043 11.8848V16.7546Z" stroke="black" stroke-width="0.562987" stroke-miterlimit="10" stroke-linecap="round" stroke-linejoin="round"/>
</svg>