<svg xmlns="http://www.w3.org/2000/svg" width="112" height="26" viewBox="0 0 112 26" fill="none">
  <path d="M23.9389 25.1893H4.197C3.52104 25.191 2.85987 24.9914 2.29768 24.6161C1.7355 24.2408 1.29773 23.7066 1.04014 23.0816C0.780604 22.4587 0.712032 21.7726 0.843126 21.1106C0.97422 20.4486 1.29907 19.8404 1.77643 19.3634L15.4577 5.68207H5.65579C4.36207 5.68207 3.12135 5.16815 2.20655 4.25335C1.29176 3.33856 0.777832 2.09783 0.777832 0.804119H18.9873C20.3725 0.804119 21.6104 1.63245 22.1442 2.91176C22.4032 3.53518 22.471 4.2215 22.3391 4.88355C22.2071 5.5456 21.8814 6.1535 21.4033 6.63005L7.72662 20.3159H19.0656C21.7576 20.3159 23.9435 22.5018 23.9435 25.1939L23.9389 25.1893ZM111.222 9.95258C111.217 8.03125 110.63 6.15654 109.539 4.57504C108.448 2.99355 106.904 1.77933 105.109 1.09211C103.315 0.404895 101.355 0.276865 99.4865 0.72486C97.6182 1.17285 95.9291 2.17589 94.6416 3.60204C93.7519 2.60813 92.6624 1.8132 91.4444 1.26921C90.2263 0.725218 88.9072 0.444422 87.5732 0.445175C82.3271 0.445175 78.0658 4.70648 78.0658 9.95258V25.1893C79.3595 25.1893 80.6002 24.6754 81.515 23.7606C82.4298 22.8458 82.9437 21.605 82.9437 20.3113V9.95258C82.9437 8.72417 83.4317 7.54606 84.3004 6.67744C85.169 5.80881 86.3471 5.32083 87.5755 5.32083C88.8039 5.32083 89.982 5.80881 90.8507 6.67744C91.7193 7.54606 92.2073 8.72417 92.2073 9.95258V20.3113C92.2073 23.008 94.3885 25.1893 97.0852 25.1893V9.95258C97.0852 8.72478 97.573 7.54726 98.4412 6.67906C99.3093 5.81087 100.487 5.32313 101.715 5.32313C102.942 5.32313 104.12 5.81087 104.988 6.67906C105.856 7.54726 106.344 8.72478 106.344 9.95258V20.3113C106.344 23.008 108.53 25.1893 111.222 25.1893V9.95258ZM75.6268 12.999C75.6268 14.6479 75.302 16.2806 74.671 17.804C74.04 19.3274 73.1152 20.7116 71.9492 21.8775C70.7833 23.0435 69.3991 23.9683 67.8757 24.5994C66.3523 25.2304 64.7196 25.5551 63.0707 25.5551C61.4218 25.5551 59.7891 25.2304 58.2657 24.5994C56.7423 23.9683 55.3581 23.0435 54.1922 21.8775C53.0262 20.7116 52.1013 19.3274 51.4703 17.804C50.8393 16.2806 50.5146 14.6479 50.5146 12.999C50.5146 9.66891 51.8374 6.47521 54.1922 4.12048C56.5469 1.76575 59.7406 0.442871 63.0707 0.442871C66.4008 0.442871 69.5945 1.76575 71.9492 4.12048C74.3039 6.47521 75.6268 9.66891 75.6268 12.999ZM70.7489 12.999C70.7489 10.962 69.9397 9.00845 68.4993 7.56808C67.0589 6.12772 65.1054 5.31853 63.0684 5.31853C61.0314 5.31853 59.0778 6.12772 57.6375 7.56808C56.1971 9.00845 55.3879 10.962 55.3879 12.999C55.3879 15.036 56.1971 16.9896 57.6375 18.4299C59.0778 19.8703 61.0314 20.6795 63.0684 20.6795C65.1054 20.6795 67.0589 19.8703 68.4993 18.4299C69.9397 16.9896 70.7489 15.036 70.7489 12.999ZM48.568 12.999C48.568 16.3297 47.2449 19.524 44.8897 21.8792C42.5345 24.2343 39.3403 25.5574 36.0095 25.5574C32.6788 25.5574 29.4846 24.2343 27.1294 21.8792C24.7742 19.524 23.4511 16.3297 23.4511 12.999C23.4511 9.66891 24.774 6.47521 27.1287 4.12048C29.4835 1.76575 32.6772 0.442871 36.0072 0.442871C39.3373 0.442871 42.531 1.76575 44.8858 4.12048C47.2405 6.47521 48.5634 9.66891 48.5634 12.999H48.568ZM43.69 12.999C43.69 11.9904 43.4914 10.9916 43.1054 10.0598C42.7194 9.12797 42.1537 8.28128 41.4405 7.56808C40.7273 6.85489 39.8806 6.28915 38.9487 5.90317C38.0169 5.51719 37.0182 5.31853 36.0095 5.31853C35.0009 5.31853 34.0022 5.51719 33.0704 5.90317C32.1385 6.28915 31.2918 6.85489 30.5786 7.56808C29.8654 8.28128 29.2997 9.12797 28.9137 10.0598C28.5277 10.9916 28.3291 11.9904 28.3291 12.999C28.3291 15.036 29.1383 16.9896 30.5786 18.4299C32.019 19.8703 33.9726 20.6795 36.0095 20.6795C38.0465 20.6795 40.0001 19.8703 41.4405 18.4299C42.8808 16.9896 43.69 15.036 43.69 12.999Z" fill="black"/>
</svg>