<svg xmlns="http://www.w3.org/2000/svg" width="25" height="24" viewBox="0 0 25 24" fill="none">
  <path d="M11.7246 16.6895C11.7246 13.5125 14.3 10.9371 17.477 10.9371C20.654 10.9371 23.2294 13.5125 23.2294 16.6895H11.7246Z" fill="#8379C1" stroke="#454545" stroke-width="0.5"/>
  <path d="M11.7246 16.6895C11.7246 13.5125 14.3 10.9371 17.477 10.9371C20.654 10.9371 23.2294 13.5125 23.2294 16.6895" stroke="#454545" stroke-width="0.5" stroke-miterlimit="10" stroke-linecap="round" stroke-linejoin="round"/>
  <path d="M21.2938 7.81641C21.2938 9.92409 19.5852 11.6328 17.4774 11.6328C15.3698 11.6328 13.6611 9.92409 13.6611 7.81641C13.6611 5.70872 15.3698 4.00001 17.4774 4.00001C19.5852 4.00001 21.2938 5.70872 21.2938 7.81641Z" fill="#ACA6D6" stroke="#454545" stroke-width="0.5"/>
  <path d="M21.2938 7.81641C21.2938 9.92409 19.5852 11.6328 17.4774 11.6328C15.3698 11.6328 13.6611 9.92409 13.6611 7.81641C13.6611 5.70872 15.3698 4.00001 17.4774 4.00001C19.5852 4.00001 21.2938 5.70872 21.2938 7.81641Z" stroke="#454545" stroke-width="0.5" stroke-miterlimit="10" stroke-linecap="round" stroke-linejoin="round"/>
  <path d="M1.5 16.6895C1.5 13.5125 4.07544 10.9371 7.2524 10.9371C10.4294 10.9371 13.0048 13.5125 13.0048 16.6895H1.5Z" fill="#03C7DD" stroke="#454545" stroke-width="0.5"/>
  <path d="M1.5 16.6895C1.5 13.5125 4.07544 10.9371 7.2524 10.9371C10.4294 10.9371 13.0048 13.5125 13.0048 16.6895" stroke="#454545" stroke-width="0.5" stroke-miterlimit="10" stroke-linecap="round" stroke-linejoin="round"/>
  <path d="M11.0683 7.81641C11.0683 9.92409 9.35963 11.6328 7.25195 11.6328C5.14427 11.6328 3.43555 9.92409 3.43555 7.81641C3.43555 5.70872 5.14427 4.00001 7.25195 4.00001C9.35963 4.00001 11.0683 5.70872 11.0683 7.81641Z" fill="#A6E7F0" stroke="#454545" stroke-width="0.5"/>
  <path d="M11.0683 7.81641C11.0683 9.92409 9.35963 11.6328 7.25195 11.6328C5.14427 11.6328 3.43555 9.92409 3.43555 7.81641C3.43555 5.70872 5.14427 4.00001 7.25195 4.00001C9.35963 4.00001 11.0683 5.70872 11.0683 7.81641Z" stroke="#454545" stroke-width="0.5" stroke-miterlimit="10" stroke-linecap="round" stroke-linejoin="round"/>
  <path d="M6.61249 19.6343C6.61249 16.4573 9.18793 13.8819 12.3649 13.8819C15.5418 13.8819 18.1172 16.4573 18.1172 19.6343H6.61249Z" fill="#FDC031" stroke="#454545" stroke-width="0.5"/>
  <path d="M6.61249 19.6343C6.61249 16.4573 9.18793 13.8819 12.3649 13.8819C15.5418 13.8819 18.1172 16.4573 18.1172 19.6343" stroke="#454545" stroke-width="0.5" stroke-miterlimit="10" stroke-linecap="round" stroke-linejoin="round"/>
  <path d="M16.1815 10.7612C16.1815 12.8689 14.4729 14.5776 12.3651 14.5776C10.2574 14.5776 8.54883 12.8689 8.54883 10.7612C8.54883 8.65355 10.2574 6.94483 12.3651 6.94483C14.4729 6.94483 16.1815 8.65355 16.1815 10.7612Z" fill="#FFEEC7" stroke="#454545" stroke-width="0.5"/>
  <path d="M16.1815 10.7612C16.1815 12.8689 14.4729 14.5776 12.3651 14.5776C10.2574 14.5776 8.54883 12.8689 8.54883 10.7612C8.54883 8.65355 10.2574 6.94483 12.3651 6.94483C14.4729 6.94483 16.1815 8.65355 16.1815 10.7612Z" stroke="#454545" stroke-width="0.5" stroke-miterlimit="10" stroke-linecap="round" stroke-linejoin="round"/>
</svg>