<svg width="1440" height="1307" viewBox="0 0 1440 1307" fill="none" xmlns="http://www.w3.org/2000/svg">
<path opacity="0.91" d="M694.937 -438.068C708.549 -432.001 722.248 -425.909 736.035 -419.794C750.028 -413.6 764.148 -407.318 778.396 -400.949C792.881 -394.373 807.51 -387.662 822.281 -380.817C837.339 -373.669 852.539 -366.331 867.882 -358.802C883.559 -350.892 899.379 -342.776 915.342 -334.453C931.622 -325.686 948.061 -316.696 964.66 -307.483C981.528 -297.842 998.539 -287.986 1015.69 -277.916C1033.12 -267.433 1050.65 -256.776 1068.3 -245.943C1086.15 -234.777 1104.09 -223.476 1122.12 -212.04C1140.29 -200.398 1158.51 -188.676 1176.77 -176.875C1195.12 -164.994 1213.46 -153.113 1231.81 -141.232C1250.14 -129.399 1268.44 -117.646 1286.7 -105.971C1304.86 -94.4878 1322.92 -83.1471 1340.9 -71.9494C1358.69 -61.0852 1376.36 -50.4195 1393.91 -39.9524C1411.18 -29.93 1428.29 -20.1379 1445.23 -10.5762C1461.83 -1.53855 1478.23 7.24492 1494.43 15.7743C1494.58 33.5477 1493.88 51.3133 1492.36 69.0708C1489.23 86.8443 1485.38 104.618 1480.8 122.391C1475.01 140.149 1468.75 157.914 1462.03 175.688C1454.72 193.445 1447.31 211.211 1439.78 228.984C1432.39 246.758 1425.26 264.523 1418.38 282.281C1412.38 300.054 1406.95 317.82 1402.11 335.577C1398.66 353.351 1396.01 371.116 1394.15 388.874C1393.95 406.647 1394.58 424.413 1396.06 442.17C1399.14 459.944 1402.95 477.717 1407.49 495.491C1413.24 513.248 1419.46 531.014 1426.15 548.787C1433.44 566.545 1440.86 584.31 1448.4 602.084C1455.79 619.841 1462.93 637.607 1469.82 655.38C1475.86 673.138 1481.32 690.903 1486.21 708.677C1489.71 726.434 1492.42 744.2 1494.34 761.973C1494.59 779.747 1494.01 797.512 1492.6 815.27C1489.56 833.043 1485.8 850.809 1481.3 868.566C1463.21 877.985 1445.02 887.015 1426.72 895.655C1408.28 903.518 1389.79 910.991 1371.26 918.075C1352.64 924.412 1334.03 930.408 1315.44 936.063C1296.85 941.066 1278.32 945.799 1259.83 950.262C1241.47 954.265 1223.18 958.085 1204.98 961.722C1186.99 965.121 1169.1 968.449 1151.33 971.705C1133.82 974.977 1116.46 978.304 1099.25 981.688C1082.33 985.309 1065.57 989.121 1048.98 993.123C1032.71 997.587 1016.62 1002.34 1000.71 1007.37C985.125 1013.09 969.702 1019.17 954.439 1025.62C939.508 1032.86 924.737 1040.54 910.124 1048.64C895.813 1057.58 881.629 1066.96 867.573 1076.77C853.786 1087.45 840.102 1098.52 826.522 1109.99C813.148 1122.22 799.862 1134.79 786.663 1147.7C773.575 1161.2 760.551 1174.94 747.59 1188.92C734.677 1203.28 721.787 1217.75 708.922 1232.35C692.022 1229.62 675.225 1226.82 658.532 1223.96C642.045 1220.83 625.669 1217.52 609.405 1214C593.394 1209.99 577.495 1205.67 561.707 1201.07C546.142 1195.76 530.703 1190.08 515.391 1184.03C500.302 1177.16 485.316 1169.87 470.434 1162.16C455.742 1153.57 441.145 1144.56 426.643 1135.12C412.317 1124.86 398.061 1114.19 383.877 1103.12C369.821 1091.34 355.812 1079.23 341.85 1066.79C327.968 1053.78 314.118 1040.54 300.299 1027.07C286.513 1013.27 272.726 999.35 258.939 985.309C245.137 971.173 231.318 957.036 217.484 942.9C203.586 928.923 189.656 915.073 175.695 901.35C161.654 887.992 147.557 874.872 133.405 861.991C119.142 849.681 104.823 837.681 90.4487 825.991C75.9314 815.016 61.3584 804.406 46.7299 794.161C31.9584 784.71 17.1313 775.641 2.24857 766.953C3.04274 749.878 3.7019 732.804 4.22605 715.729C4.48019 698.654 4.58342 681.58 4.53577 664.505C4.20222 647.431 3.72572 630.356 3.10627 613.281C2.24857 596.207 1.27969 579.132 0.199621 562.058C-1.00751 544.983 -2.27023 527.909 -3.58855 510.834C-4.92275 493.759 -6.23312 476.677 -7.51967 459.586C-8.71092 442.512 -9.81481 425.437 -10.8313 408.363C-11.6255 391.288 -12.3006 374.214 -12.8565 357.139C-13.1106 340.064 -13.2218 322.99 -13.19 305.915C-12.8565 288.841 -12.3879 271.766 -11.7844 254.691C-10.9267 237.617 -9.96571 220.542 -8.90153 203.468C-7.67851 186.393 -6.41578 169.318 -5.11334 152.244C-3.77914 135.169 -2.46877 118.095 -1.18222 101.02C0.00903469 83.9456 1.12085 66.863 2.15327 49.7726C2.96332 32.698 3.64631 15.6234 4.20222 -1.45119C4.47224 -18.5258 4.59137 -35.6004 4.5596 -52.6749C19.9506 -61.109 35.2859 -69.2968 50.5657 -77.2385C65.7343 -84.6719 80.8473 -91.8909 95.9047 -98.8954C110.819 -105.487 125.662 -111.904 140.434 -118.146C155.062 -124.118 169.611 -129.971 184.081 -135.705C198.424 -141.296 212.695 -146.847 226.895 -152.359C240.967 -157.886 254.968 -163.437 268.898 -169.012C282.732 -174.746 296.519 -180.583 310.258 -186.524C323.918 -192.734 337.554 -199.095 351.166 -205.608C364.73 -212.501 378.294 -219.593 391.859 -226.883C405.423 -234.603 419.011 -242.536 432.623 -250.685C446.299 -259.277 460.014 -268.093 473.769 -277.13C487.651 -286.597 501.597 -296.262 515.606 -306.125C529.79 -316.37 544.061 -326.766 558.419 -337.312C573 -348.145 587.684 -359.088 602.472 -370.143C617.513 -381.373 632.666 -392.65 647.93 -403.975C671.374 -421.033 687.043 -432.398 694.937 -438.068Z" stroke="url(#paint0_linear_85_4199)" stroke-linecap="round" stroke-dasharray="3 5"/>
<path opacity="0.59" d="M738.173 -412.236C751.416 -405.644 764.753 -399.03 778.184 -392.395C791.848 -385.651 805.635 -378.829 819.544 -371.928C833.695 -364.806 847.975 -357.558 862.382 -350.184C877.042 -342.492 891.835 -334.626 906.762 -326.586C921.953 -318.164 937.275 -309.536 952.729 -300.702C968.413 -291.441 984.22 -281.966 1000.15 -272.278C1016.29 -262.147 1032.54 -251.805 1048.88 -241.249C1065.41 -230.286 1082.01 -219.135 1098.69 -207.797C1115.51 -196.133 1132.37 -184.315 1149.26 -172.344C1166.23 -160.147 1183.22 -147.852 1200.24 -135.461C1217.23 -122.959 1234.22 -110.434 1251.2 -97.8862C1268.09 -85.3426 1284.93 -72.8501 1301.71 -60.4088C1318.36 -48.1174 1334.92 -35.935 1351.38 -23.8615C1367.64 -12.0861 1383.77 -0.48488 1399.78 10.9422C1415.52 21.9724 1431.12 32.7874 1446.57 43.3873C1461.69 53.4915 1476.64 63.355 1491.42 72.9778C1489.79 90.1305 1487.41 107.24 1484.27 124.307C1479.69 141.276 1474.49 158.217 1468.66 175.131C1461.8 191.986 1454.56 208.819 1446.95 225.632C1438.89 242.418 1430.77 259.201 1422.61 275.982C1414.66 292.775 1406.98 309.583 1399.6 326.408C1393.06 343.281 1387.07 360.178 1381.63 377.098C1377.53 394.11 1374.16 411.163 1371.51 428.258C1370.42 445.441 1370.1 462.669 1370.55 479.94C1372.49 497.295 1375.1 514.69 1378.39 532.122C1382.84 549.621 1387.72 567.144 1393.03 584.692C1398.97 602.275 1405.03 619.858 1411.22 637.44C1417.36 655.035 1423.31 672.618 1429.05 690.191C1434.08 707.723 1438.62 725.226 1442.67 742.702C1445.48 760.108 1447.6 777.474 1449.01 794.8C1448.91 812.039 1448.02 829.234 1446.36 846.385C1443.16 863.448 1439.26 880.471 1434.65 897.454C1416.98 904.849 1399.22 911.872 1381.36 918.523C1363.36 924.451 1345.31 930.026 1327.21 935.247C1309.06 939.814 1290.88 944.077 1272.7 948.037C1254.54 951.474 1236.4 954.689 1218.29 957.683C1200.26 960.316 1182.29 962.825 1164.4 965.211C1146.65 967.446 1128.98 969.662 1111.41 971.859C1094.03 974.147 1076.76 976.529 1059.6 979.004C1042.67 981.779 1025.88 984.769 1009.21 987.972C992.807 991.668 976.527 995.657 960.374 999.94C944.502 1004.89 928.759 1010.21 913.147 1015.89C897.793 1022.35 882.575 1029.21 867.493 1036.49C852.636 1044.56 837.898 1053.06 823.28 1061.96C808.887 1071.66 794.592 1081.73 780.394 1092.19C766.38 1103.34 752.443 1114.8 738.584 1126.58C724.884 1138.93 711.234 1151.49 697.637 1164.27C684.146 1177.39 670.689 1190.63 657.265 1204C641.386 1200.39 625.63 1196.72 609.997 1193C594.598 1189.07 579.32 1184.97 564.163 1180.7C549.27 1175.99 534.503 1171.02 519.862 1165.8C505.479 1159.93 491.22 1153.74 477.083 1147.21C463.193 1139.96 449.422 1132.31 435.768 1124.26C422.334 1115.44 409.002 1106.23 395.772 1096.62C382.713 1086.23 369.731 1075.47 356.827 1064.33C344.04 1052.51 331.32 1040.37 318.667 1027.89C306.077 1014.86 293.516 1001.59 280.985 988.088C268.476 974.203 255.966 960.175 243.457 946.004C230.925 931.673 218.363 917.308 205.772 902.909C193.114 888.554 180.404 874.284 167.641 860.099C154.783 846.178 141.852 832.428 128.848 818.85C115.706 805.74 102.493 792.889 89.2098 780.297C75.7497 768.299 62.2155 756.623 48.6073 745.268C34.8167 734.604 20.9582 724.293 7.03185 714.337C8.6702 697.853 10.1654 681.369 11.5174 664.885C12.6007 648.369 13.525 631.852 14.2903 615.335C14.7711 598.785 15.1166 582.235 15.3268 565.686C15.3001 549.107 15.1778 532.531 14.9599 515.957C14.6161 499.36 14.2242 482.769 13.7843 466.182C13.3453 449.58 12.9376 432.988 12.5611 416.405C12.2807 399.812 12.0874 383.223 11.9815 366.64C12.1124 350.086 12.3628 333.531 12.7325 316.975C13.4027 300.452 14.216 283.929 15.1724 267.406C16.4452 250.917 17.8452 234.428 19.3725 217.937C21.1686 201.478 23.0761 185.018 25.095 168.555C27.2716 152.118 29.4962 135.675 31.7689 119.227C34.0882 102.798 36.4001 86.3605 38.7044 69.9144C40.9286 53.4797 43.074 37.0326 45.1405 20.573C47.0158 4.11845 48.7726 -12.3508 50.411 -28.8348C51.763 -45.3191 52.9727 -61.8196 54.0402 -78.336C69.43 -85.144 84.7675 -91.7323 100.053 -98.1008C115.202 -104.032 130.284 -109.775 145.301 -115.332C160.155 -120.563 174.946 -125.648 189.672 -130.584C204.244 -135.323 218.74 -139.986 233.16 -144.575C247.433 -149.076 261.633 -153.573 275.761 -158.067C289.749 -162.6 303.677 -167.2 317.545 -171.867C331.296 -176.716 345.005 -181.679 358.674 -186.756C372.247 -192.124 385.799 -197.66 399.328 -203.365C412.815 -209.438 426.289 -215.711 439.75 -222.183C453.219 -229.053 466.7 -236.145 480.193 -243.458C493.726 -251.184 507.303 -259.113 520.922 -267.247C534.645 -275.788 548.417 -284.51 562.24 -293.412C576.224 -302.638 590.289 -312.019 604.434 -321.555C618.752 -331.335 633.171 -341.206 647.69 -351.165C662.425 -361.288 677.274 -371.444 692.236 -381.633C715.142 -396.954 730.454 -407.155 738.173 -412.236Z" stroke="url(#paint1_linear_85_4199)" stroke-linecap="round" stroke-dasharray="9 7"/>
<path opacity="0.69" d="M779.807 -384.146C792.681 -377.048 805.654 -369.915 818.728 -362.747C832.047 -355.486 845.468 -348.142 858.992 -340.714C872.764 -333.082 886.641 -325.319 900.622 -317.423C914.84 -309.212 929.167 -300.846 943.605 -292.322C958.238 -283.409 972.968 -274.301 987.796 -264.997C1002.82 -255.288 1017.91 -245.363 1033.07 -235.222C1048.4 -224.663 1063.79 -213.905 1079.24 -202.948C1094.79 -191.579 1110.38 -180.023 1126 -168.279C1141.68 -156.193 1157.36 -143.963 1173.05 -131.587C1188.75 -118.956 1204.43 -106.221 1220.1 -93.3847C1235.71 -80.3955 1251.27 -67.3714 1266.79 -54.3124C1282.19 -41.2344 1297.53 -28.1803 1312.79 -15.1501C1327.88 -2.22045 1342.87 10.6107 1357.77 23.3434C1372.44 35.842 1387 48.1921 1401.45 60.3936C1415.62 72.2435 1429.66 83.8948 1443.57 95.3475C1457.17 106.348 1470.62 117.117 1483.93 127.654C1480.7 144.055 1476.78 160.377 1472.18 176.621C1466.33 192.723 1459.94 208.763 1453.01 224.742C1445.24 240.608 1437.16 256.448 1428.79 272.261C1420.09 288.038 1411.4 303.815 1402.71 319.592C1394.28 335.4 1386.15 351.233 1378.31 367.092C1371.31 383.062 1364.83 399.091 1358.87 415.18C1354.17 431.413 1350.14 447.723 1346.78 464.109C1344.84 480.642 1343.62 497.265 1343.12 513.977C1343.99 530.847 1345.48 547.787 1347.58 564.797C1350.75 581.929 1354.36 599.11 1358.38 616.34C1362.99 633.621 1367.76 650.927 1372.67 668.258C1377.58 685.589 1382.34 702.902 1386.95 720.199C1390.99 737.431 1394.61 754.614 1397.8 771.748C1399.93 788.746 1401.45 805.682 1402.36 822.555C1401.89 839.271 1400.7 855.905 1398.79 872.457C1395.48 888.849 1391.48 905.162 1386.8 921.397C1369.7 926.894 1352.53 932.047 1335.27 936.854C1317.89 941.007 1300.44 944.85 1282.95 948.383C1265.41 951.336 1247.85 954.037 1230.25 956.488C1212.66 958.492 1195.08 960.327 1177.49 961.996C1159.97 963.4 1142.48 964.719 1125.03 965.955C1107.66 967.152 1090.35 968.357 1073.11 969.569C1055.99 970.954 1038.94 972.452 1021.97 974.063C1005.17 976.029 988.452 978.212 971.824 980.613C955.374 983.546 939.019 986.77 922.759 990.284C906.679 994.458 890.703 998.988 874.83 1003.87C859.16 1009.5 843.581 1015.52 828.095 1021.92C812.807 1029.09 797.612 1036.64 782.51 1044.57C767.578 1053.26 752.726 1062.29 737.955 1071.67C723.364 1081.7 708.843 1092.03 694.392 1102.66C680.092 1113.78 665.848 1125.12 651.659 1136.67C637.61 1148.55 623.604 1160.53 609.642 1172.62C594.904 1168.26 580.276 1163.86 565.757 1159.4C551.497 1154.78 537.358 1150.01 523.341 1145.09C509.604 1139.81 495.991 1134.29 482.501 1128.53C469.28 1122.22 456.191 1115.61 443.233 1108.7C430.523 1101.14 417.926 1093.23 405.439 1084.98C393.196 1076 381.05 1066.66 369.001 1056.96C357.131 1046.54 345.348 1035.77 333.653 1024.65C322.082 1012.85 310.571 1000.76 299.118 988.353C287.745 975.4 276.399 962.202 265.081 948.759C253.779 934.903 242.478 920.887 231.18 906.711C219.858 892.325 208.505 877.863 197.12 863.326C185.659 848.764 174.137 834.235 162.556 819.739C150.86 805.406 139.094 791.201 127.257 777.124C115.255 763.379 103.171 749.849 91.0078 736.534C78.662 723.693 66.2216 711.122 53.6865 698.819C40.9706 687.119 28.1556 675.728 15.2414 664.645C17.644 648.789 19.9036 632.924 22.0204 617.052C23.8391 601.129 25.507 585.197 27.024 569.256C28.2589 553.266 29.3665 537.27 30.3471 521.268C31.1085 505.224 31.7822 489.179 32.3682 473.131C32.8298 457.053 33.2589 440.98 33.6555 424.911C34.0697 408.827 34.5067 392.755 34.9665 376.693C35.5543 360.63 36.228 344.584 36.9876 328.556C37.9857 312.54 39.1013 296.545 40.3343 280.571C41.8689 264.616 43.5526 248.686 45.3853 232.78C47.5038 216.892 49.7635 201.028 52.1643 185.187C54.8352 169.362 57.6077 153.556 60.4819 137.77C63.5473 121.99 66.667 106.223 69.8411 90.4715C73.0643 74.7091 76.2945 58.9556 79.5316 43.2108C82.7075 27.4431 85.8114 11.6751 88.8435 -4.09309C91.7195 -19.8951 94.4762 -35.7027 97.1137 -51.5159C108.173 -77.9415 125.624 -98.8731 149.464 -114.311C164.479 -118.815 179.428 -123.166 194.311 -127.365C209.036 -131.295 223.685 -135.121 238.258 -138.844C252.689 -142.439 267.051 -145.986 281.343 -149.485C295.489 -152.969 309.566 -156.469 323.572 -159.985C337.447 -163.612 351.26 -167.326 365.011 -171.127C378.673 -175.129 392.286 -179.266 405.851 -183.536C419.338 -188.102 432.796 -192.839 446.226 -197.748C459.603 -203.031 472.978 -208.513 486.353 -214.195C499.707 -220.263 513.077 -226.538 526.463 -233.018C539.879 -239.911 553.326 -246.992 566.801 -254.261C580.35 -261.89 593.951 -269.696 607.605 -277.681C621.389 -285.97 635.227 -294.389 649.121 -302.938C663.184 -311.707 677.328 -320.562 691.555 -329.505C705.971 -338.569 720.478 -347.663 735.077 -356.786C757.391 -370.48 772.302 -379.6 779.807 -384.146Z" stroke="url(#paint2_linear_85_4199)" stroke-linecap="round"/>
<path opacity="0.5" d="M819.773 -353.759C832.263 -346.176 844.85 -338.551 857.536 -330.886C870.445 -323.118 883.454 -315.268 896.561 -307.337C909.876 -299.209 923.289 -290.951 936.801 -282.563C950.473 -273.89 964.229 -265.049 978.07 -256.041C992.078 -246.697 1006.14 -237.167 1020.26 -227.449C1034.51 -217.339 1048.8 -207.028 1063.14 -196.515C1077.56 -185.603 1091.99 -174.493 1106.45 -163.186C1120.94 -151.503 1135.44 -139.641 1149.96 -127.6C1164.42 -115.211 1178.87 -102.681 1193.31 -90.0084C1207.68 -77.0725 1222.01 -64.0309 1236.3 -50.8839C1250.46 -37.5808 1264.56 -24.2246 1278.59 -10.8152C1292.47 2.64817 1306.26 16.0967 1319.97 29.5304C1333.48 42.8978 1346.88 56.1993 1360.19 69.435C1373.27 82.471 1386.24 95.3746 1399.09 108.146C1411.69 120.615 1424.16 132.909 1436.5 145.027C1452.15 170.159 1458.82 197.087 1456.5 225.811C1449.54 240.939 1442.13 255.99 1434.27 270.961C1425.71 285.815 1416.93 300.636 1407.92 315.427C1398.72 330.17 1389.56 344.919 1380.45 359.675C1371.64 374.485 1363.13 389.354 1354.92 404.282C1347.52 419.335 1340.62 434.473 1334.21 449.695C1328.94 465.115 1324.31 480.644 1320.31 496.281C1317.61 512.159 1315.56 528.14 1314.16 544.226C1314.01 560.527 1314.43 576.926 1315.42 593.424C1317.42 610.111 1319.8 626.856 1322.58 643.662C1325.94 660.567 1329.45 677.499 1333.12 694.458C1336.85 711.444 1340.47 728.403 1343.99 745.335C1347.06 762.192 1349.78 778.986 1352.14 795.719C1353.58 812.311 1354.49 828.802 1354.85 845.192C1354.02 861.374 1352.53 877.445 1350.39 893.404C1346.95 909.154 1342.88 924.787 1338.16 940.3C1321.79 944.073 1305.35 947.535 1288.84 950.686C1272.22 953.238 1255.54 955.522 1238.8 957.538C1222 959.06 1205.16 960.375 1188.29 961.482C1171.4 962.231 1154.5 962.857 1137.59 963.36C1120.67 963.67 1103.77 963.941 1086.87 964.173C1070.02 964.413 1053.19 964.705 1036.38 965.05C1019.66 965.585 1002.96 966.271 986.3 967.107C969.72 968.297 953.189 969.712 936.709 971.354C920.329 973.528 904.013 975.996 887.758 978.756C871.608 982.131 855.526 985.856 839.512 989.931C823.605 994.701 807.772 999.831 792.015 1005.32C776.374 1011.54 760.808 1018.12 745.316 1025.05C729.95 1032.67 714.648 1040.62 699.41 1048.89C684.324 1057.78 669.297 1066.93 654.331 1076.35C639.489 1086.25 624.72 1096.34 610.023 1106.62C595.449 1117.22 580.938 1127.92 566.488 1138.72C552.908 1133.72 539.446 1128.7 526.101 1123.64C513.008 1118.44 500.033 1113.11 487.176 1107.65C462.36 1095.47 437.933 1082.56 413.895 1068.94C402.294 1061.16 390.818 1053.07 379.469 1044.66C368.329 1035.61 357.294 1026.22 346.364 1016.5C335.615 1006.11 324.954 995.391 314.381 984.35C303.932 972.687 293.534 960.725 283.187 948.467C272.934 935.66 262.716 922.61 252.531 909.315C242.354 895.603 232.192 881.708 222.046 867.63C211.849 853.286 201.627 838.849 191.382 824.319C181.074 809.682 170.703 795.034 160.27 780.375C149.727 765.794 139.106 751.288 128.408 736.858C117.558 722.659 106.615 708.621 95.5793 694.745C84.367 681.241 73.053 667.954 61.6372 654.883C50.023 642.309 38.3132 630.009 26.508 617.982C29.578 602.781 32.5071 587.555 35.2954 572.305C37.8019 557.006 40.1584 541.69 42.3648 526.355C44.2922 510.957 46.1021 495.538 47.7947 480.099C49.2838 464.625 50.6945 449.138 52.0271 433.637C53.2657 418.12 54.4717 402.605 55.645 387.093C56.8367 371.568 58.0675 356.049 59.3374 340.538C60.7326 325.048 62.2217 309.574 63.8047 294.116C65.5912 278.693 67.5093 263.301 69.5592 247.94C71.8935 232.612 74.3766 217.309 77.0083 202.032C79.9218 186.803 82.9761 171.599 86.1714 156.419C89.6327 141.285 93.2022 126.177 96.88 111.096C100.733 96.0295 104.656 80.9748 108.649 65.9323C112.721 50.9033 116.793 35.8742 120.865 20.8452C124.902 5.82639 128.895 -9.20826 132.841 -24.2589C136.616 -39.3391 140.296 -54.4356 143.883 -69.5482C156.269 -94.2014 174.449 -113.005 198.423 -125.96C213.198 -129.12 227.906 -132.163 242.545 -135.089C257.039 -137.83 271.473 -140.501 285.846 -143.102C300.06 -145.618 314.215 -148.119 328.311 -150.607C342.271 -153.15 356.173 -155.727 370.016 -158.339C383.725 -161.102 397.395 -163.97 411.026 -166.94C424.551 -170.138 438.037 -173.48 451.483 -176.966C464.858 -180.787 478.204 -184.773 491.523 -188.926C504.824 -193.436 518.101 -198.144 531.356 -203.049C544.614 -208.34 557.881 -213.831 571.159 -219.522C584.452 -225.581 597.77 -231.829 611.111 -238.266C624.51 -245.032 637.945 -251.961 651.416 -259.053C664.982 -266.418 678.602 -273.912 692.277 -281.532C706.081 -289.341 719.946 -297.227 733.874 -305.191C747.948 -313.259 762.099 -321.354 776.328 -329.476C798.005 -341.633 812.486 -349.727 819.773 -353.759Z" stroke="url(#paint3_linear_85_4199)" stroke-linecap="round" stroke-dasharray="1 2"/>
<path opacity="0.97" d="M857.936 -321.137C869.995 -313.08 882.15 -304.984 894.402 -296.849C906.841 -288.607 919.368 -280.286 931.983 -271.888C944.763 -263.289 957.623 -254.574 970.561 -245.743C983.616 -236.64 996.734 -227.384 1009.91 -217.975C1023.16 -208.24 1036.47 -198.33 1049.81 -188.246C1063.2 -177.812 1076.6 -167.194 1090.03 -156.391C1103.45 -145.214 1116.87 -133.842 1130.29 -122.276C1143.66 -110.377 1156.99 -98.3071 1170.3 -86.0647C1183.53 -73.4973 1196.71 -60.7866 1209.85 -47.9324C1222.86 -34.8294 1235.8 -21.6194 1248.68 -8.30229C1261.39 5.17188 1274.01 18.7073 1286.55 32.304C1298.89 45.9696 1311.14 59.6387 1323.3 73.3113C1335.25 86.9338 1347.08 100.514 1358.8 114.052C1370.29 127.424 1381.67 140.696 1392.94 153.868C1403.97 166.774 1414.9 179.525 1425.71 192.119C1438.47 217.571 1442.44 244.063 1437.64 271.595C1429.73 285.693 1421.45 299.714 1412.81 313.658C1403.63 327.462 1394.29 341.228 1384.79 354.957C1375.19 368.68 1365.66 382.411 1356.2 396.15C1347.12 409.975 1338.32 423.875 1329.8 437.848C1322.08 451.989 1314.81 466.235 1308 480.587C1302.25 495.201 1297.09 509.942 1292.51 524.81C1289.1 539.95 1286.28 555.233 1284.05 570.661C1282.96 586.338 1282.4 602.137 1282.37 618.057C1283.23 634.201 1284.47 650.425 1286.09 666.729C1288.26 683.158 1290.58 699.633 1293.07 716.152C1295.67 732.682 1298.2 749.197 1300.67 765.698C1302.77 782.128 1304.59 798.485 1306.12 814.767C1306.89 830.874 1307.19 846.881 1307.03 862.788C1305.81 878.433 1304.02 893.947 1301.67 909.331C1287.99 932.984 1268.25 949.911 1242.45 960.111C1226.67 961.27 1210.85 962.189 1194.98 962.867C1179.02 963.151 1163.02 963.256 1147 963.182C1130.88 962.86 1114.75 962.443 1098.6 961.933C1082.41 961.299 1066.2 960.663 1049.98 960.022C1033.73 959.44 1017.48 958.931 1001.23 958.495C984.975 958.287 968.726 958.227 952.484 958.315C936.233 958.793 920.002 959.503 903.79 960.446C887.61 961.885 871.447 963.605 855.3 965.607C839.194 968.205 823.112 971.126 807.052 974.37C791.069 978.268 775.114 982.506 759.185 987.085C743.33 992.333 727.514 997.908 711.735 1003.81C696.053 1010.35 680.417 1017.19 664.826 1024.33C649.334 1032.02 633.898 1039.97 618.518 1048.16C603.266 1056.8 588.061 1065.61 572.903 1074.61C544.258 1085.88 517.034 1089.74 491.231 1086.2C467.705 1074.51 444.52 1062.4 421.676 1049.87C400.045 1035.28 378.756 1019.91 357.811 1003.76C347.715 994.695 337.714 985.321 327.809 975.643C318.096 965.341 308.452 954.745 298.875 943.855C289.454 932.365 280.091 920.587 270.787 908.521C261.57 895.938 252.385 883.109 243.233 870.035C234.115 856.528 225 842.835 215.888 828.955C206.766 814.763 197.621 800.459 188.453 786.045C179.212 771.45 169.932 756.814 160.613 742.136C151.182 727.448 141.678 712.793 132.102 698.17C122.378 683.691 112.565 669.315 102.663 655.04C92.5819 641.05 82.4032 627.233 72.1274 613.589C61.6656 600.326 51.0942 587.29 40.413 574.481C44.0881 559.942 47.6222 545.377 51.0152 530.789C54.1178 516.117 57.0793 501.42 59.8998 486.699C62.4917 471.909 64.958 457.097 67.2988 442.265C69.4729 427.378 71.5679 412.481 73.5837 397.574C75.5411 382.636 77.4736 367.702 79.3811 352.769C81.3076 337.825 83.2788 322.899 85.2946 307.992C87.4532 293.101 89.697 278.23 92.0258 263.379C94.5678 248.593 97.2353 233.828 100.028 219.085C103.096 204.421 106.313 189.783 109.679 175.172C113.319 160.641 117.101 146.134 121.024 131.652C125.191 117.242 129.475 102.852 133.878 88.4803C138.462 74.1675 143.118 59.8631 147.845 45.567C152.666 31.2924 157.499 17.0292 162.347 2.77722C167.167 -11.4974 171.955 -25.7713 176.709 -40.0448C181.313 -54.3695 185.837 -68.7044 190.283 -83.0495C203.841 -105.915 222.575 -122.651 246.485 -133.257C260.938 -135.194 275.329 -137.039 289.658 -138.793C303.842 -140.417 317.979 -142.011 332.069 -143.576C359.809 -146.709 387.382 -149.97 414.79 -153.359C441.732 -157.622 468.562 -162.287 495.282 -167.351C521.719 -174.014 548.118 -181.215 574.478 -188.955C587.625 -193.493 600.781 -198.208 613.946 -203.101C627.13 -208.364 640.322 -213.796 653.52 -219.399C666.778 -225.329 680.06 -231.401 693.367 -237.614C706.738 -244.105 720.15 -250.701 733.602 -257.402C747.147 -264.294 760.734 -271.257 774.362 -278.292C788.107 -285.414 801.914 -292.555 815.782 -299.714C836.816 -310.431 850.867 -317.572 857.936 -321.137Z" stroke="url(#paint4_linear_85_4199)" stroke-linecap="round" stroke-dasharray="4 5"/>
<path opacity="0.9" d="M894.056 -286.309C905.638 -277.811 917.302 -269.281 929.047 -260.719C940.942 -252.046 952.913 -243.294 964.96 -234.462C977.12 -225.447 989.331 -216.327 1001.59 -207.101C1013.95 -197.632 1026.33 -188.023 1038.74 -178.274C1051.2 -168.23 1063.65 -158.029 1076.11 -147.669C1088.58 -136.977 1101.02 -126.119 1113.43 -115.094C1125.82 -103.731 1138.16 -92.2052 1150.46 -80.5175C1162.67 -68.4944 1174.82 -56.3134 1186.92 -43.9746C1198.87 -31.3486 1210.75 -18.5846 1222.57 -5.68239C1234.2 7.44781 1245.75 20.6844 1257.21 34.0273C1268.47 47.5284 1279.63 61.0986 1290.68 74.738C1301.54 88.4352 1312.28 102.154 1322.89 115.896C1333.29 129.61 1343.59 143.3 1353.78 156.967C1363.72 170.498 1373.56 183.946 1383.29 197.314C1392.8 210.468 1402.2 223.491 1411.49 236.383C1421.5 261.863 1423 287.677 1415.99 313.825C1407.31 326.861 1398.35 339.813 1389.09 352.68C1379.43 365.427 1369.65 378.142 1359.77 390.826C1349.89 403.526 1340.1 416.245 1330.41 428.982C1321.11 441.836 1312.09 454.772 1303.35 467.791C1295.35 481.023 1287.78 494.382 1280.64 507.868C1274.48 521.64 1268.84 535.57 1263.71 549.66C1259.66 564.046 1256.15 578.591 1253.17 593.293C1251.24 608.299 1249.77 623.44 1248.76 638.718C1248.59 654.24 1248.77 669.863 1249.29 685.586C1250.34 701.464 1251.55 717.398 1252.92 733.385C1254.44 749.402 1255.93 765.408 1257.37 781.403C1258.56 797.321 1259.52 813.173 1260.26 828.959C1260.36 844.561 1260.07 860.046 1259.36 875.412C1257.78 890.52 1255.68 905.479 1253.08 920.289C1239.73 942.336 1220.86 957.315 1196.46 965.225C1181.61 965.173 1166.72 964.924 1151.77 964.478C1136.73 963.69 1121.64 962.78 1106.5 961.748C1091.26 960.504 1075.98 959.199 1060.66 957.833C1045.27 956.414 1029.84 955.014 1014.35 953.634C998.798 952.331 983.207 951.126 967.579 950.017C951.895 949.157 936.176 948.444 920.423 947.878C904.619 947.71 888.795 947.753 872.952 948.004C857.062 948.755 841.161 949.768 825.251 951.042C809.306 952.886 793.357 955.026 777.405 957.463C761.44 960.509 745.476 963.861 729.514 967.52C713.574 971.781 697.646 976.343 681.729 981.206C665.854 986.661 650.01 992.381 634.195 998.367C618.445 1004.87 602.728 1011.59 587.045 1018.54C571.473 1025.91 555.95 1033.44 540.476 1041.15C511.901 1050.26 485.499 1052.41 461.268 1047.61C439.941 1035.26 418.93 1022.53 398.234 1009.43C378.626 994.537 359.33 978.945 340.344 962.657C322.34 943.744 304.591 923.986 287.097 903.386C278.608 892.118 270.172 880.584 261.789 868.785C253.507 856.469 245.271 843.91 237.081 831.108C228.916 817.883 220.766 804.464 212.631 790.851C204.494 776.907 196.342 762.817 188.174 748.581C179.963 734.152 171.717 719.646 163.436 705.063C155.061 690.403 146.62 675.741 138.115 661.076C129.48 646.457 120.775 631.907 112 617.429C103.04 603.128 93.9969 588.943 84.8701 574.874C75.5341 561.125 66.1065 547.548 56.5873 534.143C60.7878 520.279 64.8489 506.382 68.7705 492.453C72.4222 478.429 75.942 464.374 79.33 450.29C82.4938 436.123 85.5486 421.932 88.4945 407.718C91.2924 393.444 94.027 379.16 96.6985 364.866C99.3135 350.539 101.911 336.215 104.491 321.894C107.121 307.571 109.787 293.267 112.489 278.981C115.333 264.721 118.266 250.495 121.288 236.303C124.528 222.158 127.89 208.049 131.374 193.976C135.128 179.998 139.013 166.05 143.031 152.133C147.334 138.316 151.768 124.528 156.335 110.771C161.156 97.1052 166.086 83.4627 171.125 69.8438C176.357 56.2981 181.669 42.7671 187.058 29.2506C192.535 15.7762 198.037 2.30078 203.564 -11.1756C209.086 -24.6366 214.588 -38.112 220.069 -51.6017C225.439 -65.1073 230.727 -78.6451 235.934 -92.215C250.491 -113.262 269.612 -127.987 293.298 -136.388C307.352 -137.196 321.347 -137.946 335.284 -138.639C362.786 -139.885 390.151 -141.171 417.379 -142.497C444.187 -144.426 470.881 -146.67 497.459 -149.228C523.787 -153.134 550.05 -157.531 576.25 -162.417C602.349 -169.054 628.441 -176.231 654.524 -183.948C667.596 -188.418 680.667 -193.055 693.736 -197.856C706.855 -202.942 719.984 -208.173 733.122 -213.551C746.312 -219.161 759.526 -224.881 772.763 -230.71C786.069 -236.717 799.4 -242.783 812.757 -248.907C826.186 -255.11 839.657 -261.342 853.169 -267.603C873.597 -276.973 887.226 -283.208 894.056 -286.309Z" stroke="url(#paint5_linear_85_4199)" stroke-linecap="round" stroke-dasharray="8 5"/>
<path opacity="0.33" d="M927.912 -249.352C938.917 -240.472 949.995 -231.558 961.144 -222.61C972.422 -213.549 983.746 -204.43 995.118 -195.251C1006.58 -185.891 1018.07 -176.434 1029.59 -166.881C1041.14 -157.101 1052.7 -147.206 1064.28 -137.195C1075.84 -126.923 1087.37 -116.508 1098.87 -105.951C1110.34 -95.1025 1121.77 -84.1096 1133.15 -72.9719C1144.43 -61.5348 1155.64 -49.9506 1166.8 -38.2195C1177.81 -26.1847 1188.75 -14.0082 1199.62 -1.68991C1210.29 10.8808 1220.86 23.5778 1231.35 36.4011C1241.63 49.4416 1251.81 62.5779 1261.88 75.8101C1271.73 89.2039 1281.47 102.656 1291.08 116.165C1300.46 129.761 1309.73 143.385 1318.89 157.036C1327.82 170.688 1336.62 184.315 1345.31 197.918C1353.77 211.44 1362.13 224.9 1370.39 238.298C1378.43 251.521 1386.38 264.649 1394.22 277.683C1401.66 302.89 1400.91 327.806 1391.98 352.429C1382.71 364.391 1373.21 376.264 1363.48 388.046C1353.46 399.742 1343.39 411.41 1333.25 423.049C1323.18 434.724 1313.22 446.442 1303.38 458.202C1293.93 470.085 1284.76 482.074 1275.87 494.169C1267.66 506.509 1259.85 518.982 1252.44 531.588C1245.93 544.528 1239.88 557.625 1234.3 570.88C1229.68 584.495 1225.54 598.28 1221.89 612.235C1219.16 626.504 1216.86 640.933 1214.99 655.52C1213.86 670.374 1213.06 685.334 1212.58 700.401C1212.59 715.658 1212.76 730.963 1213.09 746.317C1213.59 761.75 1214.1 777.182 1214.6 792.615C1214.9 807.958 1215.02 823.247 1214.97 838.483C1214.42 853.524 1213.53 868.454 1212.32 883.276C1210.34 897.811 1207.93 912.2 1205.08 926.442C1192.12 946.988 1174.16 960.231 1151.21 966.17C1137.34 965.106 1123.42 963.881 1109.45 962.495C1095.36 960.844 1081.21 959.097 1067 957.254C1052.68 955.272 1038.3 953.25 1023.84 951.185C1009.29 949.134 994.66 947.102 979.97 945.088C965.161 943.218 950.296 941.437 935.373 939.745C920.325 938.312 905.221 937.036 890.061 935.918C874.773 935.159 859.439 934.602 844.058 934.248C828.563 934.358 813.033 934.71 797.468 935.301C781.788 936.408 766.08 937.783 750.344 939.427C734.541 941.636 718.711 944.114 702.853 946.861C686.964 950.169 671.065 953.743 655.156 957.584C639.232 961.941 623.317 966.555 607.413 971.425C591.541 976.728 575.687 982.24 559.851 987.961C544.084 994.059 528.364 1000.31 512.691 1006.71C484.357 1013.69 458.849 1014.23 436.166 1008.34C416.949 995.479 397.994 982.311 379.302 968.831C361.57 953.736 344.127 938.02 326.972 921.681C310.687 902.988 294.65 883.523 278.862 863.287C271.215 852.262 263.629 840.99 256.107 829.47C248.674 817.46 241.288 805.221 233.95 792.756C226.665 779.854 219.399 766.757 212.152 753.464C204.912 739.819 197.675 726.024 190.44 712.078C183.185 697.906 175.899 683.631 168.583 669.251C161.199 654.73 153.768 640.175 146.29 625.586C138.711 610.996 131.067 596.424 123.357 581.872C115.495 567.416 107.553 553.042 99.5317 538.75C89.4879 511.165 85.7283 483.992 88.2529 457.229C92.3856 443.881 96.4012 430.483 100.3 417.035C103.989 403.513 107.585 389.966 111.089 376.395C114.449 362.756 117.761 349.108 121.026 335.451C124.251 321.764 127.468 308.074 130.678 294.382C133.928 280.72 137.232 267.07 140.592 253.431C144.072 239.834 147.638 226.276 151.292 212.758C155.16 199.299 159.146 185.891 163.249 172.532C167.611 159.249 172.101 146.011 176.718 132.818C181.614 119.741 186.633 106.699 191.773 93.692C197.169 80.7754 202.674 67.9062 208.288 55.0843C214.088 42.3113 219.959 29.5722 225.903 16.8673C231.972 4.18988 238.071 -8.47691 244.199 -21.1331C250.338 -33.7689 256.456 -46.4203 262.555 -59.087C268.594 -71.7751 274.563 -84.4795 280.462 -97.2004C295.857 -116.443 315.211 -129.249 338.524 -135.619C365.563 -135.153 392.472 -134.658 419.254 -134.132C445.705 -133.96 472.058 -134.008 498.312 -134.276C524.372 -135.659 550.379 -137.464 576.335 -139.693C602.186 -143.526 628.032 -147.866 653.872 -152.714C679.711 -159.265 705.569 -166.298 731.447 -173.813C757.407 -182.748 783.404 -192.024 809.438 -201.641C822.513 -206.757 835.595 -211.938 848.684 -217.185C861.819 -222.516 874.979 -227.872 888.166 -233.252C908.015 -241.306 921.264 -246.673 927.912 -249.352Z" stroke="url(#paint6_linear_85_4199)" stroke-linecap="round" stroke-dasharray="5 3"/>
<path opacity="0.28" d="M959.081 -210.429C979.934 -191.96 1000.96 -173.313 1022.17 -154.49C1043.52 -135.07 1064.86 -115.277 1086.18 -95.1087C1107.31 -74.0444 1128.22 -52.4824 1148.93 -30.4226C1169.08 -7.33698 1188.87 16.26 1208.3 40.3683C1226.91 65.4062 1245.06 90.8373 1262.75 116.661C1279.47 143.076 1295.7 169.665 1311.45 196.429C1326.25 223.261 1340.62 249.988 1354.55 276.607C1367.69 302.723 1380.49 328.445 1392.94 353.773C1375.01 376.144 1356.15 398.126 1336.37 419.72C1315.84 441.001 1295.54 462.377 1275.47 483.848C1256.98 505.97 1239.75 528.628 1223.78 551.823C1210.98 576.354 1199.9 601.606 1190.53 627.578C1184.43 654.923 1179.67 682.837 1176.28 711.321C1174.71 740.574 1173.51 769.981 1172.68 799.543C1171.35 828.915 1169.23 857.942 1166.3 886.623C1160.84 914.238 1153.78 941.183 1145.13 967.457C1119.72 964.613 1094.08 961.179 1068.2 957.156C1041.82 952.333 1015.15 947.332 988.212 942.155C960.651 937.096 932.759 932.312 904.537 927.802C875.675 924.28 846.476 921.436 816.941 919.269C786.817 918.75 756.408 919.153 725.715 920.479C694.58 923.755 663.274 928.012 631.798 933.247C600.143 940.303 568.469 948.16 536.777 956.82C505.235 966.801 473.852 977.244 442.628 988.151C424.764 975.315 407.158 962.338 389.81 949.219C373.067 935.356 356.65 920.923 340.559 905.921C325.132 889.423 310.026 872.077 295.241 853.886C281.059 833.81 267.146 812.789 253.501 790.82C240.278 767.03 227.2 742.405 214.266 716.944C201.474 690.079 188.679 662.67 175.88 634.716C162.916 606.09 149.785 577.308 136.487 548.369C122.756 519.558 108.722 491.016 94.3861 462.743C104.228 437.659 113.608 412.38 122.527 386.908C130.684 361.115 138.608 335.224 146.297 309.235C153.854 283.19 161.511 257.195 169.267 231.251C177.571 205.52 186.271 179.955 195.365 154.557C205.427 129.565 215.985 104.782 227.042 80.2083C239.03 56.0435 251.386 32.0252 264.112 8.15355C277.307 -15.5211 290.574 -39.1649 303.915 -62.778C317.015 -86.4749 329.848 -110.293 342.413 -134.232C368.738 -132.26 394.922 -130.176 420.964 -127.978C446.807 -125.882 472.572 -123.99 498.26 -122.304C523.839 -121.3 549.38 -120.761 574.883 -120.685C600.363 -121.74 625.844 -123.413 651.327 -125.707C676.845 -129.312 702.378 -133.567 727.924 -138.47C753.527 -144.572 779.139 -151.206 804.757 -158.37C830.427 -166.392 856.118 -174.732 881.831 -183.39C920.452 -196.89 946.202 -205.903 959.081 -210.429Z" stroke="url(#paint7_linear_85_4199)" stroke-linecap="round" stroke-dasharray="4 6"/>
<path opacity="0.69" d="M987.275 -169.803C1006.65 -150.849 1026.13 -131.748 1045.71 -112.498C1065.31 -92.7791 1084.82 -72.7401 1104.25 -52.3807C1123.32 -31.2793 1142.12 -9.7601 1160.65 12.177C1178.5 34.9654 1195.94 58.1907 1212.98 81.8529C1229.1 106.304 1244.72 131.108 1259.86 156.265C1273.99 181.955 1287.64 207.821 1300.78 233.861C1312.98 260.016 1324.73 286.118 1336.06 312.168C1346.64 337.854 1356.91 363.241 1366.89 388.328C1347.99 408.49 1328.4 428.306 1308.13 447.776C1287.44 467.044 1267.06 486.469 1246.98 506.051C1228.46 526.38 1211.1 547.284 1194.9 568.765C1181.54 591.62 1169.7 615.222 1159.36 639.571C1151.95 665.329 1145.73 691.677 1140.73 718.614C1137.41 746.397 1134.48 774.361 1131.94 802.506C1129.14 830.539 1125.73 858.266 1121.71 885.685C1115.59 912.099 1108.14 937.851 1099.35 962.939C1075.9 958.626 1052.2 953.843 1028.27 948.589C1003.79 942.751 978.978 936.823 953.843 930.806C927.978 924.98 901.721 919.448 875.072 914.211C847.637 909.898 819.783 906.202 791.513 903.125C762.474 901.51 733.083 900.705 703.341 900.709C672.974 902.423 642.352 904.985 611.474 908.395C580.284 913.384 549.003 919.081 517.633 925.485C486.295 933.019 455.066 940.978 423.948 949.362C408.028 936.253 392.299 923.007 376.76 909.625C361.713 895.599 346.931 881.049 332.415 865.974C318.47 849.587 304.823 832.427 291.475 814.494C278.674 794.865 266.135 774.374 253.858 753.022C242.035 729.946 230.379 706.077 218.89 681.415C207.624 655.358 196.413 628.736 185.257 601.549C174.023 573.546 162.71 545.309 151.315 516.838C139.579 488.271 127.624 459.826 115.45 431.504C125.955 407.786 136.05 383.858 145.734 359.721C154.755 335.278 163.59 310.743 172.241 286.118C180.812 261.436 189.501 236.821 198.308 212.273C207.629 187.975 217.335 163.866 227.426 139.946C238.423 116.451 249.894 93.1968 261.84 70.1836C274.657 47.5961 287.844 25.1901 301.402 2.96549C315.438 -19.0431 329.563 -40.9991 343.778 -62.9027C357.878 -84.862 371.765 -106.926 385.437 -129.095C410.545 -125.443 435.588 -121.769 460.568 -118.073C485.439 -114.589 510.294 -111.361 535.133 -108.389C559.979 -106.155 584.843 -104.391 609.723 -103.095C634.694 -102.887 659.699 -103.272 684.737 -104.251C709.871 -106.474 735.032 -109.293 760.22 -112.71C785.483 -117.257 810.756 -122.294 836.038 -127.821C861.321 -134.179 886.587 -140.829 911.836 -147.769C949.581 -158.747 974.727 -166.092 987.275 -169.803Z" stroke="url(#paint8_linear_85_4199)" stroke-linecap="round" stroke-dasharray="8 2"/>
<path opacity="0.17" d="M1012.09 -127.751C1029.84 -108.528 1047.63 -89.1809 1065.46 -69.7114C1083.19 -49.8767 1100.77 -29.7898 1118.2 -9.45049C1135.19 11.493 1151.85 32.759 1168.2 54.3475C1183.8 76.6606 1198.95 99.3257 1213.65 122.343C1227.42 146.033 1240.67 170.018 1253.41 194.299C1265.14 219.05 1276.37 243.976 1287.1 269.077C1296.9 294.325 1306.27 319.567 1315.23 344.804C1323.49 369.807 1331.46 394.605 1339.14 419.196C1319.61 437.172 1299.58 454.872 1279.06 472.295C1258.42 489.649 1238.13 507.2 1218.2 524.95C1199.77 543.548 1182.39 562.734 1166.06 582.506C1152.26 603.702 1139.8 625.649 1128.67 648.346C1120.09 672.474 1112.58 697.206 1106.15 722.54C1101.27 748.745 1096.78 775.172 1092.69 801.821C1088.51 828.423 1083.89 854.772 1078.81 880.869C1072.07 906.032 1064.22 930.569 1055.25 954.479C1033.69 949.017 1011.89 943.203 989.85 937.035C967.202 930.49 944.194 923.906 920.825 917.283C896.639 910.912 872.017 904.834 846.958 899.047C820.99 894.098 794.559 889.7 767.664 885.851C739.854 883.274 711.63 881.403 682.991 880.237C653.601 880.507 623.905 881.498 593.905 883.21C563.455 886.274 532.852 889.934 502.096 894.192C471.265 899.427 440.49 905.032 409.773 911.005C395.62 897.736 381.609 884.328 367.74 870.781C354.227 856.633 340.928 842.022 327.843 826.948C315.257 810.697 302.924 793.75 290.845 776.107C279.308 756.948 268.02 736.99 256.98 716.233C246.407 693.899 236.034 670.82 225.86 646.998C215.985 621.831 206.206 596.089 196.522 569.773C186.894 542.577 177.252 515.082 167.597 487.287C157.734 459.213 147.729 431.149 137.581 403.096C148.664 380.738 159.368 358.177 169.696 335.413C179.49 312.331 189.133 289.164 198.623 265.912C208.099 242.651 217.7 219.461 227.426 196.341C237.664 173.508 248.258 150.885 259.208 128.47C271.011 106.517 283.25 84.8084 295.926 63.3448C309.446 42.3558 323.312 21.5612 337.524 0.961105C352.228 -19.3451 367.052 -39.5922 381.999 -59.78C396.904 -79.9912 411.642 -100.296 426.215 -120.694C450.077 -115.597 473.925 -110.555 497.757 -105.567C521.604 -100.898 545.497 -96.5047 569.435 -92.3863C593.487 -89.0232 617.612 -86.1296 641.81 -83.7054C666.177 -82.2971 690.625 -81.4538 715.153 -81.1755C739.807 -82.029 764.527 -83.4377 789.312 -85.4014C814.177 -88.4138 839.049 -91.8774 863.929 -95.7922C888.781 -100.469 913.598 -105.44 938.379 -110.703C975.27 -119.202 999.84 -124.885 1012.09 -127.751Z" stroke="url(#paint9_linear_85_4199)" stroke-linecap="round" stroke-dasharray="3 3"/>
<path opacity="0.32" d="M1033.15 -84.7155C1049.18 -65.4057 1065.19 -46.0162 1081.17 -26.5468C1096.96 -6.80502 1112.56 13.1168 1127.97 33.2185C1142.85 53.7931 1157.39 74.6209 1171.59 95.7022C1184.99 117.328 1197.94 139.242 1210.44 161.444C1221.97 184.194 1233.01 207.191 1243.54 230.437C1253.07 254.111 1262.1 277.934 1270.65 301.905C1278.3 326.096 1285.54 350.29 1292.38 374.488C1298.53 398.607 1304.42 422.587 1310.05 446.43C1290.18 462.293 1270 477.957 1249.48 493.423C1229.06 508.949 1209.02 524.712 1189.37 540.712C1171.13 557.632 1153.85 575.153 1137.52 593.274C1123.4 612.828 1110.45 633.116 1098.65 654.137C1089.09 676.599 1080.47 699.658 1072.8 723.312C1066.54 747.887 1060.65 772.702 1055.14 797.756C1049.73 822.856 1043.99 847.754 1037.91 872.448C1030.56 896.309 1022.31 919.591 1013.15 942.297C993.394 936.022 973.383 929.492 953.121 922.707C932.219 915.683 910.927 908.665 889.245 901.651C866.697 894.933 843.681 888.49 820.196 882.322C795.725 876.901 770.748 871.947 745.265 867.462C718.816 864.075 691.909 861.271 664.544 859.052C636.33 858.043 607.775 857.627 578.879 857.803C549.401 859.096 519.738 860.885 489.892 863.168C459.85 866.287 429.819 869.715 399.797 873.451C387.25 860.08 374.781 846.57 362.391 832.922C350.268 818.709 338.318 804.079 326.54 789.031C315.173 772.927 304.043 756.201 293.15 738.854C282.742 720.157 272.583 700.734 262.671 680.583C253.252 659.013 244.041 636.747 235.04 613.785C226.415 589.555 217.932 564.766 209.589 539.416C201.436 513.151 193.318 486.55 185.236 459.614C177.105 432.251 168.903 404.823 160.629 377.331C172.163 356.333 183.378 335.141 194.274 313.754C204.724 292.063 215.067 270.304 225.302 248.476C235.551 226.657 245.941 204.928 256.471 183.289C267.483 161.957 278.829 140.839 290.51 119.936C302.967 99.5277 315.84 79.3851 329.127 59.5076C343.177 40.1175 357.561 20.9413 372.28 1.97894C387.495 -16.667 402.854 -35.2298 418.358 -53.7095C433.88 -72.1587 449.289 -90.6806 464.583 -109.275C487.158 -103.011 509.77 -96.8351 532.421 -90.7484C555.214 -85.0609 578.102 -79.6705 601.085 -74.5772C624.289 -70.2107 647.613 -66.2849 671.059 -62.7999C694.751 -60.289 718.55 -58.2847 742.455 -56.787C766.57 -56.3243 790.762 -56.3676 815.034 -56.9169C839.419 -58.4114 863.816 -60.3224 888.224 -62.65C912.601 -65.6953 936.925 -69.0104 961.194 -72.5955C997.234 -78.6116 1021.22 -82.6516 1033.15 -84.7155Z" stroke="url(#paint10_linear_85_4199)" stroke-linecap="round" stroke-dasharray="6 2"/>
<path opacity="0.35" d="M1050.19 -41.1774C1064.4 -22.0015 1078.55 -2.77696 1092.65 16.4962C1106.46 35.9175 1120.07 55.4698 1133.46 75.1528C1146.28 95.1542 1158.76 115.343 1170.88 135.719C1182.2 156.533 1193.08 177.56 1203.5 198.803C1212.99 220.469 1221.98 242.346 1230.48 264.433C1238.04 286.877 1245.12 309.466 1251.72 332.201C1257.46 355.155 1262.81 378.147 1267.79 401.178C1272.11 424.223 1276.18 447.196 1280 470.095C1260.05 483.96 1239.94 497.698 1219.67 511.309C1199.6 525.09 1179.95 539.158 1160.7 553.513C1142.77 568.829 1125.67 584.743 1109.41 601.255C1095.09 619.184 1081.78 637.832 1069.48 657.2C1059.11 677.962 1049.55 699.325 1040.82 721.291C1033.35 744.145 1026.24 767.276 1019.5 790.683C1012.96 814.207 1006.2 837.582 999.243 860.809C991.309 883.351 982.658 905.366 973.291 926.853C955.213 920.008 936.871 913 918.264 905.83C898.964 898.534 879.275 891.288 859.196 884.094C838.207 877.184 816.735 870.521 794.78 864.108C771.813 858.335 748.319 852.966 724.299 848C699.285 843.923 673.79 840.322 647.814 837.196C620.951 835.055 593.706 833.403 566.078 832.238C537.831 831.959 509.364 832.079 480.677 832.598C451.7 833.79 422.688 835.221 393.641 836.891C382.524 823.473 371.434 809.909 360.372 796.199C349.511 781.967 338.787 767.354 328.201 752.361C317.95 736.415 307.914 719.928 298.092 702.9C288.73 684.638 279.608 665.746 270.726 646.223C262.342 625.414 254.191 603.97 246.273 581.891C238.779 558.63 231.472 534.837 224.353 510.513C217.509 485.292 210.763 459.72 204.114 433.796C197.554 407.369 190.988 380.8 184.416 354.09C196.311 334.448 207.948 314.619 219.327 294.605C230.333 274.321 241.257 253.987 252.1 233.604C263.028 213.264 274.086 193.017 285.272 172.863C296.935 153.053 308.907 133.466 321.187 114.103C334.176 95.2505 347.539 76.6681 361.275 58.3554C375.731 40.5635 390.497 22.9948 405.572 5.64929C421.136 -11.3428 436.855 -28.2234 452.728 -44.9923C468.679 -61.7054 484.558 -78.4697 500.367 -95.2851C521.666 -88.0718 543.048 -80.9855 564.511 -74.0262C586.215 -67.4811 608.064 -61.2325 630.058 -55.2804C652.349 -50.0357 674.802 -45.1928 697.417 -40.7515C720.348 -37.18 743.419 -34.075 766.631 -31.4363C790.103 -29.7269 813.669 -28.4593 837.329 -27.6333C861.113 -27.6579 884.926 -28.0627 908.769 -28.8478C932.576 -30.2866 956.33 -31.9787 980.031 -33.924C1015.18 -37.4987 1038.56 -39.9165 1050.19 -41.1774Z" stroke="url(#paint11_linear_85_4199)" stroke-linecap="round" stroke-dasharray="4 7"/>
<path opacity="0.77" d="M1062.96 2.38298C1075.32 21.2035 1087.59 40.0383 1099.78 58.8873C1111.66 77.7911 1123.3 96.781 1134.72 115.857C1145.55 135.118 1156.05 154.514 1166.21 174.048C1175.56 193.89 1184.5 213.893 1193.02 234.059C1200.64 254.555 1207.81 275.216 1214.52 296.043C1220.31 317.18 1225.65 338.447 1230.55 359.845C1234.64 381.463 1238.37 403.146 1241.73 424.894C1244.48 446.73 1246.97 468.546 1249.21 490.343C1229.46 502.333 1209.65 514.261 1189.77 526.128C1170.23 538.288 1151.08 550.769 1132.33 563.57C1114.79 577.33 1097.97 591.697 1081.9 606.672C1067.51 622.996 1053.97 640.023 1041.28 657.752C1030.26 676.811 1019.94 696.457 1010.33 716.69C1001.85 737.813 993.708 759.227 985.915 780.932C978.368 802.838 970.709 824.643 962.938 846.346C954.454 867.491 945.42 888.179 935.837 908.41C919.301 901.256 902.484 893.996 885.384 886.629C867.592 879.233 849.395 871.906 830.794 864.65C811.285 857.68 791.29 850.928 770.81 844.397C749.324 838.399 727.318 832.725 704.793 827.376C681.247 822.754 657.221 818.509 632.715 814.64C607.329 811.552 581.541 808.832 555.351 806.482C528.524 804.841 501.445 803.508 474.116 802.484C446.434 801.97 418.687 801.649 390.875 801.522C381.028 788.076 371.188 774.483 361.355 760.742C351.628 746.493 342.014 731.917 332.513 717.013C323.306 701.243 314.292 684.995 305.472 668.271C297.084 650.485 288.932 632.133 281.014 613.215C273.598 593.15 266.424 572.523 259.491 551.335C253.025 529.094 246.773 506.351 240.733 483.106C235.07 459.021 229.556 434.575 224.191 409.77C219.029 384.414 213.923 358.888 208.872 333.192C221.028 314.908 232.979 296.448 244.725 277.811C256.178 258.956 267.588 240.066 278.955 221.142C290.418 202.275 302.018 183.529 313.754 164.904C325.932 146.618 338.388 128.569 351.123 110.756C364.499 93.4634 378.219 76.4405 392.283 59.687C406.978 43.4665 421.974 27.4803 437.271 11.7284C453.026 -3.63061 468.94 -18.8706 485.013 -33.9915C501.212 -48.9898 517.391 -64.0144 533.551 -79.0652C553.546 -71.1062 573.679 -63.2912 593.949 -55.6203C614.545 -48.4008 635.322 -41.4541 656.28 -34.7802C677.622 -28.7557 699.152 -23.0894 720.872 -17.7814C742.962 -13.2569 765.213 -9.1443 787.625 -5.44343C810.338 -2.54152 833.163 -0.0294151 856.1 2.09281C879.196 3.46463 902.32 4.50049 925.472 5.20046C948.62 5.32491 971.716 5.21208 994.758 4.86193C1028.93 3.66638 1051.66 2.84006 1062.96 2.38298Z" stroke="url(#paint12_linear_85_4199)" stroke-linecap="round" stroke-dasharray="3 5"/>
<path opacity="0.33" d="M1071.32 45.3436C1081.84 63.6222 1092.27 81.8718 1102.59 100.092C1112.56 118.318 1122.3 136.565 1131.83 154.834C1140.8 173.241 1149.44 191.724 1157.75 210.285C1165.33 229.037 1172.51 247.914 1179.3 266.916C1185.26 286.17 1190.8 305.551 1195.9 325.058C1200.17 344.829 1204.03 364.714 1207.48 384.714C1210.17 404.94 1212.51 425.249 1214.51 445.642C1215.92 466.163 1217.09 486.718 1218.03 507.305C1198.68 517.542 1179.35 527.79 1160.02 538.048C1141.11 548.704 1122.58 559.696 1104.42 571.024C1087.34 583.326 1070.9 596.217 1055.11 609.697C1040.74 624.471 1027.09 639.914 1014.16 656.027C1002.64 673.402 991.733 691.333 981.434 709.82C972.109 729.196 963.101 748.871 954.411 768.847C946.025 789.079 937.592 809.268 929.112 829.414C907.66 854.949 882.826 866.935 854.612 865.371C838.195 858.012 821.364 850.728 804.122 843.52C786.014 836.576 767.426 829.817 748.357 823.244C728.309 817.132 707.756 811.268 686.697 805.653C664.674 800.599 642.176 795.842 619.202 791.383C595.367 787.493 571.14 783.89 546.522 780.575C521.241 777.774 495.701 775.198 469.902 772.849C443.738 770.876 417.468 769.043 391.092 767.349C382.387 753.911 373.664 740.316 364.922 726.565C356.272 712.36 347.698 697.847 339.199 683.028C330.97 667.465 322.917 651.484 315.043 635.084C307.564 617.755 300.326 599.938 293.331 581.631C286.806 562.335 280.529 542.545 274.499 522.26C268.987 501.029 263.702 479.36 258.644 457.253C254.034 434.35 249.609 411.102 245.371 387.507C241.423 363.381 237.595 339.054 233.887 314.524C246.236 297.583 258.41 280.493 270.409 263.254C282.218 245.821 294.005 228.378 305.768 210.925C317.648 193.556 329.663 176.322 341.814 159.222C354.375 142.474 367.183 125.961 380.237 109.685C393.867 93.9336 407.802 78.4488 422.041 63.231C436.868 48.5707 451.964 34.1454 467.33 19.9549C483.12 6.17205 499.068 -7.46632 515.174 -20.9602C531.468 -34.3053 547.755 -47.6446 564.038 -60.978C582.78 -52.467 601.694 -44.1214 620.781 -35.9412C640.254 -28.1611 659.946 -20.6328 679.856 -13.3564C700.167 -6.66061 720.705 -0.284574 741.47 5.77185C762.619 11.1472 783.956 16.1878 805.479 20.8937C827.329 24.8875 849.299 28.5496 871.388 31.8802C893.661 34.5615 915.977 36.9597 938.336 39.0748C960.717 40.6718 983.048 42.0517 1005.33 43.2147C1038.39 44.3407 1060.39 45.0503 1071.32 45.3436Z" stroke="url(#paint13_linear_85_4199)" stroke-linecap="round" stroke-dasharray="3 1"/>
<path opacity="0.49" d="M1075.21 87.1796C1083.95 104.716 1092.58 122.195 1101.1 139.617C1109.3 156.98 1117.27 174.345 1125.03 191.714C1132.25 209.111 1139.19 226.549 1145.83 244.03C1151.78 261.649 1157.39 279.343 1162.65 297.112C1167.14 315.075 1171.25 333.14 1174.99 351.308C1177.94 369.693 1180.52 388.18 1182.74 406.77C1184.27 425.566 1185.47 444.465 1186.36 463.468C1186.68 482.621 1186.77 501.846 1186.63 521.141C1167.86 529.779 1149.16 538.503 1130.54 547.312C1112.36 556.552 1094.52 566.15 1077.04 576.105C1060.5 587.048 1044.52 598.541 1029.08 610.585C1014.84 623.854 1001.21 637.743 988.18 652.25C976.32 667.971 964.976 684.209 954.149 700.963C944.155 718.592 934.461 736.515 925.067 754.734C915.985 773.27 906.896 791.812 897.802 810.36C876.459 833.763 852.556 844.391 826.094 842.244C810.896 835.027 795.31 827.88 779.335 820.802C762.515 813.973 745.239 807.29 727.507 800.754C708.86 794.579 689.735 788.596 670.13 782.804C649.61 777.44 628.651 772.297 607.25 767.373C585.015 762.867 562.412 758.554 539.442 754.433C515.827 750.698 491.953 747.118 467.819 743.693C443.3 740.51 418.657 737.416 393.889 734.411C386.238 720.985 378.554 707.414 370.839 693.696C363.161 679.54 355.56 665.121 348.035 650.439C340.741 635.108 333.602 619.414 326.619 603.357C320.015 586.506 313.641 569.241 307.495 551.564C301.819 533.027 296.395 514.077 291.222 494.714C286.563 474.514 282.156 453.935 278 432.977C274.312 411.294 270.846 389.304 267.603 367.008C264.736 344.188 262.022 321.162 259.463 297.929C271.895 282.338 284.193 266.621 296.358 250.779C308.402 234.791 320.445 218.802 332.488 202.813C344.664 186.96 356.968 171.238 369.4 155.646C382.188 140.44 395.208 125.462 408.463 110.71C422.217 96.4691 436.238 82.5006 450.525 68.8046C465.323 55.6531 480.372 42.7459 495.67 30.0827C511.357 17.8169 527.2 5.72119 543.198 -6.20437C559.397 -17.9481 575.623 -29.6634 591.877 -41.3504C609.393 -32.4695 627.108 -23.7494 645.021 -15.1901C663.376 -6.99664 681.958 0.974608 700.768 8.72363C720.042 15.9722 739.534 22.9535 759.241 29.6676C779.393 35.8136 799.733 41.6639 820.261 47.2187C841.122 52.2041 862.12 56.9103 883.256 61.3371C904.577 65.2492 925.963 68.9093 947.413 72.3174C968.879 75.2876 990.324 78.0666 1011.75 80.6545C1043.53 83.971 1064.69 86.146 1075.21 87.1796Z" stroke="url(#paint14_linear_85_4199)" stroke-linecap="round" stroke-dasharray="9 8"/>
<path opacity="0.84" d="M1074.74 127.294C1081.78 143.924 1088.72 160.48 1095.56 176.961C1102.08 193.365 1108.41 209.727 1114.54 226.048C1120.2 242.382 1125.59 258.72 1130.71 275.063C1135.25 291.49 1139.47 307.963 1143.38 324.482C1146.62 341.136 1149.51 357.874 1152.05 374.695C1153.92 391.684 1155.46 408.769 1156.67 425.951C1157.25 443.348 1157.53 460.837 1157.51 478.419C1156.97 496.18 1156.22 514.039 1155.24 531.995C1137.2 539.206 1119.27 546.542 1101.45 554.004C1084.06 561.957 1067 570.287 1050.27 578.993C1034.35 588.621 1018.87 598.78 1003.85 609.471C989.848 621.3 976.34 633.697 963.327 646.662C951.287 660.741 939.68 675.315 928.506 690.386C918.033 706.259 907.826 722.437 897.885 738.92C888.246 755.772 878.644 772.655 869.079 789.569C847.862 810.838 824.79 820.168 799.863 817.558C785.785 810.516 771.341 803.55 756.531 796.66C740.909 789.975 724.873 783.407 708.424 776.959C691.101 770.788 673.351 764.758 655.176 758.868C636.146 753.303 616.712 747.879 596.874 742.597C576.285 737.613 555.344 732.757 534.05 728.029C512.155 723.553 490.016 719.173 467.635 714.89C444.872 710.749 421.977 706.65 398.95 702.593C392.256 689.229 385.526 675.715 378.762 662.053C372.035 648.022 365.368 633.748 358.763 619.23C352.376 604.163 346.128 588.786 340.019 573.097C334.279 556.769 328.738 540.088 323.395 523.055C318.529 505.312 313.911 487.213 309.542 468.76C305.681 449.632 302.073 430.167 298.719 410.364C295.857 389.942 293.233 369.249 290.846 348.285C288.886 326.843 287.119 305.211 285.545 283.39C297.958 269.135 310.288 254.772 322.535 240.303C334.709 225.75 346.893 211.22 359.087 196.713C371.428 182.351 383.888 168.138 396.469 154.074C409.374 140.358 422.483 126.876 435.796 113.627C449.536 100.89 463.511 88.4123 477.722 76.1921C492.371 64.4967 507.24 53.0414 522.329 41.8261C537.782 31.052 553.387 20.4401 569.144 9.99056C585.089 -0.221261 601.091 -10.3785 617.151 -20.4811C633.468 -11.4072 650.001 -2.45931 666.751 6.36252C683.975 14.8337 701.431 23.1236 719.118 31.2321C737.284 38.9227 755.684 46.3984 774.318 53.6592C793.379 60.4423 812.629 66.9962 832.07 73.321C851.845 79.1843 871.766 84.8155 891.832 90.2145C912.096 95.1878 932.423 99.9684 952.814 104.556C973.264 108.777 993.696 112.833 1014.11 116.725C1044.47 122.055 1064.68 125.578 1074.74 127.294Z" stroke="url(#paint15_linear_85_4199)" stroke-linecap="round"/>
<path opacity="0.79" d="M1070.03 165.186C1075.53 180.791 1080.92 196.316 1086.21 211.76C1091.22 227.078 1096.07 242.347 1100.74 257.567C1104.99 272.768 1109.03 287.953 1112.83 303.121C1116.11 318.336 1119.13 333.58 1121.87 348.852C1124.03 364.211 1125.9 379.633 1127.46 395.12C1128.44 410.773 1129.12 426.5 1129.5 442.303C1129.33 458.31 1128.89 474.406 1128.18 490.594C1126.99 506.97 1125.59 523.456 1123.96 540.05C1106.79 545.983 1089.73 552.084 1072.8 558.353C1056.29 565.151 1040.07 572.307 1024.12 579.82C1008.85 588.233 993.972 597.137 979.486 606.53C965.797 616.975 952.519 627.934 939.652 639.409C927.572 651.922 915.844 664.876 904.469 678.269C893.698 692.44 883.145 706.904 872.811 721.661C862.791 736.798 852.823 752.014 842.907 767.311C821.872 786.446 799.59 794.508 776.062 791.497C762.983 784.666 749.56 777.911 735.795 771.232C721.295 764.721 706.427 758.305 691.19 751.985C675.159 745.86 658.742 739.834 641.939 733.907C624.372 728.212 606.442 722.608 588.15 717.095C569.191 711.758 549.916 706.506 530.324 701.339C510.195 696.309 489.833 691.329 469.238 686.398C448.273 681.535 427.182 676.679 405.966 671.83C400.19 658.555 394.38 645.145 388.535 631.602C382.72 617.733 376.954 603.656 371.237 589.37C365.724 574.622 360.344 559.631 355.096 544.396C350.178 528.603 345.454 512.528 340.923 496.172C336.837 479.249 332.981 462.026 329.355 444.504C326.227 426.433 323.349 408.087 320.72 389.468C318.597 370.334 316.713 350.964 315.068 331.358C313.87 311.344 312.892 291.148 312.136 270.77C324.46 257.846 336.732 244.842 348.951 231.758C361.132 218.623 373.335 205.532 385.561 192.482C397.947 179.611 410.433 166.883 423.02 154.298C435.912 142.079 448.975 130.079 462.209 118.299C475.8 107.005 489.598 95.963 503.602 85.1733C517.983 74.8949 532.556 64.8499 547.32 55.0383C562.403 45.6626 577.629 36.4576 592.998 27.4233C608.562 18.6398 624.183 9.94259 639.861 1.33179C655.037 10.4964 670.431 19.5412 686.044 28.4663C702.131 37.1225 718.453 45.6269 735.009 53.9795C752.049 61.9963 769.307 69.8425 786.786 77.5181C804.67 84.8371 822.754 91.9716 841.036 98.9214C859.645 105.516 878.39 111.935 897.27 118.179C916.36 124.098 935.522 129.851 954.755 135.437C974.057 140.748 993.352 145.935 1012.64 150.996C1041.37 158.132 1060.5 162.862 1070.03 165.186Z" stroke="url(#paint16_linear_85_4199)" stroke-linecap="round" stroke-dasharray="5 8"/>
<path opacity="0.79" d="M1061.41 200.376C1065.49 214.871 1069.49 229.278 1073.41 243.595C1077.09 257.789 1080.61 271.932 1083.99 286.025C1087.03 300.044 1089.87 314.05 1092.53 328.044C1094.76 342.041 1096.75 356.063 1098.52 370.112C1099.78 384.216 1100.8 398.373 1101.57 412.583C1101.82 426.924 1101.82 441.333 1101.56 455.811C1100.81 470.459 1099.82 485.208 1098.61 500.057C1087.79 525.124 1069.81 545.26 1044.68 560.464C1029.09 566.205 1013.74 572.303 998.629 578.759C984.075 586.025 969.843 593.744 955.933 601.916C942.66 611.038 929.722 620.633 917.121 630.701C905.133 641.657 893.432 653.043 882.017 664.858C871.094 677.357 860.362 690.149 849.823 703.232C839.558 716.685 829.359 730.248 819.226 743.919C798.435 760.912 776.914 767.718 754.663 764.336C742.512 757.746 730.046 751.22 717.266 744.755C703.824 738.42 690.047 732.161 675.937 725.978C661.151 719.933 646.022 713.952 630.55 708.033C614.411 702.266 597.954 696.554 581.178 690.899C563.822 685.354 546.192 679.844 528.286 674.37C509.902 668.956 491.315 663.556 472.525 658.171C453.392 652.791 434.138 647.389 414.762 641.965C409.845 628.858 404.916 615.634 399.973 602.293C395.031 588.644 390.145 574.84 385.316 560.881C380.661 546.531 376.135 531.977 371.739 517.218C367.626 502.031 363.696 486.621 359.951 470.988C356.599 454.89 353.47 438.571 350.564 422.03C348.118 405.036 345.907 387.823 343.93 370.39C342.449 352.557 341.198 334.527 340.177 316.299C339.631 297.724 339.308 278.996 339.206 260.114C351.36 248.503 363.477 236.839 375.559 225.123C387.64 213.408 399.753 201.738 411.898 190.113C424.187 178.698 436.575 167.427 449.063 156.299C461.794 145.525 474.669 134.959 487.689 124.603C501.025 114.704 514.534 105.043 528.216 95.6184C542.219 86.6869 556.38 77.9842 570.699 69.5103C585.298 61.4416 600.023 53.5559 614.874 45.8533C629.915 38.4251 645.023 31.095 660.2 23.8629C674.251 32.9813 688.53 42.0101 703.037 50.9494C717.995 59.6743 733.179 68.2809 748.591 76.7694C764.435 85.0174 780.504 93.1296 796.797 101.106C813.47 108.821 830.321 116.403 847.35 123.852C864.692 131.027 882.171 138.079 899.787 145.008C917.598 151.686 935.481 158.247 953.437 164.69C971.469 170.907 989.512 177.029 1007.57 183.056C1034.52 191.764 1052.46 197.537 1061.41 200.376Z" stroke="url(#paint17_linear_85_4199)" stroke-linecap="round" stroke-dasharray="5 3"/>
<path opacity="0.86" d="M1049.2 232.529C1054.68 258.951 1059.86 285.172 1064.74 311.194C1068.24 336.904 1071.22 362.591 1073.67 388.253C1074.12 414.183 1073.92 440.278 1073.07 466.538C1070.11 493.545 1066.56 520.83 1062.41 548.393C1047.18 552.221 1032.08 556.259 1017.11 560.507C1002.47 565.297 988.038 570.42 973.804 575.876C960.033 582.091 946.51 588.713 933.235 595.741C920.472 603.611 907.965 611.901 895.715 620.612C883.952 630.123 872.417 640.007 861.108 650.263C850.197 661.171 839.446 672.344 828.857 683.781C818.499 695.597 808.216 707.536 798.007 719.597C777.569 734.468 756.829 740.037 735.788 736.305C712.325 723.744 688.008 711.34 662.839 699.093C649.238 693.133 635.346 687.229 621.163 681.382C606.4 675.591 591.373 669.839 576.082 664.128C560.288 658.444 544.263 652.78 528.008 647.135C511.326 641.491 494.479 635.835 477.467 630.168C460.144 624.448 442.718 618.698 425.191 612.918C417.042 586.877 408.939 560.484 400.881 533.737C397.074 519.857 393.378 505.824 389.795 491.64C386.476 477.128 383.321 462.441 380.329 447.58C377.686 432.376 375.254 416.998 373.031 401.445C371.215 385.552 369.619 369.487 368.244 353.25C367.328 336.697 366.637 319.996 366.174 303.149C366.158 286.028 366.359 268.776 366.777 251.391C378.657 241.064 390.517 230.722 402.359 220.363C414.23 210.024 426.139 199.745 438.085 189.527C450.163 179.527 462.324 169.662 474.568 159.932C487.026 150.556 499.604 141.376 512.302 132.392C525.243 123.838 538.331 115.509 551.566 107.408C565.066 99.74 578.702 92.2961 592.474 85.0761C606.487 78.2493 620.602 71.5922 634.821 65.1045C649.23 58.9289 663.7 52.8549 678.233 46.8827C691.212 55.8815 704.395 64.8026 717.781 73.6461C731.61 82.3312 745.65 90.9346 759.9 99.4561C774.55 107.809 789.402 116.066 804.456 124.228C819.866 132.211 835.436 140.105 851.166 147.911C867.186 155.521 883.331 163.047 899.601 170.487C916.055 177.74 932.584 184.919 949.189 192.025C965.867 198.974 982.56 205.858 999.27 212.677C1024.25 222.637 1040.9 229.255 1049.2 232.529Z" stroke="url(#paint18_linear_85_4199)" stroke-linecap="round" stroke-dasharray="7 7"/>
<path opacity="0.11" d="M1033.85 261.37C1037.26 285.438 1040.45 309.342 1043.4 333.082C1045.26 356.502 1046.7 379.906 1047.71 403.292C1047.12 426.892 1045.98 450.634 1044.31 474.519C1040.83 499.063 1036.83 523.866 1032.32 548.928C1018.14 551.922 1004.09 555.129 990.163 558.55C976.512 562.49 963.018 566.741 949.681 571.304C936.718 576.532 923.949 582.125 911.375 588.082C899.176 594.775 887.186 601.842 875.404 609.285C863.989 617.413 852.75 625.871 841.687 634.658C830.924 644.042 820.299 653.666 809.812 663.532C799.519 673.763 789.29 684.13 779.126 694.634C759.194 707.382 739.278 711.713 719.38 707.626C697.659 695.473 675.203 683.443 652.011 671.536C639.548 665.694 626.847 659.88 613.909 654.094C600.489 648.349 586.842 642.617 572.967 636.898C558.695 631.176 544.224 625.452 529.554 619.726C514.549 613.981 499.401 608.204 484.111 602.395C459.064 587.283 440.172 568.777 427.435 546.876C421.147 520.831 415.077 494.454 409.225 467.743C406.675 453.962 404.26 440.064 401.981 426.048C400.029 411.768 398.255 397.366 396.658 382.842C395.438 368.045 394.411 353.136 393.576 338.115C393.161 322.87 392.953 307.506 392.951 292.022C399.524 263.864 411.65 239.025 429.329 217.505C440.877 208.513 452.463 199.591 464.086 190.739C475.835 182.089 487.652 173.584 499.536 165.223C511.586 157.169 523.736 149.305 535.987 141.63C548.448 134.347 561.024 127.264 573.715 120.38C586.61 113.91 599.617 107.651 612.736 101.601C626.049 95.9157 639.463 90.4018 652.977 85.0593C679.478 81.9844 705.302 85.7705 730.45 96.4175C743.15 104.996 756.04 113.508 769.12 121.956C782.56 130.301 796.169 138.592 809.947 146.828C824.056 154.943 838.305 163 852.695 171C867.345 178.879 882.1 186.702 896.96 194.47C912.002 202.139 927.106 209.758 942.273 217.325C957.53 224.79 972.8 232.213 988.083 239.592C1010.99 250.498 1026.25 257.757 1033.85 261.37Z" stroke="url(#paint19_linear_85_4199)" stroke-linecap="round" stroke-dasharray="2 8"/>
<path opacity="0.71" d="M1015.85 286.735C1017.6 308.541 1019.12 330.159 1020.43 351.589C1021.06 372.842 1021.26 394.078 1021.02 415.298C1019.73 436.65 1017.88 458.169 1015.46 479.856C1011.81 502.004 1007.58 524.46 1002.75 547.226C976.8 552.2 951.304 558.147 926.258 565.068C902.314 574.366 878.959 584.94 856.195 596.79C834.546 611.047 813.367 626.32 792.658 642.609C772.603 660.311 752.695 678.33 732.933 696.666C714.679 684.568 695.631 672.627 675.79 660.843C654.307 649.294 632.022 637.828 608.935 626.444C584.326 615.099 559.039 603.727 533.074 592.328C506.021 580.732 478.575 568.985 450.735 557.089C445.836 532.893 441.016 508.415 436.276 483.655C432.046 458.257 428.231 432.527 424.831 406.465C422.503 379.695 420.833 352.587 419.82 325.14C420.205 297.045 421.344 268.672 423.238 240.019C445.377 224.398 467.591 208.961 489.882 193.707C512.581 179.297 535.55 165.471 558.789 152.228C582.689 140.413 606.929 129.332 631.51 118.987C656.723 110.046 682.207 101.672 707.961 93.8637C730.073 110.74 752.859 127.505 776.32 144.159C801.032 160.567 826.291 176.852 852.098 193.015C878.772 208.935 905.748 224.75 933.025 240.46C960.628 255.967 988.238 271.392 1015.85 286.735Z" stroke="url(#paint20_linear_85_4199)" stroke-linecap="round" stroke-dasharray="9 8"/>
<path opacity="0.68" d="M995.645 308.574C996.007 328.142 996.209 347.568 996.253 366.852C995.787 386.013 994.996 405.174 993.881 424.336C991.963 443.627 989.591 463.063 986.763 482.646C982.946 502.62 978.633 522.85 973.823 543.336C950.051 547.103 926.63 551.737 903.562 557.241C881.296 564.818 859.457 573.473 838.045 583.206C817.454 594.972 797.202 607.62 777.291 621.149C757.909 635.972 738.663 651.16 719.552 666.713C702.664 655.065 685.116 643.542 666.909 632.142C647.373 620.927 627.181 609.758 606.333 598.634C584.302 587.501 561.74 576.321 538.648 565.095C514.71 553.673 490.453 542.096 465.879 530.363C462.505 507.409 459.216 484.259 456.011 460.913C453.221 437.147 450.789 413.163 448.714 388.96C447.526 364.322 446.88 339.477 446.776 314.427C447.871 288.953 449.601 263.314 451.965 237.51C473.025 224.295 494.163 211.296 515.377 198.515C536.922 186.526 558.673 175.079 580.63 164.174C603.098 154.518 625.819 145.523 648.792 137.188C672.282 130.117 695.983 123.578 719.894 117.57C739.909 133.755 760.497 149.9 781.66 166.006C803.858 182.01 826.501 197.974 849.59 213.899C873.405 229.759 897.473 245.587 921.792 261.383C946.401 277.134 971.019 292.864 995.645 308.574Z" stroke="url(#paint21_linear_85_4199)" stroke-linecap="round" stroke-dasharray="7 1"/>
<path opacity="0.5" d="M973.765 326.957C973.033 344.4 972.2 361.742 971.267 378.983C969.968 396.178 968.427 413.378 966.646 430.583C964.256 447.922 961.515 465.385 958.421 482.974C954.549 500.888 950.269 519.011 945.582 537.345C924.004 540.091 902.678 543.597 881.604 547.866C861.104 553.868 840.909 560.765 821.019 568.556C801.673 578.041 782.574 588.273 763.722 599.251C745.265 611.37 726.922 623.86 708.694 636.723C693.196 625.542 677.162 614.463 660.594 603.486C642.975 592.623 624.849 581.793 606.216 570.998C586.663 560.155 566.712 549.27 546.361 538.34C525.377 527.219 504.158 515.967 482.703 504.583C480.736 483.132 478.847 461.563 477.036 439.876C475.578 417.939 474.405 395.882 473.52 373.705C473.358 351.288 473.625 328.754 474.323 306.102C476.005 283.242 478.215 260.282 480.952 237.223C500.723 226.292 520.574 215.603 540.505 205.154C560.675 195.429 581.013 186.185 601.518 177.42C622.367 169.746 643.407 162.645 664.636 156.117C686.249 150.699 708.017 145.775 729.94 141.342C747.892 156.697 766.305 172.058 785.181 187.424C804.885 202.817 824.948 218.234 845.371 233.674C866.335 249.135 887.504 264.629 908.875 280.156C941.301 303.55 962.931 319.15 973.765 326.957Z" stroke="url(#paint22_linear_85_4199)" stroke-linecap="round" stroke-dasharray="2 8"/>
<path opacity="0.8" d="M950.62 342.072C949.093 357.484 947.489 372.851 945.807 388.174C943.889 403.477 941.798 418.811 939.535 434.174C936.827 449.658 933.851 465.246 930.607 480.939C926.779 496.905 922.626 513.04 918.149 529.345C898.764 531.207 879.549 533.731 860.503 536.916C841.838 541.513 823.376 546.835 805.117 552.885C787.211 560.303 769.47 568.335 751.894 576.98C734.587 586.623 717.382 596.616 700.28 606.96C686.217 596.27 671.74 585.659 656.849 575.126C641.153 564.662 625.078 554.226 608.625 543.818C591.484 533.365 574.045 522.869 556.305 512.329C538.117 501.648 519.751 490.858 501.208 479.96C500.516 460.276 499.89 440.534 499.33 420.732C499.049 400.806 498.986 380.83 499.139 360.804C499.856 340.675 500.908 320.506 502.295 300.295C504.431 279.999 506.979 259.673 509.939 239.319C528.267 230.537 546.658 221.985 565.11 213.663C583.744 206.015 602.489 198.782 621.346 191.963C640.451 186.065 659.686 180.649 679.051 175.716C698.675 171.75 718.408 168.215 738.249 165.112C754.146 179.502 770.4 193.936 787.012 208.414C804.242 222.989 821.748 237.612 839.53 252.285C857.723 267.077 876.064 281.928 894.552 296.838C922.57 319.414 941.26 334.492 950.62 342.072Z" stroke="url(#paint23_linear_85_4199)" stroke-linecap="round" stroke-dasharray="2 1"/>
<path opacity="0.15" d="M926.638 354.081C922.258 381.105 917.635 408.164 912.767 435.257C909.874 448.973 906.786 462.77 903.505 476.648C889.057 498.508 867.981 514.434 840.278 524.427C823.535 527.781 806.905 531.712 790.387 536.219C774.094 541.799 757.903 547.869 741.814 554.429C725.898 561.812 710.049 569.522 694.269 577.559C681.715 567.413 668.855 557.323 655.691 547.288C641.908 537.317 627.86 527.362 613.547 517.421C598.745 507.469 583.732 497.479 568.509 487.453C552.955 477.317 537.282 467.117 521.49 456.853C521.878 439.149 522.314 421.436 522.795 403.714C523.511 385.942 524.381 368.178 525.408 350.423C526.837 332.648 528.517 314.878 530.451 297.111C532.935 279.343 535.731 261.591 538.839 243.854C555.542 237.053 572.291 230.468 589.086 224.102C606 218.311 622.98 212.871 640.026 207.783C657.246 203.453 674.549 199.52 691.934 195.983C709.486 193.239 727.108 190.87 744.8 188.876C758.662 202.173 772.782 215.537 787.159 228.969C801.998 242.516 817.022 256.13 832.23 269.81C847.729 283.641 863.341 297.545 879.066 311.523C902.85 332.774 918.707 346.96 926.638 354.081Z" stroke="url(#paint24_linear_85_4199)" stroke-linecap="round" stroke-dasharray="3 6"/>
<path opacity="0.19" d="M902.125 363.349C897.112 386.845 891.941 410.414 886.613 434.055C880.225 458.241 873.377 482.672 866.068 507.349C851.014 507.958 836.02 508.975 821.088 510.4C806.304 512.703 791.576 515.431 776.904 518.584C762.37 522.551 747.886 526.905 733.452 531.644C706.514 535.26 681.04 531.467 657.031 520.267C645.183 510.902 633.152 501.547 620.938 492.204C608.4 482.845 595.715 473.469 582.883 464.074C563.838 442.089 551.992 417.079 547.344 389.043C548.81 373.58 550.391 358.132 552.087 342.699C554.063 327.319 556.213 311.97 558.537 296.652C570.286 271.275 588.158 251.21 612.153 236.456C627.207 232.314 642.302 228.447 657.438 224.854C672.667 221.875 687.941 219.201 703.262 216.834C718.681 215.127 734.146 213.718 749.655 212.607C761.494 224.689 773.51 236.832 785.705 249.037C798.208 261.373 810.835 273.786 823.586 286.276C836.534 298.898 849.55 311.598 862.633 324.376C882.372 343.815 895.536 356.806 902.125 363.349Z" stroke="url(#paint25_linear_85_4199)" stroke-linecap="round" stroke-dasharray="7 1"/>
<path opacity="0.43" d="M877.376 370.114C872.089 390.192 866.677 410.385 861.14 430.693C855.063 451.371 848.57 472.294 841.661 493.463C815.938 494.393 790.331 496.573 764.839 500.002C739.567 505.803 714.38 512.602 689.276 520.398C670.326 502.995 650.825 485.675 630.773 468.438C609.844 451.203 588.631 433.914 567.134 416.572C570.898 390.207 574.863 363.95 579.03 337.803C583.909 311.941 589.297 286.231 595.193 260.674C621.204 254.07 647.293 248.225 673.461 243.138C699.798 239.885 726.217 237.591 752.716 236.254C772.674 257.822 792.998 279.636 813.687 301.695C834.838 324.253 856.067 347.06 877.376 370.114Z" stroke="url(#paint26_linear_85_4199)" stroke-linecap="round"/>
<path opacity="0.59" d="M852.537 374.747C847.283 391.51 841.953 408.379 836.548 425.354C830.804 442.628 824.811 460.077 818.571 477.701C797.102 477.795 775.664 478.739 754.255 480.532C732.905 483.959 711.58 488.093 690.28 492.934C674.804 477.383 658.989 461.892 642.834 446.461C626.157 431.08 609.304 415.689 592.276 400.289C596.723 378.691 601.277 357.216 605.939 335.865C611.023 314.769 616.399 293.837 622.068 273.07C643.983 269.003 665.927 265.506 687.899 262.581C709.918 260.973 731.953 260.048 754.004 259.806C769.985 278.391 786.179 297.158 802.585 316.109C827.542 345.325 844.192 364.871 852.537 374.747Z" stroke="url(#paint27_linear_85_4199)" stroke-linecap="round" stroke-dasharray="4 6"/>
<path opacity="0.85" d="M827.743 377.474C822.848 390.953 817.902 404.525 812.907 418.193C796.404 438.842 773.878 452.857 745.33 460.237C728.09 461.838 710.841 463.9 693.581 466.422C681.585 453.106 669.398 439.842 657.019 426.629C644.353 413.458 631.583 400.3 618.71 387.156C623.28 370.319 627.904 353.593 632.58 336.98C637.459 320.562 642.487 304.267 647.663 288.093C665.293 286.04 682.924 284.376 700.554 283.101C718.166 282.683 735.775 282.718 753.384 283.206C765.591 298.528 777.898 313.98 790.306 329.56C809.034 353.458 821.513 369.429 827.743 377.474Z" stroke="url(#paint28_linear_85_4199)" stroke-linecap="round" stroke-dasharray="2 2"/>
<path opacity="0.6" d="M803.077 378.578C794.589 399.054 785.922 419.779 777.076 440.753C751.203 439.728 725.242 439.819 699.194 441.027C681.758 419.776 664.059 398.624 646.098 377.572C654.419 353.338 662.916 329.397 671.589 305.749C698.065 304.974 724.457 305.179 750.763 306.366C768.177 330.132 785.615 354.203 803.077 378.578Z" stroke="url(#paint29_linear_85_4199)" stroke-linecap="round" stroke-dasharray="8 8"/>
<path opacity="0.75" d="M778.511 378.164C760.209 398.181 736.405 411.094 707.099 416.904C696.178 401.843 685.154 386.839 674.026 371.894C680.473 356.42 686.965 341.097 693.5 325.924C711.077 326.566 728.585 327.656 746.025 329.193C762.276 353.62 773.105 369.943 778.511 378.164Z" stroke="url(#paint30_linear_85_4199)" stroke-linecap="round" stroke-dasharray="5 7"/>
<defs>
<linearGradient id="paint0_linear_85_4199" x1="75369.1" y1="-438.068" x2="75369.1" y2="166604" gradientUnits="userSpaceOnUse">
<stop offset="1" stop-opacity="0.12"/>
</linearGradient>
<linearGradient id="paint1_linear_85_4199" x1="73078.3" y1="3705.75" x2="63881.4" y2="165266" gradientUnits="userSpaceOnUse">
<stop offset="1" stop-opacity="0.12"/>
</linearGradient>
<linearGradient id="paint2_linear_85_4199" x1="70532.9" y1="7583.11" x2="52761.3" y2="163173" gradientUnits="userSpaceOnUse">
<stop offset="1" stop-opacity="0.12"/>
</linearGradient>
<linearGradient id="paint3_linear_85_4199" x1="67809.1" y1="11186.2" x2="42109.6" y2="160371" gradientUnits="userSpaceOnUse">
<stop offset="1" stop-opacity="0.12"/>
</linearGradient>
<linearGradient id="paint4_linear_85_4199" x1="64889.9" y1="14499.8" x2="32107.3" y2="156133" gradientUnits="userSpaceOnUse">
<stop offset="1" stop-opacity="0.12"/>
</linearGradient>
<linearGradient id="paint5_linear_85_4199" x1="61796.4" y1="17511.6" x2="22476.2" y2="152061" gradientUnits="userSpaceOnUse">
<stop offset="1" stop-opacity="0.12"/>
</linearGradient>
<linearGradient id="paint6_linear_85_4199" x1="58554.8" y1="20212.2" x2="13392.4" y2="147406" gradientUnits="userSpaceOnUse">
<stop offset="1" stop-opacity="0.12"/>
</linearGradient>
<linearGradient id="paint7_linear_85_4199" x1="55327.4" y1="22651.1" x2="4740.72" y2="142954" gradientUnits="userSpaceOnUse">
<stop offset="1" stop-opacity="0.12"/>
</linearGradient>
<linearGradient id="paint8_linear_85_4199" x1="51930.2" y1="24747.7" x2="-3118.45" y2="137292" gradientUnits="userSpaceOnUse">
<stop offset="1" stop-opacity="0.12"/>
</linearGradient>
<linearGradient id="paint9_linear_85_4199" x1="48453.7" y1="26519.8" x2="-10344.7" y2="131201" gradientUnits="userSpaceOnUse">
<stop offset="1" stop-opacity="0.12"/>
</linearGradient>
<linearGradient id="paint10_linear_85_4199" x1="44926.2" y1="27965.2" x2="-16915.5" y2="124736" gradientUnits="userSpaceOnUse">
<stop offset="1" stop-opacity="0.12"/>
</linearGradient>
<linearGradient id="paint11_linear_85_4199" x1="41377.7" y1="29085.4" x2="-22807.5" y2="117954" gradientUnits="userSpaceOnUse">
<stop offset="1" stop-opacity="0.12"/>
</linearGradient>
<linearGradient id="paint12_linear_85_4199" x1="37833.4" y1="29881.5" x2="-28006.8" y2="110907" gradientUnits="userSpaceOnUse">
<stop offset="1" stop-opacity="0.12"/>
</linearGradient>
<linearGradient id="paint13_linear_85_4199" x1="33653.5" y1="29749.9" x2="-33168.4" y2="103045" gradientUnits="userSpaceOnUse">
<stop offset="1" stop-opacity="0.12"/>
</linearGradient>
<linearGradient id="paint14_linear_85_4199" x1="30248.3" y1="29891.2" x2="-36900.8" y2="95618.9" gradientUnits="userSpaceOnUse">
<stop offset="1" stop-opacity="0.12"/>
</linearGradient>
<linearGradient id="paint15_linear_85_4199" x1="26940.6" y1="29747.6" x2="-39903.6" y2="88119.1" gradientUnits="userSpaceOnUse">
<stop offset="1" stop-opacity="0.12"/>
</linearGradient>
<linearGradient id="paint16_linear_85_4199" x1="23751.4" y1="29331.2" x2="-42181.5" y2="80605" gradientUnits="userSpaceOnUse">
<stop offset="1" stop-opacity="0.12"/>
</linearGradient>
<linearGradient id="paint17_linear_85_4199" x1="20700.5" y1="28655.1" x2="-43743.8" y2="73133.6" gradientUnits="userSpaceOnUse">
<stop offset="1" stop-opacity="0.12"/>
</linearGradient>
<linearGradient id="paint18_linear_85_4199" x1="17806.6" y1="27734.2" x2="-44601.6" y2="65760.9" gradientUnits="userSpaceOnUse">
<stop offset="1" stop-opacity="0.12"/>
</linearGradient>
<linearGradient id="paint19_linear_85_4199" x1="15088.5" y1="26587" x2="-43963.8" y2="58113.7" gradientUnits="userSpaceOnUse">
<stop offset="1" stop-opacity="0.12"/>
</linearGradient>
<linearGradient id="paint20_linear_85_4199" x1="12806.4" y1="25758.6" x2="-44039.6" y2="52071.8" gradientUnits="userSpaceOnUse">
<stop offset="1" stop-opacity="0.12"/>
</linearGradient>
<linearGradient id="paint21_linear_85_4199" x1="10433.7" y1="24169.9" x2="-42961.8" y2="45289.8" gradientUnits="userSpaceOnUse">
<stop offset="1" stop-opacity="0.12"/>
</linearGradient>
<linearGradient id="paint22_linear_85_4199" x1="8285.62" y1="22406.8" x2="-41268.5" y2="38816.9" gradientUnits="userSpaceOnUse">
<stop offset="1" stop-opacity="0.12"/>
</linearGradient>
<linearGradient id="paint23_linear_85_4199" x1="6375.17" y1="20496" x2="-38990.8" y2="32706.5" gradientUnits="userSpaceOnUse">
<stop offset="1" stop-opacity="0.12"/>
</linearGradient>
<linearGradient id="paint24_linear_85_4199" x1="4711.26" y1="18459.9" x2="-36165.7" y2="27004.3" gradientUnits="userSpaceOnUse">
<stop offset="1" stop-opacity="0.12"/>
</linearGradient>
<linearGradient id="paint25_linear_85_4199" x1="3223.3" y1="15805.4" x2="-31848.6" y2="21077.3" gradientUnits="userSpaceOnUse">
<stop offset="1" stop-opacity="0.12"/>
</linearGradient>
<linearGradient id="paint26_linear_85_4199" x1="2145.78" y1="14068.2" x2="-29041.1" y2="16956.1" gradientUnits="userSpaceOnUse">
<stop offset="1" stop-opacity="0.12"/>
</linearGradient>
<linearGradient id="paint27_linear_85_4199" x1="1257.99" y1="11801" x2="-24825.9" y2="12726.5" gradientUnits="userSpaceOnUse">
<stop offset="1" stop-opacity="0.12"/>
</linearGradient>
<linearGradient id="paint28_linear_85_4199" x1="632.406" y1="9506.39" x2="-20240.7" y2="9059.75" gradientUnits="userSpaceOnUse">
<stop offset="1" stop-opacity="0.12"/>
</linearGradient>
<linearGradient id="paint29_linear_85_4199" x1="267.859" y1="7203.74" x2="-15342" y2="5979.64" gradientUnits="userSpaceOnUse">
<stop offset="1" stop-opacity="0.12"/>
</linearGradient>
<linearGradient id="paint30_linear_85_4199" x1="163.74" y1="4900.18" x2="-10178.9" y2="3494.09" gradientUnits="userSpaceOnUse">
<stop offset="1" stop-opacity="0.12"/>
</linearGradient>
</defs>
</svg>
