<svg xmlns="http://www.w3.org/2000/svg" width="25" height="24" viewBox="0 0 25 24" fill="none">
  <g clip-path="url(#clip0_96_4530)">
    <path opacity="0.15" d="M3.03027 22.25C3.03027 22.3485 3.21405 22.446 3.57111 22.537C3.92817 22.628 4.45152 22.7107 5.11128 22.7803C5.77104 22.85 6.55429 22.9052 7.41631 22.9429C8.27833 22.9806 9.20223 23 10.1353 23C11.0683 23 11.9922 22.9806 12.8542 22.9429C13.7163 22.9052 14.4995 22.85 15.1593 22.7803C15.819 22.7107 16.3424 22.628 16.6994 22.537C17.0565 22.446 17.2403 22.3485 17.2403 22.25C17.2403 22.0511 16.4917 21.8603 15.1593 21.7197C13.8268 21.579 12.0196 21.5 10.1353 21.5C8.25091 21.5 6.44373 21.579 5.11128 21.7197C3.77883 21.8603 3.03027 22.0511 3.03027 22.25Z" fill="#45413C"/>
    <path d="M10.0547 15.3801L3.55467 12.1851L2.75967 18.6501C2.74992 18.7294 2.76545 18.8098 2.80405 18.8799C2.84266 18.9499 2.90236 19.0059 2.97467 19.0401L9.24967 22.1201C9.56035 22.2703 9.91227 22.3125 10.2497 22.2401L17.0747 20.7401C17.1528 20.7214 17.2234 20.6793 17.277 20.6194C17.3306 20.5596 17.3647 20.4848 17.3747 20.4051L18.1497 13.9401L11.0747 15.5001C10.7309 15.5763 10.3714 15.534 10.0547 15.3801Z" fill="#FF866E"/>
    <path d="M11.075 15.4999C10.737 15.57 10.3853 15.5261 10.075 15.3749L3.57499 12.1799L3.29999 14.1099L9.82499 17.3049C10.1351 17.4568 10.487 17.5008 10.825 17.4299L17.92 15.8599L18.15 13.9349L11.075 15.4999Z" fill="#FF6242"/>
    <path d="M10.0547 15.3801L3.55467 12.1851L2.75967 18.6501C2.74992 18.7294 2.76545 18.8098 2.80405 18.8799C2.84266 18.9499 2.90236 19.0059 2.97467 19.0401L9.24967 22.1201C9.56035 22.2703 9.91227 22.3125 10.2497 22.2401L17.0747 20.7401C17.1528 20.7214 17.2234 20.6793 17.277 20.6194C17.3306 20.5596 17.3647 20.4848 17.3747 20.4051L18.1497 13.9401L11.0747 15.5001C10.7309 15.5763 10.3714 15.534 10.0547 15.3801Z" stroke="#45413C" stroke-width="0.5" stroke-linecap="round" stroke-linejoin="round"/>
    <path d="M9.83002 21.5899L10.45 16.3899" stroke="#E04122" stroke-width="0.5" stroke-linecap="round" stroke-linejoin="round"/>
    <path d="M18.1653 13.9351L11.6653 10.7351C11.3544 10.5856 11.0027 10.5434 10.6653 10.6151L3.53027 12.1851L10.0553 15.3801C10.3656 15.5312 10.7173 15.5752 11.0553 15.5051L18.1653 13.9351Z" fill="#E04122" stroke="#45413C" stroke-width="0.5" stroke-linecap="round" stroke-linejoin="round"/>
    <path d="M5.01001 12.905L4.20001 19.645L7.52001 21.275L8.33001 14.535L5.01001 12.905Z" fill="#EDDBFF"/>
    <path d="M5.01039 12.905L4.77539 14.83L8.10039 16.46L8.33039 14.535L5.01039 12.905Z" fill="#DABFF5"/>
    <path d="M5.01001 12.905L4.20001 19.645L7.52001 21.275L8.33001 14.535L5.01001 12.905Z" stroke="#45413C" stroke-width="0.5" stroke-linecap="round" stroke-linejoin="round"/>
    <path d="M16.5595 14.29L15.7545 21.03L12.1445 21.825L12.9495 15.09L16.5595 14.29Z" fill="#EDDBFF"/>
    <path d="M16.5597 14.29L16.3297 16.215L12.7197 17.015L12.9497 15.09L16.5597 14.29Z" fill="#DABFF5"/>
    <path d="M16.5595 14.29L15.7545 21.03L12.1445 21.825L12.9495 15.09L16.5595 14.29Z" stroke="#45413C" stroke-width="0.5" stroke-linecap="round" stroke-linejoin="round"/>
    <path d="M8.76499 9.46492L1.11499 8.84492L1.73499 11.2049C1.75494 11.2828 1.7991 11.3524 1.86109 11.4036C1.92308 11.4548 1.99973 11.485 2.07999 11.4899L9.45499 12.0899C9.80825 12.1202 10.1612 12.0284 10.455 11.8299L16.585 7.69992C16.6507 7.654 16.701 7.58941 16.7296 7.51452C16.7581 7.43963 16.7635 7.3579 16.745 7.27992L16.125 4.91992L9.75999 9.20492C9.46628 9.39942 9.1163 9.49087 8.76499 9.46492Z" fill="#FF866E"/>
    <path d="M9.75999 9.20492C9.4649 9.4005 9.11297 9.492 8.75999 9.46492L1.11499 8.84492L1.40999 9.96992L9.05999 10.5899C9.4129 10.6162 9.76458 10.5248 10.06 10.3299L16.425 6.04492L16.13 4.91992L9.75999 9.20492Z" fill="#FFA694"/>
    <path d="M8.76499 9.46492L1.11499 8.84492L1.73499 11.2049C1.75494 11.2828 1.7991 11.3524 1.86109 11.4036C1.92308 11.4548 1.99973 11.485 2.07999 11.4899L9.45499 12.0899C9.80825 12.1202 10.1612 12.0284 10.455 11.8299L16.585 7.69992C16.6507 7.654 16.701 7.58941 16.7296 7.51452C16.7581 7.43963 16.7635 7.3579 16.745 7.27992L16.125 4.91992L9.75999 9.20492C9.46628 9.39942 9.1163 9.49087 8.76499 9.46492Z" stroke="#45413C" stroke-width="0.5" stroke-linecap="round" stroke-linejoin="round"/>
    <path d="M1.11499 8.84497L7.49999 4.55497C7.79407 4.35749 8.14725 4.26743 8.49999 4.29997L16.15 4.91997L9.75999 9.20497C9.4649 9.40055 9.11297 9.49205 8.75999 9.46497L1.11499 8.84497Z" fill="#FF866E" stroke="#45413C" stroke-width="0.5" stroke-linecap="round" stroke-linejoin="round"/>
    <path d="M9.64001 4.38989L2.755 8.97489L3.44 11.6049L7.13 11.8999L6.44 9.27489L13.325 4.68989L9.64001 4.38989Z" fill="#EDDBFF" stroke="#45413C" stroke-width="0.5" stroke-linecap="round" stroke-linejoin="round"/>
    <path d="M3.84961 9.06494L5.70961 9.21494" stroke="#BF8DF2" stroke-width="0.5" stroke-linecap="round" stroke-linejoin="round"/>
    <path d="M6.51501 5.20996L14.76 5.83496L15.45 8.45996L12.38 10.525L11.695 7.89996L3.45001 7.27496L6.51501 5.20996Z" fill="#EDDBFF" stroke="#45413C" stroke-width="0.5" stroke-linecap="round" stroke-linejoin="round"/>
    <path d="M13.8497 6.44995L12.3047 7.48995" stroke="#BF8DF2" stroke-width="0.5" stroke-linecap="round" stroke-linejoin="round"/>
    <path d="M9.95027 6.80011L9.03027 6.14511C9.03027 6.14511 10.0303 2.14511 12.7603 1.81511C13.0229 1.77952 13.2897 1.83571 13.5157 1.9742C13.7416 2.11268 13.9128 2.32495 14.0003 2.57511L14.4303 3.75011L9.95027 6.80011Z" fill="#DABFF5" stroke="#45413C" stroke-width="0.5" stroke-linecap="round" stroke-linejoin="round"/>
    <path d="M9.95001 6.79999C9.95001 6.79999 12.32 6.61499 14.355 4.15999C14.4155 4.10084 14.4551 4.02365 14.4678 3.94004C14.4806 3.85644 14.4658 3.77095 14.4257 3.69647C14.3857 3.62198 14.3225 3.56254 14.2457 3.5271C14.1689 3.49166 14.0827 3.48215 14 3.49999C13.0914 3.63735 12.2364 4.01601 11.524 4.59646C10.8116 5.1769 10.2681 5.93788 9.95001 6.79999Z" fill="#BF8DF2" stroke="#45413C" stroke-width="0.5" stroke-linecap="round" stroke-linejoin="round"/>
    <path d="M7.50029 7.50011L7.90529 6.44511C7.90529 6.44511 5.00029 3.78011 2.52529 5.00011C2.29254 5.11895 2.10697 5.31321 1.9989 5.55115C1.89083 5.78909 1.86664 6.05665 1.93029 6.31011L2.22529 7.53011L7.50029 7.50011Z" fill="#DABFF5" stroke="#45413C" stroke-width="0.5" stroke-linecap="round" stroke-linejoin="round"/>
    <path d="M7.49972 7.49989C7.49972 7.49989 5.54972 8.75489 2.49972 7.83989C2.42394 7.81825 2.3565 7.77417 2.30627 7.71344C2.25604 7.65271 2.22539 7.5782 2.21836 7.4997C2.21132 7.42121 2.22823 7.34243 2.26685 7.27374C2.30547 7.20504 2.364 7.14966 2.43472 7.11489C3.23514 6.71602 4.12859 6.5412 5.02031 6.60898C5.91204 6.67676 6.76879 6.98462 7.49972 7.49989Z" fill="#BF8DF2" stroke="#45413C" stroke-width="0.5" stroke-linecap="round" stroke-linejoin="round"/>
    <path d="M7.75031 7.14996C7.75031 7.14996 5.20031 8.64996 5.07031 10.795L6.37031 10.245L7.11531 11.525C7.11531 11.525 7.67531 8.13496 8.76031 7.41496L7.75031 7.14996ZM9.53031 6.70996C9.53031 6.70996 12.4803 6.83496 13.6003 8.70996L12.1953 8.82996L12.1303 10.305C12.1303 10.305 10.0553 7.56496 8.76031 7.42996L9.53031 6.70996Z" fill="#BF8DF2" stroke="#45413C" stroke-width="0.5" stroke-linecap="round" stroke-linejoin="round"/>
    <path d="M10.2046 6.03498C10.3946 6.75998 9.78958 7.53498 8.85958 7.78998C7.92958 8.04498 7.01458 7.64498 6.82958 6.91998C6.64458 6.19498 7.23958 5.41998 8.17458 5.16498C9.10958 4.90998 9.99958 5.30998 10.2046 6.03498Z" fill="#BF8DF2"/>
    <path d="M8.37033 5.91499C8.69433 5.80568 9.04346 5.79483 9.37362 5.88382C9.70378 5.97281 10.0002 6.15765 10.2253 6.41499C10.2498 6.28278 10.2498 6.1472 10.2253 6.01499C10.0353 5.28999 9.12533 4.89999 8.19533 5.14499C7.26533 5.38999 6.66033 6.17499 6.85033 6.89999C6.88443 7.0288 6.94393 7.1495 7.02533 7.25499C7.09507 6.9251 7.25941 6.62267 7.49828 6.38469C7.73715 6.14671 8.04018 5.98349 8.37033 5.91499Z" fill="#DABFF5"/>
    <path d="M10.2046 6.03498C10.3946 6.75998 9.78958 7.53498 8.85958 7.78998C7.92958 8.04498 7.01458 7.64498 6.82958 6.91998C6.64458 6.19498 7.23958 5.41998 8.17458 5.16498C9.10958 4.90998 9.99958 5.30998 10.2046 6.03498Z" stroke="#45413C" stroke-width="0.5" stroke-linecap="round" stroke-linejoin="round"/>
    <path d="M15.1653 13.24C14.9602 13.5647 14.6781 13.8336 14.344 14.0229C14.0099 14.2122 13.6342 14.316 13.2503 14.325L12.5703 13.13C12.9571 13.1225 13.336 13.0189 13.6729 12.8286C14.0098 12.6384 14.2941 12.3674 14.5003 12.04L15.1653 13.24Z" fill="#00F5BC" stroke="#45413C" stroke-width="0.5" stroke-linecap="round" stroke-linejoin="round"/>
    <path d="M22.9996 4.59011C23.0127 4.98038 22.928 5.36771 22.7534 5.71697C22.5788 6.06623 22.3197 6.36636 21.9996 6.59011L20.7646 5.98511C21.0791 5.75799 21.3324 5.45639 21.5017 5.10734C21.671 4.75829 21.751 4.3727 21.7346 3.98511L22.9996 4.59011Z" fill="#FF6242" stroke="#45413C" stroke-width="0.5" stroke-linecap="round" stroke-linejoin="round"/>
    <path d="M20.2746 23.4999C20.026 23.2066 19.8535 22.8565 19.7724 22.4806C19.6913 22.1048 19.704 21.7147 19.8096 21.3449L21.1596 21.0549C21.0543 21.4244 21.0411 21.814 21.1213 22.1897C21.2015 22.5654 21.3726 22.9157 21.6196 23.2099L20.2746 23.4999Z" fill="#FF6196" stroke="#45413C" stroke-width="0.5" stroke-linecap="round" stroke-linejoin="round"/>
    <path d="M24.25 12.7649C23.9755 13.0341 23.6389 13.2314 23.2701 13.3395C22.9012 13.4477 22.5113 13.4633 22.135 13.3849L21.745 12.0649C22.1217 12.1426 22.5118 12.1262 22.8807 12.0172C23.2496 11.9082 23.586 11.7099 23.86 11.4399L24.25 12.7649Z" fill="#FF8A14" stroke="#45413C" stroke-width="0.5" stroke-linecap="round" stroke-linejoin="round"/>
    <path d="M18.7696 16.2649C19.1542 16.2805 19.529 16.3904 19.8612 16.5848C20.1933 16.7792 20.4727 17.0523 20.6746 17.3799L19.9996 18.5699C19.7995 18.2417 19.5212 17.9682 19.1897 17.7737C18.8582 17.5791 18.4837 17.4696 18.0996 17.4549L18.7696 16.2649Z" fill="#4AEFF7" stroke="#45413C" stroke-width="0.5" stroke-linecap="round" stroke-linejoin="round"/>
    <path d="M15.5 22.3501C15.1205 22.4126 14.7315 22.3809 14.3671 22.258C14.0027 22.1351 13.6741 21.9246 13.41 21.6451L13.855 20.3401C14.1172 20.6207 14.4449 20.8319 14.8088 20.9549C15.1726 21.078 15.5612 21.1089 15.94 21.0451L15.5 22.3501ZM16.91 10.7701C16.9926 10.3944 17.1662 10.0448 17.4156 9.75185C17.6649 9.45893 17.9823 9.23169 18.34 9.09009L19.39 10.0001C19.0318 10.1409 18.714 10.3679 18.4646 10.661C18.2151 10.954 18.0418 11.3041 17.96 11.6801L16.91 10.7701Z" fill="#FFF48C" stroke="#45413C" stroke-width="0.5" stroke-linecap="round" stroke-linejoin="round"/>
  </g>
  <defs>
    <clipPath id="clip0_96_4530">
      <rect width="24" height="24" fill="white" transform="translate(0.5)"/>
    </clipPath>
  </defs>
</svg>