<svg xmlns="http://www.w3.org/2000/svg" width="143" height="33" viewBox="0 0 143 33" fill="none">
  <g clip-path="url(#clip0_96_4702)">
    <path fill-rule="evenodd" clip-rule="evenodd" d="M21.5175 2.38694C21.4987 2.17023 21.3078 2.0098 21.0911 2.0286C20.8744 2.0474 20.7139 2.23831 20.7328 2.45502L22.9491 28.0019C22.9582 28.0407 22.9616 28.0803 22.9593 28.1209L22.9602 28.1303C22.9597 28.1302 22.9592 28.1302 22.9588 28.1301C22.9071 28.7899 21.3472 29.6834 18.4379 30.5279C15.4134 31.4059 13.6045 31.3538 13.2832 30.8285C13.283 30.8286 13.2829 30.8287 13.2827 30.8288L13.2775 30.819C13.2729 30.8107 13.2685 30.8023 13.2645 30.7938L1.30903 7.8363C1.20856 7.64337 0.970717 7.56842 0.777786 7.66889C0.584858 7.76936 0.509906 8.00721 0.610376 8.20013L12.7372 31.4868C12.7565 31.5237 12.7808 31.5564 12.8089 31.5843C13.1079 32.0726 15.7134 32.1099 18.6266 31.2471C21.2975 30.456 23.3734 29.5444 23.7366 28.7928C23.7645 28.7448 23.7824 28.6906 23.7879 28.6332C23.7946 28.5895 23.7948 28.5464 23.7882 28.5041C23.7874 28.4989 23.7865 28.4938 23.7853 28.4887C23.7839 28.4822 23.7822 28.4758 23.7803 28.4696L21.5175 2.38694Z" fill="#B0B0B0"/>
    <path fill-rule="evenodd" clip-rule="evenodd" d="M4.49617 12.0965C4.48827 12.1582 4.52783 12.2333 4.60692 12.3834L13.9508 30.1224C13.9939 30.2043 14.0154 30.2452 14.0478 30.271C14.0654 30.285 14.0853 30.2959 14.1065 30.3031C14.6056 30.6581 16.3948 30.5231 18.4167 29.945C20.4727 29.357 22.115 28.3929 22.2997 27.809C22.3071 27.7965 22.3131 27.7832 22.3175 27.7694C22.3303 27.7302 22.3257 27.6843 22.3167 27.5926L20.7661 11.9614C20.756 11.8597 20.751 11.8089 20.7278 11.7706C20.7074 11.7369 20.6774 11.7102 20.6416 11.6938C20.6011 11.6751 20.5499 11.6759 20.4476 11.6775L4.88075 11.9216C4.71106 11.9242 4.62622 11.9255 4.57585 11.9621C4.53189 11.994 4.50305 12.0427 4.49617 12.0965Z" fill="#FE9332"/>
    <path d="M20.78 11.8734C20.7687 12.9773 17.1478 13.8217 12.5782 13.7749C8.0087 13.7281 4.43353 12.9872 4.44485 11.8832C4.45617 10.7793 8.04968 9.7303 12.6192 9.77715C17.1887 9.824 20.7913 10.7694 20.78 11.8734Z" fill="#FF7D0C"/>
    <path d="M21.2849 2.61725C21.2849 2.61725 21.285 2.6175 21.2851 2.61786C21.2851 2.61833 21.2852 2.61911 21.2853 2.62037C21.2853 2.6227 21.2853 2.6281 21.2835 2.63728C21.28 2.65629 21.2696 2.69107 21.2408 2.74283C21.181 2.85044 21.0622 2.99486 20.8599 3.17113C20.4568 3.5226 19.8086 3.92669 18.9373 4.35704C17.2023 5.21392 14.6829 6.12662 11.7469 6.9133C8.8136 7.69928 6.10627 8.1639 4.10546 8.28448C3.10091 8.34501 2.30077 8.31704 1.74738 8.21156C1.46948 8.1586 1.28192 8.09114 1.16749 8.02517C1.09386 7.98271 1.06915 7.95242 1.06223 7.9415C1.06277 7.92859 1.06902 7.89 1.11156 7.81642C1.17766 7.70206 1.30638 7.54987 1.52055 7.36505C1.94706 6.99701 2.62603 6.5727 3.52626 6.12287C5.3193 5.22688 7.89623 4.27559 10.8295 3.48961C13.7605 2.70426 16.4074 2.27907 18.3473 2.19689C19.3212 2.15564 20.0905 2.20215 20.6203 2.31996C20.886 2.37903 21.0652 2.45044 21.1748 2.51864C21.2278 2.55162 21.2566 2.57889 21.271 2.59607C21.278 2.60438 21.2814 2.61009 21.2831 2.61301C21.2845 2.6158 21.2849 2.61706 21.2849 2.61725ZM1.05988 7.93705C1.05988 7.93705 1.06029 7.93769 1.06077 7.93905C1.06006 7.93774 1.05988 7.93705 1.05988 7.93705ZM1.0622 7.94435C1.06246 7.94577 1.06243 7.94653 1.06243 7.94653C1.06243 7.94653 1.06224 7.94584 1.0622 7.94435Z" stroke="#B0B0B0" stroke-width="0.984638"/>
    <path d="M11.7348 21.4061L14.1003 21.5734C14.2122 21.9505 14.2644 22.225 14.2568 22.3966L10.8151 22.0603L10.6151 21.3867L13.2703 19.0741C13.3686 19.2078 13.4746 19.4662 13.5884 19.8493L11.7348 21.4061ZM17.6499 20.5196L19.5409 19.0884L17.138 18.7954C17.0474 18.4901 17.009 18.2182 17.0228 17.9795L20.4686 18.4612L20.6686 19.1347L17.968 21.2947C17.8679 21.1551 17.7619 20.8967 17.6499 20.5196Z" fill="black"/>
    <path d="M14.9003 23.8116L15.5886 16.7036L16.3257 16.5413L15.6375 23.6493L14.9003 23.8116Z" fill="black"/>
    <path d="M37.0166 26.519C35.1134 26.519 33.4896 26.1349 32.1452 25.3666C30.8182 24.5809 29.8054 23.4809 29.1071 22.0666C28.4261 20.6523 28.0856 19.0023 28.0856 17.1166C28.0856 15.1959 28.4349 13.5197 29.1333 12.088C29.8492 10.6563 30.8706 9.54752 32.1975 8.76181C33.5245 7.95864 35.1221 7.55705 36.9904 7.55705C38.4047 7.55705 39.6706 7.8015 40.788 8.29038C41.9054 8.76181 42.8047 9.46895 43.4856 10.4118C44.184 11.3372 44.6206 12.4809 44.7952 13.8428H41.1809C40.9539 12.9872 40.4912 12.315 39.7928 11.8261C39.1118 11.3197 38.2039 11.0666 37.069 11.0666C35.8118 11.0666 34.8078 11.3547 34.0571 11.9309C33.3237 12.4896 32.7912 13.223 32.4594 14.1309C32.1277 15.0213 31.9618 15.9642 31.9618 16.9594C31.9618 17.9896 32.1364 18.9673 32.4856 19.8928C32.8349 20.8182 33.3849 21.569 34.1356 22.1451C34.9039 22.7213 35.9078 23.0094 37.1475 23.0094C37.8809 23.0094 38.5356 22.9047 39.1118 22.6951C39.688 22.4682 40.1594 22.1451 40.5261 21.7261C40.9102 21.307 41.1721 20.8094 41.3118 20.2332H45.0571C44.8999 21.5777 44.4459 22.7213 43.6952 23.6642C42.9444 24.607 41.9928 25.323 40.8404 25.8118C39.688 26.2832 38.4134 26.519 37.0166 26.519ZM46.494 26.3094V7.76657H50.1607V14.1047C50.5623 13.6332 51.0075 13.2666 51.4964 13.0047C52.0028 12.7428 52.5092 12.5594 53.0154 12.4547C53.5393 12.3325 54.0194 12.2713 54.4559 12.2713C55.748 12.2713 56.7607 12.5594 57.494 13.1356C58.2273 13.7118 58.7512 14.4888 59.0654 15.4666C59.3797 16.4444 59.5369 17.5182 59.5369 18.688V26.3094H55.8702V19.2118C55.8702 18.7928 55.8266 18.3737 55.7393 17.9547C55.6694 17.5356 55.5385 17.1515 55.3464 16.8023C55.1544 16.4356 54.8837 16.1475 54.5345 15.938C54.1853 15.711 53.7226 15.5975 53.1464 15.5975C52.6052 15.5975 52.1425 15.711 51.7583 15.938C51.3742 16.165 51.0599 16.4706 50.8154 16.8547C50.5885 17.2213 50.4226 17.6316 50.3178 18.0856C50.2131 18.5396 50.1607 18.9935 50.1607 19.4475V26.3094H46.494ZM65.9396 26.4928C65.3111 26.4928 64.7 26.4142 64.1063 26.257C63.5301 26.0825 63.0151 25.8206 62.5611 25.4713C62.1072 25.1221 61.7492 24.6856 61.4873 24.1618C61.2253 23.638 61.0944 23.0269 61.0944 22.3285C61.0944 21.3856 61.2865 20.6349 61.6706 20.0761C62.0548 19.4999 62.5698 19.0634 63.2158 18.7666C63.8619 18.4697 64.6039 18.269 65.442 18.1642C66.2976 18.0594 67.1793 18.007 68.0873 18.007H70.0777C70.0777 17.5007 69.9817 17.0554 69.7896 16.6713C69.6151 16.2697 69.3444 15.9642 68.9777 15.7547C68.6111 15.5277 68.1396 15.4142 67.5634 15.4142C67.1968 15.4142 66.8389 15.4666 66.4896 15.5713C66.1579 15.6587 65.8786 15.7896 65.6515 15.9642C65.4246 16.1388 65.2762 16.3658 65.2063 16.6451H61.4873C61.592 15.8769 61.8365 15.2221 62.2206 14.6809C62.6048 14.1221 63.0849 13.6682 63.6611 13.319C64.2373 12.9697 64.8658 12.7166 65.5468 12.5594C66.2453 12.3849 66.9611 12.2975 67.6944 12.2975C69.7024 12.2975 71.1865 12.8737 72.1468 14.0261C73.1072 15.161 73.5873 16.7761 73.5873 18.8713V26.3094H70.2873L70.2349 24.5285C69.7984 25.1396 69.3008 25.5849 68.742 25.8642C68.2008 26.1435 67.677 26.3182 67.1706 26.388C66.6643 26.4578 66.2539 26.4928 65.9396 26.4928ZM66.7777 23.5856C67.3889 23.5856 67.9476 23.4634 68.4539 23.219C68.9603 22.9745 69.3619 22.6428 69.6587 22.2237C69.9555 21.8047 70.1039 21.3332 70.1039 20.8094V20.469H67.5896C67.223 20.469 66.8651 20.4864 66.5158 20.5213C66.1841 20.5563 65.8786 20.6261 65.5992 20.7309C65.3373 20.8182 65.1277 20.9666 64.9706 21.1761C64.8134 21.3856 64.7349 21.665 64.7349 22.0142C64.7349 22.3634 64.8222 22.6602 64.9968 22.9047C65.1889 23.1316 65.442 23.3063 65.7563 23.4285C66.0706 23.5332 66.4111 23.5856 66.7777 23.5856ZM75.6657 26.3094V12.507H79.3324V26.3094H75.6657ZM77.4991 11.119C76.8181 11.119 76.2681 10.9182 75.8491 10.5166C75.43 10.0975 75.2205 9.56498 75.2205 8.91895C75.2205 8.238 75.4388 7.688 75.8753 7.26895C76.3118 6.8499 76.8618 6.64038 77.5252 6.64038C78.1364 6.64038 78.6602 6.8499 79.0967 7.26895C79.5507 7.67054 79.7776 8.21181 79.7776 8.89276C79.7776 9.55626 79.5594 10.0975 79.1229 10.5166C78.7038 10.9182 78.1626 11.119 77.4991 11.119ZM89.8866 26.519C87.9834 26.519 86.3595 26.1349 85.0152 25.3666C83.6881 24.5809 82.6754 23.4809 81.9771 22.0666C81.2961 20.6523 80.9556 19.0023 80.9556 17.1166C80.9556 15.1959 81.3048 13.5197 82.0033 12.088C82.7191 10.6563 83.7405 9.54752 85.0675 8.76181C86.3945 7.95864 87.9921 7.55705 89.8604 7.55705C91.2747 7.55705 92.5405 7.8015 93.658 8.29038C94.7754 8.76181 95.6742 9.46895 96.3552 10.4118C97.0542 11.3372 97.4904 12.4809 97.6647 13.8428H94.0509C93.8238 12.9872 93.3612 12.315 92.6628 11.8261C91.9818 11.3197 91.0738 11.0666 89.939 11.0666C88.6818 11.0666 87.6778 11.3547 86.9271 11.9309C86.1937 12.4896 85.6612 13.223 85.3294 14.1309C84.9976 15.0213 84.8318 15.9642 84.8318 16.9594C84.8318 17.9896 85.0064 18.9673 85.3556 19.8928C85.7048 20.8182 86.2548 21.569 87.0056 22.1451C87.7738 22.7213 88.7778 23.0094 90.0175 23.0094C90.7509 23.0094 91.4056 22.9047 91.9818 22.6951C92.558 22.4682 93.0294 22.1451 93.3961 21.7261C93.7802 21.307 94.0421 20.8094 94.1818 20.2332H97.9266C97.7694 21.5777 97.3161 22.7213 96.5647 23.6642C95.8142 24.607 94.8628 25.323 93.7104 25.8118C92.558 26.2832 91.2834 26.519 89.8866 26.519ZM105.807 26.4928C104.41 26.4928 103.188 26.2134 102.14 25.6547C101.092 25.0785 100.281 24.2666 99.7047 23.219C99.1285 22.1539 98.8399 20.8968 98.8399 19.4475C98.8399 17.9634 99.1285 16.6888 99.7047 15.6237C100.298 14.5411 101.119 13.7118 102.167 13.1356C103.214 12.5594 104.419 12.2713 105.781 12.2713C107.177 12.2713 108.391 12.5682 109.421 13.1618C110.451 13.7554 111.254 14.5849 111.83 15.6499C112.407 16.715 112.695 17.9896 112.695 19.4737C112.695 20.923 112.407 22.1801 111.83 23.2451C111.272 24.2928 110.477 25.0959 109.448 25.6547C108.434 26.2134 107.221 26.4928 105.807 26.4928ZM105.754 23.1404C106.558 23.1404 107.204 22.9658 107.692 22.6166C108.182 22.2673 108.53 21.8134 108.74 21.2547C108.968 20.6785 109.081 20.0761 109.081 19.4475C109.081 18.819 108.968 18.2166 108.74 17.6404C108.53 17.0642 108.182 16.5928 107.692 16.2261C107.221 15.842 106.575 15.6499 105.754 15.6499C104.968 15.6499 104.331 15.842 103.843 16.2261C103.353 16.5928 102.996 17.0642 102.768 17.6404C102.559 18.2166 102.454 18.819 102.454 19.4475C102.454 20.0935 102.559 20.6959 102.768 21.2547C102.996 21.8134 103.353 22.2673 103.843 22.6166C104.331 22.9658 104.968 23.1404 105.754 23.1404ZM119.94 26.4928C118.544 26.4928 117.382 26.1785 116.457 25.5499C115.548 24.9039 114.868 24.0483 114.414 22.9832C113.96 21.9007 113.733 20.7047 113.733 19.3951C113.733 18.0158 113.977 16.7935 114.467 15.7285C114.955 14.6459 115.68 13.7991 116.64 13.188C117.601 12.5769 118.796 12.2713 120.228 12.2713C120.717 12.2713 121.197 12.3325 121.668 12.4547C122.158 12.5594 122.603 12.7253 123.005 12.9523C123.424 13.1618 123.782 13.4411 124.078 13.7904V7.76657H127.745V26.3094H124.183L124.13 24.7642C123.816 25.1658 123.432 25.4975 122.978 25.7594C122.542 26.0039 122.07 26.1872 121.564 26.3094C121.058 26.4316 120.516 26.4928 119.94 26.4928ZM120.673 23.1928C121.459 23.1928 122.096 23.0094 122.586 22.6428C123.091 22.2761 123.468 21.8047 123.711 21.2285C123.956 20.6523 124.078 20.0325 124.078 19.369C124.078 18.688 123.956 18.0682 123.711 17.5094C123.485 16.9332 123.118 16.4792 122.611 16.1475C122.123 15.7983 121.477 15.6237 120.673 15.6237C119.87 15.6237 119.225 15.807 118.735 16.1737C118.247 16.5404 117.897 17.0206 117.688 17.6142C117.496 18.1904 117.4 18.8102 117.4 19.4737C117.4 19.9626 117.452 20.434 117.557 20.888C117.679 21.3245 117.871 21.7173 118.133 22.0666C118.395 22.4158 118.735 22.6951 119.154 22.9047C119.573 23.0968 120.08 23.1928 120.673 23.1928ZM136.152 26.4928C134.703 26.4928 133.472 26.2047 132.459 25.6285C131.447 25.0523 130.669 24.2404 130.128 23.1928C129.587 22.1277 129.316 20.888 129.316 19.4737C129.316 18.042 129.596 16.7935 130.154 15.7285C130.713 14.6459 131.499 13.7991 132.511 13.188C133.542 12.5769 134.755 12.2713 136.152 12.2713C137.2 12.2713 138.116 12.4459 138.902 12.7951C139.706 13.1444 140.377 13.6332 140.919 14.2618C141.477 14.8904 141.888 15.6237 142.149 16.4618C142.429 17.2825 142.56 18.173 142.543 19.1332C142.543 19.3777 142.534 19.6134 142.516 19.8404C142.499 20.0673 142.464 20.2944 142.411 20.5213H132.957C133.009 21.0451 133.158 21.5253 133.402 21.9618C133.647 22.3983 133.987 22.7475 134.424 23.0094C134.877 23.2539 135.436 23.3761 136.1 23.3761C136.536 23.3761 136.938 23.3325 137.305 23.2451C137.671 23.1404 137.986 22.9832 138.248 22.7737C138.509 22.5642 138.692 22.3197 138.797 22.0404H142.411C142.185 23.0706 141.757 23.9173 141.128 24.5809C140.517 25.2444 139.775 25.7332 138.902 26.0475C138.029 26.3444 137.112 26.4928 136.152 26.4928ZM133.035 17.9547H139.033C139.015 17.4832 138.893 17.0468 138.667 16.6451C138.457 16.2261 138.134 15.8944 137.697 15.6499C137.278 15.388 136.737 15.257 136.073 15.257C135.41 15.257 134.851 15.388 134.397 15.6499C133.961 15.9118 133.629 16.2523 133.402 16.6713C133.192 17.073 133.07 17.5007 133.035 17.9547Z" fill="black"/>
    <path d="M77.4761 11.2619C78.7648 11.2619 79.8095 10.2172 79.8095 8.92855C79.8095 7.63988 78.7648 6.59521 77.4761 6.59521C76.1875 6.59521 75.1428 7.63988 75.1428 8.92855C75.1428 10.2172 76.1875 11.2619 77.4761 11.2619Z" fill="#FE9332"/>
  </g>
  <defs>
    <clipPath id="clip0_96_4702">
      <rect width="142.571" height="32" fill="white" transform="translate(0 0.5)"/>
    </clipPath>
  </defs>
</svg>