<svg xmlns="http://www.w3.org/2000/svg" width="25" height="25" viewBox="0 0 25 25" fill="none">
  <path d="M23.5357 2.75C23.5357 2 22.7857 1.25 22.0357 1.25H2.53571C1.78571 1.25 1.03571 2 1.03571 2.75V17H23.5357V2.75Z" fill="#212528"/>
  <path d="M1.03571 17V18.5C1.03571 19.25 1.78571 20 2.53571 20H22.0357C22.7857 20 23.5357 19.25 23.5357 18.5V17H1.03571Z" fill="#DDDDDD"/>
  <path d="M9.28571 20.75C9.28571 22.25 7.78571 22.25 6.28571 22.25H18.2857C16.7857 22.25 15.2857 22.25 15.2857 20.75V20H9.28571V20.75Z" fill="#BFBEBE"/>
  <path d="M2.53571 2.75H22.0357V15.5H2.53571V2.75Z" fill="#3E4347"/>
  <path d="M15.9295 7.30334L17.047 8.26603C17.5161 8.67132 17.751 8.87351 17.751 9.12488C17.751 9.37625 17.5161 9.57844 17.047 9.98373L15.9295 10.9464M8.64337 7.30334L7.52586 8.26603C7.05682 8.67132 6.82184 8.87351 6.82184 9.12488C6.82184 9.37625 7.05682 9.57844 7.52586 9.98373L8.64337 10.9464M13.1972 6.39258L11.3757 11.8572" stroke="white" stroke-width="1.5" stroke-linecap="round" stroke-linejoin="round"/>
  <path d="M12.2857 18.8374C12.4928 18.8374 12.6607 18.6695 12.6607 18.4624C12.6607 18.2553 12.4928 18.0874 12.2857 18.0874C12.0786 18.0874 11.9107 18.2553 11.9107 18.4624C11.9107 18.6695 12.0786 18.8374 12.2857 18.8374Z" fill="#94989B"/>
  <path d="M6.28571 22.25H18.2857V23.75H6.28571V22.25Z" fill="#94989B"/>
</svg>