<svg xmlns="http://www.w3.org/2000/svg" width="25" height="24" viewBox="0 0 25 24" fill="none">
  <path d="M20.6044 3.89453C21.6442 3.89453 22.487 4.73744 22.487 5.77717V15.2065C22.487 16.2462 21.6441 17.0891 20.6044 17.0891H4.39631C3.35653 17.0891 2.51367 16.2462 2.51367 15.2065V5.77717C2.51367 4.73739 3.35658 3.89453 4.39631 3.89453H20.6044Z" fill="white"/>
  <path d="M2.51367 14.4072V15.2064C2.51367 16.2461 3.35658 17.089 4.39631 17.089H20.6043C21.6441 17.089 22.487 16.2461 22.487 15.2064V14.4072H2.51367Z" fill="#BC9AF4"/>
  <path d="M15.1734 20.1055L14.1782 17.0891H10.8233L9.82812 20.1055H15.1734Z" fill="#6864F7"/>
  <path d="M9.82772 20.1055L10.8229 17.0891M14.1778 17.0891L15.173 20.1055M17.7134 3.89453H20.6044C21.6442 3.89453 22.487 4.73744 22.487 5.77717V15.2065C22.487 16.2462 21.6441 17.0891 20.6044 17.0891H4.39631C3.35653 17.0891 2.51367 16.2462 2.51367 15.2065V5.77717C2.51367 4.73739 3.35658 3.89453 4.39631 3.89453H17.7134Z" stroke="#052A75" stroke-width="0.5" stroke-miterlimit="10" stroke-linejoin="round"/>
  <path d="M6.10071 20.1055H18.8999" stroke="#052A75" stroke-width="0.9375" stroke-miterlimit="10" stroke-linecap="round" stroke-linejoin="round"/>
  <path d="M10.0138 8.90075L8.63379 10.2808L10.0138 11.6608M14.9862 11.6608L16.3662 10.2808L14.9862 8.90075M13.3862 8.57422L11.6138 11.9874" stroke="#6864F7" stroke-width="0.700345" stroke-miterlimit="10" stroke-linecap="round" stroke-linejoin="round"/>
</svg>