<svg xmlns="http://www.w3.org/2000/svg" width="25" height="24" viewBox="0 0 25 24" fill="none">
  <path opacity="0.15" d="M5 22.75C5 22.9489 5.79018 23.1397 7.1967 23.2803C8.60322 23.421 10.5109 23.5 12.5 23.5C14.4891 23.5 16.3968 23.421 17.8033 23.2803C19.2098 23.1397 20 22.9489 20 22.75C20 22.5511 19.2098 22.3603 17.8033 22.2197C16.3968 22.079 14.4891 22 12.5 22C10.5109 22 8.60322 22.079 7.1967 22.2197C5.79018 22.3603 5 22.5511 5 22.75Z" fill="#45413C"/>
  <path d="M2.83502 2H22.17V14.605H2.83502V2Z" fill="#525252" stroke="#45413C" stroke-width="0.5" stroke-linecap="round" stroke-linejoin="round"/>
  <path d="M4.28002 3.29492H8.64502V4.62992H4.28002V3.29492ZM9.31002 3.29492H18.015V4.62992H9.31002V3.29492ZM18.51 3.29492H20.72V4.62992H18.51V3.29492ZM4.28002 5.46492H5.33502V6.79992H4.28002V5.46492ZM6.03502 5.46492H10.555V6.79992H6.03502V5.46492ZM11.23 5.46492H13.49V6.79992H11.23V5.46492ZM14.085 5.46492H20.715V6.79992H14.085V5.46492ZM4.21002 7.63492H9.24002V8.96992H4.21002V7.63492ZM9.78502 7.63492H20.72V8.96992H9.78502V7.63492ZM4.21002 9.80492H7.59002V11.1399H4.21002V9.80492ZM8.34002 9.80492H15.97V11.1399H8.34002V9.80492ZM16.59 9.80492H17.915V11.1399H16.59V9.80492ZM18.51 9.80492H20.72V11.1399H18.51V9.80492ZM4.21002 11.9749H16.59V13.3099H4.21002V11.9749ZM17.25 11.9749H20.72V13.3099H17.25V11.9749Z" fill="#6DD627"/>
  <path d="M12.4996 15.6101C14.075 15.6101 15.5858 16.2359 16.6998 17.3499C17.8138 18.4639 18.4396 19.9747 18.4396 21.5501V22.5001H6.55957V21.5501C6.55957 19.9747 7.18539 18.4639 8.29936 17.3499C9.41332 16.2359 10.9242 15.6101 12.4996 15.6101Z" fill="#00B8F0"/>
  <path d="M12.4996 15.6101C10.9242 15.6101 9.41332 16.2359 8.29936 17.3499C7.18539 18.4639 6.55957 19.9747 6.55957 21.5501V22.5001H6.62457C6.82664 21.0855 7.53188 19.7912 8.61096 18.8545C9.69004 17.9177 11.0706 17.4014 12.4996 17.4001C13.9285 17.4014 15.3091 17.9177 16.3882 18.8545C17.4673 19.7912 18.1725 21.0855 18.3746 22.5001H18.4396V21.5501C18.4396 19.9747 17.8138 18.4639 16.6998 17.3499C15.5858 16.2359 14.075 15.6101 12.4996 15.6101Z" fill="#009FD9"/>
  <path d="M12.4996 15.6101C14.075 15.6101 15.5858 16.2359 16.6998 17.3499C17.8138 18.4639 18.4396 19.9747 18.4396 21.5501V22.5001H6.55957V21.5501C6.55957 19.9747 7.18539 18.4639 8.29936 17.3499C9.41332 16.2359 10.9242 15.6101 12.4996 15.6101Z" stroke="#45413C" stroke-width="0.5" stroke-linecap="round" stroke-linejoin="round"/>
  <path d="M11.2305 13.585H13.7755V17.555H11.2305V13.585Z" fill="#FFCEBF"/>
  <path d="M12.5005 13.585C12.1636 13.585 11.8406 13.7188 11.6024 13.9569C11.3643 14.1951 11.2305 14.5181 11.2305 14.855V15.155C11.2305 15.4918 11.3643 15.8148 11.6024 16.053C11.8406 16.2912 12.1636 16.425 12.5005 16.425C12.8373 16.425 13.1603 16.2912 13.3985 16.053C13.6367 15.8148 13.7705 15.4918 13.7705 15.155V14.86C13.7711 14.6928 13.7388 14.5271 13.6752 14.3724C13.6117 14.2178 13.5183 14.0772 13.4003 13.9587C13.2823 13.8402 13.142 13.7462 12.9876 13.6821C12.8332 13.618 12.6677 13.585 12.5005 13.585Z" fill="#FFB59E"/>
  <path d="M9.03027 22.5V21.295M15.9703 22.5V21.295M11.2303 13.585H13.7753V17.555H11.2303V13.585Z" stroke="#45413C" stroke-width="0.5" stroke-linecap="round" stroke-linejoin="round"/>
  <path d="M12.5 3.45508C12.0885 3.4553 11.6786 3.50738 11.28 3.61008C10.35 3.82008 9.14003 4.17008 8.04503 3.96008C8.00237 4.24211 8.0176 4.52987 8.08981 4.80581C8.16202 5.08176 8.28969 5.3401 8.46503 5.56508C7.89427 6.38716 7.58891 7.36429 7.59003 8.36508V10.9351H17.41V8.36508C17.41 7.06287 16.8927 5.81399 15.9719 4.89318C15.0511 3.97238 13.8022 3.45508 12.5 3.45508Z" fill="#A86C4D"/>
  <path d="M12.5 3.45508C12.0884 3.4553 11.6785 3.50738 11.28 3.61008C10.35 3.82008 9.14 4.17008 8.045 3.96008C7.97731 4.48456 8.09778 5.01605 8.385 5.46008C9.36441 5.47534 10.3405 5.34216 11.28 5.06508C12.0052 4.87803 12.7636 4.85954 13.4971 5.01102C14.2305 5.1625 14.9196 5.47993 15.5113 5.93896C16.1031 6.398 16.5819 6.98645 16.911 7.6592C17.2401 8.33195 17.4108 9.07114 17.41 9.82008V8.36508C17.41 7.06287 16.8927 5.81399 15.9719 4.89318C15.0511 3.97238 13.8022 3.45508 12.5 3.45508Z" fill="#DE926A"/>
  <path d="M12.5 3.45508C12.0885 3.4553 11.6786 3.50738 11.28 3.61008C10.35 3.82008 9.14003 4.17008 8.04503 3.96008C8.00237 4.24211 8.0176 4.52987 8.08981 4.80581C8.16202 5.08176 8.28969 5.3401 8.46503 5.56508C7.89427 6.38715 7.58891 7.36429 7.59003 8.36508V10.9351H17.41V8.36508C17.41 7.06287 16.8927 5.81399 15.9719 4.89318C15.0511 3.97238 13.8022 3.45508 12.5 3.45508Z" stroke="#45413C" stroke-width="0.5" stroke-linecap="round" stroke-linejoin="round"/>
  <path d="M17.9347 10.5599C17.9104 10.3763 17.8309 10.2044 17.7068 10.0669C17.5827 9.92943 17.4199 9.83284 17.2397 9.78991L16.9447 9.70991C16.7273 9.64852 16.5362 9.51738 16.4007 9.33669C16.2651 9.156 16.1928 8.93577 16.1947 8.70991V7.68991C16.1941 7.48372 16.1258 7.28343 16.0002 7.11989C15.8746 6.95636 15.6988 6.83865 15.4997 6.78491C14.5464 7.16605 13.5261 7.35139 12.4997 7.32991C11.4732 7.35139 10.453 7.16605 9.49969 6.78491C9.29969 6.83772 9.1227 6.95503 8.99614 7.11865C8.86959 7.28227 8.80054 7.48306 8.79969 7.68991V8.71991C8.80161 8.94577 8.72925 9.166 8.59373 9.34669C8.45821 9.52738 8.26705 9.65852 8.04969 9.71991L7.75469 9.79991C7.57453 9.84284 7.41163 9.93943 7.28754 10.0769C7.16345 10.2144 7.08399 10.3863 7.05969 10.5699C7.04633 10.6965 7.05981 10.8245 7.09927 10.9455C7.13873 11.0665 7.20327 11.1778 7.28868 11.2722C7.37409 11.3666 7.47844 11.4419 7.59493 11.4932C7.71141 11.5445 7.83741 11.5706 7.96469 11.5699H8.01969C8.13668 12.6752 8.65859 13.6981 9.48484 14.4415C10.3111 15.1849 11.3832 15.5962 12.4947 15.5962C13.6062 15.5962 14.6783 15.1849 15.5045 14.4415C16.3308 13.6981 16.8527 12.6752 16.9697 11.5699H17.0247C17.1533 11.5715 17.2808 11.5456 17.3987 11.494C17.5165 11.4425 17.622 11.3663 17.7082 11.2708C17.7943 11.1752 17.859 11.0623 17.8981 10.9398C17.9371 10.8172 17.9496 10.6877 17.9347 10.5599Z" fill="#FFCEBF" stroke="#45413C" stroke-width="0.5" stroke-linecap="round" stroke-linejoin="round"/>
  <path d="M9.78501 10.4551C9.78501 10.5312 9.80759 10.6057 9.84989 10.669C9.8922 10.7323 9.95232 10.7817 10.0227 10.8108C10.093 10.8399 10.1704 10.8476 10.2451 10.8327C10.3198 10.8178 10.3884 10.7812 10.4422 10.7273C10.4961 10.6735 10.5328 10.6049 10.5476 10.5302C10.5625 10.4555 10.5548 10.3781 10.5257 10.3078C10.4966 10.2374 10.4472 10.1773 10.3839 10.135C10.3206 10.0927 10.2462 10.0701 10.17 10.0701C10.1193 10.0694 10.0689 10.0789 10.0219 10.098C9.97487 10.1171 9.93216 10.1455 9.89627 10.1814C9.86039 10.2173 9.83205 10.26 9.81294 10.307C9.79383 10.354 9.78433 10.4044 9.78501 10.4551ZM15.215 10.4551C15.215 10.5312 15.1924 10.6057 15.1501 10.669C15.1078 10.7323 15.0477 10.7817 14.9773 10.8108C14.907 10.8399 14.8296 10.8476 14.7549 10.8327C14.6802 10.8178 14.6116 10.7812 14.5578 10.7273C14.5039 10.6735 14.4673 10.6049 14.4524 10.5302C14.4375 10.4555 14.4452 10.3781 14.4743 10.3078C14.5035 10.2374 14.5528 10.1773 14.6161 10.135C14.6794 10.0927 14.7539 10.0701 14.83 10.0701C14.8808 10.0694 14.9311 10.0789 14.9781 10.098C15.0251 10.1171 15.0679 10.1455 15.1037 10.1814C15.1396 10.2173 15.168 10.26 15.1871 10.307C15.2062 10.354 15.2157 10.4044 15.215 10.4551Z" fill="#45413C" stroke="#45413C" stroke-width="0.5" stroke-linecap="round" stroke-linejoin="round"/>
  <path d="M11.0803 12.8C11.0487 12.8007 11.0176 12.8082 10.9891 12.822C10.9606 12.8358 10.9355 12.8556 10.9153 12.88C10.8944 12.9036 10.879 12.9316 10.8704 12.9619C10.8617 12.9921 10.86 13.024 10.8653 13.055C10.9328 13.4397 11.1338 13.7882 11.4328 14.0393C11.7319 14.2904 12.1098 14.428 12.5003 14.428C12.8908 14.428 13.2688 14.2904 13.5678 14.0393C13.8669 13.7882 14.0678 13.4397 14.1353 13.055C14.1407 13.024 14.1389 12.9921 14.1303 12.9619C14.1216 12.9316 14.1063 12.9036 14.0853 12.88C14.0652 12.8556 14.04 12.8358 14.0116 12.822C13.9831 12.8082 13.952 12.8007 13.9203 12.8H11.0803Z" fill="#FF6242"/>
  <path d="M12.5 13.5001C12.0486 13.4824 11.6045 13.6181 11.24 13.8851C11.3975 14.0605 11.5903 14.2008 11.8056 14.2969C12.021 14.393 12.2542 14.4426 12.49 14.4426C12.7258 14.4426 12.959 14.393 13.1743 14.2969C13.3897 14.2008 13.5824 14.0605 13.74 13.8851C13.381 13.6224 12.9446 13.4869 12.5 13.5001Z" fill="#FFA694"/>
  <path d="M11.0803 12.8C11.0487 12.8007 11.0176 12.8082 10.9891 12.822C10.9606 12.8358 10.9355 12.8556 10.9153 12.88C10.8944 12.9036 10.879 12.9316 10.8704 12.9619C10.8617 12.9921 10.86 13.024 10.8653 13.055C10.9328 13.4397 11.1338 13.7882 11.4328 14.0393C11.7319 14.2904 12.1098 14.428 12.5003 14.428C12.8908 14.428 13.2688 14.2904 13.5678 14.0393C13.8669 13.7882 14.0678 13.4397 14.1353 13.055C14.1407 13.024 14.1389 12.9921 14.1303 12.9619C14.1216 12.9316 14.1063 12.9036 14.0853 12.88C14.0652 12.8556 14.04 12.8358 14.0116 12.822C13.9831 12.8082 13.952 12.8007 13.9203 12.8H11.0803Z" stroke="#45413C" stroke-width="0.5" stroke-linecap="round" stroke-linejoin="round"/>
  <path d="M9.03027 12.0949C9.03027 12.1745 9.08295 12.2508 9.17672 12.3071C9.27049 12.3633 9.39767 12.3949 9.53027 12.3949C9.66288 12.3949 9.79006 12.3633 9.88383 12.3071C9.9776 12.2508 10.0303 12.1745 10.0303 12.0949C10.0303 12.0154 9.9776 11.9391 9.88383 11.8828C9.79006 11.8265 9.66288 11.7949 9.53027 11.7949C9.39767 11.7949 9.27049 11.8265 9.17672 11.8828C9.08295 11.9391 9.03027 12.0154 9.03027 12.0949ZM14.9703 12.0949C14.9703 12.1745 15.023 12.2508 15.1167 12.3071C15.2105 12.3633 15.3377 12.3949 15.4703 12.3949C15.6029 12.3949 15.7301 12.3633 15.8238 12.3071C15.9176 12.2508 15.9703 12.1745 15.9703 12.0949C15.9703 12.0154 15.9176 11.9391 15.8238 11.8828C15.7301 11.8265 15.6029 11.7949 15.4703 11.7949C15.3377 11.7949 15.2105 11.8265 15.1167 11.8828C15.023 11.9391 14.9703 12.0154 14.9703 12.0949Z" fill="#FFB59E"/>
  <path d="M16.76 22.4999H8.26001C8.16941 22.5026 8.08082 22.4729 8.01022 22.4161C7.93962 22.3592 7.89166 22.279 7.87501 22.1899L7.27001 17.2399C7.26704 17.1881 7.27513 17.1363 7.29375 17.0879C7.31237 17.0395 7.34109 16.9957 7.37799 16.9592C7.41489 16.9228 7.45912 16.8947 7.50775 16.8767C7.55638 16.8587 7.60828 16.8513 7.66001 16.8549H17.36C17.4117 16.8513 17.4636 16.8587 17.5123 16.8767C17.5609 16.8947 17.6051 16.9228 17.642 16.9592C17.6789 16.9957 17.7076 17.0395 17.7263 17.0879C17.7449 17.1363 17.753 17.1881 17.75 17.2399L17.145 22.1899C17.1284 22.279 17.0804 22.3592 17.0098 22.4161C16.9392 22.4729 16.8506 22.5026 16.76 22.4999Z" fill="#ADC4D9"/>
  <path d="M7.63962 18.4699H17.3596C17.4422 18.4706 17.5225 18.4968 17.5896 18.5449L17.7496 17.2399C17.7526 17.1881 17.7445 17.1363 17.7259 17.0879C17.7073 17.0395 17.6785 16.9957 17.6416 16.9592C17.6047 16.9228 17.5605 16.8947 17.5119 16.8767C17.4633 16.8587 17.4113 16.8513 17.3596 16.8549H7.63962C7.5879 16.8513 7.536 16.8587 7.48737 16.8767C7.43874 16.8947 7.3945 16.9228 7.3576 16.9592C7.3207 16.9957 7.29198 17.0395 7.27337 17.0879C7.25475 17.1363 7.24665 17.1881 7.24962 17.2399L7.40962 18.5449C7.47671 18.4968 7.55705 18.4706 7.63962 18.4699Z" fill="#C0DCEB"/>
  <path d="M16.76 22.4999H8.26001C8.16941 22.5026 8.08082 22.4729 8.01022 22.4161C7.93962 22.3592 7.89166 22.279 7.87501 22.1899L7.27001 17.2399C7.26704 17.1881 7.27513 17.1363 7.29375 17.0879C7.31237 17.0395 7.34109 16.9957 7.37799 16.9592C7.41489 16.9228 7.45912 16.8947 7.50775 16.8767C7.55638 16.8587 7.60828 16.8513 7.66001 16.8549H17.36C17.4117 16.8513 17.4636 16.8587 17.5123 16.8767C17.5609 16.8947 17.6051 16.9228 17.642 16.9592C17.6789 16.9957 17.7076 17.0395 17.7263 17.0879C17.7449 17.1363 17.753 17.1881 17.75 17.2399L17.145 22.1899C17.1284 22.279 17.0804 22.3592 17.0098 22.4161C16.9392 22.4729 16.8506 22.5026 16.76 22.4999Z" stroke="#45413C" stroke-width="0.5" stroke-linecap="round" stroke-linejoin="round"/>
  <path d="M13.0954 19.68C13.0895 19.5292 13.1315 19.3805 13.2154 19.255C13.1696 19.1947 13.1041 19.1522 13.0304 19.135C12.9442 19.105 12.8504 19.1049 12.7641 19.1349C12.6779 19.1648 12.6044 19.223 12.5554 19.3C12.504 19.2189 12.426 19.1582 12.3349 19.1281C12.2437 19.098 12.1449 19.1005 12.0554 19.135C11.8054 19.185 11.6804 19.545 11.7704 19.93C11.8604 20.315 12.1404 20.59 12.3954 20.54C12.4471 20.5261 12.495 20.5004 12.5354 20.465C12.573 20.5014 12.6196 20.5272 12.6704 20.54C12.8754 20.58 13.0954 20.41 13.2204 20.14C13.1233 20.0074 13.0787 19.8435 13.0954 19.68Z" fill="white"/>
  <path d="M12.5965 19.0571C12.6076 19.0689 12.6242 19.0743 12.6453 19.0731C12.6665 19.0719 12.6917 19.064 12.7195 19.05C12.7473 19.036 12.7771 19.0161 12.8071 18.9915C12.8372 18.9669 12.8669 18.9381 12.8944 18.9069C12.9219 18.8756 12.9467 18.8426 12.9673 18.8096C12.9879 18.7767 13.0039 18.7446 13.0143 18.7152C13.0247 18.6858 13.0294 18.6598 13.028 18.6386C13.0265 18.6175 13.0191 18.6016 13.006 18.5921C12.9945 18.5811 12.9777 18.5763 12.9566 18.578C12.9354 18.5796 12.9104 18.5878 12.8828 18.6019C12.8553 18.616 12.8259 18.6358 12.7962 18.6601C12.7666 18.6844 12.7374 18.7128 12.7102 18.7436C12.683 18.7745 12.6585 18.8071 12.638 18.8396C12.6175 18.8721 12.6015 18.9038 12.5909 18.933C12.5803 18.9621 12.5753 18.9881 12.5761 19.0094C12.577 19.0307 12.5838 19.0469 12.596 19.0571" fill="white"/>
</svg>