<svg xmlns="http://www.w3.org/2000/svg" width="25" height="25" viewBox="0 0 25 25" fill="none">
  <path d="M15.3809 4.89512C14.3257 3.83856 12.9877 3.10955 11.5278 2.79587C10.0679 2.48219 8.54842 2.59721 7.15238 3.12709C5.75635 3.65698 4.54325 4.57912 3.65916 5.78248C2.77508 6.98584 2.2577 8.41912 2.16934 9.90972C2.08097 11.4003 2.42539 12.8847 3.1611 14.1841C3.89682 15.4835 4.99247 16.5425 6.31613 17.2336C7.63978 17.9247 9.13499 18.2184 10.6217 18.0794C12.1085 17.9404 13.5233 17.3746 14.6959 16.4501L15.8659 17.6201L17.1559 16.3301L15.9859 15.1601C17.1593 13.6718 17.7459 11.8046 17.6344 9.91263C17.5229 8.02063 16.7211 6.23531 15.3809 4.89512Z" fill="#DAEDF7"/>
  <path d="M4.43107 6.50001C5.46534 5.46388 6.77241 4.74255 8.20038 4.41983C9.62836 4.09712 11.1186 4.18627 12.4979 4.67694C13.8772 5.1676 15.089 6.03963 15.9923 7.19168C16.8957 8.34372 17.4535 9.72847 17.6011 11.185C17.7146 10.1062 17.6001 9.01559 17.265 7.9839C16.9299 6.9522 16.3816 6.00247 15.6558 5.19629C14.93 4.39012 14.0429 3.74551 13.0519 3.30426C12.061 2.86302 10.9883 2.63501 9.90358 2.63501C8.81882 2.63501 7.74618 2.86302 6.75522 3.30426C5.76426 3.74551 4.87711 4.39012 4.15132 5.19629C3.42552 6.00247 2.87729 6.9522 2.54218 7.9839C2.20706 9.01559 2.09255 10.1062 2.20607 11.185C2.38284 9.4128 3.16926 7.7569 4.43107 6.50001Z" fill="#E8F4FA"/>
  <path d="M15.3809 4.89512C14.3257 3.83856 12.9877 3.10955 11.5278 2.79587C10.0679 2.48219 8.54842 2.59721 7.15238 3.12709C5.75635 3.65698 4.54325 4.57912 3.65916 5.78248C2.77508 6.98584 2.2577 8.41912 2.16934 9.90972C2.08097 11.4003 2.42539 12.8847 3.1611 14.1841C3.89682 15.4835 4.99247 16.5425 6.31613 17.2336C7.63978 17.9247 9.13499 18.2184 10.6217 18.0794C12.1085 17.9404 13.5233 17.3746 14.6959 16.4501L15.8659 17.6201L17.1559 16.3301L15.9859 15.1601C17.1593 13.6718 17.7459 11.8046 17.6344 9.91263C17.5229 8.02063 16.7211 6.23531 15.3809 4.89512Z" stroke="#45413C" stroke-width="0.5" stroke-linecap="round" stroke-linejoin="round"/>
  <path opacity="0.15" d="M6.41565 23.1701C6.41565 23.2791 6.62309 23.387 7.02614 23.4877C7.42918 23.5884 8.01993 23.6799 8.76465 23.757C9.50938 23.8341 10.3935 23.8952 11.3665 23.9369C12.3396 23.9786 13.3824 24.0001 14.4356 24.0001C15.4889 24.0001 16.5317 23.9786 17.5048 23.9369C18.4778 23.8952 19.3619 23.8341 20.1066 23.757C20.8514 23.6799 21.4421 23.5884 21.8452 23.4877C22.2482 23.387 22.4557 23.2791 22.4557 23.1701C22.4557 22.95 21.6107 22.7388 20.1066 22.5832C18.6026 22.4275 16.5627 22.3401 14.4356 22.3401C12.3086 22.3401 10.2687 22.4275 8.76465 22.5832C7.26061 22.7388 6.41565 22.95 6.41565 23.1701Z" fill="#45413C"/>
  <path d="M3.75537 10.37C3.75537 12.0011 4.40332 13.5653 5.55666 14.7187C6.71001 15.872 8.27429 16.52 9.90537 16.52C11.5365 16.52 13.1007 15.872 14.2541 14.7187C15.4074 13.5653 16.0554 12.0011 16.0554 10.37C16.0554 8.73889 15.4074 7.17461 14.2541 6.02126C13.1007 4.86792 11.5365 4.21997 9.90537 4.21997C8.27429 4.21997 6.71001 4.86792 5.55666 6.02126C4.40332 7.17461 3.75537 8.73889 3.75537 10.37Z" fill="#00B8F0"/>
  <path d="M5.55565 6.00009C4.52426 7.02855 3.89173 8.38993 3.77084 9.84143C3.64996 11.2929 4.04859 12.7402 4.89565 13.9251L13.0256 5.08009C11.8547 4.38366 10.4855 4.09611 9.13332 4.26264C7.78113 4.42918 6.52263 5.04035 5.55565 6.00009Z" fill="#4ACFFF"/>
  <path d="M3.75537 10.37C3.75537 12.0011 4.40332 13.5653 5.55666 14.7187C6.71001 15.872 8.27429 16.52 9.90537 16.52C11.5365 16.52 13.1007 15.872 14.2541 14.7187C15.4074 13.5653 16.0554 12.0011 16.0554 10.37C16.0554 8.73889 15.4074 7.17461 14.2541 6.02126C13.1007 4.86792 11.5365 4.21997 9.90537 4.21997C8.27429 4.21997 6.71001 4.86792 5.55666 6.02126C4.40332 7.17461 3.75537 8.73889 3.75537 10.37Z" stroke="#45413C" stroke-width="0.5" stroke-linecap="round" stroke-linejoin="round"/>
  <path d="M21.9856 20.1951L17.6356 15.8451C17.5496 15.7605 17.4338 15.7131 17.3131 15.7131C17.1925 15.7131 17.0767 15.7605 16.9906 15.8451L15.3806 17.4551C15.2961 17.5412 15.2487 17.657 15.2487 17.7776C15.2487 17.8983 15.2961 18.0141 15.3806 18.1001L19.7306 22.4501C20.0321 22.7372 20.4338 22.8951 20.8501 22.89C21.2663 22.8849 21.6641 22.7173 21.9585 22.423C22.2528 22.1286 22.4204 21.7308 22.4255 21.3146C22.4306 20.8983 22.2727 20.4966 21.9856 20.1951Z" fill="#B89558"/>
  <path d="M21.9856 20.1951L17.6356 15.8451C17.5496 15.7605 17.4337 15.7131 17.3131 15.7131C17.1925 15.7131 17.0766 15.7605 16.9906 15.8451L15.9906 16.8451C16.0329 16.8026 16.0831 16.7689 16.1385 16.7459C16.1938 16.7229 16.2532 16.7111 16.3131 16.7111C16.373 16.7111 16.4324 16.7229 16.4877 16.7459C16.5431 16.7689 16.5933 16.8026 16.6356 16.8451L20.9856 21.1951C21.1928 21.4024 21.3385 21.6631 21.4065 21.9482C21.4744 22.2333 21.462 22.5316 21.3706 22.8101C21.6094 22.7357 21.8271 22.6054 22.0056 22.4301C22.2946 22.1287 22.4543 21.7261 22.4506 21.3085C22.4468 20.891 22.28 20.4914 21.9856 20.1951Z" fill="#DEBB7E"/>
  <path d="M21.9856 20.1951L17.6356 15.8451C17.5496 15.7605 17.4338 15.7131 17.3131 15.7131C17.1925 15.7131 17.0767 15.7605 16.9906 15.8451L15.3806 17.4551C15.2961 17.5412 15.2487 17.657 15.2487 17.7776C15.2487 17.8983 15.2961 18.0141 15.3806 18.1001L19.7306 22.4501C20.0321 22.7372 20.4338 22.8951 20.8501 22.89C21.2663 22.8849 21.6641 22.7173 21.9585 22.423C22.2528 22.1286 22.4204 21.7308 22.4255 21.3146C22.4306 20.8983 22.2727 20.4966 21.9856 20.1951Z" stroke="#45413C" stroke-width="0.5" stroke-linecap="round" stroke-linejoin="round"/>
  <path d="M7.41833 8.98931L6.0376 10.3701L7.41833 11.7508M12.3934 11.7508L13.7742 10.3701L12.3934 8.98931M10.7926 8.6626L9.01924 12.0776" stroke="white" stroke-width="0.5" stroke-miterlimit="10" stroke-linecap="round" stroke-linejoin="round"/>
</svg>