<svg width="55" height="25" viewBox="0 0 55 25" fill="none" xmlns="http://www.w3.org/2000/svg"><g clip-path="url(#a)"><rect x="30.013" y=".406" width="24" height="24" rx="12" fill="#F0D9F9"/><g clip-path="url(#b)"><path d="m39.877 22.024-1.73.765-3.623-8.194 1.73-.765z" fill="url(#c)"/><path d="M35.125 15.378a.9.9 0 0 1 .236-.306 1.14 1.14 0 0 1 .621-.276.9.9 0 0 1 .386.033.9.9 0 0 1-.236.307 1.2 1.2 0 0 1-.291.185 1.2 1.2 0 0 1-.332.09.9.9 0 0 1-.384-.033m.969 2.19a.9.9 0 0 1 .236-.307q.135-.114.29-.184.158-.071.332-.091a.9.9 0 0 1 .385.032.9.9 0 0 1-.236.308 1.2 1.2 0 0 1-.623.274.9.9 0 0 1-.384-.032m-.646-1.46a.9.9 0 0 1 .237-.306 1.14 1.14 0 0 1 .621-.276.9.9 0 0 1 .386.032.9.9 0 0 1-.237.308 1.2 1.2 0 0 1-.623.275.9.9 0 0 1-.384-.033m1.291 2.92a.9.9 0 0 1 .237-.307 1.14 1.14 0 0 1 .622-.276.9.9 0 0 1 .385.033.9.9 0 0 1-.237.308 1.2 1.2 0 0 1-.29.184 1.2 1.2 0 0 1-.333.09.9.9 0 0 1-.384-.032m-.323-.73a.9.9 0 0 1 .236-.307 1.14 1.14 0 0 1 .621-.276.9.9 0 0 1 .386.033.9.9 0 0 1-.236.308 1.2 1.2 0 0 1-.623.274.9.9 0 0 1-.384-.032m1.29 2.92a.95.95 0 0 1 .237-.307q.135-.116.29-.185a1.1 1.1 0 0 1 .332-.091.9.9 0 0 1 .385.032.9.9 0 0 1-.236.308q-.135.116-.29.184a1.2 1.2 0 0 1-.332.09.9.9 0 0 1-.385-.032m-1.936-4.38a.9.9 0 0 1 .237-.306 1.14 1.14 0 0 1 .622-.276.9.9 0 0 1 .385.032.9.9 0 0 1-.237.308 1.2 1.2 0 0 1-.623.274.9.9 0 0 1-.384-.032m1.615 3.65a.9.9 0 0 1 .236-.307 1.14 1.14 0 0 1 .622-.276.9.9 0 0 1 .385.032.9.9 0 0 1-.236.308 1.2 1.2 0 0 1-.29.185 1.2 1.2 0 0 1-.332.09.9.9 0 0 1-.385-.033m-.324-.73a.9.9 0 0 1 .237-.307q.135-.115.29-.184a1.1 1.1 0 0 1 .331-.092.9.9 0 0 1 .386.033.9.9 0 0 1-.237.308 1.2 1.2 0 0 1-.29.184 1.2 1.2 0 0 1-.331.09.9.9 0 0 1-.386-.032" fill="#FFC107"/><path d="m36.295 14.072-1.606.71a.382.382 0 1 1-.31-.7l1.607-.71a.382.382 0 1 1 .31.7" fill="#FFA000"/><path d="m37.037 20.213-.98-2.19 1.558-1.039 1.206 2.5z" fill="url(#d)" opacity=".81"/><path d="M34.27 14.708c.127.14.348.1.348.1l.062.14 1.733-.758-.06-.143s.182-.126.166-.374z" fill="url(#e)"/><path d="m35.052 22.653.014 4.753h14.822l-.014-4.753c0-2.392-3.757-3.576-7.411-3.572-3.633.004-7.411 1.038-7.411 3.572" fill="url(#f)"/><path d="M36.087 19.904c0 1.314 2.077 3.168 2.077 3.168h8.362s1.923-1.904 1.923-3.457c0 0-2.133-.611-5.986-.534-4.3.086-6.376.823-6.376.823" fill="#212121"/><path d="M43.13 19.502c2.501 0 4.177.295 4.858.442-.19.989-1.14 2.168-1.644 2.7h-8.016c-.656-.613-1.558-1.662-1.769-2.435.732-.198 2.685-.636 5.912-.7q.332-.008.66-.008m0-.428a27 27 0 0 0-.667.007c-4.298.086-6.376.823-6.376.823 0 1.314 2.077 3.168 2.077 3.168h8.362s1.923-1.904 1.923-3.457c0 0-1.888-.541-5.318-.541" fill="url(#g)"/><path d="M40.389 19.366c0-.419.028-1.155.53-1.39.347-.162 2.68-.08 3.04.107.456.234.578.887.578 1.282 0 .709-.928 2.832-2.073 2.832s-2.075-2.122-2.075-2.83" fill="url(#h)"/><path opacity=".61" d="m40.526 18.309-.097.464s.727.879 2.033.879c1.51 0 2.02-.765 2.02-.765l-.131-.435z" fill="#000"/><path d="M43.82 23.072c1.039-1.135 2.005-2.486 2.293-3.812l-1.09-.289a.265.265 0 0 0-.322.177c-.406 1.311-1.787 2.793-3.044 3.924z" fill="#000"/><path d="M43.53 23.075c1.085-1.162 2.118-2.568 2.417-3.946l-1.091-.289a.265.265 0 0 0-.32.178c-.424 1.362-1.9 2.912-3.197 4.057z" fill="url(#i)"/><path opacity=".31" d="M40.415 19.117s1.668 2.482 3.687 3.896c0 0-1.135.13-1.167.059s-2.431-2.696-2.431-2.696z" fill="#000"/><path d="M43.513 23.072c-1.246-1.115-2.645-2.616-3.098-3.954a.334.334 0 0 0-.42-.216l-1.088.367c.298 1.343 1.287 2.688 2.34 3.803z" fill="url(#j)"/><path d="M42.463 6.976c-2.481 0-4.778 2.652-4.778 6.47 0 3.797 2.367 5.517 4.778 5.517s4.777-1.72 4.777-5.517c0-3.818-2.297-6.47-4.777-6.47" fill="#F9DDBD"/><path d="M40.12 14.508a.715.715 0 0 0 .702-.727.715.715 0 0 0-.702-.727.715.715 0 0 0-.702.727c0 .401.314.727.702.727m4.685 0a.715.715 0 0 0 .702-.727.715.715 0 0 0-.702-.727.715.715 0 0 0-.701.727c0 .401.314.727.701.727" fill="#312D2D"/><path d="M41.178 12.498c-.133-.174-.438-.429-1.031-.429s-.899.255-1.03.43a.18.18 0 0 0-.004.22c.038.05.15.097.272.055s.361-.166.763-.169c.401.003.64.127.764.169.122.042.233-.004.271-.055a.19.19 0 0 0-.005-.22m4.632 0c-.132-.174-.437-.429-1.03-.429-.594 0-.9.255-1.032.43a.18.18 0 0 0-.002.22c.037.05.149.097.27.055.123-.042.362-.166.765-.169.4.003.64.127.763.169s.234-.004.272-.055a.19.19 0 0 0-.006-.22" fill="#454140"/><path opacity=".17" d="M42.463 6.788c-2.634 0-4.778 1.769-4.778 5.79 0 4.042 2.068 6.253 4.778 6.253s5.006-2.263 5.006-6.307c-.002-4.02-2.373-5.736-5.006-5.736m0 11.705c-1.775 0-4.122-.914-4.122-4.223 0-3.29 1.973-3.2 4.122-3.2s4.121-.09 4.121 3.2c0 3.31-2.347 4.223-4.121 4.223" fill="#000"/><path d="M42.515 14.211c1.568 0 4.372 1.503 4.372 1.503-.086 1.438-1.958 3.091-4.273 3.058-3.884-.057-4.577-2.942-4.577-2.942s2.91-1.619 4.478-1.619" fill="url(#k)"/><path opacity=".4" d="m46.883 15.772.001-.011q-.224-.133-.451-.277c-.86-.422-2.738-1.271-3.917-1.271-1.085 0-2.916.803-4.041 1.392-.225.15-.096.164-.314.302.737-.259 2.86-1.218 4.323-1.218 1.436-.001 3.613.83 4.399 1.083" fill="#BDBDBD"/><path d="M42.463 6.218c-2.75 0-5.45 1.988-5.45 6.01 0 4.043 2.62 6.853 5.448 6.853s5.448-2.81 5.448-6.853c.002-4.022-2.697-6.01-5.446-6.01m0 12.55c-1.854 0-4.302-1.758-4.302-5.067 0-3.291 2.059-3.201 4.302-3.201s4.301-.09 4.301 3.2c0 3.308-2.45 5.069-4.301 5.069" fill="url(#l)"/><path d="M42.614 7.585s-2.03-.632-3.884 1.364c-1.778 1.914-1.223 5.572-1.223 5.572s-.189-3.189 1.91-5.184c1.834-1.747 3.197-1.752 3.197-1.752" fill="url(#m)"/><path d="M46.026 10.316c1.184 1.15 1.201 4.216 1.201 4.216s.887-3.087-.738-4.75c-1.345-1.377-3.207-.82-3.207-.82s1.497.142 2.744 1.354" fill="url(#n)"/><path d="M42.463 6.5c1.364 0 2.628.503 3.557 1.415 1.054 1.034 1.61 2.525 1.61 4.313 0 1.74-.51 3.349-1.438 4.562.518-.817.854-1.85.854-3.088 0-1.519-.447-2.504-1.369-3.016-.774-.43-1.763-.466-2.881-.466h-.664c-1.894 0-4.25 0-4.25 3.482 0 1.239.334 2.271.853 3.088-.928-1.213-1.437-2.822-1.437-4.562 0-1.787.556-3.279 1.608-4.313.928-.912 2.193-1.416 3.557-1.416m0-.282c-2.75 0-5.45 1.988-5.45 6.01 0 4.043 2.62 6.853 5.448 6.853s5.448-2.81 5.448-6.853c.002-4.022-2.697-6.01-5.446-6.01m0 4.282h.332c2.029 0 3.97.08 3.97 3.2 0 3.308-2.532 5.069-4.302 5.069s-4.302-1.76-4.302-5.068c0-3.12 1.94-3.201 3.97-3.201z" fill="url(#o)" opacity=".38"/></g></g><rect x="30.513" y=".906" width="23" height="23" rx="11.5" stroke="#454545"/><g clip-path="url(#p)"><rect x="15.013" y=".406" width="24" height="24" rx="12" fill="#F3F0DD"/><g clip-path="url(#q)"><path d="m24.877 22.024-1.73.765-3.623-8.194 1.73-.765z" fill="url(#r)"/><path d="M20.125 15.378a.9.9 0 0 1 .236-.306 1.14 1.14 0 0 1 .622-.276.9.9 0 0 1 .385.033.9.9 0 0 1-.236.307 1.2 1.2 0 0 1-.291.185 1.2 1.2 0 0 1-.332.09.9.9 0 0 1-.384-.033m.969 2.19a.9.9 0 0 1 .236-.307q.135-.114.29-.184.159-.071.332-.091a.9.9 0 0 1 .385.032.9.9 0 0 1-.236.308 1.2 1.2 0 0 1-.623.274.9.9 0 0 1-.384-.032m-.646-1.46a.9.9 0 0 1 .237-.306 1.14 1.14 0 0 1 .622-.276.9.9 0 0 1 .385.032.9.9 0 0 1-.237.308 1.2 1.2 0 0 1-.623.275.9.9 0 0 1-.384-.033m1.291 2.92a.9.9 0 0 1 .237-.307 1.14 1.14 0 0 1 .622-.276.9.9 0 0 1 .385.033.9.9 0 0 1-.237.308 1.2 1.2 0 0 1-.29.184 1.2 1.2 0 0 1-.333.09.9.9 0 0 1-.384-.032m-.323-.73a.9.9 0 0 1 .236-.307 1.14 1.14 0 0 1 .622-.276.9.9 0 0 1 .385.033.9.9 0 0 1-.236.308 1.2 1.2 0 0 1-.623.274.9.9 0 0 1-.384-.032m1.29 2.92a.95.95 0 0 1 .237-.307q.135-.116.29-.185a1.1 1.1 0 0 1 .332-.091.9.9 0 0 1 .385.032.9.9 0 0 1-.236.308q-.135.116-.29.184a1.2 1.2 0 0 1-.332.09.9.9 0 0 1-.385-.032m-1.936-4.38a.9.9 0 0 1 .237-.306 1.14 1.14 0 0 1 .622-.276.9.9 0 0 1 .385.032.9.9 0 0 1-.237.308 1.2 1.2 0 0 1-.623.274.9.9 0 0 1-.384-.032m1.615 3.65a.9.9 0 0 1 .236-.307 1.14 1.14 0 0 1 .622-.276.9.9 0 0 1 .385.032.9.9 0 0 1-.236.308 1.2 1.2 0 0 1-.29.185 1.2 1.2 0 0 1-.332.09.9.9 0 0 1-.385-.033m-.324-.73a.9.9 0 0 1 .237-.307q.135-.115.29-.184a1.1 1.1 0 0 1 .331-.092.9.9 0 0 1 .386.033.9.9 0 0 1-.237.308 1.2 1.2 0 0 1-.29.184 1.2 1.2 0 0 1-.331.09.9.9 0 0 1-.386-.032" fill="#FFC107"/><path d="m21.295 14.072-1.606.71a.382.382 0 1 1-.31-.7l1.607-.71a.382.382 0 1 1 .31.7" fill="#FFA000"/><path d="m22.037 20.213-.98-2.19 1.558-1.039 1.206 2.5z" fill="url(#s)" opacity=".81"/><path d="M19.27 14.708c.128.14.348.1.348.1l.062.14 1.733-.758-.06-.143s.182-.126.166-.374z" fill="url(#t)"/><path d="m20.052 22.653.014 4.753h14.822l-.014-4.753c0-2.392-3.757-3.576-7.411-3.572-3.633.004-7.411 1.038-7.411 3.572" fill="url(#u)"/><path d="M21.087 19.904c0 1.314 2.077 3.168 2.077 3.168h8.362s1.923-1.904 1.923-3.457c0 0-2.133-.611-5.986-.534-4.3.086-6.376.823-6.376.823" fill="#212121"/><path d="M28.13 19.502c2.501 0 4.177.295 4.858.442-.19.989-1.14 2.168-1.644 2.7h-8.016c-.656-.613-1.558-1.662-1.769-2.435.732-.198 2.685-.636 5.912-.7q.332-.008.66-.008m0-.428a27 27 0 0 0-.667.007c-4.298.086-6.376.823-6.376.823 0 1.314 2.077 3.168 2.077 3.168h8.362s1.923-1.904 1.923-3.457c0 0-1.888-.541-5.318-.541" fill="url(#v)"/><path d="M25.389 19.366c0-.419.028-1.155.53-1.39.347-.162 2.68-.08 3.04.107.456.234.578.887.578 1.282 0 .709-.928 2.832-2.073 2.832s-2.075-2.122-2.075-2.83" fill="url(#w)"/><path opacity=".61" d="m25.526 18.309-.097.464s.727.879 2.033.879c1.51 0 2.02-.765 2.02-.765l-.131-.435z" fill="#000"/><path d="M28.82 23.072c1.039-1.135 2.005-2.486 2.293-3.812l-1.09-.289a.265.265 0 0 0-.322.177c-.406 1.311-1.787 2.793-3.044 3.924z" fill="#000"/><path d="M28.53 23.075c1.085-1.162 2.118-2.568 2.417-3.946l-1.091-.289a.265.265 0 0 0-.32.178c-.424 1.362-1.9 2.912-3.197 4.057z" fill="url(#x)"/><path opacity=".31" d="M25.415 19.117s1.668 2.482 3.687 3.896c0 0-1.135.13-1.167.059s-2.431-2.696-2.431-2.696z" fill="#000"/><path d="M28.513 23.072c-1.246-1.115-2.646-2.616-3.098-3.954a.334.334 0 0 0-.42-.216l-1.088.367c.298 1.343 1.287 2.688 2.34 3.803z" fill="url(#y)"/><path d="M27.463 6.976c-2.481 0-4.777 2.652-4.777 6.47 0 3.797 2.366 5.517 4.777 5.517s4.777-1.72 4.777-5.517c0-3.818-2.297-6.47-4.777-6.47" fill="#F9DDBD"/><path d="M25.12 14.508a.715.715 0 0 0 .702-.727.715.715 0 0 0-.702-.727.715.715 0 0 0-.702.727c0 .401.314.727.702.727m4.685 0a.715.715 0 0 0 .702-.727.715.715 0 0 0-.702-.727.715.715 0 0 0-.701.727c0 .401.314.727.701.727" fill="#312D2D"/><path d="M26.178 12.498c-.133-.174-.438-.429-1.031-.429s-.899.255-1.03.43a.18.18 0 0 0-.004.22c.038.05.15.097.272.055s.361-.166.763-.169c.401.003.64.127.764.169.122.042.233-.004.271-.055a.19.19 0 0 0-.005-.22m4.632 0c-.132-.174-.437-.429-1.03-.429-.594 0-.9.255-1.032.43a.18.18 0 0 0-.003.22c.038.05.15.097.272.055s.361-.166.764-.169c.4.003.64.127.763.169.122.042.234-.004.271-.055a.19.19 0 0 0-.005-.22" fill="#454140"/><path opacity=".17" d="M27.463 6.788c-2.634 0-4.777 1.769-4.777 5.79 0 4.042 2.067 6.253 4.777 6.253s5.006-2.263 5.006-6.307c-.002-4.02-2.373-5.736-5.006-5.736m0 11.705c-1.775 0-4.122-.914-4.122-4.223 0-3.29 1.973-3.2 4.122-3.2s4.121-.09 4.121 3.2c0 3.31-2.347 4.223-4.121 4.223" fill="#000"/><path d="M27.515 14.211c1.568 0 4.372 1.503 4.372 1.503-.086 1.438-1.958 3.091-4.273 3.058-3.884-.057-4.577-2.942-4.577-2.942s2.91-1.619 4.478-1.619" fill="url(#z)"/><path opacity=".4" d="m31.883 15.772.001-.011q-.224-.133-.451-.277c-.86-.422-2.738-1.271-3.917-1.271-1.085 0-2.916.803-4.041 1.392-.225.15-.096.164-.314.302.737-.259 2.86-1.218 4.323-1.218 1.436-.001 3.613.83 4.399 1.083" fill="#BDBDBD"/><path d="M27.463 6.218c-2.75 0-5.45 1.988-5.45 6.01 0 4.043 2.62 6.853 5.448 6.853s5.448-2.81 5.448-6.853c.002-4.022-2.697-6.01-5.446-6.01m0 12.55c-1.854 0-4.302-1.758-4.302-5.067 0-3.291 2.059-3.201 4.302-3.201s4.301-.09 4.301 3.2c0 3.308-2.45 5.069-4.301 5.069" fill="url(#A)"/><path d="M27.614 7.585s-2.03-.632-3.884 1.364c-1.778 1.914-1.224 5.572-1.224 5.572s-.188-3.189 1.91-5.184c1.835-1.747 3.198-1.752 3.198-1.752" fill="url(#B)"/><path d="M31.026 10.316c1.184 1.15 1.201 4.216 1.201 4.216s.887-3.087-.738-4.75c-1.345-1.377-3.207-.82-3.207-.82s1.497.142 2.744 1.354" fill="url(#C)"/><path d="M27.463 6.5c1.364 0 2.628.503 3.557 1.415 1.054 1.034 1.61 2.525 1.61 4.313 0 1.74-.51 3.349-1.438 4.562.518-.817.854-1.85.854-3.088 0-1.519-.447-2.504-1.369-3.016-.774-.43-1.763-.466-2.881-.466h-.664c-1.894 0-4.25 0-4.25 3.482 0 1.239.334 2.271.853 3.088-.928-1.213-1.437-2.822-1.437-4.562 0-1.787.556-3.279 1.608-4.313.928-.912 2.193-1.416 3.557-1.416m0-.282c-2.75 0-5.45 1.988-5.45 6.01 0 4.043 2.62 6.853 5.448 6.853s5.448-2.81 5.448-6.853c.002-4.022-2.697-6.01-5.446-6.01m0 4.282h.332c2.029 0 3.97.08 3.97 3.2 0 3.308-2.532 5.069-4.302 5.069s-4.302-1.76-4.302-5.068c0-3.12 1.94-3.201 3.97-3.201z" fill="url(#D)" opacity=".38"/></g></g><rect x="15.513" y=".906" width="23" height="23" rx="11.5" stroke="#454545"/><g clip-path="url(#E)"><rect x=".013" y=".406" width="24" height="24" rx="12" fill="#fff"/><g clip-path="url(#F)"><path d="m9.877 22.024-1.73.765-3.623-8.194 1.73-.765z" fill="url(#G)"/><path d="M5.125 15.378a.9.9 0 0 1 .236-.306q.135-.115.29-.184a1.1 1.1 0 0 1 .332-.092.9.9 0 0 1 .385.033.9.9 0 0 1-.236.307 1.2 1.2 0 0 1-.291.185 1.2 1.2 0 0 1-.332.09.9.9 0 0 1-.384-.033m.969 2.19a.9.9 0 0 1 .236-.307q.135-.114.29-.184.159-.071.332-.091a.9.9 0 0 1 .385.032.9.9 0 0 1-.236.308 1.2 1.2 0 0 1-.623.274.9.9 0 0 1-.384-.032m-.646-1.46a.9.9 0 0 1 .237-.306q.135-.116.29-.184a1.1 1.1 0 0 1 .331-.092.9.9 0 0 1 .386.032.9.9 0 0 1-.237.308 1.2 1.2 0 0 1-.623.275.9.9 0 0 1-.384-.033m1.291 2.92a.9.9 0 0 1 .237-.307q.135-.115.29-.184.159-.071.331-.091a.9.9 0 0 1 .385.032.9.9 0 0 1-.236.308 1.2 1.2 0 0 1-.623.274.9.9 0 0 1-.384-.032m-.323-.73a.9.9 0 0 1 .236-.307q.135-.115.29-.184a1.1 1.1 0 0 1 .332-.091.9.9 0 0 1 .385.032.9.9 0 0 1-.236.308 1.2 1.2 0 0 1-.623.274.9.9 0 0 1-.384-.032m1.29 2.92a.95.95 0 0 1 .237-.307q.135-.116.29-.185a1.1 1.1 0 0 1 .332-.091.9.9 0 0 1 .385.032.9.9 0 0 1-.236.308q-.135.116-.29.184a1.2 1.2 0 0 1-.332.09.9.9 0 0 1-.385-.032m-1.936-4.38a.9.9 0 0 1 .237-.306q.135-.116.29-.185a1.1 1.1 0 0 1 .331-.091.9.9 0 0 1 .386.032.9.9 0 0 1-.237.308 1.2 1.2 0 0 1-.29.184 1.2 1.2 0 0 1-.333.09.9.9 0 0 1-.384-.032m1.615 3.65a.9.9 0 0 1 .236-.307q.135-.116.29-.184a1.1 1.1 0 0 1 .332-.092.9.9 0 0 1 .385.032.9.9 0 0 1-.236.308q-.135.116-.29.185a1.2 1.2 0 0 1-.332.09.9.9 0 0 1-.385-.033m-.324-.73a.9.9 0 0 1 .237-.307q.135-.115.29-.184a1.1 1.1 0 0 1 .331-.092.9.9 0 0 1 .386.033.9.9 0 0 1-.237.308q-.135.114-.29.184a1.2 1.2 0 0 1-.331.09.9.9 0 0 1-.386-.032" fill="#FFC107"/><path d="m6.295 14.072-1.606.71a.38.38 0 0 1-.505-.195.38.38 0 0 1 .196-.505l1.606-.71a.382.382 0 1 1 .31.7" fill="#FFA000"/><path d="m7.037 20.213-.98-2.19 1.558-1.039 1.206 2.5z" fill="url(#H)" opacity=".81"/><path d="M4.27 14.708c.128.14.348.1.348.1l.062.14 1.733-.758-.06-.143s.182-.126.167-.374z" fill="url(#I)"/><path d="m5.052 22.653.014 4.753h14.822l-.014-4.753c0-2.392-3.756-3.576-7.411-3.572-3.633.004-7.411 1.038-7.411 3.572" fill="url(#J)"/><path d="M6.087 19.904c0 1.314 2.077 3.168 2.077 3.168h8.362s1.923-1.904 1.923-3.457c0 0-2.133-.611-5.986-.534-4.3.086-6.376.823-6.376.823" fill="#212121"/><path d="M13.13 19.502c2.501 0 4.177.295 4.858.442-.19.989-1.14 2.168-1.644 2.7H8.328c-.656-.613-1.558-1.662-1.769-2.435.732-.198 2.685-.636 5.912-.7q.332-.008.66-.008m0-.428a27 27 0 0 0-.667.007c-4.298.086-6.376.823-6.376.823 0 1.314 2.077 3.168 2.077 3.168h8.362s1.923-1.904 1.923-3.457c0 0-1.888-.541-5.318-.541" fill="url(#K)"/><path d="M10.389 19.366c0-.419.028-1.155.53-1.39.347-.162 2.68-.08 3.04.107.456.234.578.887.578 1.282 0 .709-.928 2.832-2.073 2.832s-2.075-2.122-2.075-2.83" fill="url(#L)"/><path opacity=".61" d="m10.526 18.309-.097.464s.727.879 2.033.879c1.51 0 2.02-.765 2.02-.765l-.131-.435z" fill="#000"/><path d="M13.82 23.072c1.039-1.135 2.005-2.486 2.293-3.812l-1.09-.289a.265.265 0 0 0-.322.177c-.406 1.311-1.787 2.793-3.044 3.924z" fill="#000"/><path d="M13.53 23.075c1.085-1.162 2.118-2.568 2.417-3.946l-1.091-.289a.265.265 0 0 0-.32.178c-.424 1.362-1.9 2.912-3.197 4.057z" fill="url(#M)"/><path opacity=".31" d="M10.415 19.117s1.668 2.482 3.687 3.896c0 0-1.135.13-1.167.059s-2.431-2.696-2.431-2.696z" fill="#000"/><path d="M13.513 23.072c-1.246-1.115-2.645-2.616-3.098-3.954a.334.334 0 0 0-.42-.216l-1.088.367c.298 1.343 1.287 2.688 2.34 3.803z" fill="url(#N)"/><path d="M12.463 6.976c-2.481 0-4.777 2.652-4.777 6.47 0 3.797 2.366 5.517 4.777 5.517s4.777-1.72 4.777-5.517c0-3.818-2.297-6.47-4.777-6.47" fill="#F9DDBD"/><path d="M10.12 14.508a.715.715 0 0 0 .702-.727.715.715 0 0 0-.702-.727.715.715 0 0 0-.702.727c0 .401.314.727.702.727m4.685 0a.715.715 0 0 0 .702-.727.715.715 0 0 0-.702-.727.715.715 0 0 0-.701.727c0 .401.314.727.701.727" fill="#312D2D"/><path d="M11.178 12.498c-.133-.174-.438-.429-1.031-.429-.594 0-.899.255-1.03.43a.18.18 0 0 0-.004.22c.038.05.15.097.272.055s.361-.166.763-.169c.401.003.64.127.764.169.122.042.233-.004.271-.055a.19.19 0 0 0-.005-.22m4.632 0c-.132-.174-.437-.429-1.03-.429-.594 0-.9.255-1.032.43a.18.18 0 0 0-.002.22c.037.05.149.097.27.055.123-.042.362-.166.765-.169.4.003.64.127.763.169.122.042.234-.004.271-.055a.19.19 0 0 0-.005-.22" fill="#454140"/><path opacity=".17" d="M12.463 6.788c-2.634 0-4.777 1.769-4.777 5.79 0 4.042 2.067 6.253 4.777 6.253s5.006-2.263 5.006-6.307c-.002-4.02-2.373-5.736-5.006-5.736m0 11.705c-1.775 0-4.122-.914-4.122-4.223 0-3.29 1.973-3.2 4.122-3.2s4.121-.09 4.121 3.2c0 3.31-2.347 4.223-4.121 4.223" fill="#000"/><path d="M12.515 14.211c1.568 0 4.372 1.503 4.372 1.503-.086 1.438-1.958 3.091-4.273 3.058-3.884-.057-4.577-2.942-4.577-2.942s2.91-1.619 4.478-1.619" fill="url(#O)"/><path opacity=".4" d="m16.883 15.772.001-.011q-.224-.133-.451-.277c-.86-.422-2.738-1.271-3.917-1.271-1.085 0-2.916.803-4.041 1.392-.225.15-.096.164-.314.302.737-.259 2.86-1.218 4.323-1.218 1.436-.001 3.613.83 4.399 1.083" fill="#BDBDBD"/><path d="M12.463 6.218c-2.75 0-5.45 1.988-5.45 6.01 0 4.043 2.62 6.853 5.448 6.853s5.448-2.81 5.448-6.853c.002-4.022-2.697-6.01-5.446-6.01m0 12.55c-1.854 0-4.302-1.758-4.302-5.067 0-3.291 2.059-3.201 4.302-3.201s4.301-.09 4.301 3.2c0 3.308-2.45 5.069-4.301 5.069" fill="url(#P)"/><path d="M12.614 7.585s-2.03-.632-3.884 1.364c-1.778 1.914-1.223 5.572-1.223 5.572s-.189-3.189 1.91-5.184c1.834-1.747 3.197-1.752 3.197-1.752" fill="url(#Q)"/><path d="M16.026 10.316c1.184 1.15 1.201 4.216 1.201 4.216s.887-3.087-.738-4.75c-1.345-1.377-3.207-.82-3.207-.82s1.497.142 2.744 1.354" fill="url(#R)"/><path d="M12.463 6.5c1.364 0 2.628.503 3.557 1.415 1.054 1.034 1.61 2.525 1.61 4.313 0 1.74-.51 3.349-1.438 4.562.518-.817.854-1.85.854-3.088 0-1.519-.447-2.504-1.369-3.016-.774-.43-1.763-.466-2.881-.466h-.664c-1.894 0-4.25 0-4.25 3.482 0 1.239.334 2.271.853 3.088-.928-1.213-1.437-2.822-1.437-4.562 0-1.787.556-3.279 1.608-4.313C9.834 7.003 11.1 6.5 12.463 6.5m0-.282c-2.75 0-5.45 1.988-5.45 6.01 0 4.043 2.62 6.853 5.448 6.853s5.448-2.81 5.448-6.853c.002-4.022-2.697-6.01-5.446-6.01m0 4.282h.332c2.029 0 3.97.08 3.97 3.2 0 3.308-2.532 5.069-4.302 5.069S8.16 17.009 8.16 13.7c0-3.12 1.94-3.201 3.97-3.201z" fill="url(#S)" opacity=".38"/></g></g><rect x=".513" y=".906" width="23" height="23" rx="11.5" stroke="#454545"/><defs><linearGradient id="c" x1="35.745" y1="15.192" x2="37.756" y2="19.501" gradientUnits="userSpaceOnUse"><stop stop-color="#646464"/><stop offset="1" stop-color="#444"/></linearGradient><linearGradient id="d" x1="38.048" y1="20.229" x2="36.95" y2="17.569" gradientUnits="userSpaceOnUse"><stop/><stop offset="1" stop-opacity="0"/></linearGradient><linearGradient id="e" x1="35.584" y1="14.649" x2="35.395" y2="14.191" gradientUnits="userSpaceOnUse"><stop/><stop offset="1" stop-opacity="0"/></linearGradient><linearGradient id="f" x1="42.463" y1="23.309" x2="42.463" y2="21.48" gradientUnits="userSpaceOnUse"><stop offset=".17" stop-color="#646464"/><stop offset="1" stop-color="#757575"/></linearGradient><linearGradient id="g" x1="42.268" y1="19.074" x2="42.268" y2="23.072" gradientUnits="userSpaceOnUse"><stop stop-color="#646464"/><stop offset=".265" stop-color="#575757"/><stop offset=".754" stop-color="#353535"/><stop offset="1" stop-color="#212121"/></linearGradient><linearGradient id="h" x1="42.462" y1="18.796" x2="42.462" y2="21.908" gradientUnits="userSpaceOnUse"><stop offset=".074" stop-color="#444"/><stop offset=".653" stop-color="#212121"/></linearGradient><linearGradient id="i" x1="44.998" y1="19.317" x2="43.441" y2="21.733" gradientUnits="userSpaceOnUse"><stop stop-color="#646464"/><stop offset="1" stop-color="#444"/></linearGradient><linearGradient id="j" x1="41.324" y1="21.696" x2="39.033" y2="18.407" gradientUnits="userSpaceOnUse"><stop stop-color="#646464"/><stop offset="1" stop-color="#9E9E9E"/></linearGradient><linearGradient id="k" x1="42.462" y1="15.661" x2="42.462" y2="19.067" gradientUnits="userSpaceOnUse"><stop offset=".074" stop-color="#444"/><stop offset=".653" stop-color="#212121"/></linearGradient><linearGradient id="l" x1="42.462" y1="6.29" x2="42.462" y2="18.931" gradientUnits="userSpaceOnUse"><stop offset=".074" stop-color="#444"/><stop offset=".653" stop-color="#212121"/></linearGradient><linearGradient id="m" x1="38.186" y1="11.645" x2="41.227" y2="7.892" gradientUnits="userSpaceOnUse"><stop stop-color="#0D0C0C"/><stop offset="1" stop-color="#0D0C0C" stop-opacity="0"/></linearGradient><linearGradient id="n" x1="46.407" y1="11.619" x2="44.317" y2="9.148" gradientUnits="userSpaceOnUse"><stop stop-color="#0D0C0C"/><stop offset="1" stop-color="#0D0C0C" stop-opacity="0"/></linearGradient><linearGradient id="o" x1="42.462" y1="6.218" x2="42.462" y2="19.081" gradientUnits="userSpaceOnUse"><stop stop-color="#BDBDBD"/><stop offset="1" stop-color="#646464"/></linearGradient><linearGradient id="r" x1="20.745" y1="15.192" x2="22.756" y2="19.501" gradientUnits="userSpaceOnUse"><stop stop-color="#646464"/><stop offset="1" stop-color="#444"/></linearGradient><linearGradient id="s" x1="23.048" y1="20.229" x2="21.95" y2="17.569" gradientUnits="userSpaceOnUse"><stop/><stop offset="1" stop-opacity="0"/></linearGradient><linearGradient id="t" x1="20.584" y1="14.649" x2="20.395" y2="14.191" gradientUnits="userSpaceOnUse"><stop/><stop offset="1" stop-opacity="0"/></linearGradient><linearGradient id="u" x1="27.463" y1="23.309" x2="27.463" y2="21.48" gradientUnits="userSpaceOnUse"><stop offset=".17" stop-color="#646464"/><stop offset="1" stop-color="#757575"/></linearGradient><linearGradient id="v" x1="27.268" y1="19.074" x2="27.268" y2="23.072" gradientUnits="userSpaceOnUse"><stop stop-color="#646464"/><stop offset=".265" stop-color="#575757"/><stop offset=".754" stop-color="#353535"/><stop offset="1" stop-color="#212121"/></linearGradient><linearGradient id="w" x1="27.462" y1="18.796" x2="27.462" y2="21.908" gradientUnits="userSpaceOnUse"><stop offset=".074" stop-color="#444"/><stop offset=".653" stop-color="#212121"/></linearGradient><linearGradient id="x" x1="29.998" y1="19.317" x2="28.442" y2="21.733" gradientUnits="userSpaceOnUse"><stop stop-color="#646464"/><stop offset="1" stop-color="#444"/></linearGradient><linearGradient id="y" x1="26.324" y1="21.696" x2="24.034" y2="18.407" gradientUnits="userSpaceOnUse"><stop stop-color="#646464"/><stop offset="1" stop-color="#9E9E9E"/></linearGradient><linearGradient id="z" x1="27.462" y1="15.661" x2="27.462" y2="19.067" gradientUnits="userSpaceOnUse"><stop offset=".074" stop-color="#444"/><stop offset=".653" stop-color="#212121"/></linearGradient><linearGradient id="A" x1="27.462" y1="6.29" x2="27.462" y2="18.931" gradientUnits="userSpaceOnUse"><stop offset=".074" stop-color="#444"/><stop offset=".653" stop-color="#212121"/></linearGradient><linearGradient id="B" x1="23.186" y1="11.645" x2="26.227" y2="7.892" gradientUnits="userSpaceOnUse"><stop stop-color="#0D0C0C"/><stop offset="1" stop-color="#0D0C0C" stop-opacity="0"/></linearGradient><linearGradient id="C" x1="31.407" y1="11.619" x2="29.317" y2="9.148" gradientUnits="userSpaceOnUse"><stop stop-color="#0D0C0C"/><stop offset="1" stop-color="#0D0C0C" stop-opacity="0"/></linearGradient><linearGradient id="D" x1="27.462" y1="6.218" x2="27.462" y2="19.081" gradientUnits="userSpaceOnUse"><stop stop-color="#BDBDBD"/><stop offset="1" stop-color="#646464"/></linearGradient><linearGradient id="G" x1="5.745" y1="15.192" x2="7.756" y2="19.501" gradientUnits="userSpaceOnUse"><stop stop-color="#646464"/><stop offset="1" stop-color="#444"/></linearGradient><linearGradient id="H" x1="8.048" y1="20.229" x2="6.95" y2="17.569" gradientUnits="userSpaceOnUse"><stop/><stop offset="1" stop-opacity="0"/></linearGradient><linearGradient id="I" x1="5.584" y1="14.649" x2="5.395" y2="14.191" gradientUnits="userSpaceOnUse"><stop/><stop offset="1" stop-opacity="0"/></linearGradient><linearGradient id="J" x1="12.463" y1="23.309" x2="12.463" y2="21.48" gradientUnits="userSpaceOnUse"><stop offset=".17" stop-color="#646464"/><stop offset="1" stop-color="#757575"/></linearGradient><linearGradient id="K" x1="12.268" y1="19.074" x2="12.268" y2="23.072" gradientUnits="userSpaceOnUse"><stop stop-color="#646464"/><stop offset=".265" stop-color="#575757"/><stop offset=".754" stop-color="#353535"/><stop offset="1" stop-color="#212121"/></linearGradient><linearGradient id="L" x1="12.463" y1="18.796" x2="12.463" y2="21.908" gradientUnits="userSpaceOnUse"><stop offset=".074" stop-color="#444"/><stop offset=".653" stop-color="#212121"/></linearGradient><linearGradient id="M" x1="14.998" y1="19.317" x2="13.441" y2="21.733" gradientUnits="userSpaceOnUse"><stop stop-color="#646464"/><stop offset="1" stop-color="#444"/></linearGradient><linearGradient id="N" x1="11.324" y1="21.696" x2="9.034" y2="18.407" gradientUnits="userSpaceOnUse"><stop stop-color="#646464"/><stop offset="1" stop-color="#9E9E9E"/></linearGradient><linearGradient id="O" x1="12.462" y1="15.661" x2="12.462" y2="19.067" gradientUnits="userSpaceOnUse"><stop offset=".074" stop-color="#444"/><stop offset=".653" stop-color="#212121"/></linearGradient><linearGradient id="P" x1="12.462" y1="6.29" x2="12.462" y2="18.931" gradientUnits="userSpaceOnUse"><stop offset=".074" stop-color="#444"/><stop offset=".653" stop-color="#212121"/></linearGradient><linearGradient id="Q" x1="8.186" y1="11.645" x2="11.226" y2="7.892" gradientUnits="userSpaceOnUse"><stop stop-color="#0D0C0C"/><stop offset="1" stop-color="#0D0C0C" stop-opacity="0"/></linearGradient><linearGradient id="R" x1="16.407" y1="11.619" x2="14.317" y2="9.148" gradientUnits="userSpaceOnUse"><stop stop-color="#0D0C0C"/><stop offset="1" stop-color="#0D0C0C" stop-opacity="0"/></linearGradient><linearGradient id="S" x1="12.462" y1="6.218" x2="12.462" y2="19.081" gradientUnits="userSpaceOnUse"><stop stop-color="#BDBDBD"/><stop offset="1" stop-color="#646464"/></linearGradient><clipPath id="a"><rect x="30.013" y=".406" width="24" height="24" rx="12" fill="#fff"/></clipPath><clipPath id="b"><path fill="#fff" d="M33.013 5.656h18v18.75h-18z"/></clipPath><clipPath id="p"><rect x="15.013" y=".406" width="24" height="24" rx="12" fill="#fff"/></clipPath><clipPath id="q"><path fill="#fff" d="M18.013 5.656h18v18.75h-18z"/></clipPath><clipPath id="E"><rect x=".013" y=".406" width="24" height="24" rx="12" fill="#fff"/></clipPath><clipPath id="F"><path fill="#fff" d="M3.013 5.656h18v18.75h-18z"/></clipPath></defs></svg>