<svg width="19" height="20" viewBox="0 0 19 20" fill="none" xmlns="http://www.w3.org/2000/svg">
<g id="noto:ninja-light-skin-tone" clip-path="url(#clip0_101_4898)">
<path id="Vector" d="M6.87663 17.0243L5.14694 17.7893L1.52444 9.59508L3.25413 8.83008L6.87663 17.0243Z" fill="url(#paint0_linear_101_4898)"/>
<path id="Vector_2" d="M2.12503 10.3784C2.18831 10.2434 2.27269 10.1506 2.36128 10.0719C2.45128 9.99452 2.54831 9.93405 2.65097 9.88764C2.75632 9.84054 2.86823 9.80971 2.98284 9.79623C3.10097 9.78358 3.22612 9.78498 3.36816 9.82858C3.30487 9.96498 3.22191 10.0564 3.13191 10.1365C3.0444 10.2118 2.94632 10.2739 2.84081 10.3208C2.73517 10.3668 2.62336 10.3971 2.50894 10.4108C2.39362 10.4234 2.26847 10.4234 2.12503 10.3784ZM3.09394 12.568C3.15722 12.433 3.24159 12.3401 3.33019 12.2614C3.42019 12.184 3.51722 12.1236 3.61987 12.0772C3.72523 12.0301 3.83713 11.9992 3.95175 11.9858C4.06987 11.9731 4.19503 11.9745 4.33706 12.0181C4.27378 12.1545 4.19081 12.2459 4.10081 12.3261C4.0133 12.4014 3.91523 12.4634 3.80972 12.5103C3.70407 12.5563 3.59227 12.5866 3.47784 12.6003C3.36112 12.613 3.23737 12.6115 3.09394 12.568ZM2.44847 11.1083C2.51175 10.9733 2.59612 10.8805 2.68472 10.8017C2.77472 10.7244 2.87175 10.6639 2.97441 10.6175C3.07976 10.5704 3.19166 10.5396 3.30628 10.5261C3.42441 10.5134 3.54956 10.5148 3.69159 10.5584C3.62831 10.6948 3.54534 10.7862 3.45534 10.8664C3.36783 10.9417 3.26976 11.0038 3.16425 11.0506C3.05861 11.0966 2.9468 11.127 2.83237 11.1406C2.71566 11.1533 2.59191 11.1519 2.44847 11.1083ZM3.73941 14.0276C3.80269 13.8926 3.88706 13.7998 3.97566 13.7211C4.06566 13.6437 4.16269 13.5833 4.26534 13.5369C4.3707 13.4898 4.4826 13.4589 4.59722 13.4455C4.71534 13.4328 4.83909 13.4342 4.98253 13.4778C4.91925 13.6142 4.83628 13.7056 4.74628 13.7858C4.65877 13.8611 4.5607 13.9231 4.45519 13.97C4.34954 14.016 4.23773 14.0463 4.12331 14.06C4.00659 14.0726 3.88284 14.0712 3.73941 14.0276ZM3.41597 13.2978C3.47925 13.1628 3.56362 13.07 3.65222 12.9912C3.74222 12.9139 3.83925 12.8534 3.94191 12.807C4.04726 12.7599 4.15916 12.7291 4.27378 12.7156C4.39191 12.703 4.51566 12.7044 4.65909 12.748C4.59581 12.8844 4.51284 12.9758 4.42284 13.0559C4.33534 13.1312 4.23726 13.1933 4.13175 13.2401C4.02611 13.2862 3.9143 13.3165 3.79987 13.3301C3.68316 13.3428 3.55941 13.3414 3.41597 13.2978ZM4.70691 16.2172C4.77159 16.0822 4.85456 15.9894 4.94316 15.9106C5.03316 15.8333 5.13019 15.7728 5.23284 15.7264C5.3382 15.6793 5.4501 15.6485 5.56472 15.635C5.68284 15.6223 5.80659 15.6237 5.95003 15.6673C5.88675 15.8037 5.80378 15.8951 5.71378 15.9753C5.62378 16.0526 5.52675 16.1131 5.42409 16.1595C5.31845 16.2055 5.20664 16.2359 5.09222 16.2495C4.97409 16.2622 4.85034 16.2608 4.70691 16.2172ZM2.7705 11.8381C2.83378 11.7031 2.91816 11.6103 3.00675 11.5315C3.09675 11.4542 3.19378 11.3937 3.29644 11.3473C3.40179 11.3002 3.51369 11.2694 3.62831 11.2559C3.74644 11.2433 3.87159 11.2447 4.01362 11.2883C3.95034 11.4247 3.86737 11.5161 3.77737 11.5962C3.68987 11.6715 3.59179 11.7336 3.48628 11.7805C3.38064 11.8265 3.26883 11.8568 3.15441 11.8705C3.03769 11.8831 2.91394 11.8817 2.7705 11.8381ZM4.38487 15.4873C4.44816 15.3523 4.53253 15.2595 4.62112 15.1808C4.71112 15.1034 4.80816 15.043 4.91081 14.9965C5.01617 14.9494 5.12807 14.9186 5.24269 14.9051C5.36081 14.8925 5.48456 14.8939 5.628 14.9375C5.56472 15.0739 5.48175 15.1653 5.39175 15.2455C5.30175 15.3228 5.20472 15.3833 5.10206 15.4297C4.99642 15.4757 4.88461 15.506 4.77019 15.5197C4.65206 15.5323 4.52691 15.5309 4.38487 15.4873ZM4.06144 14.7575C4.12472 14.6225 4.20909 14.5297 4.29769 14.4509C4.38769 14.3736 4.48472 14.3131 4.58737 14.2667C4.69273 14.2196 4.80463 14.1888 4.91925 14.1753C5.03737 14.1626 5.16112 14.164 5.30456 14.2076C5.24128 14.344 5.15831 14.4355 5.06831 14.5156C4.97831 14.593 4.88128 14.6534 4.77862 14.6998C4.67298 14.7459 4.56117 14.7762 4.44675 14.7898C4.32862 14.8025 4.20487 14.8011 4.06144 14.7575Z" fill="#FFC107"/>
<path id="Vector_3" d="M3.29496 9.07193L1.68902 9.78209C1.49496 9.86787 1.26996 9.78068 1.18418 9.58662C1.0984 9.39255 1.18558 9.16755 1.37965 9.08177L2.98558 8.37162C3.17965 8.28584 3.40465 8.37302 3.49043 8.56709C3.57621 8.75974 3.48902 8.98615 3.29496 9.07193Z" fill="#FFA000"/>
<g id="Group" opacity="0.81">
<path id="Vector_4" d="M4.03683 15.2131L3.05667 13.0236L4.6148 11.9844L5.82136 14.4833L4.03683 15.2131Z" fill="url(#paint1_linear_101_4898)"/>
</g>
<path id="Vector_5" d="M1.26956 9.70761C1.39753 9.84823 1.61831 9.80886 1.61831 9.80886L1.68019 9.94808L3.41269 9.19011L3.35222 9.04667C3.35222 9.04667 3.53503 8.92151 3.51956 8.67261L1.26956 9.70761Z" fill="url(#paint2_linear_101_4898)"/>
<path id="Vector_6" d="M2.05179 17.6529L2.06585 22.4056H16.8877L16.8737 17.6529C16.8737 15.2609 13.1176 14.0768 9.46273 14.0811C5.83038 14.0853 2.05179 15.1189 2.05179 17.6529Z" fill="url(#paint3_linear_101_4898)"/>
<path id="Vector_7" d="M3.08694 14.9036C3.08694 16.2185 5.16398 18.0719 5.16398 18.0719H13.5255C13.5255 18.0719 15.4493 16.1679 15.4493 14.6154C15.4493 14.6154 13.316 14.0036 9.46288 14.081C5.16398 14.1668 3.08694 14.9036 3.08694 14.9036Z" fill="#212121"/>
<path id="Vector_8" d="M10.1309 14.5015C12.6312 14.5015 14.3074 14.7968 14.988 14.9444C14.7982 15.933 13.8476 17.1115 13.3441 17.6444H5.32851C4.67179 17.0313 3.77038 15.9823 3.55944 15.2088C4.29069 15.0105 6.24398 14.5732 9.47132 14.5085C9.6921 14.5043 9.91288 14.5015 10.1309 14.5015ZM10.1309 14.074C9.91429 14.074 9.6921 14.0754 9.46288 14.081C5.16538 14.1668 3.08694 14.9037 3.08694 14.9037C3.08694 16.2185 5.16398 18.0719 5.16398 18.0719H13.5255C13.5255 18.0719 15.4493 16.1679 15.4493 14.6154C15.4493 14.6154 13.5607 14.074 10.1309 14.074Z" fill="url(#paint4_linear_101_4898)"/>
<path id="Vector_9" d="M7.38849 14.3664C7.38849 13.9473 7.41661 13.2105 7.91865 12.9756C8.26599 12.8139 10.599 12.8969 10.959 13.0825C11.4146 13.3173 11.5369 13.9698 11.5369 14.365C11.5369 15.0737 10.6088 17.1972 9.46411 17.1972C8.31943 17.1972 7.38849 15.0751 7.38849 14.3664Z" fill="url(#paint5_linear_101_4898)"/>
<path id="Vector_10" opacity="0.61" d="M7.52577 13.3088L7.42874 13.7729C7.42874 13.7729 8.15577 14.6518 9.46218 14.6518C10.9711 14.6518 11.4816 13.8868 11.4816 13.8868L11.3508 13.4523L7.52577 13.3088Z" fill="black"/>
<path id="Vector_11" d="M10.8199 18.072C11.8591 16.9371 12.8252 15.5857 13.1135 14.2596L12.0222 13.9713C11.8844 13.9348 11.7438 14.0135 11.7016 14.1485C11.2952 15.4592 9.91423 16.9413 8.65704 18.072H10.8199Z" fill="black"/>
<path id="Vector_12" d="M10.5298 18.0747C11.6155 16.9131 12.6476 15.5069 12.9472 14.1288L11.8559 13.8405C11.7181 13.8039 11.5775 13.8827 11.5353 14.0177C11.112 15.3803 9.63546 16.93 8.3389 18.0747H10.5298Z" fill="url(#paint6_linear_101_4898)"/>
<path id="Vector_13" opacity="0.31" d="M7.41507 14.1174C7.41507 14.1174 9.08288 16.5995 11.1023 18.0127C11.1023 18.0127 9.96741 18.1435 9.93507 18.0718C9.90273 18.0001 7.50366 15.376 7.50366 15.376L7.41507 14.1174Z" fill="black"/>
<path id="Vector_14" d="M10.5127 18.0719C9.26679 16.9568 7.86757 15.4563 7.41476 14.1175C7.35569 13.9418 7.17007 13.8447 6.99429 13.9024L5.90726 14.2694C6.20538 15.6124 7.19398 16.9568 8.24726 18.0719H10.5127Z" fill="url(#paint7_linear_101_4898)"/>
<path id="Vector_15" d="M9.46261 1.97607C6.98198 1.97607 4.68558 4.62826 4.68558 8.44623C4.68558 12.2431 7.0523 13.9629 9.46261 13.9629C11.8729 13.9629 14.2396 12.2431 14.2396 8.44623C14.2396 4.62826 11.9432 1.97607 9.46261 1.97607Z" fill="#F9DDBD"/>
<g id="Group_2">
<path id="Vector_16" d="M7.11993 9.50777C7.50748 9.50777 7.82165 9.18227 7.82165 8.78074C7.82165 8.37921 7.50748 8.05371 7.11993 8.05371C6.73238 8.05371 6.41821 8.37921 6.41821 8.78074C6.41821 9.18227 6.73238 9.50777 7.11993 9.50777Z" fill="#312D2D"/>
<path id="Vector_17" d="M11.8054 9.50777C12.1929 9.50777 12.5071 9.18227 12.5071 8.78074C12.5071 8.37921 12.1929 8.05371 11.8054 8.05371C11.4178 8.05371 11.1037 8.37921 11.1037 8.78074C11.1037 9.18227 11.4178 9.50777 11.8054 9.50777Z" fill="#312D2D"/>
</g>
<path id="Vector_18" d="M8.17774 7.49824C8.04555 7.32387 7.74039 7.06934 7.14696 7.06934C6.55352 7.06934 6.24836 7.32387 6.11618 7.49824C6.05711 7.57559 6.07258 7.66559 6.11336 7.71902C6.15133 7.76965 6.26243 7.81605 6.38477 7.77387C6.50711 7.73168 6.74618 7.60793 7.14836 7.60512C7.54914 7.60793 7.78821 7.73168 7.91196 7.77387C8.0343 7.81605 8.14539 7.76965 8.18336 7.71902C8.22133 7.66559 8.2368 7.57559 8.17774 7.49824ZM12.8099 7.49824C12.6777 7.32387 12.3726 7.06934 11.7791 7.06934C11.1857 7.06934 10.8805 7.32387 10.7484 7.49824C10.6893 7.57559 10.7048 7.66559 10.7456 7.71902C10.7835 7.76965 10.8946 7.81605 11.017 7.77387C11.1393 7.73168 11.3784 7.60793 11.7806 7.60512C12.1813 7.60793 12.4204 7.73168 12.5441 7.77387C12.6665 7.81605 12.7776 7.76965 12.8156 7.71902C12.8535 7.66559 12.8676 7.57559 12.8099 7.49824Z" fill="#454140"/>
<path id="Vector_19" opacity="0.17" d="M9.46261 1.7876C6.8287 1.7876 4.68558 3.55666 4.68558 7.57713C4.68558 11.6201 6.75276 13.8307 9.46261 13.8307C12.1725 13.8307 14.4689 11.5681 14.4689 7.52369C14.4675 3.50322 12.0965 1.7876 9.46261 1.7876ZM9.46261 13.4932C7.68792 13.4932 5.34089 12.5792 5.34089 9.27025C5.34089 5.97963 7.31386 6.06963 9.46261 6.06963C11.6114 6.06963 13.5843 5.97963 13.5843 9.27025C13.5843 12.5792 11.2373 13.4932 9.46261 13.4932Z" fill="black"/>
<path id="Vector_20" d="M9.51464 9.21118C11.0826 9.21118 13.8867 10.7145 13.8867 10.7145C13.8009 12.1517 11.9292 13.8054 9.61448 13.7716C5.73042 13.7154 5.03714 10.8298 5.03714 10.8298C5.03714 10.8298 7.94667 9.21118 9.51464 9.21118Z" fill="url(#paint8_linear_101_4898)"/>
<path id="Vector_21" opacity="0.4" d="M13.8827 10.7722C13.8827 10.768 13.8841 10.7637 13.8841 10.7609C13.7351 10.6723 13.5846 10.5795 13.4327 10.4839C12.5735 10.062 10.6948 9.21265 9.51632 9.21265C8.4307 9.21265 6.59976 10.0156 5.47476 10.6048C5.24976 10.7553 5.37913 10.7694 5.16116 10.9072C5.89804 10.6484 8.02148 9.68937 9.48398 9.68937C10.9198 9.68796 13.0966 10.5191 13.8827 10.7722Z" fill="#BDBDBD"/>
<path id="Vector_22" d="M9.46271 1.21802C6.71349 1.21802 4.01349 3.20646 4.01349 7.22833C4.01349 11.2713 6.63333 14.081 9.4613 14.081C12.2893 14.081 14.9091 11.2713 14.9091 7.22833C14.9105 3.20646 12.2119 1.21802 9.46271 1.21802ZM9.46271 13.7688C7.60927 13.7688 5.16099 12.0096 5.16099 8.70067C5.16099 5.41005 7.21974 5.50005 9.46271 5.50005C11.7057 5.50005 13.7644 5.41005 13.7644 8.70067C13.7644 12.0082 11.3147 13.7688 9.46271 13.7688Z" fill="url(#paint9_linear_101_4898)"/>
<path id="Vector_23" d="M9.61404 2.58483C9.61404 2.58483 7.58342 1.95343 5.72998 3.9489C3.95248 5.8628 4.50654 9.52046 4.50654 9.52046C4.50654 9.52046 4.3181 6.33249 6.41623 4.33702C8.25139 2.59046 9.61404 2.58483 9.61404 2.58483Z" fill="url(#paint10_linear_101_4898)"/>
<path id="Vector_24" d="M13.0261 5.31593C14.2101 6.46624 14.227 9.53187 14.227 9.53187C14.227 9.53187 15.1143 6.44515 13.4887 4.78156C12.1443 3.40484 10.2825 3.96171 10.2825 3.96171C10.2825 3.96171 11.7787 4.10374 13.0261 5.31593Z" fill="url(#paint11_linear_101_4898)"/>
<g id="Group_3" opacity="0.38">
<path id="Vector_25" d="M9.46271 1.49927C10.8268 1.49927 12.091 2.00271 13.0205 2.91536C14.0738 3.94896 14.6293 5.43958 14.6293 7.22833C14.6293 8.96786 14.1202 10.5766 13.1921 11.7902C13.7096 10.9732 14.0457 9.93958 14.0457 8.70208C14.0457 7.18333 13.5985 6.19755 12.6774 5.68567C11.9026 5.25536 10.914 5.2202 9.79599 5.2202H9.13224C7.23802 5.2202 4.88114 5.22021 4.88114 8.70208C4.88114 9.94099 5.21583 10.9732 5.73474 11.7902C4.80661 10.5766 4.29755 8.96786 4.29755 7.22833C4.29755 5.44099 4.85443 3.94896 5.9063 2.91536C6.83443 2.00271 8.09864 1.49927 9.46271 1.49927ZM9.46271 1.21802C6.71349 1.21802 4.01349 3.20646 4.01349 7.22833C4.01349 11.2713 6.63333 14.081 9.4613 14.081C12.2893 14.081 14.9091 11.2713 14.9091 7.22833C14.9105 3.20646 12.2119 1.21802 9.46271 1.21802ZM9.46271 5.50005H9.79458C11.8238 5.50005 13.7644 5.5802 13.7644 8.70067C13.7644 12.0082 11.2332 13.7688 9.46271 13.7688C7.69224 13.7688 5.16099 12.0082 5.16099 8.70067C5.16099 5.5802 7.10161 5.50005 9.13083 5.50005H9.46271Z" fill="url(#paint12_linear_101_4898)"/>
</g>
</g>
<defs>
<linearGradient id="paint0_linear_101_4898" x1="2.74549" y1="10.192" x2="4.75629" y2="14.5006" gradientUnits="userSpaceOnUse">
<stop stop-color="#646464"/>
<stop offset="1" stop-color="#444444"/>
</linearGradient>
<linearGradient id="paint1_linear_101_4898" x1="5.04764" y1="15.2285" x2="3.94992" y2="12.5685" gradientUnits="userSpaceOnUse">
<stop/>
<stop offset="1" stop-opacity="0"/>
</linearGradient>
<linearGradient id="paint2_linear_101_4898" x1="2.58384" y1="9.64925" x2="2.39484" y2="9.19123" gradientUnits="userSpaceOnUse">
<stop/>
<stop offset="1" stop-opacity="0"/>
</linearGradient>
<linearGradient id="paint3_linear_101_4898" x1="9.46259" y1="18.3094" x2="9.46259" y2="16.4801" gradientUnits="userSpaceOnUse">
<stop offset="0.17" stop-color="#646464"/>
<stop offset="1" stop-color="#757575"/>
</linearGradient>
<linearGradient id="paint4_linear_101_4898" x1="9.26783" y1="14.0743" x2="9.26783" y2="18.0717" gradientUnits="userSpaceOnUse">
<stop stop-color="#646464"/>
<stop offset="0.265" stop-color="#575757"/>
<stop offset="0.754" stop-color="#353535"/>
<stop offset="1" stop-color="#212121"/>
</linearGradient>
<linearGradient id="paint5_linear_101_4898" x1="9.46257" y1="13.7959" x2="9.46257" y2="16.9078" gradientUnits="userSpaceOnUse">
<stop offset="0.074" stop-color="#444444"/>
<stop offset="0.653" stop-color="#212121"/>
</linearGradient>
<linearGradient id="paint6_linear_101_4898" x1="11.998" y1="14.3173" x2="10.4415" y2="16.733" gradientUnits="userSpaceOnUse">
<stop stop-color="#646464"/>
<stop offset="1" stop-color="#444444"/>
</linearGradient>
<linearGradient id="paint7_linear_101_4898" x1="8.32404" y1="16.6956" x2="6.03354" y2="13.4065" gradientUnits="userSpaceOnUse">
<stop stop-color="#646464"/>
<stop offset="1" stop-color="#9E9E9E"/>
</linearGradient>
<linearGradient id="paint8_linear_101_4898" x1="9.46233" y1="10.6605" x2="9.46233" y2="14.0674" gradientUnits="userSpaceOnUse">
<stop offset="0.074" stop-color="#444444"/>
<stop offset="0.653" stop-color="#212121"/>
</linearGradient>
<linearGradient id="paint9_linear_101_4898" x1="9.46243" y1="1.29002" x2="9.46243" y2="13.9308" gradientUnits="userSpaceOnUse">
<stop offset="0.074" stop-color="#444444"/>
<stop offset="0.653" stop-color="#212121"/>
</linearGradient>
<linearGradient id="paint10_linear_101_4898" x1="5.1859" y1="6.64468" x2="8.2265" y2="2.89154" gradientUnits="userSpaceOnUse">
<stop stop-color="#0D0C0C"/>
<stop offset="1" stop-color="#0D0C0C" stop-opacity="0"/>
</linearGradient>
<linearGradient id="paint11_linear_101_4898" x1="13.4074" y1="6.61896" x2="11.317" y2="4.14846" gradientUnits="userSpaceOnUse">
<stop stop-color="#0D0C0C"/>
<stop offset="1" stop-color="#0D0C0C" stop-opacity="0"/>
</linearGradient>
<linearGradient id="paint12_linear_101_4898" x1="9.46243" y1="1.21802" x2="9.46243" y2="14.081" gradientUnits="userSpaceOnUse">
<stop stop-color="#BDBDBD"/>
<stop offset="1" stop-color="#646464"/>
</linearGradient>
<clipPath id="clip0_101_4898">
<rect width="18" height="18.75" fill="white" transform="translate(0.0127258 0.655518)"/>
</clipPath>
</defs>
</svg>
