<svg xmlns="http://www.w3.org/2000/svg" width="25" height="24" viewBox="0 0 25 24" fill="none">
  <path opacity="0.15" d="M2.32996 22.5749C2.32996 22.6964 2.59301 22.8167 3.1041 22.9289C3.61519 23.0411 4.36431 23.1431 5.30868 23.229C6.25305 23.3149 7.37418 23.383 8.60807 23.4295C9.84195 23.476 11.1644 23.4999 12.5 23.4999C13.8355 23.4999 15.158 23.476 16.3918 23.4295C17.6257 23.383 18.7469 23.3149 19.6912 23.229C20.6356 23.1431 21.3847 23.0411 21.8958 22.9289C22.4069 22.8167 22.67 22.6964 22.67 22.5749C22.67 22.3296 21.5985 22.0943 19.6912 21.9208C17.784 21.7474 15.1972 21.6499 12.5 21.6499C9.8027 21.6499 7.21593 21.7474 5.30868 21.9208C3.40144 22.0943 2.32996 22.3296 2.32996 22.5749Z" fill="#45413C"/>
  <path d="M3.86996 17H21.13C21.2931 17 21.4495 17.0648 21.5648 17.1801C21.6802 17.2955 21.745 17.4519 21.745 17.615V21.93C21.745 22.0122 21.7123 22.0911 21.6542 22.1492C21.596 22.2073 21.5172 22.24 21.435 22.24H3.56496C3.52425 22.24 3.48394 22.232 3.44633 22.2164C3.40872 22.2008 3.37455 22.178 3.34576 22.1492C3.31697 22.1204 3.29414 22.0862 3.27856 22.0486C3.26298 22.011 3.25496 21.9707 3.25496 21.93V17.625C3.25364 17.5434 3.26856 17.4624 3.29888 17.3866C3.32919 17.3108 3.37428 17.2418 3.43152 17.1837C3.48876 17.1255 3.55701 17.0793 3.63228 17.0478C3.70756 17.0162 3.78835 17 3.86996 17Z" fill="white" stroke="#45413C" stroke-width="0.5" stroke-linecap="round" stroke-linejoin="round"/>
  <path d="M4.17969 2.83496H20.8197V17.01H4.17969V2.83496Z" fill="white"/>
  <path d="M4.17969 2.83496H20.8197V4.14496H4.17969V2.83496Z" fill="#E0E0E0"/>
  <path d="M4.17969 2.83496H20.8197V17.01H4.17969V2.83496Z" stroke="#45413C" stroke-width="0.5" stroke-linecap="round" stroke-linejoin="round"/>
  <path d="M3.56543 1.29492H21.4404V2.83492H3.56543V1.29492Z" fill="#87898C"/>
  <path d="M20.8204 1.29492H4.18043C4.01732 1.29492 3.8609 1.35972 3.74556 1.47505C3.63023 1.59039 3.56543 1.74681 3.56543 1.90992V2.21992C3.56517 2.2988 3.58046 2.37696 3.61043 2.44992C3.65627 2.33626 3.73502 2.23888 3.83658 2.17028C3.93814 2.10169 4.05788 2.065 4.18043 2.06492H20.8204C20.943 2.065 21.0627 2.10169 21.1643 2.17028C21.2659 2.23888 21.3446 2.33626 21.3904 2.44992C21.4204 2.37696 21.4357 2.2988 21.4354 2.21992V1.90992C21.4354 1.74681 21.3706 1.59039 21.2553 1.47505C21.14 1.35972 20.9835 1.29492 20.8204 1.29492Z" fill="#BDBEC0"/>
  <path d="M3.56543 1.29492H21.4404V2.83492H3.56543V1.29492Z" stroke="#45413C" stroke-width="0.5" stroke-linecap="round" stroke-linejoin="round"/>
  <path d="M10.035 18.2451H14.965V22.2501H10.035V18.2451Z" fill="#00B8F0"/>
  <path d="M11 22.2501H13.37L14.965 18.2451H12.595L11 22.2501Z" fill="#4ACFFF"/>
  <path d="M10.035 18.2451H14.965V22.2501H10.035V18.2451Z" stroke="#45413C" stroke-width="0.5" stroke-linecap="round" stroke-linejoin="round"/>
  <path d="M5.71973 18.55H7.56973V20.705H5.71973V18.55Z" fill="#00B8F0"/>
  <path d="M6.36499 20.71H7.56999V18.55H7.22499L6.36499 20.71Z" fill="#4ACFFF"/>
  <path d="M6.03027 13.3149H7.88027V15.4699H6.03027V13.3149Z" fill="#00B8F0"/>
  <path d="M6.67004 15.4699H7.87504V13.3149H7.53004L6.67004 15.4699Z" fill="#4ACFFF"/>
  <path d="M17.125 13.3149H18.975V15.4699H17.125V13.3149Z" fill="#00B8F0"/>
  <path d="M17.7646 15.4699H18.9696V13.3149H18.6246L17.7646 15.4699Z" fill="#4ACFFF"/>
  <path d="M13.425 13.3149H15.275V15.4699H13.425V13.3149Z" fill="#00B8F0"/>
  <path d="M14.0703 15.4699H15.2753V13.3149H14.9253L14.0703 15.4699Z" fill="#4ACFFF"/>
  <path d="M9.72461 13.3149H11.5746V15.4699H9.72461V13.3149Z" fill="#00B8F0"/>
  <path d="M10.37 15.4699H11.575V13.3149H11.23L10.37 15.4699Z" fill="#4ACFFF"/>
  <path d="M6.03027 9H7.88027V11.155H6.03027V9Z" fill="#00B8F0"/>
  <path d="M6.67004 11.155H7.87504V9H7.53004L6.67004 11.155Z" fill="#4ACFFF"/>
  <path d="M17.125 9H18.975V11.155H17.125V9Z" fill="#00B8F0"/>
  <path d="M17.7646 11.155H18.9696V9H18.6246L17.7646 11.155Z" fill="#4ACFFF"/>
  <path d="M13.425 9H15.275V11.155H13.425V9Z" fill="#00B8F0"/>
  <path d="M14.0703 11.155H15.2753V9H14.9253L14.0703 11.155Z" fill="#4ACFFF"/>
  <path d="M9.72461 9H11.5746V11.155H9.72461V9Z" fill="#00B8F0"/>
  <path d="M10.37 11.155H11.575V9H11.23L10.37 11.155Z" fill="#4ACFFF"/>
  <path d="M6.03027 4.68506H7.88027V6.84006H6.03027V4.68506Z" fill="#00B8F0"/>
  <path d="M6.67004 6.84006H7.87504V4.68506H7.53004L6.67004 6.84006Z" fill="#4ACFFF"/>
  <path d="M17.125 4.68506H18.975V6.84006H17.125V4.68506Z" fill="#00B8F0"/>
  <path d="M17.7646 6.84006H18.9696V4.68506H18.6246L17.7646 6.84006Z" fill="#4ACFFF"/>
  <path d="M13.425 4.68506H15.275V6.84006H13.425V4.68506Z" fill="#00B8F0"/>
  <path d="M14.0703 6.84006H15.2753V4.68506H14.9253L14.0703 6.84006Z" fill="#4ACFFF"/>
  <path d="M9.72461 4.68506H11.5746V6.84006H9.72461V4.68506Z" fill="#00B8F0"/>
  <path d="M10.37 6.84006H11.575V4.68506H11.23L10.37 6.84006Z" fill="#4ACFFF"/>
  <path d="M6.03027 13.3151H7.88027V15.4701H6.03027V13.3151ZM17.1253 13.3151H18.9753V15.4701H17.1253V13.3151ZM13.4253 13.3151H15.2753V15.4701H13.4253V13.3151ZM9.72527 13.3151H11.5753V15.4701H9.72527V13.3151ZM6.03027 9.00006H7.88027V11.1551H6.03027V9.00006ZM17.1253 9.00006H18.9753V11.1551H17.1253V9.00006ZM13.4253 9.00006H15.2753V11.1551H13.4253V9.00006ZM9.72527 9.00006H11.5753V11.1551H9.72527V9.00006ZM6.03027 4.68506H7.88027V6.84006H6.03027V4.68506ZM17.1253 4.68506H18.9753V6.84006H17.1253V4.68506ZM13.4253 4.68506H15.2753V6.84006H13.4253V4.68506ZM9.72527 4.68506H11.5753V6.84006H9.72527V4.68506Z" stroke="#45413C" stroke-width="0.5" stroke-linecap="round" stroke-linejoin="round"/>
  <path d="M17.4297 18.55H19.2797V20.705H17.4297V18.55Z" fill="#00B8F0"/>
  <path d="M18.085 20.71H19.295V18.55H18.945L18.085 20.71Z" fill="#4ACFFF"/>
  <path d="M12.4997 18.2451V22.2501M5.71973 18.5501H7.56973V20.7051H5.71973V18.5501ZM17.4297 18.5501H19.2797V20.7051H17.4297V18.5501Z" stroke="#45413C" stroke-width="0.5" stroke-linecap="round" stroke-linejoin="round"/>
  <path d="M9.30469 16.7051H15.6997V18.2451H9.30469V16.7051Z" fill="#87898C"/>
  <path d="M15.0797 16.7051H9.91969C9.75658 16.7051 9.60015 16.7699 9.48482 16.8852C9.36948 17.0005 9.30469 17.157 9.30469 17.3201V17.6251C9.30541 17.705 9.31891 17.7844 9.34469 17.8601C9.3957 17.7511 9.47709 17.6591 9.57909 17.5953C9.68109 17.5314 9.79936 17.4984 9.91969 17.5001H15.0797C15.2022 17.5002 15.322 17.5368 15.4235 17.6054C15.5251 17.674 15.6039 17.7714 15.6497 17.8851C15.6803 17.8106 15.6956 17.7306 15.6947 17.6501V17.3451C15.6981 17.2622 15.6846 17.1796 15.6552 17.102C15.6259 17.0245 15.5811 16.9537 15.5236 16.894C15.4662 16.8342 15.3973 16.7866 15.321 16.7542C15.2447 16.7217 15.1626 16.705 15.0797 16.7051Z" fill="#BDBEC0"/>
  <path d="M9.30469 16.7051H15.6997V18.2451H9.30469V16.7051Z" stroke="#45413C" stroke-width="0.5" stroke-linecap="round" stroke-linejoin="round"/>
</svg>